%TF.GenerationSoftware,KiCad,Pcbnew,10.0.3*%
%TF.CreationDate,2026-08-31T03:07:44+08:00*%
%TF.ProjectId,daughter,64617567-6874-4657-922e-6b696361645f,rev?*%
%TF.SameCoordinates,Original*%
%TF.FileFunction,Legend,Top*%
%TF.FilePolarity,Positive*%
%FSLAX46Y46*%
G04 Gerber Fmt 4.6, Leading zero omitted, Abs format (unit mm)*
G04 Created by KiCad (PCBNEW 10.0.3) date 2026-08-31 03:07:44*
%MOMM*%
%LPD*%
G01*
G04 APERTURE LIST*
%ADD10C,0.130000*%
%ADD11C,0.150000*%
%ADD12C,0.120000*%
G04 APERTURE END LIST*
D10*
X128434985Y-143348036D02*
X128434985Y-143848036D01*
X128184985Y-143598036D02*
X128684985Y-143598036D01*
X126255000Y-142474999D02*
X126255000Y-142474999D01*
G75*
G02*
X127055000Y-141674999I800000J-1D01*
G01*
X129865000Y-141674999D01*
G75*
G02*
X130665000Y-142474999I0J-800001D01*
G01*
X130665000Y-143335000D01*
G75*
G02*
X129865000Y-144135000I-800000J0D01*
G01*
X127055000Y-144135000D01*
G75*
G02*
X126255000Y-143335000I0J800000D01*
G01*
X126255000Y-142474999D01*
D11*
X113889819Y-151197628D02*
X114699342Y-151197628D01*
X114699342Y-151197628D02*
X114794580Y-151150009D01*
X114794580Y-151150009D02*
X114842200Y-151102390D01*
X114842200Y-151102390D02*
X114889819Y-151007152D01*
X114889819Y-151007152D02*
X114889819Y-150816676D01*
X114889819Y-150816676D02*
X114842200Y-150721438D01*
X114842200Y-150721438D02*
X114794580Y-150673819D01*
X114794580Y-150673819D02*
X114699342Y-150626200D01*
X114699342Y-150626200D02*
X113889819Y-150626200D01*
X113985057Y-150197628D02*
X113937438Y-150150009D01*
X113937438Y-150150009D02*
X113889819Y-150054771D01*
X113889819Y-150054771D02*
X113889819Y-149816676D01*
X113889819Y-149816676D02*
X113937438Y-149721438D01*
X113937438Y-149721438D02*
X113985057Y-149673819D01*
X113985057Y-149673819D02*
X114080295Y-149626200D01*
X114080295Y-149626200D02*
X114175533Y-149626200D01*
X114175533Y-149626200D02*
X114318390Y-149673819D01*
X114318390Y-149673819D02*
X114889819Y-150245247D01*
X114889819Y-150245247D02*
X114889819Y-149626200D01*
X129213333Y-155715543D02*
X128880000Y-155239352D01*
X128641905Y-155715543D02*
X128641905Y-154715543D01*
X128641905Y-154715543D02*
X129022857Y-154715543D01*
X129022857Y-154715543D02*
X129118095Y-154763162D01*
X129118095Y-154763162D02*
X129165714Y-154810781D01*
X129165714Y-154810781D02*
X129213333Y-154906019D01*
X129213333Y-154906019D02*
X129213333Y-155048876D01*
X129213333Y-155048876D02*
X129165714Y-155144114D01*
X129165714Y-155144114D02*
X129118095Y-155191733D01*
X129118095Y-155191733D02*
X129022857Y-155239352D01*
X129022857Y-155239352D02*
X128641905Y-155239352D01*
X130070476Y-155048876D02*
X130070476Y-155715543D01*
X129832381Y-154667924D02*
X129594286Y-155382209D01*
X129594286Y-155382209D02*
X130213333Y-155382209D01*
X122188333Y-153289819D02*
X121855000Y-152813628D01*
X121616905Y-153289819D02*
X121616905Y-152289819D01*
X121616905Y-152289819D02*
X121997857Y-152289819D01*
X121997857Y-152289819D02*
X122093095Y-152337438D01*
X122093095Y-152337438D02*
X122140714Y-152385057D01*
X122140714Y-152385057D02*
X122188333Y-152480295D01*
X122188333Y-152480295D02*
X122188333Y-152623152D01*
X122188333Y-152623152D02*
X122140714Y-152718390D01*
X122140714Y-152718390D02*
X122093095Y-152766009D01*
X122093095Y-152766009D02*
X121997857Y-152813628D01*
X121997857Y-152813628D02*
X121616905Y-152813628D01*
X123140714Y-153289819D02*
X122569286Y-153289819D01*
X122855000Y-153289819D02*
X122855000Y-152289819D01*
X122855000Y-152289819D02*
X122759762Y-152432676D01*
X122759762Y-152432676D02*
X122664524Y-152527914D01*
X122664524Y-152527914D02*
X122569286Y-152575533D01*
X114995057Y-145045962D02*
X114947438Y-145141200D01*
X114947438Y-145141200D02*
X114852200Y-145236438D01*
X114852200Y-145236438D02*
X114709342Y-145379295D01*
X114709342Y-145379295D02*
X114661723Y-145474533D01*
X114661723Y-145474533D02*
X114661723Y-145569771D01*
X114899819Y-145522152D02*
X114852200Y-145617390D01*
X114852200Y-145617390D02*
X114756961Y-145712628D01*
X114756961Y-145712628D02*
X114566485Y-145760247D01*
X114566485Y-145760247D02*
X114233152Y-145760247D01*
X114233152Y-145760247D02*
X114042676Y-145712628D01*
X114042676Y-145712628D02*
X113947438Y-145617390D01*
X113947438Y-145617390D02*
X113899819Y-145522152D01*
X113899819Y-145522152D02*
X113899819Y-145331676D01*
X113899819Y-145331676D02*
X113947438Y-145236438D01*
X113947438Y-145236438D02*
X114042676Y-145141200D01*
X114042676Y-145141200D02*
X114233152Y-145093581D01*
X114233152Y-145093581D02*
X114566485Y-145093581D01*
X114566485Y-145093581D02*
X114756961Y-145141200D01*
X114756961Y-145141200D02*
X114852200Y-145236438D01*
X114852200Y-145236438D02*
X114899819Y-145331676D01*
X114899819Y-145331676D02*
X114899819Y-145522152D01*
X114899819Y-144141200D02*
X114899819Y-144712628D01*
X114899819Y-144426914D02*
X113899819Y-144426914D01*
X113899819Y-144426914D02*
X114042676Y-144522152D01*
X114042676Y-144522152D02*
X114137914Y-144617390D01*
X114137914Y-144617390D02*
X114185533Y-144712628D01*
X115103333Y-155565543D02*
X114770000Y-155089352D01*
X114531905Y-155565543D02*
X114531905Y-154565543D01*
X114531905Y-154565543D02*
X114912857Y-154565543D01*
X114912857Y-154565543D02*
X115008095Y-154613162D01*
X115008095Y-154613162D02*
X115055714Y-154660781D01*
X115055714Y-154660781D02*
X115103333Y-154756019D01*
X115103333Y-154756019D02*
X115103333Y-154898876D01*
X115103333Y-154898876D02*
X115055714Y-154994114D01*
X115055714Y-154994114D02*
X115008095Y-155041733D01*
X115008095Y-155041733D02*
X114912857Y-155089352D01*
X114912857Y-155089352D02*
X114531905Y-155089352D01*
X115484286Y-154660781D02*
X115531905Y-154613162D01*
X115531905Y-154613162D02*
X115627143Y-154565543D01*
X115627143Y-154565543D02*
X115865238Y-154565543D01*
X115865238Y-154565543D02*
X115960476Y-154613162D01*
X115960476Y-154613162D02*
X116008095Y-154660781D01*
X116008095Y-154660781D02*
X116055714Y-154756019D01*
X116055714Y-154756019D02*
X116055714Y-154851257D01*
X116055714Y-154851257D02*
X116008095Y-154994114D01*
X116008095Y-154994114D02*
X115436667Y-155565543D01*
X115436667Y-155565543D02*
X116055714Y-155565543D01*
X128416905Y-145399819D02*
X128416905Y-144399819D01*
X128416905Y-144399819D02*
X128655000Y-144399819D01*
X128655000Y-144399819D02*
X128797857Y-144447438D01*
X128797857Y-144447438D02*
X128893095Y-144542676D01*
X128893095Y-144542676D02*
X128940714Y-144637914D01*
X128940714Y-144637914D02*
X128988333Y-144828390D01*
X128988333Y-144828390D02*
X128988333Y-144971247D01*
X128988333Y-144971247D02*
X128940714Y-145161723D01*
X128940714Y-145161723D02*
X128893095Y-145256961D01*
X128893095Y-145256961D02*
X128797857Y-145352200D01*
X128797857Y-145352200D02*
X128655000Y-145399819D01*
X128655000Y-145399819D02*
X128416905Y-145399819D01*
X129940714Y-145399819D02*
X129369286Y-145399819D01*
X129655000Y-145399819D02*
X129655000Y-144399819D01*
X129655000Y-144399819D02*
X129559762Y-144542676D01*
X129559762Y-144542676D02*
X129464524Y-144637914D01*
X129464524Y-144637914D02*
X129369286Y-144685533D01*
X117389819Y-144696904D02*
X116389819Y-144696904D01*
X117389819Y-144125476D02*
X116818390Y-144554047D01*
X116389819Y-144125476D02*
X116961247Y-144696904D01*
X118658333Y-148069819D02*
X118325000Y-147593628D01*
X118086905Y-148069819D02*
X118086905Y-147069819D01*
X118086905Y-147069819D02*
X118467857Y-147069819D01*
X118467857Y-147069819D02*
X118563095Y-147117438D01*
X118563095Y-147117438D02*
X118610714Y-147165057D01*
X118610714Y-147165057D02*
X118658333Y-147260295D01*
X118658333Y-147260295D02*
X118658333Y-147403152D01*
X118658333Y-147403152D02*
X118610714Y-147498390D01*
X118610714Y-147498390D02*
X118563095Y-147546009D01*
X118563095Y-147546009D02*
X118467857Y-147593628D01*
X118467857Y-147593628D02*
X118086905Y-147593628D01*
X118991667Y-147069819D02*
X119610714Y-147069819D01*
X119610714Y-147069819D02*
X119277381Y-147450771D01*
X119277381Y-147450771D02*
X119420238Y-147450771D01*
X119420238Y-147450771D02*
X119515476Y-147498390D01*
X119515476Y-147498390D02*
X119563095Y-147546009D01*
X119563095Y-147546009D02*
X119610714Y-147641247D01*
X119610714Y-147641247D02*
X119610714Y-147879342D01*
X119610714Y-147879342D02*
X119563095Y-147974580D01*
X119563095Y-147974580D02*
X119515476Y-148022200D01*
X119515476Y-148022200D02*
X119420238Y-148069819D01*
X119420238Y-148069819D02*
X119134524Y-148069819D01*
X119134524Y-148069819D02*
X119039286Y-148022200D01*
X119039286Y-148022200D02*
X118991667Y-147974580D01*
X130574580Y-147372390D02*
X130622200Y-147420009D01*
X130622200Y-147420009D02*
X130669819Y-147562866D01*
X130669819Y-147562866D02*
X130669819Y-147658104D01*
X130669819Y-147658104D02*
X130622200Y-147800961D01*
X130622200Y-147800961D02*
X130526961Y-147896199D01*
X130526961Y-147896199D02*
X130431723Y-147943818D01*
X130431723Y-147943818D02*
X130241247Y-147991437D01*
X130241247Y-147991437D02*
X130098390Y-147991437D01*
X130098390Y-147991437D02*
X129907914Y-147943818D01*
X129907914Y-147943818D02*
X129812676Y-147896199D01*
X129812676Y-147896199D02*
X129717438Y-147800961D01*
X129717438Y-147800961D02*
X129669819Y-147658104D01*
X129669819Y-147658104D02*
X129669819Y-147562866D01*
X129669819Y-147562866D02*
X129717438Y-147420009D01*
X129717438Y-147420009D02*
X129765057Y-147372390D01*
X130098390Y-146800961D02*
X130050771Y-146896199D01*
X130050771Y-146896199D02*
X130003152Y-146943818D01*
X130003152Y-146943818D02*
X129907914Y-146991437D01*
X129907914Y-146991437D02*
X129860295Y-146991437D01*
X129860295Y-146991437D02*
X129765057Y-146943818D01*
X129765057Y-146943818D02*
X129717438Y-146896199D01*
X129717438Y-146896199D02*
X129669819Y-146800961D01*
X129669819Y-146800961D02*
X129669819Y-146610485D01*
X129669819Y-146610485D02*
X129717438Y-146515247D01*
X129717438Y-146515247D02*
X129765057Y-146467628D01*
X129765057Y-146467628D02*
X129860295Y-146420009D01*
X129860295Y-146420009D02*
X129907914Y-146420009D01*
X129907914Y-146420009D02*
X130003152Y-146467628D01*
X130003152Y-146467628D02*
X130050771Y-146515247D01*
X130050771Y-146515247D02*
X130098390Y-146610485D01*
X130098390Y-146610485D02*
X130098390Y-146800961D01*
X130098390Y-146800961D02*
X130146009Y-146896199D01*
X130146009Y-146896199D02*
X130193628Y-146943818D01*
X130193628Y-146943818D02*
X130288866Y-146991437D01*
X130288866Y-146991437D02*
X130479342Y-146991437D01*
X130479342Y-146991437D02*
X130574580Y-146943818D01*
X130574580Y-146943818D02*
X130622200Y-146896199D01*
X130622200Y-146896199D02*
X130669819Y-146800961D01*
X130669819Y-146800961D02*
X130669819Y-146610485D01*
X130669819Y-146610485D02*
X130622200Y-146515247D01*
X130622200Y-146515247D02*
X130574580Y-146467628D01*
X130574580Y-146467628D02*
X130479342Y-146420009D01*
X130479342Y-146420009D02*
X130288866Y-146420009D01*
X130288866Y-146420009D02*
X130193628Y-146467628D01*
X130193628Y-146467628D02*
X130146009Y-146515247D01*
X130146009Y-146515247D02*
X130098390Y-146610485D01*
X128281666Y-158690543D02*
X128281666Y-159404828D01*
X128281666Y-159404828D02*
X128234047Y-159547685D01*
X128234047Y-159547685D02*
X128138809Y-159642924D01*
X128138809Y-159642924D02*
X127995952Y-159690543D01*
X127995952Y-159690543D02*
X127900714Y-159690543D01*
X128662619Y-158690543D02*
X129281666Y-158690543D01*
X129281666Y-158690543D02*
X128948333Y-159071495D01*
X128948333Y-159071495D02*
X129091190Y-159071495D01*
X129091190Y-159071495D02*
X129186428Y-159119114D01*
X129186428Y-159119114D02*
X129234047Y-159166733D01*
X129234047Y-159166733D02*
X129281666Y-159261971D01*
X129281666Y-159261971D02*
X129281666Y-159500066D01*
X129281666Y-159500066D02*
X129234047Y-159595304D01*
X129234047Y-159595304D02*
X129186428Y-159642924D01*
X129186428Y-159642924D02*
X129091190Y-159690543D01*
X129091190Y-159690543D02*
X128805476Y-159690543D01*
X128805476Y-159690543D02*
X128710238Y-159642924D01*
X128710238Y-159642924D02*
X128662619Y-159595304D01*
%TO.C,U2*%
D12*
X116187500Y-148725724D02*
X118007500Y-148725724D01*
X116187500Y-148775724D02*
X116187500Y-148725724D01*
X116187500Y-151845724D02*
X116187500Y-151795724D01*
X118007500Y-148725724D02*
X118007500Y-148775724D01*
X118007500Y-151795724D02*
X118007500Y-151845724D01*
X118007500Y-151845724D02*
X116187500Y-151845724D01*
X115647500Y-148775724D02*
X115407500Y-148445724D01*
X115887500Y-148445724D01*
X115647500Y-148775724D01*
G36*
X115647500Y-148775724D02*
G01*
X115407500Y-148445724D01*
X115887500Y-148445724D01*
X115647500Y-148775724D01*
G37*
%TO.C,R4*%
X124900000Y-152340724D02*
X128740000Y-152340724D01*
X124900000Y-154180724D02*
X128740000Y-154180724D01*
%TO.C,R1*%
X124605000Y-150035724D02*
X120765000Y-150035724D01*
X124605000Y-151875724D02*
X120765000Y-151875724D01*
%TO.C,Q1*%
X115242500Y-145150724D02*
X116762500Y-145150724D01*
X115242500Y-146150724D02*
X115242500Y-145150724D01*
X115242500Y-148270724D02*
X115242500Y-147270724D01*
X116762500Y-145150724D02*
X116762500Y-145200724D01*
X116762500Y-146320724D02*
X116762500Y-147100724D01*
X116762500Y-148220724D02*
X116762500Y-148270724D01*
X116762500Y-148270724D02*
X115242500Y-148270724D01*
X117302500Y-147090724D02*
X117062500Y-146760724D01*
X117542500Y-146760724D01*
X117302500Y-147090724D01*
G36*
X117302500Y-147090724D02*
G01*
X117062500Y-146760724D01*
X117542500Y-146760724D01*
X117302500Y-147090724D01*
G37*
%TO.C,R2*%
X115890000Y-152190724D02*
X119730000Y-152190724D01*
X115890000Y-154030724D02*
X119730000Y-154030724D01*
%TO.C,D1*%
X120410000Y-144150724D02*
X125850000Y-144150724D01*
X120410000Y-144280724D02*
X120410000Y-144150724D01*
X120410000Y-146960724D02*
X120410000Y-147090724D01*
X120410000Y-147090724D02*
X125850000Y-147090724D01*
X121190000Y-144150724D02*
X121190000Y-147090724D01*
X121310000Y-144150724D02*
X121310000Y-147090724D01*
X121430000Y-144150724D02*
X121430000Y-147090724D01*
X125850000Y-144150724D02*
X125850000Y-144280724D01*
X125850000Y-147090724D02*
X125850000Y-146960724D01*
%TO.C,R3*%
X120745000Y-147915724D02*
X124585000Y-147915724D01*
X120745000Y-149755724D02*
X124585000Y-149755724D01*
%TO.C,C8*%
X130565000Y-149905724D02*
G75*
G02*
X126325000Y-149905724I-2120000J0D01*
G01*
X126325000Y-149905724D02*
G75*
G02*
X130565000Y-149905724I2120000J0D01*
G01*
%TO.C,J3*%
X117605000Y-159105724D02*
X117605000Y-157405724D01*
X126945000Y-159105724D02*
X126945000Y-157405724D01*
%TD*%
M02*
