M48
; DRILL file KiCad 10.0.3 date 2026-08-31T03:07:48
; FORMAT={-:-/ absolute / metric / decimal}
; #@! TF.CreationDate,2026-08-31T03:07:48+08:00
; #@! TF.GenerationSoftware,Kicad,Pcbnew,10.0.3
; #@! TF.FileFunction,Plated,1,2,PTH
FMAT,2
METRIC
; #@! TA.AperFunction,Plated,PTH,ViaDrill
T1C0.300
; #@! TA.AperFunction,Plated,PTH,ViaDrill
T2C0.400
; #@! TA.AperFunction,Plated,PTH,ComponentDrill
T3C0.600
; #@! TA.AperFunction,Plated,PTH,ComponentDrill
T4C0.700
; #@! TA.AperFunction,Plated,PTH,ComponentDrill
T5C1.100
%
G90
G05
T1
X117.072Y-150.297
X118.49Y-143.401
X118.76Y-143.981
X120.45Y-159.481
X120.92Y-146.426
X121.7Y-154.021
X122.555Y-148.316
X124.17Y-159.481
X124.425Y-146.256
X125.56Y-153.061
X127.315Y-149.216
X128.66Y-142.741
X130.13Y-144.401
T2
X114.697Y-147.541
X116.996Y-148.645
X118.235Y-152.616
X128.69Y-146.281
T3
X128.445Y-149.156
X128.445Y-150.656
T4
X115.27Y-153.111
X120.125Y-148.836
X120.145Y-150.956
X120.35Y-153.111
X124.28Y-153.261
X125.205Y-148.836
X125.225Y-150.956
X129.36Y-153.261
T5
X119.32Y-145.621
X126.94Y-145.621
T3
G00X117.955Y-155.551
M15
G01X117.955Y-156.651
M16
G05
G00X117.955Y-159.881
M15
G01X117.955Y-160.681
M16
G05
G00X126.595Y-155.551
M15
G01X126.595Y-156.651
M16
G05
G00X126.595Y-159.881
M15
G01X126.595Y-160.681
M16
G05
M30
