%TF.GenerationSoftware,KiCad,Pcbnew,10.0.3*%
%TF.CreationDate,2026-08-31T03:07:44+08:00*%
%TF.ProjectId,daughter,64617567-6874-4657-922e-6b696361645f,rev?*%
%TF.SameCoordinates,Original*%
%TF.FileFunction,Copper,L2,Bot*%
%TF.FilePolarity,Positive*%
%FSLAX46Y46*%
G04 Gerber Fmt 4.6, Leading zero omitted, Abs format (unit mm)*
G04 Created by KiCad (PCBNEW 10.0.3) date 2026-08-31 03:07:44*
%MOMM*%
%LPD*%
G01*
G04 APERTURE LIST*
G04 Aperture macros list*
%AMRoundRect*
0 Rectangle with rounded corners*
0 $1 Rounding radius*
0 $2 $3 $4 $5 $6 $7 $8 $9 X,Y pos of 4 corners*
0 Add a 4 corners polygon primitive as box body*
4,1,4,$2,$3,$4,$5,$6,$7,$8,$9,$2,$3,0*
0 Add four circle primitives for the rounded corners*
1,1,$1+$1,$2,$3*
1,1,$1+$1,$4,$5*
1,1,$1+$1,$6,$7*
1,1,$1+$1,$8,$9*
0 Add four rect primitives between the rounded corners*
20,1,$1+$1,$2,$3,$4,$5,0*
20,1,$1+$1,$4,$5,$6,$7,0*
20,1,$1+$1,$6,$7,$8,$9,0*
20,1,$1+$1,$8,$9,$2,$3,0*%
G04 Aperture macros list end*
%TA.AperFunction,ComponentPad*%
%ADD10C,1.400000*%
%TD*%
%TA.AperFunction,ComponentPad*%
%ADD11RoundRect,0.249999X-0.850001X-0.850001X0.850001X-0.850001X0.850001X0.850001X-0.850001X0.850001X0*%
%TD*%
%TA.AperFunction,ComponentPad*%
%ADD12C,2.200000*%
%TD*%
%TA.AperFunction,ComponentPad*%
%ADD13C,1.200000*%
%TD*%
%TA.AperFunction,ComponentPad*%
%ADD14O,1.000000X2.100000*%
%TD*%
%TA.AperFunction,ComponentPad*%
%ADD15O,1.000000X1.800000*%
%TD*%
%TA.AperFunction,ViaPad*%
%ADD16C,0.600000*%
%TD*%
%TA.AperFunction,ViaPad*%
%ADD17C,0.800000*%
%TD*%
%TA.AperFunction,Conductor*%
%ADD18C,0.800000*%
%TD*%
%TA.AperFunction,Conductor*%
%ADD19C,0.270000*%
%TD*%
G04 APERTURE END LIST*
D10*
%TO.P,R4,1*%
%TO.N,Net-(J3-CC2)*%
X124280000Y-153260724D03*
%TO.P,R4,2*%
%TO.N,GND_sub*%
X129360000Y-153260724D03*
%TD*%
%TO.P,R1,1*%
%TO.N,GND_sub*%
X125225000Y-150955724D03*
%TO.P,R1,2*%
%TO.N,Net-(U2-PROG)*%
X120145000Y-150955724D03*
%TD*%
%TO.P,R2,1*%
%TO.N,GND_sub*%
X115270000Y-153110724D03*
%TO.P,R2,2*%
%TO.N,Net-(J3-CC1)*%
X120350000Y-153110724D03*
%TD*%
D11*
%TO.P,D1,1,K_1*%
%TO.N,/VSYS_sub*%
X119320000Y-145620724D03*
D12*
%TO.P,D1,2,A_2*%
%TO.N,/VBUS*%
X126940000Y-145620724D03*
%TD*%
D10*
%TO.P,R3,1*%
%TO.N,GND_sub*%
X120125000Y-148835724D03*
%TO.P,R3,2*%
%TO.N,/VBUS*%
X125205000Y-148835724D03*
%TD*%
D13*
%TO.P,C8,1*%
%TO.N,/VBUS*%
X128445000Y-150655724D03*
%TO.P,C8,2*%
%TO.N,GND_sub*%
X128445000Y-149155724D03*
%TD*%
D14*
%TO.P,J3,SH,SHIELD_SH*%
%TO.N,GND_sub*%
X117955000Y-156100724D03*
D15*
X117955000Y-160280724D03*
D14*
X126595000Y-156100724D03*
D15*
X126595000Y-160280724D03*
%TD*%
D16*
%TO.N,GND_sub*%
X118760000Y-143980724D03*
D17*
%TO.N,/VBUS*%
X118235000Y-152615724D03*
D16*
%TO.N,GND_sub*%
X128660000Y-142740724D03*
X117072500Y-150296587D03*
X125560000Y-153060724D03*
X120920000Y-146425724D03*
X121700000Y-154020724D03*
X130130000Y-144400724D03*
D17*
%TO.N,/BAT+*%
X114697500Y-147540724D03*
D16*
%TO.N,GND_sub*%
X118490000Y-143400724D03*
X120450000Y-159480724D03*
X122555000Y-148315724D03*
X124170000Y-159480724D03*
X124425000Y-146255724D03*
D17*
%TO.N,/VBUS*%
X116996000Y-148644590D03*
D16*
%TO.N,GND_sub*%
X127315000Y-149215724D03*
D17*
%TO.N,/BAT+*%
X128690000Y-146280724D03*
%TD*%
%TO.N,/BAT+*%
D18*
X122715000Y-147325724D02*
X114912500Y-147325724D01*
X114912500Y-147325724D02*
X114697500Y-147540724D01*
%TO.N,/VBUS*%
X118235000Y-151755724D02*
X118215000Y-151735724D01*
X118215000Y-149305724D02*
X117553866Y-148644590D01*
%TO.N,/BAT+*%
X127645000Y-147325724D02*
X124275000Y-147325724D01*
%TO.N,/VBUS*%
X118235000Y-152615724D02*
X118235000Y-151755724D01*
X117553866Y-148644590D02*
X116996000Y-148644590D01*
X118215000Y-151735724D02*
X118215000Y-149305724D01*
%TO.N,/BAT+*%
X126225836Y-147310724D02*
X126235836Y-147320724D01*
X125000000Y-147320724D02*
X125010000Y-147310724D01*
X128690000Y-146280724D02*
X127645000Y-147325724D01*
X125010000Y-147310724D02*
X126225836Y-147310724D01*
D19*
X122705000Y-147325724D02*
X124255000Y-147325724D01*
%TD*%
%TA.AperFunction,Conductor*%
%TO.N,GND_sub*%
G36*
X129779843Y-141731701D02*
G01*
X129911514Y-141744669D01*
X129930549Y-141748455D01*
X130052494Y-141785446D01*
X130070418Y-141792871D01*
X130182804Y-141852942D01*
X130198931Y-141863718D01*
X130268239Y-141920597D01*
X130297439Y-141944561D01*
X130311162Y-141958284D01*
X130392002Y-142056787D01*
X130402784Y-142072924D01*
X130462851Y-142185303D01*
X130470278Y-142203233D01*
X130507268Y-142325174D01*
X130511054Y-142344208D01*
X130524023Y-142475879D01*
X130524500Y-142485583D01*
X130524500Y-160475864D01*
X130524023Y-160485567D01*
X130524023Y-160485568D01*
X130511054Y-160617239D01*
X130507268Y-160636273D01*
X130470278Y-160758214D01*
X130462851Y-160776144D01*
X130402784Y-160888523D01*
X130392002Y-160904660D01*
X130311162Y-161003163D01*
X130297439Y-161016886D01*
X130198936Y-161097726D01*
X130182799Y-161108508D01*
X130070420Y-161168575D01*
X130052490Y-161176002D01*
X129930549Y-161212992D01*
X129911515Y-161216778D01*
X129791223Y-161228626D01*
X129779842Y-161229747D01*
X129770140Y-161230224D01*
X114779860Y-161230224D01*
X114770157Y-161229747D01*
X114757395Y-161228490D01*
X114638484Y-161216778D01*
X114619450Y-161212992D01*
X114497509Y-161176002D01*
X114479579Y-161168575D01*
X114367200Y-161108508D01*
X114351065Y-161097727D01*
X114301811Y-161057306D01*
X114252560Y-161016886D01*
X114238837Y-161003163D01*
X114214873Y-160973963D01*
X114157994Y-160904655D01*
X114147218Y-160888528D01*
X114087147Y-160776142D01*
X114079721Y-160758214D01*
X114042731Y-160636273D01*
X114038945Y-160617238D01*
X114025977Y-160485567D01*
X114025500Y-160475864D01*
X114025500Y-156524958D01*
X118809500Y-156524958D01*
X118809500Y-156676490D01*
X118844086Y-156805571D01*
X118848720Y-156822863D01*
X118924481Y-156954084D01*
X118924483Y-156954086D01*
X118924485Y-156954089D01*
X119031635Y-157061239D01*
X119031637Y-157061240D01*
X119031639Y-157061242D01*
X119162861Y-157137003D01*
X119162859Y-157137003D01*
X119162863Y-157137004D01*
X119162865Y-157137005D01*
X119309234Y-157176224D01*
X119309236Y-157176224D01*
X119460764Y-157176224D01*
X119460766Y-157176224D01*
X119607135Y-157137005D01*
X119607137Y-157137003D01*
X119607139Y-157137003D01*
X119738360Y-157061242D01*
X119738360Y-157061241D01*
X119738365Y-157061239D01*
X119845515Y-156954089D01*
X119921281Y-156822859D01*
X119960500Y-156676490D01*
X119960500Y-156524958D01*
X124589500Y-156524958D01*
X124589500Y-156676490D01*
X124624086Y-156805571D01*
X124628720Y-156822863D01*
X124704481Y-156954084D01*
X124704483Y-156954086D01*
X124704485Y-156954089D01*
X124811635Y-157061239D01*
X124811637Y-157061240D01*
X124811639Y-157061242D01*
X124942861Y-157137003D01*
X124942859Y-157137003D01*
X124942863Y-157137004D01*
X124942865Y-157137005D01*
X125089234Y-157176224D01*
X125089236Y-157176224D01*
X125240764Y-157176224D01*
X125240766Y-157176224D01*
X125387135Y-157137005D01*
X125387137Y-157137003D01*
X125387139Y-157137003D01*
X125518360Y-157061242D01*
X125518360Y-157061241D01*
X125518365Y-157061239D01*
X125625515Y-156954089D01*
X125701281Y-156822859D01*
X125740500Y-156676490D01*
X125740500Y-156524958D01*
X125701281Y-156378589D01*
X125701279Y-156378586D01*
X125701279Y-156378584D01*
X125625518Y-156247363D01*
X125625516Y-156247361D01*
X125625515Y-156247359D01*
X125518365Y-156140209D01*
X125518362Y-156140207D01*
X125518360Y-156140205D01*
X125387138Y-156064444D01*
X125387140Y-156064444D01*
X125330347Y-156049227D01*
X125240766Y-156025224D01*
X125089234Y-156025224D01*
X124999652Y-156049227D01*
X124942860Y-156064444D01*
X124811639Y-156140205D01*
X124704481Y-156247363D01*
X124628720Y-156378584D01*
X124628719Y-156378589D01*
X124589500Y-156524958D01*
X119960500Y-156524958D01*
X119921281Y-156378589D01*
X119921279Y-156378586D01*
X119921279Y-156378584D01*
X119845518Y-156247363D01*
X119845516Y-156247361D01*
X119845515Y-156247359D01*
X119738365Y-156140209D01*
X119738362Y-156140207D01*
X119738360Y-156140205D01*
X119607138Y-156064444D01*
X119607140Y-156064444D01*
X119550347Y-156049227D01*
X119460766Y-156025224D01*
X119309234Y-156025224D01*
X119219652Y-156049227D01*
X119162860Y-156064444D01*
X119031639Y-156140205D01*
X118924481Y-156247363D01*
X118848720Y-156378584D01*
X118848719Y-156378589D01*
X118809500Y-156524958D01*
X114025500Y-156524958D01*
X114025500Y-153022079D01*
X114370000Y-153022079D01*
X114370000Y-153199368D01*
X114404586Y-153373243D01*
X114404586Y-153373245D01*
X114472428Y-153537031D01*
X114550327Y-153653617D01*
X114949076Y-153254867D01*
X114989930Y-153325629D01*
X115055095Y-153390794D01*
X115125853Y-153431646D01*
X114727105Y-153830395D01*
X114843692Y-153908295D01*
X115007479Y-153976137D01*
X115181355Y-154010723D01*
X115181359Y-154010724D01*
X115358641Y-154010724D01*
X115358644Y-154010723D01*
X115532519Y-153976137D01*
X115532521Y-153976137D01*
X115696305Y-153908296D01*
X115696317Y-153908290D01*
X115812893Y-153830395D01*
X115414145Y-153431647D01*
X115484905Y-153390794D01*
X115550070Y-153325629D01*
X115590923Y-153254869D01*
X115989671Y-153653617D01*
X116067566Y-153537041D01*
X116067572Y-153537029D01*
X116135413Y-153373245D01*
X116135413Y-153373243D01*
X116169999Y-153199368D01*
X116170000Y-153199365D01*
X116170000Y-153022082D01*
X116169999Y-153022079D01*
X116135413Y-152848204D01*
X116135413Y-152848202D01*
X116067571Y-152684416D01*
X115989671Y-152567829D01*
X115590922Y-152966577D01*
X115550070Y-152895819D01*
X115484905Y-152830654D01*
X115414143Y-152789800D01*
X115812893Y-152391051D01*
X115696307Y-152313152D01*
X115532520Y-152245310D01*
X115358644Y-152210724D01*
X115181355Y-152210724D01*
X115007480Y-152245310D01*
X115007478Y-152245310D01*
X114843692Y-152313152D01*
X114727106Y-152391052D01*
X115125854Y-152789800D01*
X115055095Y-152830654D01*
X114989930Y-152895819D01*
X114949076Y-152966578D01*
X114550328Y-152567830D01*
X114472428Y-152684416D01*
X114404586Y-152848202D01*
X114404586Y-152848204D01*
X114370000Y-153022079D01*
X114025500Y-153022079D01*
X114025500Y-147947259D01*
X114044407Y-147889068D01*
X114093907Y-147853104D01*
X114155093Y-147853104D01*
X114204593Y-147889068D01*
X114210233Y-147897754D01*
X114216980Y-147909440D01*
X114328784Y-148021244D01*
X114328786Y-148021245D01*
X114328789Y-148021248D01*
X114328788Y-148021248D01*
X114415591Y-148071361D01*
X114415593Y-148071363D01*
X114415594Y-148071363D01*
X114444532Y-148088070D01*
X114465715Y-148100301D01*
X114618443Y-148141225D01*
X114618444Y-148141225D01*
X114776556Y-148141225D01*
X114776557Y-148141225D01*
X114929285Y-148100301D01*
X114979404Y-148071363D01*
X115066216Y-148021244D01*
X115099230Y-147988229D01*
X115132241Y-147955220D01*
X115186758Y-147927443D01*
X115202244Y-147926224D01*
X116669774Y-147926224D01*
X116727965Y-147945131D01*
X116763929Y-147994631D01*
X116763929Y-148055817D01*
X116727965Y-148105317D01*
X116719287Y-148110952D01*
X116627284Y-148164070D01*
X116515480Y-148275874D01*
X116436423Y-148412806D01*
X116395500Y-148565533D01*
X116395500Y-148723647D01*
X116436423Y-148876374D01*
X116515480Y-149013306D01*
X116627284Y-149125110D01*
X116764216Y-149204167D01*
X116916943Y-149245090D01*
X117264123Y-149245090D01*
X117322314Y-149263997D01*
X117334127Y-149274086D01*
X117585504Y-149525463D01*
X117613281Y-149579980D01*
X117614500Y-149595467D01*
X117614500Y-151650587D01*
X117614499Y-151650605D01*
X117614499Y-151814780D01*
X117631127Y-151876836D01*
X117634500Y-151902459D01*
X117634500Y-152694781D01*
X117675423Y-152847508D01*
X117754480Y-152984440D01*
X117866284Y-153096244D01*
X118003216Y-153175301D01*
X118155943Y-153216224D01*
X118155945Y-153216224D01*
X118314055Y-153216224D01*
X118314057Y-153216224D01*
X118466784Y-153175301D01*
X118603716Y-153096244D01*
X118677930Y-153022030D01*
X119449500Y-153022030D01*
X119449500Y-153199417D01*
X119470861Y-153306802D01*
X119479337Y-153349417D01*
X119484106Y-153373389D01*
X119484106Y-153373391D01*
X119551985Y-153537268D01*
X119551985Y-153537269D01*
X119601067Y-153610724D01*
X119650536Y-153684759D01*
X119775965Y-153810188D01*
X119923453Y-153908737D01*
X120087334Y-153976618D01*
X120261309Y-154011224D01*
X120261310Y-154011224D01*
X120438690Y-154011224D01*
X120438691Y-154011224D01*
X120612666Y-153976618D01*
X120776547Y-153908737D01*
X120924035Y-153810188D01*
X121049464Y-153684759D01*
X121148013Y-153537271D01*
X121215894Y-153373390D01*
X121250500Y-153199415D01*
X121250500Y-153172030D01*
X123379500Y-153172030D01*
X123379500Y-153349417D01*
X123414106Y-153523389D01*
X123414106Y-153523391D01*
X123481985Y-153687268D01*
X123481985Y-153687269D01*
X123559727Y-153803617D01*
X123580536Y-153834759D01*
X123705965Y-153960188D01*
X123853453Y-154058737D01*
X124017334Y-154126618D01*
X124191309Y-154161224D01*
X124191310Y-154161224D01*
X124368690Y-154161224D01*
X124368691Y-154161224D01*
X124542666Y-154126618D01*
X124706547Y-154058737D01*
X124854035Y-153960188D01*
X124979464Y-153834759D01*
X125078013Y-153687271D01*
X125145894Y-153523390D01*
X125180500Y-153349415D01*
X125180500Y-153172079D01*
X128460000Y-153172079D01*
X128460000Y-153349368D01*
X128494586Y-153523243D01*
X128494586Y-153523245D01*
X128562428Y-153687031D01*
X128640327Y-153803617D01*
X129039076Y-153404867D01*
X129079930Y-153475629D01*
X129145095Y-153540794D01*
X129215853Y-153581646D01*
X128817105Y-153980395D01*
X128933692Y-154058295D01*
X129097479Y-154126137D01*
X129271355Y-154160723D01*
X129271359Y-154160724D01*
X129448641Y-154160724D01*
X129448644Y-154160723D01*
X129622519Y-154126137D01*
X129622521Y-154126137D01*
X129786305Y-154058296D01*
X129786317Y-154058290D01*
X129902893Y-153980395D01*
X129504145Y-153581647D01*
X129574905Y-153540794D01*
X129640070Y-153475629D01*
X129680923Y-153404869D01*
X130079671Y-153803617D01*
X130157566Y-153687041D01*
X130157572Y-153687029D01*
X130225413Y-153523245D01*
X130225413Y-153523243D01*
X130259999Y-153349368D01*
X130260000Y-153349365D01*
X130260000Y-153172082D01*
X130259999Y-153172079D01*
X130225413Y-152998204D01*
X130225413Y-152998202D01*
X130157571Y-152834416D01*
X130079671Y-152717829D01*
X129680922Y-153116577D01*
X129640070Y-153045819D01*
X129574905Y-152980654D01*
X129504143Y-152939800D01*
X129902893Y-152541051D01*
X129786307Y-152463152D01*
X129622520Y-152395310D01*
X129448644Y-152360724D01*
X129271355Y-152360724D01*
X129097480Y-152395310D01*
X129097478Y-152395310D01*
X128933692Y-152463152D01*
X128817106Y-152541052D01*
X129215854Y-152939800D01*
X129145095Y-152980654D01*
X129079930Y-153045819D01*
X129039076Y-153116578D01*
X128640328Y-152717830D01*
X128562428Y-152834416D01*
X128494586Y-152998202D01*
X128494586Y-152998204D01*
X128460000Y-153172079D01*
X125180500Y-153172079D01*
X125180500Y-153172033D01*
X125145894Y-152998058D01*
X125083535Y-152847508D01*
X125078014Y-152834179D01*
X125078014Y-152834178D01*
X124979464Y-152686689D01*
X124854034Y-152561259D01*
X124706544Y-152462709D01*
X124542666Y-152394830D01*
X124368693Y-152360224D01*
X124368691Y-152360224D01*
X124191309Y-152360224D01*
X124191306Y-152360224D01*
X124017334Y-152394830D01*
X124017332Y-152394830D01*
X123853455Y-152462709D01*
X123853454Y-152462709D01*
X123705965Y-152561259D01*
X123580535Y-152686689D01*
X123481985Y-152834178D01*
X123481985Y-152834179D01*
X123414106Y-152998056D01*
X123414106Y-152998058D01*
X123379500Y-153172030D01*
X121250500Y-153172030D01*
X121250500Y-153022033D01*
X121215894Y-152848058D01*
X121152405Y-152694781D01*
X121148014Y-152684179D01*
X121148014Y-152684178D01*
X121049464Y-152536689D01*
X120924034Y-152411259D01*
X120776544Y-152312709D01*
X120612666Y-152244830D01*
X120438693Y-152210224D01*
X120438691Y-152210224D01*
X120261309Y-152210224D01*
X120261306Y-152210224D01*
X120087334Y-152244830D01*
X120087332Y-152244830D01*
X119923455Y-152312709D01*
X119923454Y-152312709D01*
X119775965Y-152411259D01*
X119650535Y-152536689D01*
X119551985Y-152684178D01*
X119551985Y-152684179D01*
X119484106Y-152848056D01*
X119484106Y-152848058D01*
X119449500Y-153022030D01*
X118677930Y-153022030D01*
X118715520Y-152984440D01*
X118794577Y-152847508D01*
X118835500Y-152694781D01*
X118835500Y-151676667D01*
X118818873Y-151614612D01*
X118815500Y-151588990D01*
X118815500Y-150867030D01*
X119244500Y-150867030D01*
X119244500Y-151044417D01*
X119279106Y-151218389D01*
X119279106Y-151218391D01*
X119346985Y-151382268D01*
X119346985Y-151382269D01*
X119396400Y-151456223D01*
X119445536Y-151529759D01*
X119570965Y-151655188D01*
X119718453Y-151753737D01*
X119882334Y-151821618D01*
X120056309Y-151856224D01*
X120056310Y-151856224D01*
X120233690Y-151856224D01*
X120233691Y-151856224D01*
X120407666Y-151821618D01*
X120571547Y-151753737D01*
X120719035Y-151655188D01*
X120844464Y-151529759D01*
X120943013Y-151382271D01*
X121010894Y-151218390D01*
X121045500Y-151044415D01*
X121045500Y-150867079D01*
X124325000Y-150867079D01*
X124325000Y-151044368D01*
X124359586Y-151218243D01*
X124359586Y-151218245D01*
X124427428Y-151382031D01*
X124505327Y-151498617D01*
X124904076Y-151099867D01*
X124944930Y-151170629D01*
X125010095Y-151235794D01*
X125080853Y-151276646D01*
X124682105Y-151675395D01*
X124798692Y-151753295D01*
X124962479Y-151821137D01*
X125136355Y-151855723D01*
X125136359Y-151855724D01*
X125313641Y-151855724D01*
X125313644Y-151855723D01*
X125487519Y-151821137D01*
X125487521Y-151821137D01*
X125651305Y-151753296D01*
X125651317Y-151753290D01*
X125767893Y-151675395D01*
X125369145Y-151276647D01*
X125439905Y-151235794D01*
X125505070Y-151170629D01*
X125545923Y-151099869D01*
X125944671Y-151498617D01*
X126022566Y-151382041D01*
X126022572Y-151382029D01*
X126090413Y-151218245D01*
X126090413Y-151218243D01*
X126124999Y-151044368D01*
X126125000Y-151044365D01*
X126125000Y-150867082D01*
X126124999Y-150867079D01*
X126090413Y-150693204D01*
X126090413Y-150693202D01*
X126055910Y-150609903D01*
X126042231Y-150576879D01*
X127644500Y-150576879D01*
X127644500Y-150734568D01*
X127675263Y-150889220D01*
X127675263Y-150889222D01*
X127735603Y-151034898D01*
X127735609Y-151034909D01*
X127772968Y-151090819D01*
X127823211Y-151166013D01*
X127934711Y-151277513D01*
X127976932Y-151305724D01*
X128065814Y-151365114D01*
X128065825Y-151365120D01*
X128106648Y-151382029D01*
X128211503Y-151425461D01*
X128366158Y-151456224D01*
X128366159Y-151456224D01*
X128523841Y-151456224D01*
X128523842Y-151456224D01*
X128678497Y-151425461D01*
X128824179Y-151365118D01*
X128955289Y-151277513D01*
X129066789Y-151166013D01*
X129154394Y-151034903D01*
X129214737Y-150889221D01*
X129245500Y-150734566D01*
X129245500Y-150576882D01*
X129214737Y-150422227D01*
X129154394Y-150276545D01*
X129154393Y-150276543D01*
X129154390Y-150276538D01*
X129119017Y-150223600D01*
X129066789Y-150145435D01*
X128955289Y-150033935D01*
X128886147Y-149987736D01*
X128848270Y-149939689D01*
X128845868Y-149878551D01*
X128879860Y-149827677D01*
X128886149Y-149823108D01*
X128915796Y-149803298D01*
X128550528Y-149438030D01*
X128560796Y-149435280D01*
X128629205Y-149395784D01*
X128685060Y-149339929D01*
X128724556Y-149271520D01*
X128727306Y-149261252D01*
X129092574Y-149626520D01*
X129153951Y-149534665D01*
X129214257Y-149389073D01*
X129244999Y-149234519D01*
X129245000Y-149234516D01*
X129245000Y-149076931D01*
X129244999Y-149076928D01*
X129214257Y-148922374D01*
X129153951Y-148776782D01*
X129092574Y-148684926D01*
X128727306Y-149050193D01*
X128724556Y-149039928D01*
X128685060Y-148971519D01*
X128629205Y-148915664D01*
X128560796Y-148876168D01*
X128550527Y-148873416D01*
X128915796Y-148508148D01*
X128823941Y-148446772D01*
X128678349Y-148386466D01*
X128523795Y-148355724D01*
X128366204Y-148355724D01*
X128211650Y-148386466D01*
X128066058Y-148446772D01*
X127974202Y-148508148D01*
X128339471Y-148873417D01*
X128329204Y-148876168D01*
X128260795Y-148915664D01*
X128204940Y-148971519D01*
X128165444Y-149039928D01*
X128162693Y-149050195D01*
X127797424Y-148684926D01*
X127736048Y-148776782D01*
X127675742Y-148922374D01*
X127645000Y-149076928D01*
X127645000Y-149234519D01*
X127675742Y-149389073D01*
X127736048Y-149534665D01*
X127797424Y-149626520D01*
X128162692Y-149261251D01*
X128165444Y-149271520D01*
X128204940Y-149339929D01*
X128260795Y-149395784D01*
X128329204Y-149435280D01*
X128339469Y-149438030D01*
X127974202Y-149803298D01*
X128003849Y-149823108D01*
X128041728Y-149871158D01*
X128044130Y-149932297D01*
X128010137Y-149983170D01*
X128003849Y-149987738D01*
X127934711Y-150033934D01*
X127823214Y-150145431D01*
X127823211Y-150145435D01*
X127735609Y-150276538D01*
X127735603Y-150276549D01*
X127675263Y-150422225D01*
X127675263Y-150422227D01*
X127644500Y-150576879D01*
X126042231Y-150576879D01*
X126022570Y-150529414D01*
X125944671Y-150412829D01*
X125545922Y-150811577D01*
X125505070Y-150740819D01*
X125439905Y-150675654D01*
X125369143Y-150634800D01*
X125767893Y-150236051D01*
X125651307Y-150158152D01*
X125487520Y-150090310D01*
X125313644Y-150055724D01*
X125136355Y-150055724D01*
X124962480Y-150090310D01*
X124962478Y-150090310D01*
X124798692Y-150158152D01*
X124682106Y-150236052D01*
X125080854Y-150634800D01*
X125010095Y-150675654D01*
X124944930Y-150740819D01*
X124904076Y-150811578D01*
X124505328Y-150412830D01*
X124427428Y-150529416D01*
X124359586Y-150693202D01*
X124359586Y-150693204D01*
X124325000Y-150867079D01*
X121045500Y-150867079D01*
X121045500Y-150867033D01*
X121010894Y-150693058D01*
X120943014Y-150529179D01*
X120943014Y-150529178D01*
X120844464Y-150381689D01*
X120719034Y-150256259D01*
X120571544Y-150157709D01*
X120407666Y-150089830D01*
X120233693Y-150055224D01*
X120233691Y-150055224D01*
X120056309Y-150055224D01*
X120056306Y-150055224D01*
X119882334Y-150089830D01*
X119882332Y-150089830D01*
X119718455Y-150157709D01*
X119718454Y-150157709D01*
X119570965Y-150256259D01*
X119445535Y-150381689D01*
X119346985Y-150529178D01*
X119346985Y-150529179D01*
X119279106Y-150693056D01*
X119279106Y-150693058D01*
X119244500Y-150867030D01*
X118815500Y-150867030D01*
X118815500Y-149392769D01*
X118815501Y-149392756D01*
X118815501Y-149226666D01*
X118815500Y-149226664D01*
X118807074Y-149195220D01*
X118781089Y-149098243D01*
X118774578Y-149073943D01*
X118774578Y-149073942D01*
X118762344Y-149052752D01*
X118695520Y-148937008D01*
X118034387Y-148275876D01*
X118034386Y-148275874D01*
X117922582Y-148164070D01*
X117922579Y-148164068D01*
X117830594Y-148110960D01*
X117789653Y-148065491D01*
X117783257Y-148004640D01*
X117813850Y-147951652D01*
X117869746Y-147926766D01*
X117880094Y-147926224D01*
X119539844Y-147926224D01*
X119598035Y-147945131D01*
X119633999Y-147994631D01*
X119633999Y-148055817D01*
X119598035Y-148105317D01*
X119594845Y-148107540D01*
X119582105Y-148116051D01*
X119980854Y-148514800D01*
X119910095Y-148555654D01*
X119844930Y-148620819D01*
X119804076Y-148691578D01*
X119405328Y-148292830D01*
X119327428Y-148409416D01*
X119259586Y-148573202D01*
X119259586Y-148573204D01*
X119225000Y-148747079D01*
X119225000Y-148924368D01*
X119259586Y-149098243D01*
X119259586Y-149098245D01*
X119327428Y-149262031D01*
X119405327Y-149378617D01*
X119804076Y-148979867D01*
X119844930Y-149050629D01*
X119910095Y-149115794D01*
X119980853Y-149156646D01*
X119582105Y-149555395D01*
X119698692Y-149633295D01*
X119862479Y-149701137D01*
X120036355Y-149735723D01*
X120036359Y-149735724D01*
X120213641Y-149735724D01*
X120213644Y-149735723D01*
X120387519Y-149701137D01*
X120387521Y-149701137D01*
X120551305Y-149633296D01*
X120551317Y-149633290D01*
X120667893Y-149555395D01*
X120269145Y-149156647D01*
X120339905Y-149115794D01*
X120405070Y-149050629D01*
X120445923Y-148979869D01*
X120844671Y-149378617D01*
X120922566Y-149262041D01*
X120922572Y-149262029D01*
X120990413Y-149098245D01*
X120990413Y-149098243D01*
X121024999Y-148924368D01*
X121025000Y-148924365D01*
X121025000Y-148747082D01*
X121024999Y-148747079D01*
X120990413Y-148573204D01*
X120990413Y-148573202D01*
X120922571Y-148409416D01*
X120844671Y-148292829D01*
X120445922Y-148691577D01*
X120405070Y-148620819D01*
X120339905Y-148555654D01*
X120269143Y-148514800D01*
X120667893Y-148116051D01*
X120655155Y-148107540D01*
X120617275Y-148059490D01*
X120614873Y-147998352D01*
X120648866Y-147947478D01*
X120706269Y-147926300D01*
X120710156Y-147926224D01*
X122794055Y-147926224D01*
X122794057Y-147926224D01*
X122946784Y-147885301D01*
X123083716Y-147806244D01*
X123195520Y-147694440D01*
X123195521Y-147694437D01*
X123199739Y-147690220D01*
X123254256Y-147662443D01*
X123269743Y-147661224D01*
X123720257Y-147661224D01*
X123778448Y-147680131D01*
X123790261Y-147690220D01*
X123794478Y-147694437D01*
X123794480Y-147694440D01*
X123906284Y-147806244D01*
X124043216Y-147885301D01*
X124195943Y-147926224D01*
X124618947Y-147926224D01*
X124677138Y-147945131D01*
X124713102Y-147994631D01*
X124713102Y-148055817D01*
X124677138Y-148105317D01*
X124673966Y-148107527D01*
X124661210Y-148116051D01*
X124630964Y-148136260D01*
X124505535Y-148261689D01*
X124406985Y-148409178D01*
X124406985Y-148409179D01*
X124339106Y-148573056D01*
X124339106Y-148573058D01*
X124304500Y-148747030D01*
X124304500Y-148924417D01*
X124339106Y-149098389D01*
X124339106Y-149098391D01*
X124406985Y-149262268D01*
X124406985Y-149262269D01*
X124496198Y-149395784D01*
X124505536Y-149409759D01*
X124630965Y-149535188D01*
X124778453Y-149633737D01*
X124942334Y-149701618D01*
X125116309Y-149736224D01*
X125116310Y-149736224D01*
X125293690Y-149736224D01*
X125293691Y-149736224D01*
X125467666Y-149701618D01*
X125631547Y-149633737D01*
X125779035Y-149535188D01*
X125904464Y-149409759D01*
X126003013Y-149262271D01*
X126070894Y-149098390D01*
X126105500Y-148924415D01*
X126105500Y-148747033D01*
X126070894Y-148573058D01*
X126003014Y-148409179D01*
X126003014Y-148409178D01*
X125904464Y-148261689D01*
X125779035Y-148136260D01*
X125748790Y-148116051D01*
X125736051Y-148107538D01*
X125698172Y-148059490D01*
X125695770Y-147998352D01*
X125729763Y-147947478D01*
X125787166Y-147926300D01*
X125791053Y-147926224D01*
X127559864Y-147926224D01*
X127559880Y-147926225D01*
X127565943Y-147926225D01*
X127724056Y-147926225D01*
X127724057Y-147926225D01*
X127876785Y-147885301D01*
X127926904Y-147856363D01*
X128013716Y-147806244D01*
X128125520Y-147694440D01*
X128125521Y-147694437D01*
X129058713Y-146761245D01*
X129058716Y-146761244D01*
X129170520Y-146649440D01*
X129242371Y-146524990D01*
X129249577Y-146512509D01*
X129290500Y-146359781D01*
X129290500Y-146201667D01*
X129249577Y-146048939D01*
X129233815Y-146021640D01*
X129220639Y-145998818D01*
X129220639Y-145998817D01*
X129220637Y-145998815D01*
X129170524Y-145912013D01*
X129170521Y-145912010D01*
X129170520Y-145912008D01*
X129058716Y-145800204D01*
X128971904Y-145750084D01*
X128921785Y-145721147D01*
X128769057Y-145680224D01*
X128610943Y-145680224D01*
X128517469Y-145705269D01*
X128458210Y-145721148D01*
X128408095Y-145750083D01*
X128408093Y-145750084D01*
X128388998Y-145761108D01*
X128329150Y-145773828D01*
X128273255Y-145748941D01*
X128242663Y-145695952D01*
X128240500Y-145675371D01*
X128240500Y-145518368D01*
X128208478Y-145316194D01*
X128208477Y-145316190D01*
X128145220Y-145121505D01*
X128052287Y-144939114D01*
X128052285Y-144939110D01*
X127931970Y-144773510D01*
X127931968Y-144773508D01*
X127931966Y-144773505D01*
X127787219Y-144628758D01*
X127787215Y-144628755D01*
X127787213Y-144628753D01*
X127621613Y-144508438D01*
X127621609Y-144508436D01*
X127439219Y-144415504D01*
X127244529Y-144352245D01*
X127042355Y-144320224D01*
X127042352Y-144320224D01*
X126837648Y-144320224D01*
X126837645Y-144320224D01*
X126635470Y-144352245D01*
X126440780Y-144415504D01*
X126258390Y-144508436D01*
X126258386Y-144508438D01*
X126092786Y-144628753D01*
X125948029Y-144773510D01*
X125827714Y-144939110D01*
X125827712Y-144939114D01*
X125734780Y-145121504D01*
X125671521Y-145316194D01*
X125639500Y-145518368D01*
X125639500Y-145723079D01*
X125671521Y-145925253D01*
X125734780Y-146119943D01*
X125827712Y-146302333D01*
X125827714Y-146302337D01*
X125948029Y-146467937D01*
X125948031Y-146467939D01*
X125948034Y-146467943D01*
X126021313Y-146541222D01*
X126049089Y-146595737D01*
X126039518Y-146656169D01*
X125996253Y-146699434D01*
X125951308Y-146710224D01*
X125089057Y-146710224D01*
X124930943Y-146710224D01*
X124896527Y-146719445D01*
X124887550Y-146721851D01*
X124861928Y-146725224D01*
X124195943Y-146725224D01*
X124043216Y-146766147D01*
X123906284Y-146845204D01*
X123794480Y-146957008D01*
X123794478Y-146957010D01*
X123790261Y-146961228D01*
X123735744Y-146989005D01*
X123720257Y-146990224D01*
X123269743Y-146990224D01*
X123211552Y-146971317D01*
X123199739Y-146961228D01*
X123195521Y-146957010D01*
X123195520Y-146957008D01*
X123083716Y-146845204D01*
X122946784Y-146766147D01*
X122794057Y-146725224D01*
X122794055Y-146725224D01*
X120697758Y-146725224D01*
X120639567Y-146706317D01*
X120603603Y-146656817D01*
X120603603Y-146595631D01*
X120604313Y-146593527D01*
X120617646Y-146555424D01*
X120620500Y-146524991D01*
X120620499Y-144716458D01*
X120617646Y-144686024D01*
X120572793Y-144557841D01*
X120572791Y-144557839D01*
X120572791Y-144557837D01*
X120492154Y-144448578D01*
X120492145Y-144448569D01*
X120382884Y-144367931D01*
X120254704Y-144323079D01*
X120254695Y-144323077D01*
X120224274Y-144320224D01*
X118415732Y-144320224D01*
X118385303Y-144323077D01*
X118257113Y-144367932D01*
X118147854Y-144448569D01*
X118147845Y-144448578D01*
X118067207Y-144557839D01*
X118022355Y-144686019D01*
X118022353Y-144686028D01*
X118019500Y-144716448D01*
X118019500Y-144716449D01*
X118019501Y-146524984D01*
X118019500Y-146524989D01*
X118022353Y-146555420D01*
X118035687Y-146593527D01*
X118037059Y-146654697D01*
X118002215Y-146704991D01*
X117944462Y-146725199D01*
X117942242Y-146725224D01*
X114997636Y-146725224D01*
X114997620Y-146725223D01*
X114991557Y-146725223D01*
X114833443Y-146725223D01*
X114680715Y-146766147D01*
X114680713Y-146766147D01*
X114680709Y-146766149D01*
X114634423Y-146792873D01*
X114543784Y-146845203D01*
X114431979Y-146957007D01*
X114431980Y-146957008D01*
X114431978Y-146957010D01*
X114328786Y-147060202D01*
X114328784Y-147060204D01*
X114328783Y-147060203D01*
X114216982Y-147172005D01*
X114216980Y-147172007D01*
X114216980Y-147172008D01*
X114210234Y-147183691D01*
X114164765Y-147224630D01*
X114103915Y-147231024D01*
X114050927Y-147200431D01*
X114026042Y-147144535D01*
X114025500Y-147134188D01*
X114025500Y-142485583D01*
X114025977Y-142475880D01*
X114038945Y-142344209D01*
X114038945Y-142344208D01*
X114042731Y-142325174D01*
X114079723Y-142203226D01*
X114087145Y-142185309D01*
X114147221Y-142072914D01*
X114157990Y-142056796D01*
X114238840Y-141958280D01*
X114252556Y-141944564D01*
X114351072Y-141863714D01*
X114367190Y-141852945D01*
X114479585Y-141792869D01*
X114497502Y-141785447D01*
X114619452Y-141748454D01*
X114638483Y-141744669D01*
X114770157Y-141731701D01*
X114779860Y-141731224D01*
X114819170Y-141731224D01*
X129730830Y-141731224D01*
X129770140Y-141731224D01*
X129779843Y-141731701D01*
G37*
%TD.AperFunction*%
%TD*%
M02*
