%TF.GenerationSoftware,KiCad,Pcbnew,10.0.3*%
%TF.CreationDate,2026-08-31T03:07:44+08:00*%
%TF.ProjectId,daughter,64617567-6874-4657-922e-6b696361645f,rev?*%
%TF.SameCoordinates,Original*%
%TF.FileFunction,Copper,L1,Top*%
%TF.FilePolarity,Positive*%
%FSLAX46Y46*%
G04 Gerber Fmt 4.6, Leading zero omitted, Abs format (unit mm)*
G04 Created by KiCad (PCBNEW 10.0.3) date 2026-08-31 03:07:44*
%MOMM*%
%LPD*%
G01*
G04 APERTURE LIST*
G04 Aperture macros list*
%AMRoundRect*
0 Rectangle with rounded corners*
0 $1 Rounding radius*
0 $2 $3 $4 $5 $6 $7 $8 $9 X,Y pos of 4 corners*
0 Add a 4 corners polygon primitive as box body*
4,1,4,$2,$3,$4,$5,$6,$7,$8,$9,$2,$3,0*
0 Add four circle primitives for the rounded corners*
1,1,$1+$1,$2,$3*
1,1,$1+$1,$4,$5*
1,1,$1+$1,$6,$7*
1,1,$1+$1,$8,$9*
0 Add four rect primitives between the rounded corners*
20,1,$1+$1,$2,$3,$4,$5,0*
20,1,$1+$1,$4,$5,$6,$7,0*
20,1,$1+$1,$6,$7,$8,$9,0*
20,1,$1+$1,$8,$9,$2,$3,0*%
G04 Aperture macros list end*
%TA.AperFunction,SMDPad,CuDef*%
%ADD10RoundRect,0.150000X-0.512500X-0.150000X0.512500X-0.150000X0.512500X0.150000X-0.512500X0.150000X0*%
%TD*%
%TA.AperFunction,ComponentPad*%
%ADD11C,1.400000*%
%TD*%
%TA.AperFunction,SMDPad,CuDef*%
%ADD12RoundRect,0.150000X0.587500X0.150000X-0.587500X0.150000X-0.587500X-0.150000X0.587500X-0.150000X0*%
%TD*%
%TA.AperFunction,ComponentPad*%
%ADD13RoundRect,0.249999X-0.850001X-0.850001X0.850001X-0.850001X0.850001X0.850001X-0.850001X0.850001X0*%
%TD*%
%TA.AperFunction,ComponentPad*%
%ADD14C,2.200000*%
%TD*%
%TA.AperFunction,SMDPad,CuDef*%
%ADD15O,1.500000X2.000000*%
%TD*%
%TA.AperFunction,ComponentPad*%
%ADD16C,1.200000*%
%TD*%
%TA.AperFunction,SMDPad,CuDef*%
%ADD17RoundRect,0.150000X-0.150000X-0.425000X0.150000X-0.425000X0.150000X0.425000X-0.150000X0.425000X0*%
%TD*%
%TA.AperFunction,SMDPad,CuDef*%
%ADD18RoundRect,0.075000X-0.075000X-0.500000X0.075000X-0.500000X0.075000X0.500000X-0.075000X0.500000X0*%
%TD*%
%TA.AperFunction,ComponentPad*%
%ADD19O,1.000000X2.100000*%
%TD*%
%TA.AperFunction,ComponentPad*%
%ADD20O,1.000000X1.800000*%
%TD*%
%TA.AperFunction,ViaPad*%
%ADD21C,0.600000*%
%TD*%
%TA.AperFunction,ViaPad*%
%ADD22C,0.800000*%
%TD*%
%TA.AperFunction,Conductor*%
%ADD23C,0.254000*%
%TD*%
%TA.AperFunction,Conductor*%
%ADD24C,0.800000*%
%TD*%
%TA.AperFunction,Conductor*%
%ADD25C,0.400000*%
%TD*%
%TA.AperFunction,Conductor*%
%ADD26C,0.200000*%
%TD*%
G04 APERTURE END LIST*
D10*
%TO.P,U2,1,~{CHRG}_1*%
%TO.N,/CHG_sub*%
X115960000Y-149335724D03*
%TO.P,U2,2,GND_2*%
%TO.N,GND_sub*%
X115960000Y-150285724D03*
%TO.P,U2,3,BAT_3*%
%TO.N,/BAT+*%
X115960000Y-151235724D03*
%TO.P,U2,4,V_{CC}_4*%
%TO.N,/VBUS*%
X118235000Y-151235724D03*
%TO.P,U2,5,STDBY_5*%
%TO.N,unconnected-(U2-STDBY-Pad5)*%
X118235000Y-150285724D03*
%TO.P,U2,6,PROG_6*%
%TO.N,Net-(U2-PROG)*%
X118235000Y-149335724D03*
%TD*%
D11*
%TO.P,R4,1*%
%TO.N,Net-(J3-CC2)*%
X124280000Y-153260724D03*
%TO.P,R4,2*%
%TO.N,GND_sub*%
X129360000Y-153260724D03*
%TD*%
%TO.P,R1,1*%
%TO.N,GND_sub*%
X125225000Y-150955724D03*
%TO.P,R1,2*%
%TO.N,Net-(U2-PROG)*%
X120145000Y-150955724D03*
%TD*%
D12*
%TO.P,Q1,1,G_1*%
%TO.N,/VBUS*%
X116940000Y-147660724D03*
%TO.P,Q1,2,S_2*%
%TO.N,/VSYS_sub*%
X116940000Y-145760724D03*
%TO.P,Q1,3,D_3*%
%TO.N,/BAT+*%
X115065000Y-146710724D03*
%TD*%
D11*
%TO.P,R2,1*%
%TO.N,GND_sub*%
X115270000Y-153110724D03*
%TO.P,R2,2*%
%TO.N,Net-(J3-CC1)*%
X120350000Y-153110724D03*
%TD*%
D13*
%TO.P,D1,1,K_1*%
%TO.N,/VSYS_sub*%
X119320000Y-145620724D03*
D14*
%TO.P,D1,2,A_2*%
%TO.N,/VBUS*%
X126940000Y-145620724D03*
%TD*%
D15*
%TO.P,J2,1,Pin_1_1*%
%TO.N,/CHG_sub*%
X114775000Y-142910724D03*
%TO.P,J2,2,Pin_2_2*%
%TO.N,GND_sub*%
X117275000Y-142910724D03*
%TO.P,J2,3,Pin_3_3*%
%TO.N,/VSYS_sub*%
X119775000Y-142910724D03*
%TO.P,J2,4,Pin_4_4*%
%TO.N,/D_sub-*%
X122275000Y-142910724D03*
%TO.P,J2,5,Pin_5_5*%
%TO.N,/D_sub+*%
X124775000Y-142910724D03*
%TO.P,J2,6,Pin_6_6*%
%TO.N,/BAT+*%
X127275000Y-142910724D03*
%TO.P,J2,7,Pin_7_7*%
%TO.N,GND_sub*%
X129775000Y-142910724D03*
%TD*%
D11*
%TO.P,R3,1*%
%TO.N,GND_sub*%
X120125000Y-148835724D03*
%TO.P,R3,2*%
%TO.N,/VBUS*%
X125205000Y-148835724D03*
%TD*%
D16*
%TO.P,C8,1*%
%TO.N,/VBUS*%
X128445000Y-150655724D03*
%TO.P,C8,2*%
%TO.N,GND_sub*%
X128445000Y-149155724D03*
%TD*%
D17*
%TO.P,J3,A1,GND_A1*%
%TO.N,GND_sub*%
X119075000Y-155525724D03*
%TO.P,J3,A4,VBUS_A4*%
%TO.N,/VBUS*%
X119875000Y-155525724D03*
D18*
%TO.P,J3,A5,CC1_A5*%
%TO.N,Net-(J3-CC1)*%
X121025000Y-155525724D03*
%TO.P,J3,A6,D+_A6*%
%TO.N,/D_sub+*%
X122025000Y-155525724D03*
%TO.P,J3,A7,D-_A7*%
%TO.N,/D_sub-*%
X122525000Y-155525724D03*
%TO.P,J3,A8,SBU1_A8*%
%TO.N,unconnected-(J3-SBU1-PadA8)*%
X123525000Y-155525724D03*
D17*
%TO.P,J3,A9,VBUS_A9*%
%TO.N,/VBUS*%
X124675000Y-155525724D03*
%TO.P,J3,A12,GND_A12*%
%TO.N,GND_sub*%
X125475000Y-155525724D03*
%TO.P,J3,B1,GND_B1*%
X125475000Y-155525724D03*
%TO.P,J3,B4,VBUS_B4*%
%TO.N,/VBUS*%
X124675000Y-155525724D03*
D18*
%TO.P,J3,B5,CC2_B5*%
%TO.N,Net-(J3-CC2)*%
X124025000Y-155525724D03*
%TO.P,J3,B6,D+_B6*%
%TO.N,/D_sub+*%
X123025000Y-155525724D03*
%TO.P,J3,B7,D-_B7*%
%TO.N,/D_sub-*%
X121525000Y-155525724D03*
%TO.P,J3,B8,SBU2_B8*%
%TO.N,unconnected-(J3-SBU2-PadB8)*%
X120525000Y-155525724D03*
D17*
%TO.P,J3,B9,VBUS_B9*%
%TO.N,/VBUS*%
X119875000Y-155525724D03*
%TO.P,J3,B12,GND_B12*%
%TO.N,GND_sub*%
X119075000Y-155525724D03*
D19*
%TO.P,J3,SH,SHIELD_SH*%
X117955000Y-156100724D03*
D20*
X117955000Y-160280724D03*
D19*
X126595000Y-156100724D03*
D20*
X126595000Y-160280724D03*
%TD*%
D21*
%TO.N,GND_sub*%
X118760000Y-143980724D03*
D22*
%TO.N,/VBUS*%
X118235000Y-152615724D03*
D21*
%TO.N,GND_sub*%
X128660000Y-142740724D03*
X117072500Y-150296587D03*
X125560000Y-153060724D03*
X120920000Y-146425724D03*
X121700000Y-154020724D03*
X130130000Y-144400724D03*
D22*
%TO.N,/BAT+*%
X114697500Y-147540724D03*
D21*
%TO.N,GND_sub*%
X118490000Y-143400724D03*
X120450000Y-159480724D03*
X122555000Y-148315724D03*
X124170000Y-159480724D03*
X124425000Y-146255724D03*
D22*
%TO.N,/VBUS*%
X116996000Y-148644590D03*
D21*
%TO.N,GND_sub*%
X127315000Y-149215724D03*
D22*
%TO.N,/BAT+*%
X128690000Y-146280724D03*
%TD*%
%TO.N,/D_sub+*%
D23*
X123685500Y-149665224D02*
X123685500Y-144785224D01*
%TO.N,/BAT+*%
D24*
X114697500Y-150750540D02*
X115182684Y-151235724D01*
%TO.N,/D_sub+*%
D23*
X124745000Y-143725724D02*
X124745000Y-142725724D01*
X122770999Y-156354724D02*
X123025000Y-156100723D01*
%TO.N,/VBUS*%
D24*
X126370635Y-153770724D02*
X127695000Y-155095089D01*
%TO.N,/D_sub+*%
D23*
X122311644Y-156354724D02*
X122770999Y-156354724D01*
%TO.N,/BAT+*%
D24*
X128680000Y-144315724D02*
X127275000Y-142910724D01*
%TO.N,/VBUS*%
X116855000Y-157106359D02*
X116855000Y-155095089D01*
D25*
X125488478Y-154350724D02*
X125293026Y-154350724D01*
D24*
X122325000Y-157775724D02*
X117524365Y-157775724D01*
D25*
X119975000Y-154355724D02*
X119875000Y-154455724D01*
%TO.N,/BAT+*%
D24*
X115065000Y-146710724D02*
X114697500Y-147078224D01*
%TO.N,/VBUS*%
D25*
X119875000Y-154455724D02*
X119875000Y-155525724D01*
D24*
X119341522Y-154350724D02*
X119346522Y-154355724D01*
X116970000Y-148618590D02*
X116996000Y-148644590D01*
%TO.N,/D_sub+*%
D23*
X123685500Y-144785224D02*
X124745000Y-143725724D01*
%TO.N,/VBUS*%
D24*
X116996000Y-147716724D02*
X116940000Y-147660724D01*
%TO.N,/D_sub+*%
D23*
X122025000Y-155525724D02*
X122025000Y-156068080D01*
%TO.N,/CHG_sub*%
D26*
X116102500Y-147120172D02*
X116102500Y-146370172D01*
%TO.N,/VBUS*%
D24*
X128445000Y-150655724D02*
X128445000Y-151535724D01*
%TO.N,/BAT+*%
X115182684Y-151235724D02*
X115960000Y-151235724D01*
%TO.N,/VBUS*%
X117599365Y-154350724D02*
X119341522Y-154350724D01*
%TO.N,/D_sub+*%
D23*
X123025000Y-156100723D02*
X123025000Y-155525724D01*
%TO.N,/VBUS*%
D24*
X118235000Y-151235724D02*
X118235000Y-152615724D01*
X127105000Y-150655724D02*
X128445000Y-150655724D01*
D25*
X125293026Y-154350724D02*
X124675000Y-154968750D01*
D24*
X128445000Y-151535724D02*
X126210000Y-153770724D01*
%TO.N,/D_sub-*%
D23*
X122238356Y-154696724D02*
X122525000Y-154983368D01*
%TO.N,/VBUS*%
D24*
X116855000Y-155095089D02*
X117599365Y-154350724D01*
%TO.N,/D_sub+*%
D23*
X122965500Y-154603723D02*
X122965500Y-150385224D01*
%TO.N,/VSYS_sub*%
D24*
X119085000Y-145855724D02*
X119320000Y-145620724D01*
%TO.N,/VBUS*%
X116996000Y-148644590D02*
X116996000Y-147716724D01*
%TO.N,/BAT+*%
X128680000Y-146270724D02*
X128680000Y-144315724D01*
%TO.N,/D_sub-*%
D23*
X122525000Y-155525724D02*
X122525000Y-154663223D01*
%TO.N,/CHG_sub*%
D26*
X116102500Y-146370172D02*
X114775000Y-145042672D01*
%TO.N,/VSYS_sub*%
D24*
X116940000Y-145760724D02*
X119180000Y-145760724D01*
%TO.N,/VBUS*%
X117524365Y-157775724D02*
X116855000Y-157106359D01*
%TO.N,/VSYS_sub*%
X119775000Y-145165724D02*
X119320000Y-145620724D01*
%TO.N,/VBUS*%
X127025635Y-157775724D02*
X122325000Y-157775724D01*
X125630000Y-154350724D02*
X125488478Y-154350724D01*
%TO.N,Net-(J3-CC1)*%
D26*
X121025000Y-153785724D02*
X121025000Y-155525724D01*
%TO.N,Net-(J3-CC2)*%
X124280000Y-153260724D02*
X124025000Y-153515724D01*
%TO.N,/D_sub-*%
D23*
X123304500Y-149507408D02*
X123304500Y-144785224D01*
X121811644Y-154696724D02*
X122238356Y-154696724D01*
%TO.N,/VBUS*%
D24*
X126940000Y-145620724D02*
X126940000Y-147100724D01*
%TO.N,/D_sub-*%
D23*
X121525000Y-155525724D02*
X121525000Y-154983368D01*
%TO.N,Net-(J3-CC1)*%
D26*
X120350000Y-153110724D02*
X121025000Y-153785724D01*
%TO.N,Net-(U2-PROG)*%
X118235000Y-149335724D02*
X118605000Y-149335724D01*
%TO.N,/VSYS_sub*%
D24*
X119180000Y-145760724D02*
X119320000Y-145620724D01*
%TO.N,/BAT+*%
X114697500Y-147078224D02*
X114697500Y-150750540D01*
%TO.N,/VBUS*%
X126210000Y-153770724D02*
X126370635Y-153770724D01*
%TO.N,/CHG_sub*%
D26*
X115902500Y-149278224D02*
X115902500Y-147320172D01*
%TO.N,/D_sub-*%
D23*
X122584500Y-154603723D02*
X122584500Y-150227408D01*
%TO.N,/VBUS*%
D24*
X119346522Y-154355724D02*
X119975000Y-154355724D01*
%TO.N,Net-(U2-PROG)*%
D26*
X120125000Y-151275724D02*
X120125000Y-150883225D01*
%TO.N,/D_sub+*%
D23*
X122965500Y-150385224D02*
X123685500Y-149665224D01*
%TO.N,Net-(U2-PROG)*%
D26*
X118605000Y-149335724D02*
X120145000Y-150875724D01*
%TO.N,/D_sub-*%
D23*
X123304500Y-144785224D02*
X122245000Y-143725724D01*
%TO.N,/CHG_sub*%
D26*
X114775000Y-145042672D02*
X114775000Y-142910724D01*
%TO.N,/BAT+*%
D24*
X128690000Y-146280724D02*
X128680000Y-146270724D01*
%TO.N,/VBUS*%
X126210000Y-153770724D02*
X125630000Y-154350724D01*
%TO.N,/D_sub-*%
D23*
X121525000Y-154983368D02*
X121811644Y-154696724D01*
X122245000Y-143725724D02*
X122245000Y-142725724D01*
%TO.N,/D_sub+*%
X123025000Y-155525724D02*
X123025000Y-154663223D01*
%TO.N,/VBUS*%
D25*
X124675000Y-154968750D02*
X124675000Y-155525724D01*
%TO.N,/D_sub-*%
D23*
X122584500Y-150227408D02*
X123304500Y-149507408D01*
%TO.N,/VBUS*%
D24*
X127695000Y-155095089D02*
X127695000Y-157106359D01*
%TO.N,/CHG_sub*%
D26*
X115902500Y-147320172D02*
X116102500Y-147120172D01*
%TO.N,/D_sub-*%
D23*
X122525000Y-154983368D02*
X122525000Y-155525724D01*
%TO.N,/VBUS*%
D24*
X127695000Y-157106359D02*
X127025635Y-157775724D01*
X118235000Y-153244202D02*
X119346522Y-154355724D01*
%TO.N,Net-(J3-CC2)*%
D26*
X124025000Y-153515724D02*
X124025000Y-155525724D01*
%TO.N,/VBUS*%
D24*
X125215000Y-148765724D02*
X127105000Y-150655724D01*
%TO.N,/D_sub+*%
D23*
X123025000Y-154663223D02*
X122965500Y-154603723D01*
X122025000Y-156068080D02*
X122311644Y-156354724D01*
%TO.N,/VBUS*%
D24*
X126940000Y-147100724D02*
X125205000Y-148835724D01*
%TO.N,/CHG_sub*%
D26*
X115960000Y-149335724D02*
X115902500Y-149278224D01*
%TO.N,/VSYS_sub*%
D24*
X119775000Y-142910724D02*
X119775000Y-145165724D01*
%TO.N,/D_sub-*%
D23*
X122525000Y-154663223D02*
X122584500Y-154603723D01*
%TO.N,/VBUS*%
D24*
X118235000Y-152615724D02*
X118235000Y-153244202D01*
%TD*%
%TA.AperFunction,Conductor*%
%TO.N,GND_sub*%
G36*
X129779843Y-141731701D02*
G01*
X129911514Y-141744669D01*
X129930549Y-141748455D01*
X130052494Y-141785446D01*
X130070418Y-141792871D01*
X130182804Y-141852942D01*
X130198931Y-141863718D01*
X130255713Y-141910317D01*
X130297439Y-141944561D01*
X130311162Y-141958284D01*
X130392002Y-142056787D01*
X130402784Y-142072924D01*
X130462851Y-142185303D01*
X130470278Y-142203233D01*
X130507268Y-142325174D01*
X130511054Y-142344208D01*
X130524023Y-142475879D01*
X130524500Y-142485583D01*
X130524500Y-160475864D01*
X130524023Y-160485567D01*
X130524023Y-160485568D01*
X130511054Y-160617239D01*
X130507268Y-160636273D01*
X130470278Y-160758214D01*
X130462851Y-160776144D01*
X130402784Y-160888523D01*
X130392002Y-160904660D01*
X130311162Y-161003163D01*
X130297439Y-161016886D01*
X130198936Y-161097726D01*
X130182799Y-161108508D01*
X130070420Y-161168575D01*
X130052490Y-161176002D01*
X129930549Y-161212992D01*
X129911515Y-161216778D01*
X129791223Y-161228626D01*
X129779842Y-161229747D01*
X129770140Y-161230224D01*
X114779860Y-161230224D01*
X114770157Y-161229747D01*
X114757395Y-161228490D01*
X114638484Y-161216778D01*
X114619450Y-161212992D01*
X114497509Y-161176002D01*
X114479579Y-161168575D01*
X114367200Y-161108508D01*
X114351065Y-161097727D01*
X114301811Y-161057306D01*
X114252560Y-161016886D01*
X114238837Y-161003163D01*
X114214873Y-160973963D01*
X114157994Y-160904655D01*
X114147218Y-160888528D01*
X114087147Y-160776142D01*
X114079721Y-160758214D01*
X114042731Y-160636273D01*
X114038945Y-160617238D01*
X114025977Y-160485567D01*
X114025500Y-160475864D01*
X114025500Y-153022079D01*
X114370000Y-153022079D01*
X114370000Y-153199368D01*
X114404586Y-153373243D01*
X114404586Y-153373245D01*
X114472428Y-153537031D01*
X114550327Y-153653617D01*
X114949076Y-153254867D01*
X114989930Y-153325629D01*
X115055095Y-153390794D01*
X115125853Y-153431646D01*
X114727105Y-153830395D01*
X114843692Y-153908295D01*
X115007479Y-153976137D01*
X115181355Y-154010723D01*
X115181359Y-154010724D01*
X115358641Y-154010724D01*
X115358644Y-154010723D01*
X115532519Y-153976137D01*
X115532521Y-153976137D01*
X115696305Y-153908296D01*
X115696317Y-153908290D01*
X115812893Y-153830395D01*
X115414145Y-153431647D01*
X115484905Y-153390794D01*
X115550070Y-153325629D01*
X115590923Y-153254869D01*
X115989671Y-153653617D01*
X116067566Y-153537041D01*
X116067572Y-153537029D01*
X116135413Y-153373245D01*
X116135413Y-153373243D01*
X116169999Y-153199368D01*
X116170000Y-153199365D01*
X116170000Y-153022082D01*
X116169999Y-153022079D01*
X116135413Y-152848204D01*
X116135413Y-152848202D01*
X116067571Y-152684416D01*
X115989671Y-152567829D01*
X115590922Y-152966577D01*
X115550070Y-152895819D01*
X115484905Y-152830654D01*
X115414143Y-152789800D01*
X115812893Y-152391051D01*
X115696307Y-152313152D01*
X115532520Y-152245310D01*
X115358644Y-152210724D01*
X115181355Y-152210724D01*
X115007480Y-152245310D01*
X115007478Y-152245310D01*
X114843692Y-152313152D01*
X114727106Y-152391052D01*
X115125854Y-152789800D01*
X115055095Y-152830654D01*
X114989930Y-152895819D01*
X114949076Y-152966578D01*
X114550328Y-152567830D01*
X114472428Y-152684416D01*
X114404586Y-152848202D01*
X114404586Y-152848204D01*
X114370000Y-153022079D01*
X114025500Y-153022079D01*
X114025500Y-151157075D01*
X114044407Y-151098884D01*
X114093907Y-151062920D01*
X114155093Y-151062920D01*
X114204593Y-151098884D01*
X114210237Y-151107576D01*
X114216980Y-151119256D01*
X114328783Y-151231060D01*
X114328784Y-151231060D01*
X114328785Y-151231061D01*
X114328784Y-151231061D01*
X114813968Y-151716244D01*
X114950893Y-151795298D01*
X114950894Y-151795298D01*
X114950899Y-151795301D01*
X115103627Y-151836225D01*
X115103629Y-151836225D01*
X115267805Y-151836225D01*
X115267821Y-151836224D01*
X116039055Y-151836224D01*
X116039057Y-151836224D01*
X116191784Y-151795301D01*
X116271137Y-151749486D01*
X116320636Y-151736224D01*
X116505757Y-151736224D01*
X116505760Y-151736224D01*
X116573893Y-151726297D01*
X116678983Y-151674922D01*
X116761698Y-151592207D01*
X116813073Y-151487117D01*
X116823000Y-151418984D01*
X116823000Y-151052464D01*
X116813073Y-150984331D01*
X116812092Y-150982325D01*
X116766577Y-150889222D01*
X116761698Y-150879241D01*
X116678983Y-150796526D01*
X116678981Y-150796525D01*
X116573895Y-150745151D01*
X116544161Y-150740819D01*
X116505760Y-150735224D01*
X116505757Y-150735224D01*
X116320636Y-150735224D01*
X116271137Y-150721961D01*
X116191784Y-150676147D01*
X116039057Y-150635224D01*
X116039055Y-150635224D01*
X115472428Y-150635224D01*
X115464830Y-150632755D01*
X115456941Y-150634005D01*
X115436285Y-150623480D01*
X115414237Y-150616317D01*
X115402424Y-150606228D01*
X115326996Y-150530800D01*
X115299219Y-150476283D01*
X115298000Y-150460796D01*
X115298000Y-149933757D01*
X115316907Y-149875566D01*
X115366407Y-149839602D01*
X115411276Y-149835792D01*
X115414240Y-149836224D01*
X115414243Y-149836224D01*
X116505757Y-149836224D01*
X116505760Y-149836224D01*
X116573893Y-149826297D01*
X116678983Y-149774922D01*
X116761698Y-149692207D01*
X116813073Y-149587117D01*
X116823000Y-149518984D01*
X116823000Y-149344091D01*
X116841907Y-149285900D01*
X116891407Y-149249936D01*
X116922000Y-149245091D01*
X117075059Y-149245091D01*
X117075059Y-149245090D01*
X117227785Y-149204167D01*
X117227787Y-149204165D01*
X117233783Y-149201683D01*
X117234841Y-149204238D01*
X117283303Y-149193915D01*
X117339210Y-149218775D01*
X117369827Y-149271749D01*
X117372000Y-149292377D01*
X117372000Y-149518984D01*
X117374285Y-149534665D01*
X117381927Y-149587119D01*
X117404718Y-149633738D01*
X117433302Y-149692207D01*
X117481817Y-149740722D01*
X117509593Y-149795237D01*
X117500022Y-149855669D01*
X117481818Y-149880724D01*
X117457271Y-149905272D01*
X117433301Y-149929242D01*
X117381927Y-150034328D01*
X117378908Y-150055053D01*
X117372000Y-150102464D01*
X117372000Y-150468984D01*
X117378456Y-150513294D01*
X117381927Y-150537119D01*
X117415713Y-150606228D01*
X117433302Y-150642207D01*
X117481817Y-150690722D01*
X117509593Y-150745237D01*
X117500022Y-150805669D01*
X117481818Y-150830724D01*
X117445513Y-150867030D01*
X117433301Y-150879242D01*
X117381927Y-150984328D01*
X117379381Y-151001802D01*
X117372000Y-151052464D01*
X117372000Y-151418984D01*
X117378618Y-151464406D01*
X117381927Y-151487119D01*
X117402773Y-151529759D01*
X117433302Y-151592207D01*
X117516017Y-151674922D01*
X117578981Y-151705703D01*
X117622954Y-151748245D01*
X117634500Y-151794643D01*
X117634500Y-153159065D01*
X117634499Y-153159083D01*
X117634499Y-153323258D01*
X117675422Y-153475986D01*
X117675423Y-153475987D01*
X117684962Y-153492508D01*
X117748018Y-153601726D01*
X117760739Y-153661573D01*
X117746946Y-153692551D01*
X117735852Y-153717468D01*
X117682864Y-153748061D01*
X117662281Y-153750224D01*
X117520308Y-153750224D01*
X117426834Y-153775269D01*
X117367575Y-153791148D01*
X117324146Y-153816223D01*
X117230649Y-153870203D01*
X117118844Y-153982007D01*
X117118845Y-153982008D01*
X117118843Y-153982010D01*
X116486286Y-154614567D01*
X116486284Y-154614569D01*
X116486283Y-154614568D01*
X116374479Y-154726373D01*
X116368828Y-154736162D01*
X116342204Y-154782278D01*
X116321577Y-154818003D01*
X116295424Y-154863301D01*
X116295423Y-154863303D01*
X116295423Y-154863304D01*
X116254499Y-155016032D01*
X116254499Y-155016034D01*
X116254499Y-155182120D01*
X116254500Y-155182133D01*
X116254500Y-157021222D01*
X116254499Y-157021240D01*
X116254499Y-157027302D01*
X116254499Y-157185416D01*
X116295423Y-157338143D01*
X116295425Y-157338147D01*
X116324360Y-157388264D01*
X116324361Y-157388264D01*
X116374480Y-157475075D01*
X116486284Y-157586879D01*
X116486286Y-157586880D01*
X117043843Y-158144437D01*
X117043845Y-158144440D01*
X117155649Y-158256244D01*
X117155651Y-158256245D01*
X117155654Y-158256248D01*
X117155653Y-158256248D01*
X117242456Y-158306361D01*
X117242458Y-158306363D01*
X117242459Y-158306363D01*
X117265281Y-158319539D01*
X117292580Y-158335301D01*
X117445308Y-158376224D01*
X122245943Y-158376224D01*
X126940499Y-158376224D01*
X126940515Y-158376225D01*
X126946578Y-158376225D01*
X127104691Y-158376225D01*
X127104692Y-158376225D01*
X127257420Y-158335301D01*
X127307539Y-158306363D01*
X127394351Y-158256244D01*
X127506155Y-158144440D01*
X127506156Y-158144437D01*
X128063713Y-157586880D01*
X128063716Y-157586879D01*
X128175520Y-157475075D01*
X128225639Y-157388263D01*
X128254577Y-157338144D01*
X128295500Y-157185416D01*
X128295500Y-157027302D01*
X128295500Y-155182133D01*
X128295501Y-155182120D01*
X128295501Y-155016034D01*
X128295501Y-155016032D01*
X128254577Y-154863304D01*
X128207796Y-154782278D01*
X128175520Y-154726373D01*
X128063716Y-154614569D01*
X128063713Y-154614567D01*
X127209556Y-153760410D01*
X127181779Y-153705893D01*
X127191350Y-153645461D01*
X127209556Y-153620402D01*
X127657879Y-153172079D01*
X128460000Y-153172079D01*
X128460000Y-153349368D01*
X128494586Y-153523243D01*
X128494586Y-153523245D01*
X128562428Y-153687031D01*
X128640327Y-153803617D01*
X129039076Y-153404867D01*
X129079930Y-153475629D01*
X129145095Y-153540794D01*
X129215853Y-153581646D01*
X128817105Y-153980395D01*
X128933692Y-154058295D01*
X129097479Y-154126137D01*
X129271355Y-154160723D01*
X129271359Y-154160724D01*
X129448641Y-154160724D01*
X129448644Y-154160723D01*
X129622519Y-154126137D01*
X129622521Y-154126137D01*
X129786305Y-154058296D01*
X129786317Y-154058290D01*
X129902893Y-153980395D01*
X129504145Y-153581647D01*
X129574905Y-153540794D01*
X129640070Y-153475629D01*
X129680923Y-153404869D01*
X130079671Y-153803617D01*
X130157566Y-153687041D01*
X130157572Y-153687029D01*
X130225413Y-153523245D01*
X130225413Y-153523243D01*
X130259999Y-153349368D01*
X130260000Y-153349365D01*
X130260000Y-153172082D01*
X130259999Y-153172079D01*
X130225413Y-152998204D01*
X130225413Y-152998202D01*
X130157571Y-152834416D01*
X130079671Y-152717829D01*
X129680922Y-153116577D01*
X129640070Y-153045819D01*
X129574905Y-152980654D01*
X129504143Y-152939800D01*
X129902893Y-152541051D01*
X129786307Y-152463152D01*
X129622520Y-152395310D01*
X129448644Y-152360724D01*
X129271355Y-152360724D01*
X129097480Y-152395310D01*
X129097478Y-152395310D01*
X128933692Y-152463152D01*
X128817106Y-152541052D01*
X129215854Y-152939800D01*
X129145095Y-152980654D01*
X129079930Y-153045819D01*
X129039076Y-153116578D01*
X128640328Y-152717830D01*
X128562428Y-152834416D01*
X128494586Y-152998202D01*
X128494586Y-152998204D01*
X128460000Y-153172079D01*
X127657879Y-153172079D01*
X127732743Y-153097215D01*
X128014124Y-152815834D01*
X128813713Y-152016245D01*
X128813716Y-152016244D01*
X128925520Y-151904440D01*
X128988531Y-151795301D01*
X129004577Y-151767509D01*
X129045500Y-151614782D01*
X129045500Y-151456667D01*
X129045500Y-151227376D01*
X129064117Y-151170076D01*
X129064087Y-151170056D01*
X129064159Y-151169948D01*
X129064407Y-151169185D01*
X129066343Y-151166679D01*
X129066786Y-151166015D01*
X129066789Y-151166013D01*
X129154394Y-151034903D01*
X129214737Y-150889221D01*
X129245500Y-150734566D01*
X129245500Y-150576882D01*
X129214737Y-150422227D01*
X129154394Y-150276545D01*
X129154393Y-150276543D01*
X129154390Y-150276538D01*
X129092750Y-150184289D01*
X129066789Y-150145435D01*
X128955289Y-150033935D01*
X128886147Y-149987736D01*
X128848270Y-149939689D01*
X128845868Y-149878551D01*
X128879860Y-149827677D01*
X128886149Y-149823108D01*
X128915796Y-149803298D01*
X128550528Y-149438030D01*
X128560796Y-149435280D01*
X128629205Y-149395784D01*
X128685060Y-149339929D01*
X128724556Y-149271520D01*
X128727306Y-149261252D01*
X129092574Y-149626520D01*
X129153951Y-149534665D01*
X129214257Y-149389073D01*
X129244999Y-149234519D01*
X129245000Y-149234516D01*
X129245000Y-149076931D01*
X129244999Y-149076928D01*
X129214257Y-148922374D01*
X129153951Y-148776782D01*
X129092574Y-148684926D01*
X128727306Y-149050193D01*
X128724556Y-149039928D01*
X128685060Y-148971519D01*
X128629205Y-148915664D01*
X128560796Y-148876168D01*
X128550527Y-148873416D01*
X128915796Y-148508148D01*
X128823941Y-148446772D01*
X128678349Y-148386466D01*
X128523795Y-148355724D01*
X128366204Y-148355724D01*
X128211650Y-148386466D01*
X128066058Y-148446772D01*
X127974202Y-148508148D01*
X128339471Y-148873417D01*
X128329204Y-148876168D01*
X128260795Y-148915664D01*
X128204940Y-148971519D01*
X128165444Y-149039928D01*
X128162693Y-149050195D01*
X127797424Y-148684926D01*
X127736048Y-148776782D01*
X127675742Y-148922374D01*
X127645000Y-149076928D01*
X127645000Y-149234519D01*
X127675742Y-149389073D01*
X127736048Y-149534665D01*
X127797424Y-149626520D01*
X128162692Y-149261251D01*
X128165444Y-149271520D01*
X128204940Y-149339929D01*
X128260795Y-149395784D01*
X128329204Y-149435280D01*
X128339469Y-149438030D01*
X127974202Y-149803298D01*
X128003849Y-149823108D01*
X128006247Y-149826150D01*
X128009885Y-149827479D01*
X128024984Y-149849918D01*
X128041728Y-149871158D01*
X128041880Y-149875027D01*
X128044043Y-149878242D01*
X128043068Y-149905272D01*
X128044130Y-149932297D01*
X128041977Y-149935518D01*
X128041838Y-149939388D01*
X128025482Y-149960203D01*
X128010137Y-149983170D01*
X128004115Y-149987560D01*
X128003970Y-149987657D01*
X127934711Y-150033935D01*
X127933717Y-150034928D01*
X127928616Y-150038361D01*
X127903494Y-150045534D01*
X127879168Y-150055053D01*
X127873348Y-150055224D01*
X127394744Y-150055224D01*
X127336553Y-150036317D01*
X127324740Y-150026228D01*
X126164239Y-148865727D01*
X126136462Y-148811210D01*
X126146033Y-148750778D01*
X126164236Y-148725722D01*
X127420520Y-147469440D01*
X127499577Y-147332508D01*
X127540501Y-147179781D01*
X127540501Y-147021666D01*
X127540501Y-147015604D01*
X127540500Y-147015586D01*
X127540500Y-146835005D01*
X127559407Y-146776814D01*
X127594557Y-146746795D01*
X127594851Y-146746645D01*
X127621610Y-146733011D01*
X127787219Y-146612690D01*
X127931966Y-146467943D01*
X127940879Y-146455674D01*
X127990379Y-146419710D01*
X128051564Y-146419709D01*
X128101065Y-146455672D01*
X128116599Y-146488237D01*
X128120423Y-146502509D01*
X128130660Y-146520239D01*
X128133404Y-146524992D01*
X128133403Y-146524992D01*
X128199480Y-146639440D01*
X128209479Y-146649440D01*
X128321284Y-146761244D01*
X128321288Y-146761248D01*
X128408091Y-146811361D01*
X128408093Y-146811363D01*
X128408094Y-146811363D01*
X128430916Y-146824539D01*
X128458215Y-146840301D01*
X128610943Y-146881224D01*
X128610945Y-146881224D01*
X128769055Y-146881224D01*
X128769057Y-146881224D01*
X128921785Y-146840301D01*
X128971904Y-146811363D01*
X129058716Y-146761244D01*
X129170520Y-146649440D01*
X129224800Y-146555424D01*
X129249577Y-146512509D01*
X129290500Y-146359781D01*
X129290500Y-146201667D01*
X129288936Y-146195833D01*
X129283873Y-146176932D01*
X129280500Y-146151311D01*
X129280500Y-144236668D01*
X129251643Y-144128973D01*
X129239577Y-144083940D01*
X129239577Y-144083939D01*
X129237428Y-144080217D01*
X129210639Y-144033818D01*
X129210639Y-144033817D01*
X129210637Y-144033815D01*
X129160524Y-143947013D01*
X129160521Y-143947010D01*
X129160520Y-143947008D01*
X129048716Y-143835204D01*
X129048713Y-143835202D01*
X128254496Y-143040985D01*
X128226719Y-142986468D01*
X128225500Y-142970981D01*
X128225500Y-142567109D01*
X128225499Y-142567105D01*
X128209283Y-142485583D01*
X128188973Y-142383473D01*
X128117322Y-142210493D01*
X128117320Y-142210491D01*
X128117318Y-142210485D01*
X128025401Y-142072924D01*
X128013302Y-142054816D01*
X127880908Y-141922422D01*
X127866115Y-141912537D01*
X127828237Y-141864490D01*
X127825835Y-141803352D01*
X127859827Y-141752478D01*
X127917231Y-141731300D01*
X127921118Y-141731224D01*
X129730830Y-141731224D01*
X129770140Y-141731224D01*
X129779843Y-141731701D01*
G37*
%TD.AperFunction*%
%TA.AperFunction,Conductor*%
G36*
X119245293Y-154952477D02*
G01*
X119247910Y-154951971D01*
X119254742Y-154952815D01*
X119267464Y-154956224D01*
X119267465Y-154956224D01*
X119282332Y-154956224D01*
X119288378Y-154956971D01*
X119310844Y-154967468D01*
X119334429Y-154975131D01*
X119338120Y-154980212D01*
X119343811Y-154982871D01*
X119355814Y-155004565D01*
X119370393Y-155024631D01*
X119370393Y-155030913D01*
X119373433Y-155036408D01*
X119374073Y-155063842D01*
X119374759Y-155063892D01*
X119374500Y-155067465D01*
X119374500Y-155931770D01*
X119355593Y-155989961D01*
X119306093Y-156025925D01*
X119301123Y-156027397D01*
X119162860Y-156064444D01*
X119031639Y-156140205D01*
X118924481Y-156247363D01*
X118848720Y-156378584D01*
X118848719Y-156378589D01*
X118809500Y-156524958D01*
X118809500Y-156676490D01*
X118844086Y-156805571D01*
X118848720Y-156822863D01*
X118924481Y-156954084D01*
X118924483Y-156954086D01*
X118924485Y-156954089D01*
X118976618Y-157006222D01*
X119004394Y-157060737D01*
X118994823Y-157121169D01*
X118951558Y-157164434D01*
X118906613Y-157175224D01*
X117814108Y-157175224D01*
X117755917Y-157156317D01*
X117744104Y-157146228D01*
X117484496Y-156886620D01*
X117456719Y-156832103D01*
X117455500Y-156816616D01*
X117455500Y-155384832D01*
X117474407Y-155326641D01*
X117484496Y-155314828D01*
X117819104Y-154980220D01*
X117873621Y-154952443D01*
X117889108Y-154951224D01*
X119235770Y-154951224D01*
X119245293Y-154952477D01*
G37*
%TD.AperFunction*%
%TA.AperFunction,Conductor*%
G36*
X126335262Y-154591440D02*
G01*
X126360321Y-154609645D01*
X127065504Y-155314828D01*
X127093281Y-155369345D01*
X127094500Y-155384832D01*
X127094500Y-156816616D01*
X127075593Y-156874807D01*
X127065504Y-156886620D01*
X126805896Y-157146228D01*
X126751379Y-157174005D01*
X126735892Y-157175224D01*
X125643387Y-157175224D01*
X125585196Y-157156317D01*
X125549232Y-157106817D01*
X125549232Y-157045631D01*
X125573381Y-157006222D01*
X125625515Y-156954089D01*
X125625518Y-156954084D01*
X125701279Y-156822863D01*
X125701279Y-156822861D01*
X125701281Y-156822859D01*
X125740500Y-156676490D01*
X125740500Y-156524958D01*
X125701281Y-156378589D01*
X125701279Y-156378586D01*
X125701279Y-156378584D01*
X125625518Y-156247363D01*
X125625516Y-156247361D01*
X125625515Y-156247359D01*
X125518365Y-156140209D01*
X125518362Y-156140207D01*
X125518360Y-156140205D01*
X125387138Y-156064444D01*
X125387139Y-156064444D01*
X125248877Y-156027397D01*
X125197562Y-155994073D01*
X125175636Y-155936951D01*
X125175500Y-155931770D01*
X125175500Y-155075650D01*
X125177968Y-155068052D01*
X125176719Y-155060164D01*
X125187242Y-155039510D01*
X125194407Y-155017459D01*
X125204496Y-155005647D01*
X125250306Y-154959836D01*
X125304822Y-154932058D01*
X125345930Y-154934211D01*
X125409421Y-154951224D01*
X125544864Y-154951224D01*
X125544880Y-154951225D01*
X125550943Y-154951225D01*
X125709055Y-154951225D01*
X125709057Y-154951225D01*
X125861785Y-154910301D01*
X125943184Y-154863305D01*
X125998716Y-154831244D01*
X126110520Y-154719440D01*
X126110520Y-154719438D01*
X126118670Y-154711289D01*
X126118672Y-154711286D01*
X126220314Y-154609645D01*
X126274830Y-154581868D01*
X126335262Y-154591440D01*
G37*
%TD.AperFunction*%
%TA.AperFunction,Conductor*%
G36*
X121687073Y-141750131D02*
G01*
X121723037Y-141799631D01*
X121723037Y-141860817D01*
X121687073Y-141910317D01*
X121683918Y-141912515D01*
X121669092Y-141922422D01*
X121669090Y-141922424D01*
X121669088Y-141922425D01*
X121536701Y-142054812D01*
X121536698Y-142054816D01*
X121432681Y-142210485D01*
X121432677Y-142210494D01*
X121361026Y-142383474D01*
X121324500Y-142567105D01*
X121324500Y-143254342D01*
X121361026Y-143437973D01*
X121432677Y-143610953D01*
X121432681Y-143610962D01*
X121507065Y-143722283D01*
X121536698Y-143766632D01*
X121669092Y-143899026D01*
X121715379Y-143929954D01*
X121824761Y-144003042D01*
X121824767Y-144003044D01*
X121824769Y-144003046D01*
X121997749Y-144074697D01*
X122134404Y-144101879D01*
X122185094Y-144128973D01*
X122948004Y-144891883D01*
X122975781Y-144946400D01*
X122977000Y-144961887D01*
X122977000Y-149330745D01*
X122958093Y-149388936D01*
X122948004Y-149400749D01*
X122383410Y-149965343D01*
X122383409Y-149965342D01*
X122322437Y-150026315D01*
X122322435Y-150026317D01*
X122322435Y-150026318D01*
X122317809Y-150034331D01*
X122279317Y-150101000D01*
X122279317Y-150101001D01*
X122257000Y-150184289D01*
X122257000Y-154270224D01*
X122238093Y-154328415D01*
X122188593Y-154364379D01*
X122158000Y-154369224D01*
X121768525Y-154369224D01*
X121685237Y-154391541D01*
X121685236Y-154391541D01*
X121610551Y-154434661D01*
X121494503Y-154550709D01*
X121439987Y-154578486D01*
X121379555Y-154568914D01*
X121336290Y-154525650D01*
X121325500Y-154480705D01*
X121325500Y-153746161D01*
X121325499Y-153746159D01*
X121308569Y-153682978D01*
X121305021Y-153669735D01*
X121295715Y-153653617D01*
X121265460Y-153601213D01*
X121210458Y-153546210D01*
X121182681Y-153491693D01*
X121188997Y-153438324D01*
X121215894Y-153373390D01*
X121250500Y-153199415D01*
X121250500Y-153022033D01*
X121215894Y-152848058D01*
X121161952Y-152717829D01*
X121148014Y-152684179D01*
X121148014Y-152684178D01*
X121049464Y-152536689D01*
X120924034Y-152411259D01*
X120776544Y-152312709D01*
X120612666Y-152244830D01*
X120438693Y-152210224D01*
X120438691Y-152210224D01*
X120261309Y-152210224D01*
X120261306Y-152210224D01*
X120087334Y-152244830D01*
X120087332Y-152244830D01*
X119923455Y-152312709D01*
X119923454Y-152312709D01*
X119775965Y-152411259D01*
X119650535Y-152536689D01*
X119551985Y-152684178D01*
X119551985Y-152684179D01*
X119484106Y-152848056D01*
X119484106Y-152848058D01*
X119449500Y-153022030D01*
X119449500Y-153199417D01*
X119467559Y-153290202D01*
X119479337Y-153349417D01*
X119484106Y-153373389D01*
X119484106Y-153373390D01*
X119485045Y-153375657D01*
X119485132Y-153376773D01*
X119485517Y-153378040D01*
X119485239Y-153378124D01*
X119489842Y-153436654D01*
X119457870Y-153488822D01*
X119401341Y-153512233D01*
X119341847Y-153497947D01*
X119323575Y-153483542D01*
X118864496Y-153024463D01*
X118836719Y-152969946D01*
X118835500Y-152954459D01*
X118835500Y-151794643D01*
X118854407Y-151736452D01*
X118891018Y-151705703D01*
X118953983Y-151674922D01*
X119036698Y-151592207D01*
X119088073Y-151487117D01*
X119098000Y-151418984D01*
X119098000Y-151278867D01*
X119116907Y-151220676D01*
X119166407Y-151184712D01*
X119227593Y-151184712D01*
X119277093Y-151220676D01*
X119288464Y-151240982D01*
X119346985Y-151382268D01*
X119346985Y-151382269D01*
X119424727Y-151498617D01*
X119445536Y-151529759D01*
X119570965Y-151655188D01*
X119718453Y-151753737D01*
X119882334Y-151821618D01*
X120056309Y-151856224D01*
X120056310Y-151856224D01*
X120233690Y-151856224D01*
X120233691Y-151856224D01*
X120407666Y-151821618D01*
X120571547Y-151753737D01*
X120719035Y-151655188D01*
X120844464Y-151529759D01*
X120943013Y-151382271D01*
X121010894Y-151218390D01*
X121045500Y-151044415D01*
X121045500Y-150867033D01*
X121010894Y-150693058D01*
X120943014Y-150529179D01*
X120943014Y-150529178D01*
X120844464Y-150381689D01*
X120719034Y-150256259D01*
X120571544Y-150157709D01*
X120407666Y-150089830D01*
X120233693Y-150055224D01*
X120233691Y-150055224D01*
X120056309Y-150055224D01*
X120056306Y-150055224D01*
X119882332Y-150089830D01*
X119882330Y-150089831D01*
X119873961Y-150093297D01*
X119812964Y-150098092D01*
X119766080Y-150071833D01*
X119126996Y-149432749D01*
X119099219Y-149378232D01*
X119098000Y-149362745D01*
X119098000Y-149205847D01*
X119116907Y-149147656D01*
X119166407Y-149111692D01*
X119227593Y-149111692D01*
X119277093Y-149147656D01*
X119288464Y-149167962D01*
X119327428Y-149262031D01*
X119405327Y-149378617D01*
X119804076Y-148979867D01*
X119844930Y-149050629D01*
X119910095Y-149115794D01*
X119980853Y-149156646D01*
X119582105Y-149555395D01*
X119698692Y-149633295D01*
X119862479Y-149701137D01*
X120036355Y-149735723D01*
X120036359Y-149735724D01*
X120213641Y-149735724D01*
X120213644Y-149735723D01*
X120387519Y-149701137D01*
X120387521Y-149701137D01*
X120551305Y-149633296D01*
X120551317Y-149633290D01*
X120667893Y-149555395D01*
X120269145Y-149156647D01*
X120339905Y-149115794D01*
X120405070Y-149050629D01*
X120445923Y-148979869D01*
X120844671Y-149378617D01*
X120922566Y-149262041D01*
X120922572Y-149262029D01*
X120990413Y-149098245D01*
X120990413Y-149098243D01*
X121024999Y-148924368D01*
X121025000Y-148924365D01*
X121025000Y-148747082D01*
X121024999Y-148747079D01*
X120990413Y-148573204D01*
X120990413Y-148573202D01*
X120922571Y-148409416D01*
X120844671Y-148292829D01*
X120445922Y-148691577D01*
X120405070Y-148620819D01*
X120339905Y-148555654D01*
X120269143Y-148514800D01*
X120667893Y-148116051D01*
X120551307Y-148038152D01*
X120387520Y-147970310D01*
X120213644Y-147935724D01*
X120036355Y-147935724D01*
X119862480Y-147970310D01*
X119862478Y-147970310D01*
X119698692Y-148038152D01*
X119582106Y-148116052D01*
X119980854Y-148514800D01*
X119910095Y-148555654D01*
X119844930Y-148620819D01*
X119804076Y-148691578D01*
X119405328Y-148292830D01*
X119327428Y-148409416D01*
X119259586Y-148573202D01*
X119259586Y-148573204D01*
X119225000Y-148747079D01*
X119225000Y-148924366D01*
X119225420Y-148928634D01*
X119212304Y-148988397D01*
X119166565Y-149029037D01*
X119105673Y-149035031D01*
X119052889Y-149004088D01*
X119037956Y-148981813D01*
X119036700Y-148979245D01*
X119036699Y-148979243D01*
X119036698Y-148979242D01*
X119036698Y-148979241D01*
X118953983Y-148896526D01*
X118953981Y-148896525D01*
X118848895Y-148845151D01*
X118821639Y-148841180D01*
X118780760Y-148835224D01*
X117694700Y-148835224D01*
X117679578Y-148830310D01*
X117663682Y-148830239D01*
X117651215Y-148821095D01*
X117636509Y-148816317D01*
X117627163Y-148803453D01*
X117614345Y-148794052D01*
X117611173Y-148781445D01*
X117600545Y-148766817D01*
X117595701Y-148735776D01*
X117595743Y-148726476D01*
X117596501Y-148723648D01*
X117596501Y-148565533D01*
X117596500Y-148565529D01*
X117596500Y-148228932D01*
X117615407Y-148170741D01*
X117652020Y-148139991D01*
X117677000Y-148127779D01*
X117733983Y-148099922D01*
X117816698Y-148017207D01*
X117868073Y-147912117D01*
X117878000Y-147843984D01*
X117878000Y-147477464D01*
X117868073Y-147409331D01*
X117816698Y-147304241D01*
X117733983Y-147221526D01*
X117733981Y-147221525D01*
X117628895Y-147170151D01*
X117601639Y-147166180D01*
X117560760Y-147160224D01*
X117560757Y-147160224D01*
X117300635Y-147160224D01*
X117251134Y-147146960D01*
X117241360Y-147141317D01*
X117232664Y-147136296D01*
X117171788Y-147101148D01*
X117171785Y-147101147D01*
X117019057Y-147060223D01*
X116860943Y-147060223D01*
X116726259Y-147096311D01*
X116708211Y-147101148D01*
X116640372Y-147140316D01*
X116638640Y-147141317D01*
X116628866Y-147146960D01*
X116579365Y-147160224D01*
X116502000Y-147160224D01*
X116443809Y-147141317D01*
X116407845Y-147091817D01*
X116403000Y-147061224D01*
X116403000Y-146360224D01*
X116421907Y-146302033D01*
X116471407Y-146266069D01*
X116502000Y-146261224D01*
X116579364Y-146261224D01*
X116628862Y-146274486D01*
X116708216Y-146320301D01*
X116860943Y-146361224D01*
X117920501Y-146361224D01*
X117978692Y-146380131D01*
X118014656Y-146429631D01*
X118019501Y-146460224D01*
X118019501Y-146524991D01*
X118022353Y-146555420D01*
X118022353Y-146555422D01*
X118022354Y-146555424D01*
X118062243Y-146669421D01*
X118067208Y-146683610D01*
X118147845Y-146792869D01*
X118147854Y-146792878D01*
X118257115Y-146873516D01*
X118257116Y-146873516D01*
X118257117Y-146873517D01*
X118385300Y-146918370D01*
X118415733Y-146921224D01*
X120224266Y-146921223D01*
X120224267Y-146921223D01*
X120230352Y-146920652D01*
X120254700Y-146918370D01*
X120382883Y-146873517D01*
X120412054Y-146851988D01*
X120492145Y-146792878D01*
X120492146Y-146792876D01*
X120492150Y-146792874D01*
X120572793Y-146683607D01*
X120617646Y-146555424D01*
X120620500Y-146524991D01*
X120620499Y-144716458D01*
X120617646Y-144686024D01*
X120572793Y-144557841D01*
X120572791Y-144557839D01*
X120572791Y-144557837D01*
X120492154Y-144448578D01*
X120492145Y-144448569D01*
X120415712Y-144392159D01*
X120380119Y-144342391D01*
X120375500Y-144312504D01*
X120375500Y-143945441D01*
X120394407Y-143887250D01*
X120404497Y-143875437D01*
X120513294Y-143766640D01*
X120513302Y-143766632D01*
X120587282Y-143655911D01*
X120617318Y-143610962D01*
X120617319Y-143610958D01*
X120617322Y-143610955D01*
X120688973Y-143437975D01*
X120725500Y-143254340D01*
X120725500Y-142567108D01*
X120688973Y-142383473D01*
X120617322Y-142210493D01*
X120617320Y-142210491D01*
X120617318Y-142210485D01*
X120525401Y-142072924D01*
X120513302Y-142054816D01*
X120380908Y-141922422D01*
X120366115Y-141912537D01*
X120328237Y-141864490D01*
X120325835Y-141803352D01*
X120359827Y-141752478D01*
X120417231Y-141731300D01*
X120421118Y-141731224D01*
X121628882Y-141731224D01*
X121687073Y-141750131D01*
G37*
%TD.AperFunction*%
%TA.AperFunction,Conductor*%
G36*
X126687073Y-141750131D02*
G01*
X126723037Y-141799631D01*
X126723037Y-141860817D01*
X126687073Y-141910317D01*
X126683918Y-141912515D01*
X126669092Y-141922422D01*
X126669090Y-141922424D01*
X126669088Y-141922425D01*
X126536701Y-142054812D01*
X126536698Y-142054816D01*
X126432681Y-142210485D01*
X126432677Y-142210494D01*
X126361026Y-142383474D01*
X126324500Y-142567105D01*
X126324500Y-143254342D01*
X126361026Y-143437973D01*
X126432677Y-143610953D01*
X126432681Y-143610962D01*
X126507065Y-143722283D01*
X126536698Y-143766632D01*
X126669092Y-143899026D01*
X126715379Y-143929954D01*
X126824761Y-144003042D01*
X126824767Y-144003044D01*
X126824769Y-144003046D01*
X126997749Y-144074697D01*
X127181384Y-144111224D01*
X127181385Y-144111224D01*
X127368615Y-144111224D01*
X127368616Y-144111224D01*
X127531620Y-144078800D01*
X127592378Y-144085992D01*
X127620935Y-144105894D01*
X128050504Y-144535463D01*
X128054130Y-144542580D01*
X128060593Y-144547276D01*
X128067756Y-144569324D01*
X128078281Y-144589980D01*
X128079500Y-144605467D01*
X128079500Y-144682032D01*
X128060593Y-144740223D01*
X128011093Y-144776187D01*
X127949907Y-144776187D01*
X127910498Y-144752037D01*
X127787219Y-144628758D01*
X127787215Y-144628755D01*
X127787213Y-144628753D01*
X127621613Y-144508438D01*
X127621609Y-144508436D01*
X127439219Y-144415504D01*
X127244529Y-144352245D01*
X127042355Y-144320224D01*
X127042352Y-144320224D01*
X126837648Y-144320224D01*
X126837645Y-144320224D01*
X126635470Y-144352245D01*
X126440780Y-144415504D01*
X126258390Y-144508436D01*
X126258386Y-144508438D01*
X126092786Y-144628753D01*
X125948029Y-144773510D01*
X125827714Y-144939110D01*
X125827712Y-144939114D01*
X125734780Y-145121504D01*
X125671521Y-145316194D01*
X125639500Y-145518368D01*
X125639500Y-145723079D01*
X125671521Y-145925253D01*
X125734780Y-146119943D01*
X125827712Y-146302333D01*
X125827714Y-146302337D01*
X125948029Y-146467937D01*
X125948031Y-146467939D01*
X125948034Y-146467943D01*
X126092781Y-146612690D01*
X126092784Y-146612692D01*
X126092786Y-146612694D01*
X126143359Y-146649437D01*
X126258390Y-146733011D01*
X126269530Y-146738687D01*
X126312794Y-146781953D01*
X126322364Y-146842385D01*
X126294587Y-146896900D01*
X125285261Y-147906228D01*
X125230744Y-147934005D01*
X125215257Y-147935224D01*
X125116306Y-147935224D01*
X124942334Y-147969830D01*
X124942332Y-147969830D01*
X124778455Y-148037709D01*
X124778454Y-148037709D01*
X124630965Y-148136259D01*
X124505535Y-148261689D01*
X124406985Y-148409178D01*
X124406985Y-148409179D01*
X124339106Y-148573056D01*
X124339106Y-148573058D01*
X124304500Y-148747030D01*
X124304500Y-148924417D01*
X124325311Y-149029037D01*
X124336309Y-149084331D01*
X124339106Y-149098389D01*
X124339106Y-149098391D01*
X124406985Y-149262268D01*
X124406985Y-149262269D01*
X124501523Y-149403753D01*
X124505536Y-149409759D01*
X124630965Y-149535188D01*
X124778453Y-149633737D01*
X124942334Y-149701618D01*
X125116309Y-149736224D01*
X125116310Y-149736224D01*
X125295257Y-149736224D01*
X125353448Y-149755131D01*
X125365261Y-149765220D01*
X125509942Y-149909901D01*
X125537719Y-149964418D01*
X125528148Y-150024850D01*
X125484883Y-150068115D01*
X125424451Y-150077686D01*
X125420625Y-150077003D01*
X125313646Y-150055724D01*
X125136355Y-150055724D01*
X124962480Y-150090310D01*
X124962478Y-150090310D01*
X124798692Y-150158152D01*
X124682105Y-150236052D01*
X125080853Y-150634801D01*
X125010095Y-150675654D01*
X124944930Y-150740819D01*
X124904076Y-150811578D01*
X124505328Y-150412830D01*
X124427428Y-150529416D01*
X124359586Y-150693202D01*
X124359586Y-150693204D01*
X124325000Y-150867079D01*
X124325000Y-151044368D01*
X124359586Y-151218243D01*
X124359586Y-151218245D01*
X124427428Y-151382031D01*
X124505327Y-151498617D01*
X124904076Y-151099867D01*
X124944930Y-151170629D01*
X125010095Y-151235794D01*
X125080853Y-151276646D01*
X124682105Y-151675395D01*
X124798692Y-151753295D01*
X124962479Y-151821137D01*
X125136355Y-151855723D01*
X125136359Y-151855724D01*
X125313641Y-151855724D01*
X125313644Y-151855723D01*
X125487519Y-151821137D01*
X125487521Y-151821137D01*
X125651305Y-151753296D01*
X125651317Y-151753290D01*
X125767893Y-151675395D01*
X125369145Y-151276647D01*
X125439905Y-151235794D01*
X125505070Y-151170629D01*
X125545922Y-151099870D01*
X125944671Y-151498618D01*
X126022566Y-151382041D01*
X126022572Y-151382029D01*
X126090413Y-151218245D01*
X126090413Y-151218243D01*
X126124999Y-151044368D01*
X126125000Y-151044365D01*
X126125000Y-150867082D01*
X126124999Y-150867079D01*
X126103720Y-150760099D01*
X126110912Y-150699338D01*
X126152445Y-150654408D01*
X126212454Y-150642471D01*
X126268019Y-150668087D01*
X126270804Y-150670764D01*
X126736284Y-151136244D01*
X126873216Y-151215301D01*
X126873218Y-151215301D01*
X126873219Y-151215302D01*
X126893275Y-151220676D01*
X127025940Y-151256224D01*
X127025942Y-151256225D01*
X127025943Y-151256225D01*
X127190121Y-151256225D01*
X127190137Y-151256224D01*
X127636257Y-151256224D01*
X127694448Y-151275131D01*
X127730412Y-151324631D01*
X127730412Y-151385817D01*
X127706261Y-151425227D01*
X126771264Y-152360224D01*
X125841286Y-153290202D01*
X125729478Y-153402010D01*
X125729477Y-153402010D01*
X125389713Y-153741773D01*
X125354096Y-153764605D01*
X125349775Y-153766205D01*
X125256694Y-153791147D01*
X125210618Y-153817748D01*
X125202758Y-153820660D01*
X125180155Y-153821577D01*
X125158023Y-153826282D01*
X125150189Y-153822794D01*
X125141623Y-153823142D01*
X125122796Y-153810597D01*
X125102127Y-153801395D01*
X125097839Y-153793968D01*
X125090705Y-153789215D01*
X125082846Y-153767999D01*
X125071535Y-153748406D01*
X125072340Y-153739635D01*
X125069453Y-153731839D01*
X125074812Y-153712741D01*
X125076908Y-153689939D01*
X125105711Y-153620402D01*
X125145894Y-153523390D01*
X125180500Y-153349415D01*
X125180500Y-153172033D01*
X125145894Y-152998058D01*
X125095808Y-152877138D01*
X125078014Y-152834179D01*
X125078014Y-152834178D01*
X124979464Y-152686689D01*
X124854034Y-152561259D01*
X124706544Y-152462709D01*
X124542666Y-152394830D01*
X124368693Y-152360224D01*
X124368691Y-152360224D01*
X124191309Y-152360224D01*
X124191306Y-152360224D01*
X124017334Y-152394830D01*
X124017332Y-152394830D01*
X123853455Y-152462709D01*
X123853454Y-152462709D01*
X123705965Y-152561259D01*
X123580535Y-152686689D01*
X123481985Y-152834178D01*
X123479692Y-152838470D01*
X123477673Y-152837391D01*
X123443725Y-152877138D01*
X123384230Y-152891420D01*
X123327703Y-152868004D01*
X123295735Y-152815834D01*
X123293000Y-152792725D01*
X123293000Y-150561886D01*
X123311907Y-150503695D01*
X123321990Y-150491888D01*
X123947565Y-149866314D01*
X123990681Y-149791634D01*
X124013000Y-149708340D01*
X124013000Y-149622108D01*
X124013000Y-144961887D01*
X124031907Y-144903696D01*
X124041996Y-144891883D01*
X124793659Y-144140220D01*
X124848176Y-144112443D01*
X124863663Y-144111224D01*
X124868615Y-144111224D01*
X124868616Y-144111224D01*
X125052251Y-144074697D01*
X125225231Y-144003046D01*
X125225234Y-144003043D01*
X125225238Y-144003042D01*
X125270187Y-143973006D01*
X125380908Y-143899026D01*
X125513302Y-143766632D01*
X125587282Y-143655911D01*
X125617318Y-143610962D01*
X125617319Y-143610958D01*
X125617322Y-143610955D01*
X125688973Y-143437975D01*
X125725500Y-143254340D01*
X125725500Y-142567108D01*
X125688973Y-142383473D01*
X125617322Y-142210493D01*
X125617320Y-142210491D01*
X125617318Y-142210485D01*
X125525401Y-142072924D01*
X125513302Y-142054816D01*
X125380908Y-141922422D01*
X125366115Y-141912537D01*
X125328237Y-141864490D01*
X125325835Y-141803352D01*
X125359827Y-141752478D01*
X125417231Y-141731300D01*
X125421118Y-141731224D01*
X126628882Y-141731224D01*
X126687073Y-141750131D01*
G37*
%TD.AperFunction*%
%TA.AperFunction,Conductor*%
G36*
X119130813Y-141731851D02*
G01*
X119132769Y-141731300D01*
X119159734Y-141741248D01*
X119187073Y-141750131D01*
X119188267Y-141751774D01*
X119190173Y-141752478D01*
X119206135Y-141776367D01*
X119223037Y-141799631D01*
X119223037Y-141801663D01*
X119224165Y-141803352D01*
X119223037Y-141832062D01*
X119223037Y-141860817D01*
X119221842Y-141862460D01*
X119221763Y-141864490D01*
X119203972Y-141887056D01*
X119187073Y-141910317D01*
X119183918Y-141912515D01*
X119169092Y-141922422D01*
X119169090Y-141922424D01*
X119169088Y-141922425D01*
X119036701Y-142054812D01*
X119036698Y-142054816D01*
X118932681Y-142210485D01*
X118932677Y-142210494D01*
X118861026Y-142383474D01*
X118824500Y-142567105D01*
X118824500Y-143254342D01*
X118861026Y-143437973D01*
X118932677Y-143610953D01*
X118932681Y-143610962D01*
X119007065Y-143722283D01*
X119036698Y-143766632D01*
X119036701Y-143766635D01*
X119036705Y-143766640D01*
X119145503Y-143875437D01*
X119173281Y-143929954D01*
X119174500Y-143945441D01*
X119174500Y-144221224D01*
X119155593Y-144279415D01*
X119106093Y-144315379D01*
X119075500Y-144320224D01*
X118415732Y-144320224D01*
X118385303Y-144323077D01*
X118257113Y-144367932D01*
X118147854Y-144448569D01*
X118147845Y-144448578D01*
X118067207Y-144557839D01*
X118022355Y-144686019D01*
X118022353Y-144686028D01*
X118019500Y-144716448D01*
X118019500Y-145061224D01*
X118000593Y-145119415D01*
X117951093Y-145155379D01*
X117920500Y-145160224D01*
X116860943Y-145160224D01*
X116708216Y-145201147D01*
X116628862Y-145246961D01*
X116579364Y-145260224D01*
X116319240Y-145260224D01*
X116285173Y-145265187D01*
X116251104Y-145270151D01*
X116146018Y-145321525D01*
X116063301Y-145404242D01*
X116011927Y-145509328D01*
X116002000Y-145577467D01*
X116002000Y-145605693D01*
X115983093Y-145663884D01*
X115933593Y-145699848D01*
X115872407Y-145699848D01*
X115832996Y-145675697D01*
X115104496Y-144947197D01*
X115076719Y-144892680D01*
X115075500Y-144877193D01*
X115075500Y-144131215D01*
X115094407Y-144073024D01*
X115136612Y-144039752D01*
X115225231Y-144003046D01*
X115380908Y-143899026D01*
X115513302Y-143766632D01*
X115587282Y-143655911D01*
X115617318Y-143610962D01*
X115617319Y-143610958D01*
X115617322Y-143610955D01*
X115688973Y-143437975D01*
X115725500Y-143254340D01*
X115725500Y-142567108D01*
X115688973Y-142383473D01*
X115617322Y-142210493D01*
X115617320Y-142210491D01*
X115617318Y-142210485D01*
X115525401Y-142072924D01*
X115513302Y-142054816D01*
X115380908Y-141922422D01*
X115366115Y-141912537D01*
X115328237Y-141864490D01*
X115325835Y-141803352D01*
X115359827Y-141752478D01*
X115417231Y-141731300D01*
X115421118Y-141731224D01*
X119128882Y-141731224D01*
X119130813Y-141731851D01*
G37*
%TD.AperFunction*%
%TD*%
M02*
