%TF.GenerationSoftware,KiCad,Pcbnew,10.0.3*%
%TF.CreationDate,2026-08-31T03:04:16+08:00*%
%TF.ProjectId,main,6d61696e-2e6b-4696-9361-645f70636258,rev?*%
%TF.SameCoordinates,Original*%
%TF.FileFunction,Copper,L2,Bot*%
%TF.FilePolarity,Positive*%
%FSLAX46Y46*%
G04 Gerber Fmt 4.6, Leading zero omitted, Abs format (unit mm)*
G04 Created by KiCad (PCBNEW 10.0.3) date 2026-08-31 03:04:16*
%MOMM*%
%LPD*%
G01*
G04 APERTURE LIST*
G04 Aperture macros list*
%AMRoundRect*
0 Rectangle with rounded corners*
0 $1 Rounding radius*
0 $2 $3 $4 $5 $6 $7 $8 $9 X,Y pos of 4 corners*
0 Add a 4 corners polygon primitive as box body*
4,1,4,$2,$3,$4,$5,$6,$7,$8,$9,$2,$3,0*
0 Add four circle primitives for the rounded corners*
1,1,$1+$1,$2,$3*
1,1,$1+$1,$4,$5*
1,1,$1+$1,$6,$7*
1,1,$1+$1,$8,$9*
0 Add four rect primitives between the rounded corners*
20,1,$1+$1,$2,$3,$4,$5,0*
20,1,$1+$1,$4,$5,$6,$7,0*
20,1,$1+$1,$6,$7,$8,$9,0*
20,1,$1+$1,$8,$9,$2,$3,0*%
G04 Aperture macros list end*
%TA.AperFunction,ComponentPad*%
%ADD10C,1.108000*%
%TD*%
%TA.AperFunction,HeatsinkPad*%
%ADD11C,0.500000*%
%TD*%
%TA.AperFunction,HeatsinkPad*%
%ADD12R,2.500000X2.500000*%
%TD*%
%TA.AperFunction,ComponentPad*%
%ADD13C,2.500000*%
%TD*%
%TA.AperFunction,SMDPad,CuDef*%
%ADD14R,0.700000X0.700000*%
%TD*%
%TA.AperFunction,SMDPad,CuDef*%
%ADD15RoundRect,0.140000X0.140000X0.170000X-0.140000X0.170000X-0.140000X-0.170000X0.140000X-0.170000X0*%
%TD*%
%TA.AperFunction,ViaPad*%
%ADD16C,0.600000*%
%TD*%
%TA.AperFunction,ViaPad*%
%ADD17C,0.800000*%
%TD*%
%TA.AperFunction,ViaPad*%
%ADD18C,0.500000*%
%TD*%
%TA.AperFunction,Conductor*%
%ADD19C,0.800000*%
%TD*%
%TA.AperFunction,Conductor*%
%ADD20C,0.200000*%
%TD*%
%TA.AperFunction,Conductor*%
%ADD21C,0.300000*%
%TD*%
G04 APERTURE END LIST*
D10*
%TO.P,MK1,M*%
%TO.N,GND*%
X124072500Y-143850000D03*
%TO.P,MK1,P*%
%TO.N,Net-(C7-Pad1)*%
X124072500Y-145250000D03*
%TD*%
D11*
%TO.P,U1,29,GND_EP_29*%
%TO.N,GND*%
X130490000Y-144270000D03*
X130490000Y-145270000D03*
X130490000Y-146270000D03*
X131490000Y-144270000D03*
X131490000Y-145270000D03*
D12*
X131490000Y-145270000D03*
D11*
X131490000Y-146270000D03*
X132490000Y-144270000D03*
X132490000Y-145270000D03*
X132490000Y-146270000D03*
%TD*%
D13*
%TO.P,J1,1,Pin_1_1*%
%TO.N,Net-(J1-Pin_1)*%
X129925000Y-136380000D03*
%TO.P,J1,2,Pin_2_2*%
%TO.N,GND*%
X123125000Y-133810000D03*
%TD*%
D14*
%TO.P,D2,1,DOUT_1*%
%TO.N,unconnected-(D2-DOUT-Pad1)*%
X127590000Y-143560000D03*
%TO.P,D2,2,VSS_2*%
%TO.N,GND*%
X128690000Y-143560000D03*
%TO.P,D2,3,DIN_3*%
%TO.N,/LED*%
X128690000Y-145390000D03*
%TO.P,D2,4,VDD_4*%
%TO.N,VCC*%
X127590000Y-145390000D03*
%TD*%
D15*
%TO.P,C14,1*%
%TO.N,GND*%
X128400000Y-146620000D03*
%TO.P,C14,2*%
%TO.N,VCC*%
X127440000Y-146620000D03*
%TD*%
D16*
%TO.N,GND*%
X122120000Y-132290000D03*
%TO.N,/SD_N*%
X123370000Y-137060000D03*
%TO.N,VCC*%
X126097306Y-143482933D03*
%TO.N,/PERIPH_EN_N*%
X126869936Y-136408466D03*
X128130685Y-142012667D03*
%TO.N,GND*%
X120310000Y-133390000D03*
X135190000Y-147910000D03*
D17*
X134150000Y-143350000D03*
%TO.N,VCC*%
X120220000Y-137302960D03*
D16*
%TO.N,GND*%
X121600000Y-139410000D03*
D17*
X132240000Y-140030000D03*
D16*
%TO.N,/CHG*%
X135038522Y-147004196D03*
D17*
%TO.N,GND*%
X117400000Y-143800000D03*
X125750000Y-136020000D03*
D16*
%TO.N,Net-(J1-Pin_1)*%
X133873997Y-147232500D03*
D17*
%TO.N,GND*%
X119140000Y-135240000D03*
X132390000Y-137720000D03*
D16*
X128510000Y-140020000D03*
D17*
X123660000Y-137920000D03*
%TO.N,VCC*%
X119610000Y-143780000D03*
%TO.N,GND*%
X118500000Y-143940000D03*
D16*
X118140000Y-138950000D03*
D17*
X125700000Y-134080000D03*
X122550001Y-141259949D03*
D16*
X126580000Y-147180000D03*
X116770000Y-130620000D03*
%TO.N,/CHG*%
X117350000Y-133930000D03*
%TO.N,GND*%
X131140000Y-141170000D03*
X121027070Y-143568294D03*
D18*
X126290000Y-141930000D03*
D16*
X118130000Y-141420000D03*
D17*
X134530000Y-139760000D03*
D16*
%TO.N,/LED*%
X128522775Y-142709998D03*
%TO.N,/SD_N*%
X129690000Y-143350000D03*
%TD*%
%TO.N,VCC*%
D19*
X125650000Y-142492082D02*
X125650000Y-143220000D01*
%TO.N,/CHG*%
D20*
X124297032Y-134830000D02*
X123767032Y-135360000D01*
%TO.N,Net-(J1-Pin_1)*%
X133690000Y-140150000D02*
X133690000Y-140145000D01*
%TO.N,VCC*%
D19*
X125440000Y-142000000D02*
X125440000Y-142282082D01*
%TO.N,/CHG*%
D20*
X123767032Y-135360000D02*
X122430000Y-135360000D01*
%TO.N,Net-(J1-Pin_1)*%
X133873997Y-147232500D02*
X134252805Y-146853691D01*
%TO.N,/PERIPH_EN_N*%
X128910000Y-139571471D02*
X128910000Y-138165686D01*
%TO.N,Net-(J1-Pin_1)*%
X133690000Y-140145000D02*
X129925000Y-136380000D01*
%TO.N,VCC*%
D19*
X120220000Y-143170000D02*
X119610000Y-143780000D01*
%TO.N,/LED*%
D20*
X126900000Y-143110000D02*
X126900000Y-144050000D01*
X127930000Y-144470000D02*
X128690000Y-145230000D01*
%TO.N,/PERIPH_EN_N*%
X128910000Y-138165686D02*
X127152780Y-136408466D01*
%TO.N,VCC*%
D21*
X125620000Y-144948000D02*
X126062000Y-145390000D01*
X127440000Y-146620000D02*
X127440000Y-145540000D01*
%TO.N,/CHG*%
D20*
X131110000Y-134830000D02*
X124297032Y-134830000D01*
%TO.N,VCC*%
D21*
X125710690Y-143220000D02*
X125650000Y-143220000D01*
%TO.N,/CHG*%
D20*
X135038522Y-147004196D02*
X135450000Y-146592718D01*
%TO.N,/LED*%
X128375549Y-142750000D02*
X127260000Y-142750000D01*
%TO.N,VCC*%
D21*
X126062000Y-145390000D02*
X127590000Y-145390000D01*
D19*
X123430000Y-139990000D02*
X125440000Y-142000000D01*
%TO.N,/SD_N*%
D20*
X129530000Y-143190000D02*
X129690000Y-143350000D01*
%TO.N,/LED*%
X127260000Y-142750000D02*
X126900000Y-143110000D01*
X126900000Y-144050000D02*
X127320000Y-144470000D01*
%TO.N,VCC*%
D21*
X125650000Y-143220000D02*
X125620000Y-143250000D01*
%TO.N,/PERIPH_EN_N*%
D20*
X129110000Y-140250000D02*
X129110000Y-139771471D01*
X128130685Y-142012667D02*
X128232881Y-142012667D01*
%TO.N,VCC*%
D21*
X125973623Y-143482933D02*
X125710690Y-143220000D01*
%TO.N,/CHG*%
D20*
X135450000Y-139170000D02*
X131110000Y-134830000D01*
%TO.N,/SD_N*%
X123370000Y-136050000D02*
X123660000Y-135760000D01*
%TO.N,VCC*%
D19*
X123430000Y-139140000D02*
X123430000Y-139990000D01*
%TO.N,/CHG*%
D20*
X121190000Y-134120000D02*
X117540000Y-134120000D01*
%TO.N,Net-(J1-Pin_1)*%
X135040000Y-145395610D02*
X135040000Y-141500000D01*
%TO.N,/LED*%
X128415552Y-142709998D02*
X128415551Y-142709999D01*
%TO.N,/PERIPH_EN_N*%
X128670000Y-140690000D02*
X128740000Y-140620000D01*
%TO.N,Net-(J1-Pin_1)*%
X134252805Y-146853691D02*
X134252805Y-146182805D01*
%TO.N,/SD_N*%
X123660000Y-135760000D02*
X123932717Y-135760000D01*
%TO.N,Net-(J1-Pin_1)*%
X134252805Y-146182805D02*
X135040000Y-145395610D01*
%TO.N,VCC*%
D21*
X125620000Y-143250000D02*
X125620000Y-144948000D01*
%TO.N,/LED*%
D20*
X128415551Y-142709998D02*
X128375549Y-142750000D01*
X128522775Y-142709998D02*
X128415552Y-142709998D01*
%TO.N,/CHG*%
X117540000Y-134120000D02*
X117350000Y-133930000D01*
%TO.N,/PERIPH_EN_N*%
X129110000Y-139771471D02*
X128910000Y-139571471D01*
%TO.N,VCC*%
D19*
X121770000Y-137480000D02*
X123430000Y-139140000D01*
%TO.N,/LED*%
D20*
X128690000Y-145230000D02*
X128690000Y-145390000D01*
%TO.N,VCC*%
D19*
X120220000Y-137302960D02*
X120220000Y-143170000D01*
%TO.N,/PERIPH_EN_N*%
D20*
X128370000Y-140690000D02*
X128670000Y-140690000D01*
%TO.N,/CHG*%
X122430000Y-135360000D02*
X121190000Y-134120000D01*
%TO.N,Net-(J1-Pin_1)*%
X135040000Y-141500000D02*
X133690000Y-140150000D01*
%TO.N,VCC*%
D19*
X120220000Y-137480000D02*
X121770000Y-137480000D01*
%TO.N,/SD_N*%
D20*
X129530000Y-138220000D02*
X129530000Y-143190000D01*
%TO.N,/PERIPH_EN_N*%
X128758529Y-140620000D02*
X129110000Y-140268529D01*
%TO.N,/SD_N*%
X126540000Y-135230000D02*
X129530000Y-138220000D01*
X123370000Y-137060000D02*
X123370000Y-136050000D01*
%TO.N,/CHG*%
X135450000Y-146592718D02*
X135450000Y-139170000D01*
%TO.N,/PERIPH_EN_N*%
X128320000Y-140740000D02*
X128370000Y-140690000D01*
%TO.N,VCC*%
D21*
X127440000Y-145540000D02*
X127590000Y-145390000D01*
%TO.N,/LED*%
D20*
X127320000Y-144470000D02*
X127930000Y-144470000D01*
%TO.N,/PERIPH_EN_N*%
X127152780Y-136408466D02*
X126869936Y-136408466D01*
X129110000Y-140268529D02*
X129110000Y-140250000D01*
%TO.N,/SD_N*%
X123932717Y-135760000D02*
X124462718Y-135230000D01*
%TO.N,/PERIPH_EN_N*%
X128740000Y-140620000D02*
X128758529Y-140620000D01*
%TO.N,/LED*%
X128522775Y-142709998D02*
X128415551Y-142709998D01*
%TO.N,/PERIPH_EN_N*%
X128232881Y-142012667D02*
X128320000Y-141925548D01*
%TO.N,VCC*%
D19*
X125440000Y-142282082D02*
X125650000Y-142492082D01*
%TO.N,/PERIPH_EN_N*%
D20*
X128320000Y-141925548D02*
X128320000Y-140740000D01*
%TO.N,/SD_N*%
X124462718Y-135230000D02*
X126540000Y-135230000D01*
%TO.N,VCC*%
D21*
X126097306Y-143482933D02*
X125973623Y-143482933D01*
%TD*%
%TA.AperFunction,Conductor*%
%TO.N,GND*%
G36*
X135129843Y-129180977D02*
G01*
X135261514Y-129193945D01*
X135280549Y-129197731D01*
X135402494Y-129234722D01*
X135420418Y-129242147D01*
X135532804Y-129302218D01*
X135548931Y-129312994D01*
X135618239Y-129369873D01*
X135647439Y-129393837D01*
X135661162Y-129407560D01*
X135742002Y-129506063D01*
X135752784Y-129522200D01*
X135812851Y-129634579D01*
X135820278Y-129652509D01*
X135857268Y-129774450D01*
X135861054Y-129793484D01*
X135874023Y-129925155D01*
X135874500Y-129934859D01*
X135874500Y-138934783D01*
X135855593Y-138992974D01*
X135806093Y-139028938D01*
X135744907Y-139028938D01*
X135695407Y-138992974D01*
X135691021Y-138986220D01*
X135690462Y-138985490D01*
X135634511Y-138929539D01*
X135634511Y-138929540D01*
X131294511Y-134589540D01*
X131294508Y-134589538D01*
X131225992Y-134549980D01*
X131225988Y-134549978D01*
X131149564Y-134529500D01*
X131149562Y-134529500D01*
X124547324Y-134529500D01*
X124489133Y-134510593D01*
X124453169Y-134461093D01*
X124453169Y-134399907D01*
X124459114Y-134385557D01*
X124468764Y-134366615D01*
X124468766Y-134366611D01*
X124539297Y-134149538D01*
X124575000Y-133924120D01*
X124575000Y-133695879D01*
X124539297Y-133470461D01*
X124468767Y-133253392D01*
X124365151Y-133050034D01*
X124365149Y-133050030D01*
X124237474Y-132874301D01*
X123736525Y-133375249D01*
X123707563Y-133331903D01*
X123603097Y-133227437D01*
X123559748Y-133198472D01*
X124060697Y-132697524D01*
X123884969Y-132569850D01*
X123884965Y-132569848D01*
X123681607Y-132466232D01*
X123464538Y-132395702D01*
X123239120Y-132360000D01*
X123010880Y-132360000D01*
X122785461Y-132395702D01*
X122568392Y-132466232D01*
X122365034Y-132569848D01*
X122365030Y-132569850D01*
X122189301Y-132697524D01*
X122690250Y-133198473D01*
X122646903Y-133227437D01*
X122542437Y-133331903D01*
X122513473Y-133375250D01*
X122012524Y-132874301D01*
X121884850Y-133050030D01*
X121884848Y-133050034D01*
X121781232Y-133253392D01*
X121710702Y-133470461D01*
X121675000Y-133695879D01*
X121675000Y-133924125D01*
X121675496Y-133927257D01*
X121665920Y-133987688D01*
X121622652Y-134030949D01*
X121562219Y-134040516D01*
X121507712Y-134012741D01*
X121374511Y-133879540D01*
X121370584Y-133877273D01*
X121370584Y-133877271D01*
X121370579Y-133877270D01*
X121317440Y-133846590D01*
X121305988Y-133839978D01*
X121229564Y-133819500D01*
X121229562Y-133819500D01*
X117914513Y-133819500D01*
X117856322Y-133800593D01*
X117820358Y-133751093D01*
X117818887Y-133746126D01*
X117816392Y-133736814D01*
X117750500Y-133622686D01*
X117657314Y-133529500D01*
X117657311Y-133529498D01*
X117657309Y-133529496D01*
X117543189Y-133463609D01*
X117543191Y-133463609D01*
X117493799Y-133450375D01*
X117415892Y-133429500D01*
X117284108Y-133429500D01*
X117206200Y-133450375D01*
X117156809Y-133463609D01*
X117042690Y-133529496D01*
X116949496Y-133622690D01*
X116883609Y-133736809D01*
X116883608Y-133736814D01*
X116849500Y-133864108D01*
X116849500Y-133995892D01*
X116861457Y-134040516D01*
X116883609Y-134123190D01*
X116949496Y-134237309D01*
X116949498Y-134237311D01*
X116949500Y-134237314D01*
X117042686Y-134330500D01*
X117042688Y-134330501D01*
X117042690Y-134330503D01*
X117156810Y-134396390D01*
X117156808Y-134396390D01*
X117156812Y-134396391D01*
X117156814Y-134396392D01*
X117284108Y-134430500D01*
X117284110Y-134430500D01*
X117415889Y-134430500D01*
X117415892Y-134430500D01*
X117451205Y-134421038D01*
X117493823Y-134421038D01*
X117494006Y-134419653D01*
X117500437Y-134420499D01*
X117500438Y-134420500D01*
X121024521Y-134420500D01*
X121082712Y-134439407D01*
X121094525Y-134449496D01*
X122189540Y-135544511D01*
X122189539Y-135544511D01*
X122245489Y-135600460D01*
X122314007Y-135640019D01*
X122314011Y-135640021D01*
X122390435Y-135660499D01*
X122390437Y-135660500D01*
X122390438Y-135660500D01*
X123095521Y-135660500D01*
X123153712Y-135679407D01*
X123189676Y-135728907D01*
X123189676Y-135790093D01*
X123165525Y-135829503D01*
X123129539Y-135865489D01*
X123089980Y-135934007D01*
X123089978Y-135934011D01*
X123069500Y-136010435D01*
X123069500Y-136611679D01*
X123050593Y-136669870D01*
X123040509Y-136681676D01*
X123004180Y-136718006D01*
X122969497Y-136752689D01*
X122969496Y-136752690D01*
X122903609Y-136866809D01*
X122892771Y-136907257D01*
X122869500Y-136994108D01*
X122869500Y-137125892D01*
X122881936Y-137172303D01*
X122903609Y-137253190D01*
X122969496Y-137367309D01*
X122969498Y-137367311D01*
X122969500Y-137367314D01*
X123062686Y-137460500D01*
X123062688Y-137460501D01*
X123062690Y-137460503D01*
X123176810Y-137526390D01*
X123176808Y-137526390D01*
X123176812Y-137526391D01*
X123176814Y-137526392D01*
X123304108Y-137560500D01*
X123304110Y-137560500D01*
X123435890Y-137560500D01*
X123435892Y-137560500D01*
X123563186Y-137526392D01*
X123563188Y-137526390D01*
X123563190Y-137526390D01*
X123677309Y-137460503D01*
X123677309Y-137460502D01*
X123677314Y-137460500D01*
X123770500Y-137367314D01*
X123836392Y-137253186D01*
X123870500Y-137125892D01*
X123870500Y-136994108D01*
X123836392Y-136866814D01*
X123836390Y-136866811D01*
X123836390Y-136866809D01*
X123770503Y-136752690D01*
X123770501Y-136752688D01*
X123770500Y-136752686D01*
X123699494Y-136681680D01*
X123671719Y-136627166D01*
X123670500Y-136611679D01*
X123670500Y-136215479D01*
X123672968Y-136207881D01*
X123671719Y-136199992D01*
X123682243Y-136179336D01*
X123689407Y-136157288D01*
X123699496Y-136145475D01*
X123755475Y-136089496D01*
X123809992Y-136061719D01*
X123825479Y-136060500D01*
X123972280Y-136060500D01*
X123972280Y-136060499D01*
X124048706Y-136040021D01*
X124117228Y-136000460D01*
X124173177Y-135944511D01*
X124173176Y-135944511D01*
X124558193Y-135559496D01*
X124612709Y-135531719D01*
X124628196Y-135530500D01*
X126374521Y-135530500D01*
X126432712Y-135549407D01*
X126444525Y-135559496D01*
X126680839Y-135795810D01*
X126708616Y-135850327D01*
X126699045Y-135910759D01*
X126660335Y-135951550D01*
X126562626Y-136007962D01*
X126469432Y-136101156D01*
X126403545Y-136215275D01*
X126389997Y-136265839D01*
X126369436Y-136342574D01*
X126369436Y-136474358D01*
X126382342Y-136522525D01*
X126391610Y-136557114D01*
X126388407Y-136618215D01*
X126349902Y-136665765D01*
X126290801Y-136681600D01*
X126283065Y-136680890D01*
X126281121Y-136680634D01*
X126272506Y-136679500D01*
X125977494Y-136679500D01*
X125977493Y-136679500D01*
X125685013Y-136718006D01*
X125685011Y-136718006D01*
X125685007Y-136718007D01*
X125533584Y-136758580D01*
X125400046Y-136794361D01*
X125127500Y-136907253D01*
X124872002Y-137054764D01*
X124637964Y-137234348D01*
X124429348Y-137442964D01*
X124249764Y-137677002D01*
X124102253Y-137932500D01*
X123989361Y-138205046D01*
X123913006Y-138490012D01*
X123906198Y-138541724D01*
X123879857Y-138596949D01*
X123826086Y-138626143D01*
X123765424Y-138618157D01*
X123738041Y-138598805D01*
X122250521Y-137111286D01*
X122250520Y-137111284D01*
X122138716Y-136999480D01*
X122138713Y-136999478D01*
X122039974Y-136942471D01*
X122039971Y-136942470D01*
X122001788Y-136920424D01*
X122001785Y-136920423D01*
X121849057Y-136879499D01*
X121690943Y-136879499D01*
X121684880Y-136879499D01*
X121684864Y-136879500D01*
X120686784Y-136879500D01*
X120628593Y-136860593D01*
X120616782Y-136850505D01*
X120588718Y-136822442D01*
X120588716Y-136822440D01*
X120451784Y-136743383D01*
X120299057Y-136702460D01*
X120140943Y-136702460D01*
X119988216Y-136743383D01*
X119851284Y-136822440D01*
X119739480Y-136934244D01*
X119660423Y-137071176D01*
X119645763Y-137125890D01*
X119619500Y-137223904D01*
X119619500Y-142880257D01*
X119600593Y-142938448D01*
X119590503Y-142950261D01*
X119241285Y-143299477D01*
X119241286Y-143299478D01*
X119241284Y-143299480D01*
X119241283Y-143299479D01*
X119129479Y-143411284D01*
X119083744Y-143490500D01*
X119050425Y-143548209D01*
X119050423Y-143548213D01*
X119050423Y-143548215D01*
X119009499Y-143700943D01*
X119009499Y-143859057D01*
X119050423Y-144011785D01*
X119050424Y-144011787D01*
X119075114Y-144054550D01*
X119075115Y-144054553D01*
X119118418Y-144129556D01*
X119129480Y-144148716D01*
X119241284Y-144260520D01*
X119241286Y-144260521D01*
X119241289Y-144260524D01*
X119241288Y-144260524D01*
X119328091Y-144310637D01*
X119328093Y-144310639D01*
X119328094Y-144310639D01*
X119357032Y-144327346D01*
X119378215Y-144339577D01*
X119530943Y-144380501D01*
X119530944Y-144380501D01*
X119689056Y-144380501D01*
X119689057Y-144380501D01*
X119841785Y-144339577D01*
X119891904Y-144310639D01*
X119978716Y-144260520D01*
X120090520Y-144148716D01*
X120090521Y-144148713D01*
X120588713Y-143650521D01*
X120588716Y-143650520D01*
X120700520Y-143538716D01*
X120763168Y-143430206D01*
X120779577Y-143401785D01*
X120820500Y-143249058D01*
X120820500Y-143090943D01*
X120820500Y-138179500D01*
X120839407Y-138121309D01*
X120888907Y-138085345D01*
X120919500Y-138080500D01*
X121480257Y-138080500D01*
X121538448Y-138099407D01*
X121550261Y-138109496D01*
X122800504Y-139359739D01*
X122828281Y-139414256D01*
X122829500Y-139429743D01*
X122829500Y-139904863D01*
X122829499Y-139904881D01*
X122829499Y-139910943D01*
X122829499Y-140069057D01*
X122860029Y-140182994D01*
X122870423Y-140221784D01*
X122870425Y-140221788D01*
X122899360Y-140271905D01*
X122899361Y-140271905D01*
X122949480Y-140358716D01*
X123061284Y-140470520D01*
X123061286Y-140470521D01*
X124810503Y-142219738D01*
X124838280Y-142274255D01*
X124839499Y-142289742D01*
X124839499Y-142361139D01*
X124879264Y-142509540D01*
X124880424Y-142513869D01*
X124904408Y-142555409D01*
X124904409Y-142555412D01*
X124955616Y-142644106D01*
X124959480Y-142650798D01*
X125020505Y-142711823D01*
X125048281Y-142766338D01*
X125049500Y-142781825D01*
X125049500Y-143299057D01*
X125090423Y-143451784D01*
X125169480Y-143588716D01*
X125240505Y-143659741D01*
X125268281Y-143714256D01*
X125269500Y-143729743D01*
X125269500Y-144994144D01*
X125293386Y-145083288D01*
X125339530Y-145163212D01*
X125339531Y-145163213D01*
X125339532Y-145163214D01*
X125781530Y-145605211D01*
X125781531Y-145605213D01*
X125846787Y-145670468D01*
X125846789Y-145670470D01*
X125870679Y-145684263D01*
X125926712Y-145716614D01*
X126015856Y-145740500D01*
X126954425Y-145740500D01*
X127012616Y-145759407D01*
X127041350Y-145792118D01*
X127048575Y-145805373D01*
X127051133Y-145818231D01*
X127075294Y-145854390D01*
X127077425Y-145858299D01*
X127081120Y-145878058D01*
X127089500Y-145905681D01*
X127089500Y-146137952D01*
X127070593Y-146196143D01*
X127060504Y-146207955D01*
X127016776Y-146251683D01*
X127016774Y-146251686D01*
X126966029Y-146360510D01*
X126966028Y-146360511D01*
X126959500Y-146410100D01*
X126959500Y-146829896D01*
X126959501Y-146829907D01*
X126966027Y-146879486D01*
X126966027Y-146879488D01*
X127016774Y-146988313D01*
X127016775Y-146988314D01*
X127016776Y-146988316D01*
X127101684Y-147073224D01*
X127210513Y-147123972D01*
X127260099Y-147130500D01*
X127619900Y-147130499D01*
X127669487Y-147123972D01*
X127669488Y-147123972D01*
X127728137Y-147096622D01*
X127778316Y-147073224D01*
X127850352Y-147001187D01*
X127904867Y-146973412D01*
X127965299Y-146982983D01*
X127990358Y-147001189D01*
X128061978Y-147072809D01*
X128170638Y-147123478D01*
X128170645Y-147123480D01*
X128220161Y-147130000D01*
X128274999Y-147130000D01*
X128275000Y-147129999D01*
X128525000Y-147129999D01*
X128525001Y-147130000D01*
X128579838Y-147130000D01*
X128629354Y-147123480D01*
X128629361Y-147123478D01*
X128738021Y-147072809D01*
X128822809Y-146988021D01*
X128873478Y-146879361D01*
X128873480Y-146879354D01*
X128880000Y-146829838D01*
X128880000Y-146745001D01*
X128879999Y-146745000D01*
X128525000Y-146745000D01*
X128525000Y-147129999D01*
X128275000Y-147129999D01*
X128275000Y-146719000D01*
X128279845Y-146704088D01*
X128279845Y-146688407D01*
X128289061Y-146675721D01*
X128292829Y-146664127D01*
X130272648Y-146664127D01*
X130316303Y-146689331D01*
X130430757Y-146720000D01*
X130549243Y-146720000D01*
X130663692Y-146689332D01*
X130663699Y-146689330D01*
X130707349Y-146664127D01*
X131272648Y-146664127D01*
X131316303Y-146689331D01*
X131430757Y-146720000D01*
X131549243Y-146720000D01*
X131663692Y-146689332D01*
X131663699Y-146689330D01*
X131707349Y-146664127D01*
X132272648Y-146664127D01*
X132316303Y-146689331D01*
X132430757Y-146720000D01*
X132549243Y-146720000D01*
X132663692Y-146689332D01*
X132663699Y-146689330D01*
X132707349Y-146664127D01*
X132707350Y-146664126D01*
X132490000Y-146446776D01*
X132272649Y-146664127D01*
X132272648Y-146664127D01*
X131707349Y-146664127D01*
X131707350Y-146664126D01*
X131490000Y-146446776D01*
X131272649Y-146664127D01*
X131272648Y-146664127D01*
X130707349Y-146664127D01*
X130707350Y-146664126D01*
X130490000Y-146446776D01*
X130272649Y-146664127D01*
X130272648Y-146664127D01*
X128292829Y-146664127D01*
X128293907Y-146660809D01*
X128306592Y-146651592D01*
X128315809Y-146638907D01*
X128330721Y-146634061D01*
X128343407Y-146624845D01*
X128374000Y-146620000D01*
X128400000Y-146620000D01*
X128400000Y-146594000D01*
X128418907Y-146535809D01*
X128468407Y-146499845D01*
X128499000Y-146495000D01*
X128879999Y-146495000D01*
X128880000Y-146494999D01*
X128880000Y-146410161D01*
X128873480Y-146360645D01*
X128873478Y-146360638D01*
X128822809Y-146251978D01*
X128781587Y-146210756D01*
X130040000Y-146210756D01*
X130040000Y-146329243D01*
X130070668Y-146443698D01*
X130095870Y-146487349D01*
X130095871Y-146487350D01*
X130313222Y-146270000D01*
X130283385Y-146240163D01*
X130340000Y-146240163D01*
X130340000Y-146299837D01*
X130362836Y-146354968D01*
X130405032Y-146397164D01*
X130460163Y-146420000D01*
X130519837Y-146420000D01*
X130574968Y-146397164D01*
X130617164Y-146354968D01*
X130640000Y-146299837D01*
X130640000Y-146270000D01*
X130666776Y-146270000D01*
X130884126Y-146487349D01*
X130904263Y-146452473D01*
X130949733Y-146411532D01*
X131010584Y-146405138D01*
X131063571Y-146435731D01*
X131075735Y-146452474D01*
X131095870Y-146487349D01*
X131095871Y-146487350D01*
X131313222Y-146270000D01*
X131283385Y-146240163D01*
X131340000Y-146240163D01*
X131340000Y-146299837D01*
X131362836Y-146354968D01*
X131405032Y-146397164D01*
X131460163Y-146420000D01*
X131519837Y-146420000D01*
X131574968Y-146397164D01*
X131617164Y-146354968D01*
X131640000Y-146299837D01*
X131640000Y-146270000D01*
X131666776Y-146270000D01*
X131884126Y-146487349D01*
X131904263Y-146452473D01*
X131949733Y-146411532D01*
X132010584Y-146405138D01*
X132063571Y-146435731D01*
X132075735Y-146452474D01*
X132095870Y-146487349D01*
X132095871Y-146487350D01*
X132313222Y-146270000D01*
X132283385Y-146240163D01*
X132340000Y-146240163D01*
X132340000Y-146299837D01*
X132362836Y-146354968D01*
X132405032Y-146397164D01*
X132460163Y-146420000D01*
X132519837Y-146420000D01*
X132574968Y-146397164D01*
X132617164Y-146354968D01*
X132640000Y-146299837D01*
X132640000Y-146270000D01*
X132666776Y-146270000D01*
X132884126Y-146487350D01*
X132884127Y-146487349D01*
X132909330Y-146443699D01*
X132909332Y-146443692D01*
X132940000Y-146329243D01*
X132940000Y-146210756D01*
X132909331Y-146096303D01*
X132884127Y-146052649D01*
X132666776Y-146270000D01*
X132640000Y-146270000D01*
X132640000Y-146240163D01*
X132617164Y-146185032D01*
X132574968Y-146142836D01*
X132519837Y-146120000D01*
X132460163Y-146120000D01*
X132405032Y-146142836D01*
X132362836Y-146185032D01*
X132340000Y-146240163D01*
X132283385Y-146240163D01*
X132095872Y-146052650D01*
X132075737Y-146087525D01*
X132030267Y-146128466D01*
X131969417Y-146134862D01*
X131916429Y-146104269D01*
X131904264Y-146087526D01*
X131884127Y-146052649D01*
X131666776Y-146270000D01*
X131640000Y-146270000D01*
X131640000Y-146240163D01*
X131617164Y-146185032D01*
X131574968Y-146142836D01*
X131519837Y-146120000D01*
X131460163Y-146120000D01*
X131405032Y-146142836D01*
X131362836Y-146185032D01*
X131340000Y-146240163D01*
X131283385Y-146240163D01*
X131095872Y-146052650D01*
X131075737Y-146087525D01*
X131030267Y-146128466D01*
X130969417Y-146134862D01*
X130916429Y-146104269D01*
X130904264Y-146087526D01*
X130884127Y-146052649D01*
X130666776Y-146270000D01*
X130640000Y-146270000D01*
X130640000Y-146240163D01*
X130617164Y-146185032D01*
X130574968Y-146142836D01*
X130519837Y-146120000D01*
X130460163Y-146120000D01*
X130405032Y-146142836D01*
X130362836Y-146185032D01*
X130340000Y-146240163D01*
X130283385Y-146240163D01*
X130095872Y-146052650D01*
X130070667Y-146096306D01*
X130040000Y-146210756D01*
X128781587Y-146210756D01*
X128738021Y-146167190D01*
X128656603Y-146129224D01*
X128611855Y-146087496D01*
X128600180Y-146027435D01*
X128626038Y-145971982D01*
X128679552Y-145942319D01*
X128698442Y-145940500D01*
X129059747Y-145940500D01*
X129059748Y-145940500D01*
X129118231Y-145928867D01*
X129184552Y-145884552D01*
X129228867Y-145818231D01*
X129240500Y-145759748D01*
X129240500Y-145664127D01*
X130272648Y-145664127D01*
X130307526Y-145684264D01*
X130348467Y-145729734D01*
X130354861Y-145790585D01*
X130341561Y-145823130D01*
X130294267Y-145897489D01*
X130490000Y-146093222D01*
X130685732Y-145897490D01*
X130638438Y-145823128D01*
X130636561Y-145815851D01*
X130631533Y-145810266D01*
X130629062Y-145786763D01*
X130623163Y-145763880D01*
X130625922Y-145756889D01*
X130625137Y-145749415D01*
X130636954Y-145728947D01*
X130645631Y-145706969D01*
X130651971Y-145702936D01*
X130655730Y-145696427D01*
X130672473Y-145684263D01*
X130707348Y-145664127D01*
X131272648Y-145664127D01*
X131307526Y-145684264D01*
X131348467Y-145729734D01*
X131354861Y-145790585D01*
X131341561Y-145823130D01*
X131294267Y-145897489D01*
X131490000Y-146093222D01*
X131685732Y-145897490D01*
X131638438Y-145823128D01*
X131636561Y-145815851D01*
X131631533Y-145810266D01*
X131629062Y-145786763D01*
X131623163Y-145763880D01*
X131625922Y-145756889D01*
X131625137Y-145749415D01*
X131636954Y-145728947D01*
X131645631Y-145706969D01*
X131651971Y-145702936D01*
X131655730Y-145696427D01*
X131672473Y-145684263D01*
X131707348Y-145664127D01*
X132272648Y-145664127D01*
X132307526Y-145684264D01*
X132348467Y-145729734D01*
X132354861Y-145790585D01*
X132341561Y-145823130D01*
X132294267Y-145897489D01*
X132490000Y-146093222D01*
X132707350Y-145875871D01*
X132707349Y-145875870D01*
X132672474Y-145855735D01*
X132631533Y-145810266D01*
X132625137Y-145749415D01*
X132655730Y-145696427D01*
X132672473Y-145684263D01*
X132707350Y-145664126D01*
X132490000Y-145446776D01*
X132272649Y-145664127D01*
X132272648Y-145664127D01*
X131707348Y-145664127D01*
X131707350Y-145664126D01*
X131490000Y-145446776D01*
X131272649Y-145664127D01*
X131272648Y-145664127D01*
X130707348Y-145664127D01*
X130707350Y-145664126D01*
X130490000Y-145446776D01*
X130272649Y-145664127D01*
X130272648Y-145664127D01*
X129240500Y-145664127D01*
X129240500Y-145210756D01*
X130040000Y-145210756D01*
X130040000Y-145329243D01*
X130070668Y-145443698D01*
X130095870Y-145487349D01*
X130095871Y-145487350D01*
X130313222Y-145270000D01*
X130283385Y-145240163D01*
X130340000Y-145240163D01*
X130340000Y-145299837D01*
X130362836Y-145354968D01*
X130405032Y-145397164D01*
X130460163Y-145420000D01*
X130519837Y-145420000D01*
X130574968Y-145397164D01*
X130617164Y-145354968D01*
X130640000Y-145299837D01*
X130640000Y-145270000D01*
X130666776Y-145270000D01*
X130884126Y-145487349D01*
X130904263Y-145452473D01*
X130949733Y-145411532D01*
X131010584Y-145405138D01*
X131063571Y-145435731D01*
X131075735Y-145452474D01*
X131095870Y-145487349D01*
X131095871Y-145487350D01*
X131313222Y-145270000D01*
X131283385Y-145240163D01*
X131340000Y-145240163D01*
X131340000Y-145299837D01*
X131362836Y-145354968D01*
X131405032Y-145397164D01*
X131460163Y-145420000D01*
X131519837Y-145420000D01*
X131574968Y-145397164D01*
X131617164Y-145354968D01*
X131640000Y-145299837D01*
X131640000Y-145270000D01*
X131666776Y-145270000D01*
X131884126Y-145487349D01*
X131904263Y-145452473D01*
X131949733Y-145411532D01*
X132010584Y-145405138D01*
X132063571Y-145435731D01*
X132075735Y-145452474D01*
X132095870Y-145487349D01*
X132095871Y-145487350D01*
X132313222Y-145270000D01*
X132283385Y-145240163D01*
X132340000Y-145240163D01*
X132340000Y-145299837D01*
X132362836Y-145354968D01*
X132405032Y-145397164D01*
X132460163Y-145420000D01*
X132519837Y-145420000D01*
X132574968Y-145397164D01*
X132617164Y-145354968D01*
X132640000Y-145299837D01*
X132640000Y-145270000D01*
X132666776Y-145270000D01*
X132884126Y-145487350D01*
X132884127Y-145487349D01*
X132909330Y-145443699D01*
X132909332Y-145443692D01*
X132940000Y-145329243D01*
X132940000Y-145210756D01*
X132909331Y-145096303D01*
X132884127Y-145052649D01*
X132666776Y-145270000D01*
X132640000Y-145270000D01*
X132640000Y-145240163D01*
X132617164Y-145185032D01*
X132574968Y-145142836D01*
X132519837Y-145120000D01*
X132460163Y-145120000D01*
X132405032Y-145142836D01*
X132362836Y-145185032D01*
X132340000Y-145240163D01*
X132283385Y-145240163D01*
X132095872Y-145052650D01*
X132075737Y-145087525D01*
X132030267Y-145128466D01*
X131969417Y-145134862D01*
X131916429Y-145104269D01*
X131904264Y-145087526D01*
X131884127Y-145052649D01*
X131666776Y-145270000D01*
X131640000Y-145270000D01*
X131640000Y-145240163D01*
X131617164Y-145185032D01*
X131574968Y-145142836D01*
X131519837Y-145120000D01*
X131460163Y-145120000D01*
X131405032Y-145142836D01*
X131362836Y-145185032D01*
X131340000Y-145240163D01*
X131283385Y-145240163D01*
X131095872Y-145052650D01*
X131075737Y-145087525D01*
X131030267Y-145128466D01*
X130969417Y-145134862D01*
X130916429Y-145104269D01*
X130904264Y-145087526D01*
X130884127Y-145052649D01*
X130666776Y-145270000D01*
X130640000Y-145270000D01*
X130640000Y-145240163D01*
X130617164Y-145185032D01*
X130574968Y-145142836D01*
X130519837Y-145120000D01*
X130460163Y-145120000D01*
X130405032Y-145142836D01*
X130362836Y-145185032D01*
X130340000Y-145240163D01*
X130283385Y-145240163D01*
X130095872Y-145052650D01*
X130070667Y-145096306D01*
X130040000Y-145210756D01*
X129240500Y-145210756D01*
X129240500Y-145020252D01*
X129228867Y-144961769D01*
X129184552Y-144895448D01*
X129180305Y-144892610D01*
X129118233Y-144851134D01*
X129118231Y-144851133D01*
X129118228Y-144851132D01*
X129118227Y-144851132D01*
X129059758Y-144839501D01*
X129059748Y-144839500D01*
X129059747Y-144839500D01*
X128765479Y-144839500D01*
X128707288Y-144820593D01*
X128695475Y-144810504D01*
X128549098Y-144664127D01*
X130272648Y-144664127D01*
X130307526Y-144684264D01*
X130348467Y-144729734D01*
X130354861Y-144790585D01*
X130341561Y-144823130D01*
X130294267Y-144897489D01*
X130490000Y-145093222D01*
X130685732Y-144897490D01*
X130638438Y-144823128D01*
X130636561Y-144815851D01*
X130631533Y-144810266D01*
X130629062Y-144786763D01*
X130623163Y-144763880D01*
X130625922Y-144756889D01*
X130625137Y-144749415D01*
X130636954Y-144728947D01*
X130645631Y-144706969D01*
X130651971Y-144702936D01*
X130655730Y-144696427D01*
X130672473Y-144684263D01*
X130707348Y-144664127D01*
X131272648Y-144664127D01*
X131307526Y-144684264D01*
X131348467Y-144729734D01*
X131354861Y-144790585D01*
X131341561Y-144823130D01*
X131294267Y-144897489D01*
X131490000Y-145093222D01*
X131685732Y-144897490D01*
X131638438Y-144823128D01*
X131636561Y-144815851D01*
X131631533Y-144810266D01*
X131629062Y-144786763D01*
X131623163Y-144763880D01*
X131625922Y-144756889D01*
X131625137Y-144749415D01*
X131636954Y-144728947D01*
X131645631Y-144706969D01*
X131651971Y-144702936D01*
X131655730Y-144696427D01*
X131672473Y-144684263D01*
X131707348Y-144664127D01*
X132272648Y-144664127D01*
X132307526Y-144684264D01*
X132348467Y-144729734D01*
X132354861Y-144790585D01*
X132341561Y-144823130D01*
X132294267Y-144897489D01*
X132490000Y-145093222D01*
X132707350Y-144875871D01*
X132707349Y-144875870D01*
X132672474Y-144855735D01*
X132631533Y-144810266D01*
X132625137Y-144749415D01*
X132655730Y-144696427D01*
X132672473Y-144684263D01*
X132707350Y-144664126D01*
X132490000Y-144446776D01*
X132272649Y-144664127D01*
X132272648Y-144664127D01*
X131707348Y-144664127D01*
X131707350Y-144664126D01*
X131490000Y-144446776D01*
X131272649Y-144664127D01*
X131272648Y-144664127D01*
X130707348Y-144664127D01*
X130707350Y-144664126D01*
X130490000Y-144446776D01*
X130272649Y-144664127D01*
X130272648Y-144664127D01*
X128549098Y-144664127D01*
X128461540Y-144576569D01*
X128114511Y-144229540D01*
X128088068Y-144214273D01*
X128083926Y-144210756D01*
X130040000Y-144210756D01*
X130040000Y-144329243D01*
X130070668Y-144443698D01*
X130095870Y-144487349D01*
X130095871Y-144487350D01*
X130313222Y-144270000D01*
X130283385Y-144240163D01*
X130340000Y-144240163D01*
X130340000Y-144299837D01*
X130362836Y-144354968D01*
X130405032Y-144397164D01*
X130460163Y-144420000D01*
X130519837Y-144420000D01*
X130574968Y-144397164D01*
X130617164Y-144354968D01*
X130640000Y-144299837D01*
X130640000Y-144270000D01*
X130666776Y-144270000D01*
X130884126Y-144487349D01*
X130904263Y-144452473D01*
X130949733Y-144411532D01*
X131010584Y-144405138D01*
X131063571Y-144435731D01*
X131075735Y-144452474D01*
X131095870Y-144487349D01*
X131095871Y-144487350D01*
X131313222Y-144270000D01*
X131283385Y-144240163D01*
X131340000Y-144240163D01*
X131340000Y-144299837D01*
X131362836Y-144354968D01*
X131405032Y-144397164D01*
X131460163Y-144420000D01*
X131519837Y-144420000D01*
X131574968Y-144397164D01*
X131617164Y-144354968D01*
X131640000Y-144299837D01*
X131640000Y-144270000D01*
X131666776Y-144270000D01*
X131884126Y-144487349D01*
X131904263Y-144452473D01*
X131949733Y-144411532D01*
X132010584Y-144405138D01*
X132063571Y-144435731D01*
X132075735Y-144452474D01*
X132095870Y-144487349D01*
X132095871Y-144487350D01*
X132313222Y-144270000D01*
X132283385Y-144240163D01*
X132340000Y-144240163D01*
X132340000Y-144299837D01*
X132362836Y-144354968D01*
X132405032Y-144397164D01*
X132460163Y-144420000D01*
X132519837Y-144420000D01*
X132574968Y-144397164D01*
X132617164Y-144354968D01*
X132640000Y-144299837D01*
X132640000Y-144270000D01*
X132666776Y-144270000D01*
X132884126Y-144487350D01*
X132884127Y-144487349D01*
X132909330Y-144443699D01*
X132909332Y-144443692D01*
X132940000Y-144329243D01*
X132940000Y-144210756D01*
X132909331Y-144096303D01*
X132884127Y-144052649D01*
X132666776Y-144270000D01*
X132640000Y-144270000D01*
X132640000Y-144240163D01*
X132617164Y-144185032D01*
X132574968Y-144142836D01*
X132519837Y-144120000D01*
X132460163Y-144120000D01*
X132405032Y-144142836D01*
X132362836Y-144185032D01*
X132340000Y-144240163D01*
X132283385Y-144240163D01*
X132095872Y-144052650D01*
X132075737Y-144087525D01*
X132030267Y-144128466D01*
X131969417Y-144134862D01*
X131916429Y-144104269D01*
X131904264Y-144087526D01*
X131884127Y-144052649D01*
X131666776Y-144270000D01*
X131640000Y-144270000D01*
X131640000Y-144240163D01*
X131617164Y-144185032D01*
X131574968Y-144142836D01*
X131519837Y-144120000D01*
X131460163Y-144120000D01*
X131405032Y-144142836D01*
X131362836Y-144185032D01*
X131340000Y-144240163D01*
X131283385Y-144240163D01*
X131095872Y-144052650D01*
X131075737Y-144087525D01*
X131030267Y-144128466D01*
X130969417Y-144134862D01*
X130916429Y-144104269D01*
X130904264Y-144087526D01*
X130884127Y-144052649D01*
X130666776Y-144270000D01*
X130640000Y-144270000D01*
X130640000Y-144240163D01*
X130617164Y-144185032D01*
X130574968Y-144142836D01*
X130519837Y-144120000D01*
X130460163Y-144120000D01*
X130405032Y-144142836D01*
X130362836Y-144185032D01*
X130340000Y-144240163D01*
X130283385Y-144240163D01*
X130095872Y-144052650D01*
X130070667Y-144096306D01*
X130040000Y-144210756D01*
X128083926Y-144210756D01*
X128081246Y-144208481D01*
X128069652Y-144189686D01*
X128054880Y-144173279D01*
X128053924Y-144164188D01*
X128049124Y-144156406D01*
X128050792Y-144134383D01*
X128048485Y-144112429D01*
X128053055Y-144104513D01*
X128053746Y-144095395D01*
X128068039Y-144078560D01*
X128077823Y-144061612D01*
X128077657Y-144061446D01*
X128078280Y-144060822D01*
X128079078Y-144059441D01*
X128081704Y-144057398D01*
X128084545Y-144054556D01*
X128084552Y-144054552D01*
X128128867Y-143988231D01*
X128140500Y-143929748D01*
X128140500Y-143875872D01*
X130272650Y-143875872D01*
X130490000Y-144093222D01*
X130707349Y-143875872D01*
X131272650Y-143875872D01*
X131490000Y-144093222D01*
X131707349Y-143875872D01*
X132272650Y-143875872D01*
X132490000Y-144093222D01*
X132707350Y-143875871D01*
X132707349Y-143875870D01*
X132663697Y-143850668D01*
X132663698Y-143850668D01*
X132549243Y-143820000D01*
X132430757Y-143820000D01*
X132316306Y-143850667D01*
X132272650Y-143875872D01*
X131707349Y-143875872D01*
X131707350Y-143875871D01*
X131663697Y-143850668D01*
X131663698Y-143850668D01*
X131549243Y-143820000D01*
X131430757Y-143820000D01*
X131316306Y-143850667D01*
X131272650Y-143875872D01*
X130707349Y-143875872D01*
X130707350Y-143875871D01*
X130663697Y-143850668D01*
X130663698Y-143850668D01*
X130549243Y-143820000D01*
X130430757Y-143820000D01*
X130316306Y-143850667D01*
X130272650Y-143875872D01*
X128140500Y-143875872D01*
X128140500Y-143238692D01*
X128159407Y-143180501D01*
X128208907Y-143144537D01*
X128270093Y-143144537D01*
X128288997Y-143152954D01*
X128329589Y-143176390D01*
X128456883Y-143210498D01*
X128456885Y-143210498D01*
X128588665Y-143210498D01*
X128588667Y-143210498D01*
X128715961Y-143176390D01*
X128715963Y-143176388D01*
X128715965Y-143176388D01*
X128830084Y-143110501D01*
X128830084Y-143110500D01*
X128830089Y-143110498D01*
X128923275Y-143017312D01*
X128936728Y-142994011D01*
X128989165Y-142903188D01*
X128989165Y-142903186D01*
X128989167Y-142903184D01*
X129023275Y-142775890D01*
X129023275Y-142644106D01*
X128989167Y-142516812D01*
X128989165Y-142516809D01*
X128989165Y-142516807D01*
X128923278Y-142402688D01*
X128923276Y-142402686D01*
X128923275Y-142402684D01*
X128830089Y-142309498D01*
X128830086Y-142309496D01*
X128830084Y-142309494D01*
X128715964Y-142243607D01*
X128715960Y-142243605D01*
X128691227Y-142236978D01*
X128639913Y-142203654D01*
X128617987Y-142146532D01*
X128621224Y-142115732D01*
X128631185Y-142078559D01*
X128631185Y-141946775D01*
X128624264Y-141920943D01*
X128623873Y-141919485D01*
X128620500Y-141893863D01*
X128620500Y-141089045D01*
X128639407Y-141030854D01*
X128688907Y-140994890D01*
X128706587Y-140990891D01*
X128709553Y-140990500D01*
X128709562Y-140990500D01*
X128785989Y-140970021D01*
X128854511Y-140930460D01*
X128889984Y-140894985D01*
X128910484Y-140879254D01*
X128943040Y-140860460D01*
X128998989Y-140804511D01*
X129060496Y-140743004D01*
X129115013Y-140715227D01*
X129175445Y-140724798D01*
X129218710Y-140768063D01*
X129229500Y-140813008D01*
X129229500Y-143122898D01*
X129224066Y-143150219D01*
X129225288Y-143150547D01*
X129223609Y-143156811D01*
X129223608Y-143156814D01*
X129189500Y-143284108D01*
X129189500Y-143415892D01*
X129210121Y-143492850D01*
X129223609Y-143543190D01*
X129289496Y-143657309D01*
X129289498Y-143657311D01*
X129289500Y-143657314D01*
X129382686Y-143750500D01*
X129382688Y-143750501D01*
X129382690Y-143750503D01*
X129496810Y-143816390D01*
X129496808Y-143816390D01*
X129496812Y-143816391D01*
X129496814Y-143816392D01*
X129624108Y-143850500D01*
X129624110Y-143850500D01*
X129755890Y-143850500D01*
X129755892Y-143850500D01*
X129883186Y-143816392D01*
X129883188Y-143816390D01*
X129883190Y-143816390D01*
X129997309Y-143750503D01*
X129997309Y-143750502D01*
X129997314Y-143750500D01*
X130090500Y-143657314D01*
X130106233Y-143630064D01*
X130156390Y-143543190D01*
X130156390Y-143543188D01*
X130156392Y-143543186D01*
X130190500Y-143415892D01*
X130190500Y-143284108D01*
X130156392Y-143156814D01*
X130156390Y-143156811D01*
X130156390Y-143156809D01*
X130090503Y-143042690D01*
X130090501Y-143042688D01*
X130090500Y-143042686D01*
X129997314Y-142949500D01*
X129997311Y-142949498D01*
X129879999Y-142881767D01*
X129839059Y-142836297D01*
X129830500Y-142796031D01*
X129830500Y-138180439D01*
X129830500Y-138180438D01*
X129810022Y-138104012D01*
X129810020Y-138104009D01*
X129810020Y-138104007D01*
X129770463Y-138035493D01*
X129770461Y-138035491D01*
X129770460Y-138035489D01*
X129734260Y-137999289D01*
X129706485Y-137944775D01*
X129716056Y-137884343D01*
X129759321Y-137841078D01*
X129806953Y-137831608D01*
X129806953Y-137830500D01*
X130039160Y-137830500D01*
X130264655Y-137794785D01*
X130264656Y-137794784D01*
X130264660Y-137794784D01*
X130481799Y-137724231D01*
X130481803Y-137724229D01*
X130481806Y-137724228D01*
X130657826Y-137634541D01*
X130718258Y-137624969D01*
X130772774Y-137652746D01*
X130772775Y-137652746D01*
X133433495Y-140313466D01*
X133449228Y-140333970D01*
X133449540Y-140334511D01*
X134710505Y-141595476D01*
X134738281Y-141649991D01*
X134739500Y-141665478D01*
X134739500Y-145230131D01*
X134720593Y-145288322D01*
X134710504Y-145300135D01*
X134068294Y-145942345D01*
X134068293Y-145942344D01*
X134012344Y-145998294D01*
X133972785Y-146066812D01*
X133972783Y-146066816D01*
X133952305Y-146143240D01*
X133952305Y-146633000D01*
X133933398Y-146691191D01*
X133883898Y-146727155D01*
X133853305Y-146732000D01*
X133808105Y-146732000D01*
X133740338Y-146750158D01*
X133680806Y-146766109D01*
X133566687Y-146831996D01*
X133473493Y-146925190D01*
X133407606Y-147039309D01*
X133388536Y-147110478D01*
X133373497Y-147166608D01*
X133373497Y-147298392D01*
X133377011Y-147311505D01*
X133407606Y-147425690D01*
X133473493Y-147539809D01*
X133473495Y-147539811D01*
X133473497Y-147539814D01*
X133566683Y-147633000D01*
X133566685Y-147633001D01*
X133566687Y-147633003D01*
X133680807Y-147698890D01*
X133680805Y-147698890D01*
X133680809Y-147698891D01*
X133680811Y-147698892D01*
X133808105Y-147733000D01*
X133808107Y-147733000D01*
X133939887Y-147733000D01*
X133939889Y-147733000D01*
X134067183Y-147698892D01*
X134067185Y-147698890D01*
X134067187Y-147698890D01*
X134181306Y-147633003D01*
X134181306Y-147633002D01*
X134181311Y-147633000D01*
X134274497Y-147539814D01*
X134274500Y-147539809D01*
X134340387Y-147425690D01*
X134340387Y-147425688D01*
X134340389Y-147425686D01*
X134374497Y-147298392D01*
X134374497Y-147211784D01*
X134393404Y-147153593D01*
X134442904Y-147117629D01*
X134504090Y-147117629D01*
X134553590Y-147153593D01*
X134569124Y-147186162D01*
X134572131Y-147197385D01*
X134638018Y-147311505D01*
X134638020Y-147311507D01*
X134638022Y-147311510D01*
X134731208Y-147404696D01*
X134731210Y-147404697D01*
X134731212Y-147404699D01*
X134845332Y-147470586D01*
X134845330Y-147470586D01*
X134845334Y-147470587D01*
X134845336Y-147470588D01*
X134972630Y-147504696D01*
X134972632Y-147504696D01*
X135104412Y-147504696D01*
X135104414Y-147504696D01*
X135231708Y-147470588D01*
X135231710Y-147470586D01*
X135231712Y-147470586D01*
X135345831Y-147404699D01*
X135345831Y-147404698D01*
X135345836Y-147404696D01*
X135439022Y-147311510D01*
X135504914Y-147197382D01*
X135539022Y-147070088D01*
X135539022Y-146969673D01*
X135541255Y-146962799D01*
X135540016Y-146955679D01*
X135550163Y-146935383D01*
X135557929Y-146911482D01*
X135566959Y-146900745D01*
X135567468Y-146900219D01*
X135690460Y-146777229D01*
X135695897Y-146767811D01*
X135704437Y-146759007D01*
X135721166Y-146750158D01*
X135735227Y-146737497D01*
X135747558Y-146736199D01*
X135758523Y-146730401D01*
X135777258Y-146733076D01*
X135796076Y-146731097D01*
X135806816Y-146737296D01*
X135819094Y-146739050D01*
X135832677Y-146752225D01*
X135849067Y-146761686D01*
X135854112Y-146773015D01*
X135863014Y-146781650D01*
X135866258Y-146800292D01*
X135873957Y-146817580D01*
X135874500Y-146827935D01*
X135874500Y-147925140D01*
X135874023Y-147934844D01*
X135861054Y-148066515D01*
X135857268Y-148085549D01*
X135820278Y-148207490D01*
X135812851Y-148225420D01*
X135752784Y-148337799D01*
X135742002Y-148353936D01*
X135661162Y-148452439D01*
X135647439Y-148466162D01*
X135548936Y-148547002D01*
X135532799Y-148557784D01*
X135420420Y-148617851D01*
X135402490Y-148625278D01*
X135280549Y-148662268D01*
X135261515Y-148666054D01*
X135141223Y-148677902D01*
X135129842Y-148679023D01*
X135120140Y-148679500D01*
X117129860Y-148679500D01*
X117120157Y-148679023D01*
X117107395Y-148677766D01*
X116988484Y-148666054D01*
X116969450Y-148662268D01*
X116847509Y-148625278D01*
X116829579Y-148617851D01*
X116717200Y-148557784D01*
X116701065Y-148547003D01*
X116651811Y-148506582D01*
X116602560Y-148466162D01*
X116588837Y-148452439D01*
X116564873Y-148423239D01*
X116507994Y-148353931D01*
X116497218Y-148337804D01*
X116437147Y-148225418D01*
X116429721Y-148207490D01*
X116392731Y-148085549D01*
X116388945Y-148066514D01*
X116375977Y-147934843D01*
X116375500Y-147925140D01*
X116375500Y-145175685D01*
X123318000Y-145175685D01*
X123318000Y-145324314D01*
X123346994Y-145470078D01*
X123403870Y-145607389D01*
X123486438Y-145730962D01*
X123486441Y-145730966D01*
X123591534Y-145836059D01*
X123715110Y-145918629D01*
X123852420Y-145975505D01*
X123998188Y-146004500D01*
X123998189Y-146004500D01*
X124146811Y-146004500D01*
X124146812Y-146004500D01*
X124292580Y-145975505D01*
X124429890Y-145918629D01*
X124553466Y-145836059D01*
X124658559Y-145730966D01*
X124741129Y-145607390D01*
X124798005Y-145470080D01*
X124827000Y-145324312D01*
X124827000Y-145175688D01*
X124798005Y-145029920D01*
X124741129Y-144892610D01*
X124658559Y-144769034D01*
X124553466Y-144663941D01*
X124553460Y-144663937D01*
X124505683Y-144632014D01*
X124467803Y-144583964D01*
X124465401Y-144522826D01*
X124499393Y-144471952D01*
X124505683Y-144467382D01*
X124510131Y-144464409D01*
X124178028Y-144132306D01*
X124188296Y-144129556D01*
X124256705Y-144090060D01*
X124312560Y-144034205D01*
X124352056Y-143965796D01*
X124354806Y-143955528D01*
X124686910Y-144287632D01*
X124740687Y-144207150D01*
X124797523Y-144069935D01*
X124797523Y-144069933D01*
X124826499Y-143924264D01*
X124826500Y-143924260D01*
X124826500Y-143775739D01*
X124826499Y-143775735D01*
X124797523Y-143630066D01*
X124797523Y-143630064D01*
X124740687Y-143492850D01*
X124686910Y-143412366D01*
X124354806Y-143744469D01*
X124352056Y-143734204D01*
X124312560Y-143665795D01*
X124256705Y-143609940D01*
X124188296Y-143570444D01*
X124178027Y-143567692D01*
X124510132Y-143235588D01*
X124429660Y-143181817D01*
X124429648Y-143181811D01*
X124292434Y-143124976D01*
X124146764Y-143096000D01*
X123998235Y-143096000D01*
X123852566Y-143124976D01*
X123852564Y-143124976D01*
X123715349Y-143181812D01*
X123634866Y-143235588D01*
X123966971Y-143567693D01*
X123956704Y-143570444D01*
X123888295Y-143609940D01*
X123832440Y-143665795D01*
X123792944Y-143734204D01*
X123790193Y-143744471D01*
X123458088Y-143412366D01*
X123404312Y-143492849D01*
X123347476Y-143630064D01*
X123347476Y-143630066D01*
X123318500Y-143775735D01*
X123318500Y-143924264D01*
X123347476Y-144069933D01*
X123347476Y-144069935D01*
X123404311Y-144207148D01*
X123404317Y-144207160D01*
X123458088Y-144287632D01*
X123790192Y-143955527D01*
X123792944Y-143965796D01*
X123832440Y-144034205D01*
X123888295Y-144090060D01*
X123956704Y-144129556D01*
X123966969Y-144132306D01*
X123634866Y-144464410D01*
X123639314Y-144467382D01*
X123677194Y-144515431D01*
X123679597Y-144576569D01*
X123645605Y-144627443D01*
X123639316Y-144632013D01*
X123591538Y-144663937D01*
X123486438Y-144769037D01*
X123403870Y-144892610D01*
X123346994Y-145029921D01*
X123318000Y-145175685D01*
X116375500Y-145175685D01*
X116375500Y-129934859D01*
X116375977Y-129925156D01*
X116388945Y-129793485D01*
X116388945Y-129793484D01*
X116392731Y-129774450D01*
X116429723Y-129652502D01*
X116437145Y-129634585D01*
X116497221Y-129522190D01*
X116507990Y-129506072D01*
X116588840Y-129407556D01*
X116602556Y-129393840D01*
X116701072Y-129312990D01*
X116717190Y-129302221D01*
X116829585Y-129242145D01*
X116847502Y-129234723D01*
X116969452Y-129197730D01*
X116988483Y-129193945D01*
X117120157Y-129180977D01*
X117129860Y-129180500D01*
X117169170Y-129180500D01*
X135080830Y-129180500D01*
X135120140Y-129180500D01*
X135129843Y-129180977D01*
G37*
%TD.AperFunction*%
%TA.AperFunction,Conductor*%
G36*
X128412354Y-138095065D02*
G01*
X128425326Y-138105983D01*
X128580504Y-138261161D01*
X128608281Y-138315678D01*
X128609500Y-138331165D01*
X128609500Y-139611033D01*
X128621269Y-139654953D01*
X128629979Y-139687460D01*
X128629981Y-139687464D01*
X128636975Y-139699578D01*
X128636976Y-139699578D01*
X128669540Y-139755982D01*
X128780505Y-139866947D01*
X128784130Y-139874062D01*
X128790593Y-139878758D01*
X128797756Y-139900806D01*
X128808281Y-139921462D01*
X128809500Y-139936949D01*
X128809500Y-140103050D01*
X128790593Y-140161241D01*
X128780503Y-140173054D01*
X128608544Y-140345012D01*
X128588048Y-140360741D01*
X128578965Y-140365986D01*
X128578960Y-140365989D01*
X128561213Y-140376234D01*
X128511712Y-140389500D01*
X128409562Y-140389500D01*
X128330438Y-140389500D01*
X128283661Y-140402033D01*
X128254007Y-140409979D01*
X128185493Y-140449536D01*
X128185487Y-140449540D01*
X128135488Y-140499540D01*
X128079539Y-140555489D01*
X128039980Y-140624007D01*
X128039978Y-140624011D01*
X128019500Y-140700435D01*
X128019500Y-141448337D01*
X128000593Y-141506528D01*
X127951093Y-141542492D01*
X127946127Y-141543963D01*
X127937495Y-141546276D01*
X127823375Y-141612163D01*
X127730181Y-141705357D01*
X127664294Y-141819476D01*
X127664293Y-141819481D01*
X127630185Y-141946775D01*
X127630185Y-142078559D01*
X127640144Y-142115727D01*
X127664294Y-142205857D01*
X127719226Y-142301000D01*
X127731948Y-142360848D01*
X127707062Y-142416744D01*
X127654074Y-142447337D01*
X127633490Y-142449500D01*
X127220435Y-142449500D01*
X127144011Y-142469978D01*
X127144007Y-142469980D01*
X127075489Y-142509539D01*
X126659539Y-142925489D01*
X126619980Y-142994007D01*
X126619979Y-142994010D01*
X126600161Y-143067966D01*
X126566836Y-143119280D01*
X126509714Y-143141205D01*
X126450614Y-143125368D01*
X126448642Y-143124053D01*
X126441040Y-143118853D01*
X126404620Y-143082433D01*
X126296742Y-143020149D01*
X126293607Y-143018005D01*
X126277126Y-142996626D01*
X126259059Y-142976559D01*
X126258069Y-142971903D01*
X126256252Y-142969546D01*
X126256049Y-142962398D01*
X126250500Y-142936293D01*
X126250500Y-142579126D01*
X126250501Y-142579113D01*
X126250501Y-142413027D01*
X126250501Y-142413025D01*
X126209577Y-142260297D01*
X126173135Y-142197178D01*
X126130520Y-142123366D01*
X126064936Y-142057782D01*
X126061001Y-142052661D01*
X126052821Y-142029614D01*
X126041719Y-142007824D01*
X126040758Y-141995627D01*
X126040536Y-141994999D01*
X126040672Y-141994535D01*
X126040500Y-141992338D01*
X126040500Y-141920945D01*
X126040499Y-141920939D01*
X126033999Y-141896679D01*
X125999577Y-141768215D01*
X125951250Y-141684511D01*
X125920520Y-141631284D01*
X125808716Y-141519480D01*
X125808713Y-141519478D01*
X125598976Y-141309741D01*
X125571199Y-141255224D01*
X125580770Y-141194792D01*
X125624035Y-141151527D01*
X125681902Y-141141584D01*
X125685005Y-141141992D01*
X125685007Y-141141993D01*
X125977494Y-141180500D01*
X125977495Y-141180500D01*
X126272505Y-141180500D01*
X126272506Y-141180500D01*
X126564993Y-141141993D01*
X126849952Y-141065639D01*
X127122507Y-140952743D01*
X127377994Y-140805238D01*
X127612042Y-140625646D01*
X127820646Y-140417042D01*
X128000238Y-140182994D01*
X128147743Y-139927507D01*
X128260639Y-139654952D01*
X128336993Y-139369993D01*
X128375500Y-139077506D01*
X128375500Y-138782494D01*
X128336993Y-138490007D01*
X128260639Y-138205048D01*
X128260638Y-138205045D01*
X128259800Y-138201918D01*
X128261523Y-138201456D01*
X128260737Y-138146753D01*
X128295984Y-138096740D01*
X128353897Y-138076997D01*
X128412354Y-138095065D01*
G37*
%TD.AperFunction*%
%TA.AperFunction,Conductor*%
G36*
X131233494Y-135378465D02*
G01*
X135120504Y-139265475D01*
X135148281Y-139319992D01*
X135149500Y-139335479D01*
X135149500Y-140945521D01*
X135130593Y-141003712D01*
X135081093Y-141039676D01*
X135019907Y-141039676D01*
X134980496Y-141015525D01*
X133946504Y-139981533D01*
X133930772Y-139961030D01*
X133930459Y-139960487D01*
X133874511Y-139904539D01*
X133874511Y-139904540D01*
X131197746Y-137227775D01*
X131169969Y-137173258D01*
X131179539Y-137112828D01*
X131179541Y-137112826D01*
X131269228Y-136936806D01*
X131269229Y-136936803D01*
X131269229Y-136936802D01*
X131269231Y-136936799D01*
X131339784Y-136719660D01*
X131340046Y-136718006D01*
X131375500Y-136494160D01*
X131375500Y-136265839D01*
X131339785Y-136040344D01*
X131339680Y-136040021D01*
X131269231Y-135823201D01*
X131165579Y-135619772D01*
X131114455Y-135549407D01*
X131083398Y-135506660D01*
X131064490Y-135448469D01*
X131083397Y-135390279D01*
X131132897Y-135354315D01*
X131194082Y-135354314D01*
X131233494Y-135378465D01*
G37*
%TD.AperFunction*%
%TD*%
M02*
