M48
; DRILL file KiCad 10.0.3 date 2026-08-31T03:04:23
; FORMAT={-:-/ absolute / metric / decimal}
; #@! TF.CreationDate,2026-08-31T03:04:23+08:00
; #@! TF.GenerationSoftware,Kicad,Pcbnew,10.0.3
; #@! TF.FileFunction,Plated,1,2,PTH
FMAT,2
METRIC
; #@! TA.AperFunction,Plated,PTH,ViaDrill
T1C0.300
; #@! TA.AperFunction,Plated,PTH,ComponentDrill
T2C0.300
; #@! TA.AperFunction,Plated,PTH,ViaDrill
T3C0.400
; #@! TA.AperFunction,Plated,PTH,ComponentDrill
T4C0.600
; #@! TA.AperFunction,Plated,PTH,ComponentDrill
T5C1.500
%
G90
G05
T1
X116.77Y-130.62
X117.35Y-133.93
X118.13Y-141.42
X118.14Y-138.95
X120.31Y-133.39
X121.027Y-143.568
X121.6Y-139.41
X122.12Y-132.29
X123.37Y-137.06
X126.097Y-143.483
X126.29Y-141.93
X126.58Y-147.18
X126.87Y-136.408
X128.131Y-142.013
X128.51Y-140.02
X128.523Y-142.71
X129.69Y-143.35
X131.14Y-141.17
X133.874Y-147.232
X135.039Y-147.004
X135.19Y-147.91
T2
X130.49Y-144.27
X130.49Y-145.27
X130.49Y-146.27
X131.49Y-144.27
X131.49Y-145.27
X131.49Y-146.27
X132.49Y-144.27
X132.49Y-145.27
X132.49Y-146.27
T3
X117.4Y-143.8
X118.5Y-143.94
X119.14Y-135.24
X119.61Y-143.78
X120.22Y-137.303
X122.55Y-141.26
X123.66Y-137.92
X125.7Y-134.08
X125.75Y-136.02
X132.24Y-140.03
X132.39Y-137.72
X134.15Y-143.35
X134.53Y-139.76
T4
X124.072Y-143.85
X124.072Y-145.25
T5
X123.125Y-133.81
X129.925Y-136.38
M30
