%TF.GenerationSoftware,KiCad,Pcbnew,10.0.3*%
%TF.CreationDate,2026-08-31T03:04:16+08:00*%
%TF.ProjectId,main,6d61696e-2e6b-4696-9361-645f70636258,rev?*%
%TF.SameCoordinates,Original*%
%TF.FileFunction,Legend,Bot*%
%TF.FilePolarity,Positive*%
%FSLAX46Y46*%
G04 Gerber Fmt 4.6, Leading zero omitted, Abs format (unit mm)*
G04 Created by KiCad (PCBNEW 10.0.3) date 2026-08-31 03:04:16*
%MOMM*%
%LPD*%
G01*
G04 APERTURE LIST*
%ADD10C,0.150000*%
%ADD11C,0.127000*%
%ADD12C,0.120000*%
G04 APERTURE END LIST*
D10*
X126081379Y-142375475D02*
X126081379Y-141374058D01*
X126081379Y-141374058D02*
X125747573Y-142089356D01*
X125747573Y-142089356D02*
X125413768Y-141374058D01*
X125413768Y-141374058D02*
X125413768Y-142375475D01*
X124936902Y-142375475D02*
X124936902Y-141374058D01*
X124364664Y-142375475D02*
X124793842Y-141803237D01*
X124364664Y-141374058D02*
X124936902Y-141946296D01*
X123410933Y-142375475D02*
X123983171Y-142375475D01*
X123697052Y-142375475D02*
X123697052Y-141374058D01*
X123697052Y-141374058D02*
X123792425Y-141517118D01*
X123792425Y-141517118D02*
X123887798Y-141612491D01*
X123887798Y-141612491D02*
X123983171Y-141660177D01*
X123251705Y-146927025D02*
X122488793Y-146927025D01*
X122870249Y-147308482D02*
X122870249Y-146545569D01*
X127153333Y-134224819D02*
X127153333Y-134939104D01*
X127153333Y-134939104D02*
X127200952Y-135081961D01*
X127200952Y-135081961D02*
X127296190Y-135177200D01*
X127296190Y-135177200D02*
X127439047Y-135224819D01*
X127439047Y-135224819D02*
X127534285Y-135224819D01*
X126153333Y-135224819D02*
X126724761Y-135224819D01*
X126439047Y-135224819D02*
X126439047Y-134224819D01*
X126439047Y-134224819D02*
X126534285Y-134367676D01*
X126534285Y-134367676D02*
X126629523Y-134462914D01*
X126629523Y-134462914D02*
X126724761Y-134510533D01*
X131328094Y-143334819D02*
X131328094Y-142334819D01*
X131328094Y-142334819D02*
X131089999Y-142334819D01*
X131089999Y-142334819D02*
X130947142Y-142382438D01*
X130947142Y-142382438D02*
X130851904Y-142477676D01*
X130851904Y-142477676D02*
X130804285Y-142572914D01*
X130804285Y-142572914D02*
X130756666Y-142763390D01*
X130756666Y-142763390D02*
X130756666Y-142906247D01*
X130756666Y-142906247D02*
X130804285Y-143096723D01*
X130804285Y-143096723D02*
X130851904Y-143191961D01*
X130851904Y-143191961D02*
X130947142Y-143287200D01*
X130947142Y-143287200D02*
X131089999Y-143334819D01*
X131089999Y-143334819D02*
X131328094Y-143334819D01*
X130375713Y-142430057D02*
X130328094Y-142382438D01*
X130328094Y-142382438D02*
X130232856Y-142334819D01*
X130232856Y-142334819D02*
X129994761Y-142334819D01*
X129994761Y-142334819D02*
X129899523Y-142382438D01*
X129899523Y-142382438D02*
X129851904Y-142430057D01*
X129851904Y-142430057D02*
X129804285Y-142525295D01*
X129804285Y-142525295D02*
X129804285Y-142620533D01*
X129804285Y-142620533D02*
X129851904Y-142763390D01*
X129851904Y-142763390D02*
X130423332Y-143334819D01*
X130423332Y-143334819D02*
X129804285Y-143334819D01*
X128582857Y-148289580D02*
X128630476Y-148337200D01*
X128630476Y-148337200D02*
X128773333Y-148384819D01*
X128773333Y-148384819D02*
X128868571Y-148384819D01*
X128868571Y-148384819D02*
X129011428Y-148337200D01*
X129011428Y-148337200D02*
X129106666Y-148241961D01*
X129106666Y-148241961D02*
X129154285Y-148146723D01*
X129154285Y-148146723D02*
X129201904Y-147956247D01*
X129201904Y-147956247D02*
X129201904Y-147813390D01*
X129201904Y-147813390D02*
X129154285Y-147622914D01*
X129154285Y-147622914D02*
X129106666Y-147527676D01*
X129106666Y-147527676D02*
X129011428Y-147432438D01*
X129011428Y-147432438D02*
X128868571Y-147384819D01*
X128868571Y-147384819D02*
X128773333Y-147384819D01*
X128773333Y-147384819D02*
X128630476Y-147432438D01*
X128630476Y-147432438D02*
X128582857Y-147480057D01*
X127630476Y-148384819D02*
X128201904Y-148384819D01*
X127916190Y-148384819D02*
X127916190Y-147384819D01*
X127916190Y-147384819D02*
X128011428Y-147527676D01*
X128011428Y-147527676D02*
X128106666Y-147622914D01*
X128106666Y-147622914D02*
X128201904Y-147670533D01*
X126773333Y-147718152D02*
X126773333Y-148384819D01*
X127011428Y-147337200D02*
X127249523Y-148051485D01*
X127249523Y-148051485D02*
X126630476Y-148051485D01*
%TO.C,MK1*%
D11*
X126572500Y-144550000D02*
G75*
G02*
X122572500Y-144550000I-2000000J0D01*
G01*
X122572500Y-144550000D02*
G75*
G02*
X126572500Y-144550000I2000000J0D01*
G01*
%TO.C,D2*%
D12*
X126990000Y-143175000D02*
X126990000Y-146075000D01*
X126990000Y-143175000D02*
X127290000Y-142875000D01*
X126990000Y-146075000D02*
X129290000Y-146075000D01*
X129290000Y-142875000D02*
X127290000Y-142875000D01*
X129290000Y-142875000D02*
X129290000Y-146075000D01*
%TO.C,C14*%
X128027836Y-146260000D02*
X127812164Y-146260000D01*
X128027836Y-146980000D02*
X127812164Y-146980000D01*
%TD*%
M02*
