%TF.GenerationSoftware,KiCad,Pcbnew,10.0.3*%
%TF.CreationDate,2026-08-31T03:04:16+08:00*%
%TF.ProjectId,main,6d61696e-2e6b-4696-9361-645f70636258,rev?*%
%TF.SameCoordinates,Original*%
%TF.FileFunction,Paste,Top*%
%TF.FilePolarity,Positive*%
%FSLAX46Y46*%
G04 Gerber Fmt 4.6, Leading zero omitted, Abs format (unit mm)*
G04 Created by KiCad (PCBNEW 10.0.3) date 2026-08-31 03:04:16*
%MOMM*%
%LPD*%
G01*
G04 APERTURE LIST*
G04 Aperture macros list*
%AMRoundRect*
0 Rectangle with rounded corners*
0 $1 Rounding radius*
0 $2 $3 $4 $5 $6 $7 $8 $9 X,Y pos of 4 corners*
0 Add a 4 corners polygon primitive as box body*
4,1,4,$2,$3,$4,$5,$6,$7,$8,$9,$2,$3,0*
0 Add four circle primitives for the rounded corners*
1,1,$1+$1,$2,$3*
1,1,$1+$1,$4,$5*
1,1,$1+$1,$6,$7*
1,1,$1+$1,$8,$9*
0 Add four rect primitives between the rounded corners*
20,1,$1+$1,$2,$3,$4,$5,0*
20,1,$1+$1,$4,$5,$6,$7,0*
20,1,$1+$1,$6,$7,$8,$9,0*
20,1,$1+$1,$8,$9,$2,$3,0*%
G04 Aperture macros list end*
%ADD10RoundRect,0.135000X-0.135000X-0.185000X0.135000X-0.185000X0.135000X0.185000X-0.135000X0.185000X0*%
%ADD11RoundRect,0.135000X0.135000X0.185000X-0.135000X0.185000X-0.135000X-0.185000X0.135000X-0.185000X0*%
%ADD12RoundRect,0.140000X-0.170000X0.140000X-0.170000X-0.140000X0.170000X-0.140000X0.170000X0.140000X0*%
%ADD13RoundRect,0.140000X-0.140000X-0.170000X0.140000X-0.170000X0.140000X0.170000X-0.140000X0.170000X0*%
%ADD14RoundRect,0.225000X-0.225000X-0.250000X0.225000X-0.250000X0.225000X0.250000X-0.225000X0.250000X0*%
%ADD15RoundRect,0.140000X0.170000X-0.140000X0.170000X0.140000X-0.170000X0.140000X-0.170000X-0.140000X0*%
%ADD16RoundRect,0.250000X-0.295000X-0.295000X0.295000X-0.295000X0.295000X0.295000X-0.295000X0.295000X0*%
%ADD17RoundRect,0.050000X-0.345000X-0.050000X0.345000X-0.050000X0.345000X0.050000X-0.345000X0.050000X0*%
%ADD18RoundRect,0.050000X-0.050000X-0.345000X0.050000X-0.345000X0.050000X0.345000X-0.050000X0.345000X0*%
%ADD19RoundRect,0.250000X0.250000X0.475000X-0.250000X0.475000X-0.250000X-0.475000X0.250000X-0.475000X0*%
%ADD20RoundRect,0.150000X-0.150000X0.587500X-0.150000X-0.587500X0.150000X-0.587500X0.150000X0.587500X0*%
%ADD21RoundRect,0.225000X0.225000X0.250000X-0.225000X0.250000X-0.225000X-0.250000X0.225000X-0.250000X0*%
%ADD22RoundRect,0.135000X-0.185000X0.135000X-0.185000X-0.135000X0.185000X-0.135000X0.185000X0.135000X0*%
%ADD23RoundRect,0.150000X0.150000X-0.512500X0.150000X0.512500X-0.150000X0.512500X-0.150000X-0.512500X0*%
%ADD24RoundRect,0.087500X-0.425000X-0.087500X0.425000X-0.087500X0.425000X0.087500X-0.425000X0.087500X0*%
G04 APERTURE END LIST*
D10*
%TO.C,R5*%
X121890000Y-144590000D03*
X122910000Y-144590000D03*
%TD*%
D11*
%TO.C,R6*%
X124722500Y-146511091D03*
X123702500Y-146511091D03*
%TD*%
D12*
%TO.C,C2*%
X126832500Y-142220000D03*
X126832500Y-143180000D03*
%TD*%
D13*
%TO.C,C15*%
X127460000Y-146260000D03*
X128420000Y-146260000D03*
%TD*%
D14*
%TO.C,C9*%
X119425000Y-136450000D03*
X120975000Y-136450000D03*
%TD*%
D15*
%TO.C,C12*%
X122450000Y-140370000D03*
X122450000Y-139410000D03*
%TD*%
D14*
%TO.C,C13*%
X124107500Y-142470000D03*
X125657500Y-142470000D03*
%TD*%
D16*
%TO.C,U1*%
X130815000Y-144595000D03*
X130815000Y-145945000D03*
X132165000Y-144595000D03*
X132165000Y-145945000D03*
D17*
X129490000Y-144070000D03*
X129490000Y-144470000D03*
X129490000Y-144870000D03*
X129490000Y-145270000D03*
X129490000Y-145670000D03*
X129490000Y-146070000D03*
X129490000Y-146470000D03*
D18*
X130290000Y-147270000D03*
X130690000Y-147270000D03*
X131090000Y-147270000D03*
X131490000Y-147270000D03*
X131890000Y-147270000D03*
X132290000Y-147270000D03*
X132690000Y-147270000D03*
D17*
X133490000Y-146470000D03*
X133490000Y-146070000D03*
X133490000Y-145670000D03*
X133490000Y-145270000D03*
X133490000Y-144870000D03*
X133490000Y-144470000D03*
X133490000Y-144070000D03*
D18*
X132690000Y-143270000D03*
X132290000Y-143270000D03*
X131890000Y-143270000D03*
X131490000Y-143270000D03*
X131090000Y-143270000D03*
X130690000Y-143270000D03*
X130290000Y-143270000D03*
%TD*%
D13*
%TO.C,C3*%
X130990000Y-142127500D03*
X131950000Y-142127500D03*
%TD*%
D15*
%TO.C,C5*%
X134640000Y-145587500D03*
X134640000Y-144627500D03*
%TD*%
D11*
%TO.C,R10*%
X126580000Y-146360000D03*
X125560000Y-146360000D03*
%TD*%
D19*
%TO.C,C10*%
X124330000Y-136100000D03*
X122430000Y-136100000D03*
%TD*%
D20*
%TO.C,Q2*%
X121180000Y-132790000D03*
X119280000Y-132790000D03*
X120230000Y-134665000D03*
%TD*%
D10*
%TO.C,R7*%
X121050000Y-131330000D03*
X122070000Y-131330000D03*
%TD*%
D19*
%TO.C,C4*%
X119800000Y-130720000D03*
X117900000Y-130720000D03*
%TD*%
D21*
%TO.C,C7*%
X122575000Y-145790000D03*
X121025000Y-145790000D03*
%TD*%
D22*
%TO.C,R9*%
X123470000Y-140300000D03*
X123470000Y-141320000D03*
%TD*%
D23*
%TO.C,U3*%
X119265000Y-140545000D03*
X120215000Y-140545000D03*
X121165000Y-140545000D03*
X121165000Y-138270000D03*
X120215000Y-138270000D03*
X119265000Y-138270000D03*
%TD*%
D10*
%TO.C,R11*%
X121890000Y-143640000D03*
X122910000Y-143640000D03*
%TD*%
D21*
%TO.C,C11*%
X120805000Y-142420000D03*
X119255000Y-142420000D03*
%TD*%
D24*
%TO.C,U4*%
X125362500Y-144070000D03*
X125362500Y-144720000D03*
X125362500Y-145370000D03*
X127037500Y-145370000D03*
X127037500Y-144070000D03*
%TD*%
D11*
%TO.C,R12*%
X122970000Y-142375000D03*
X121950000Y-142375000D03*
%TD*%
M02*
