%TF.GenerationSoftware,KiCad,Pcbnew,10.0.3*%
%TF.CreationDate,2026-08-31T03:04:16+08:00*%
%TF.ProjectId,main,6d61696e-2e6b-4696-9361-645f70636258,rev?*%
%TF.SameCoordinates,Original*%
%TF.FileFunction,Copper,L1,Top*%
%TF.FilePolarity,Positive*%
%FSLAX46Y46*%
G04 Gerber Fmt 4.6, Leading zero omitted, Abs format (unit mm)*
G04 Created by KiCad (PCBNEW 10.0.3) date 2026-08-31 03:04:16*
%MOMM*%
%LPD*%
G01*
G04 APERTURE LIST*
G04 Aperture macros list*
%AMRoundRect*
0 Rectangle with rounded corners*
0 $1 Rounding radius*
0 $2 $3 $4 $5 $6 $7 $8 $9 X,Y pos of 4 corners*
0 Add a 4 corners polygon primitive as box body*
4,1,4,$2,$3,$4,$5,$6,$7,$8,$9,$2,$3,0*
0 Add four circle primitives for the rounded corners*
1,1,$1+$1,$2,$3*
1,1,$1+$1,$4,$5*
1,1,$1+$1,$6,$7*
1,1,$1+$1,$8,$9*
0 Add four rect primitives between the rounded corners*
20,1,$1+$1,$2,$3,$4,$5,0*
20,1,$1+$1,$4,$5,$6,$7,0*
20,1,$1+$1,$6,$7,$8,$9,0*
20,1,$1+$1,$8,$9,$2,$3,0*%
%AMFreePoly0*
4,1,6,1.360000,-0.862523,-1.340000,-0.862523,-1.340000,1.587477,-1.090000,1.837477,1.360000,1.837477,1.360000,-0.862523,1.360000,-0.862523,$1*%
G04 Aperture macros list end*
%TA.AperFunction,SMDPad,CuDef*%
%ADD10RoundRect,0.135000X-0.135000X-0.185000X0.135000X-0.185000X0.135000X0.185000X-0.135000X0.185000X0*%
%TD*%
%TA.AperFunction,SMDPad,CuDef*%
%ADD11RoundRect,0.135000X0.135000X0.185000X-0.135000X0.185000X-0.135000X-0.185000X0.135000X-0.185000X0*%
%TD*%
%TA.AperFunction,SMDPad,CuDef*%
%ADD12C,1.000000*%
%TD*%
%TA.AperFunction,ComponentPad*%
%ADD13C,1.108000*%
%TD*%
%TA.AperFunction,SMDPad,CuDef*%
%ADD14RoundRect,0.140000X-0.170000X0.140000X-0.170000X-0.140000X0.170000X-0.140000X0.170000X0.140000X0*%
%TD*%
%TA.AperFunction,SMDPad,CuDef*%
%ADD15RoundRect,0.140000X-0.140000X-0.170000X0.140000X-0.170000X0.140000X0.170000X-0.140000X0.170000X0*%
%TD*%
%TA.AperFunction,SMDPad,CuDef*%
%ADD16RoundRect,0.225000X-0.225000X-0.250000X0.225000X-0.250000X0.225000X0.250000X-0.225000X0.250000X0*%
%TD*%
%TA.AperFunction,SMDPad,CuDef*%
%ADD17RoundRect,0.140000X0.170000X-0.140000X0.170000X0.140000X-0.170000X0.140000X-0.170000X-0.140000X0*%
%TD*%
%TA.AperFunction,SMDPad,CuDef*%
%ADD18RoundRect,0.050000X-0.345000X-0.050000X0.345000X-0.050000X0.345000X0.050000X-0.345000X0.050000X0*%
%TD*%
%TA.AperFunction,SMDPad,CuDef*%
%ADD19RoundRect,0.050000X-0.050000X-0.345000X0.050000X-0.345000X0.050000X0.345000X-0.050000X0.345000X0*%
%TD*%
%TA.AperFunction,HeatsinkPad*%
%ADD20C,0.500000*%
%TD*%
%TA.AperFunction,SMDPad,CuDef*%
%ADD21FreePoly0,0.000000*%
%TD*%
%TA.AperFunction,SMDPad,CuDef*%
%ADD22RoundRect,0.250000X0.250000X0.475000X-0.250000X0.475000X-0.250000X-0.475000X0.250000X-0.475000X0*%
%TD*%
%TA.AperFunction,SMDPad,CuDef*%
%ADD23RoundRect,0.150000X-0.150000X0.587500X-0.150000X-0.587500X0.150000X-0.587500X0.150000X0.587500X0*%
%TD*%
%TA.AperFunction,SMDPad,CuDef*%
%ADD24RoundRect,0.225000X0.225000X0.250000X-0.225000X0.250000X-0.225000X-0.250000X0.225000X-0.250000X0*%
%TD*%
%TA.AperFunction,SMDPad,CuDef*%
%ADD25O,2.000000X1.500000*%
%TD*%
%TA.AperFunction,ComponentPad*%
%ADD26C,2.500000*%
%TD*%
%TA.AperFunction,SMDPad,CuDef*%
%ADD27RoundRect,0.135000X-0.185000X0.135000X-0.185000X-0.135000X0.185000X-0.135000X0.185000X0.135000X0*%
%TD*%
%TA.AperFunction,SMDPad,CuDef*%
%ADD28RoundRect,0.150000X0.150000X-0.512500X0.150000X0.512500X-0.150000X0.512500X-0.150000X-0.512500X0*%
%TD*%
%TA.AperFunction,SMDPad,CuDef*%
%ADD29RoundRect,0.087500X-0.425000X-0.087500X0.425000X-0.087500X0.425000X0.087500X-0.425000X0.087500X0*%
%TD*%
%TA.AperFunction,ViaPad*%
%ADD30C,0.600000*%
%TD*%
%TA.AperFunction,ViaPad*%
%ADD31C,0.800000*%
%TD*%
%TA.AperFunction,ViaPad*%
%ADD32C,0.500000*%
%TD*%
%TA.AperFunction,Conductor*%
%ADD33C,0.254000*%
%TD*%
%TA.AperFunction,Conductor*%
%ADD34C,0.200000*%
%TD*%
%TA.AperFunction,Conductor*%
%ADD35C,0.800000*%
%TD*%
%TA.AperFunction,Conductor*%
%ADD36C,0.300000*%
%TD*%
%TA.AperFunction,Conductor*%
%ADD37C,0.500000*%
%TD*%
%TA.AperFunction,Conductor*%
%ADD38C,0.400000*%
%TD*%
%TA.AperFunction,Conductor*%
%ADD39C,0.600000*%
%TD*%
%TA.AperFunction,Conductor*%
%ADD40C,0.700000*%
%TD*%
G04 APERTURE END LIST*
D10*
%TO.P,R5,1*%
%TO.N,VCC*%
X121890000Y-144590000D03*
%TO.P,R5,2*%
%TO.N,Net-(C7-Pad1)*%
X122910000Y-144590000D03*
%TD*%
D11*
%TO.P,R6,1*%
%TO.N,Net-(U4--)*%
X124722500Y-146511091D03*
%TO.P,R6,2*%
%TO.N,Net-(C7-Pad2)*%
X123702500Y-146511091D03*
%TD*%
D12*
%TO.P,J5,1,Pin_1_1*%
%TO.N,Net-(J5-Pin_1)*%
X133540000Y-141720000D03*
%TD*%
D13*
%TO.P,MK1,M*%
%TO.N,GND*%
X124072500Y-143850000D03*
%TO.P,MK1,P*%
%TO.N,Net-(C7-Pad1)*%
X124072500Y-145250000D03*
%TD*%
D14*
%TO.P,C2,1*%
%TO.N,GND*%
X126832500Y-142220000D03*
%TO.P,C2,2*%
%TO.N,VCC*%
X126832500Y-143180000D03*
%TD*%
D15*
%TO.P,C15,1*%
%TO.N,GND*%
X127460000Y-146260000D03*
%TO.P,C15,2*%
%TO.N,Net-(U1-VUSB)*%
X128420000Y-146260000D03*
%TD*%
D16*
%TO.P,C9,1*%
%TO.N,GND*%
X119425000Y-136450000D03*
%TO.P,C9,2*%
%TO.N,VCC*%
X120975000Y-136450000D03*
%TD*%
D17*
%TO.P,C12,1*%
%TO.N,Net-(C11-Pad1)*%
X122450000Y-140370000D03*
%TO.P,C12,2*%
%TO.N,GND*%
X122450000Y-139410000D03*
%TD*%
D16*
%TO.P,C13,1*%
%TO.N,Net-(U4-+)*%
X124107500Y-142470000D03*
%TO.P,C13,2*%
%TO.N,GND*%
X125657500Y-142470000D03*
%TD*%
D18*
%TO.P,U1,1,PA3_1*%
%TO.N,/SD_N*%
X129490000Y-144070000D03*
%TO.P,U1,2,PA4_2*%
%TO.N,/LED*%
X129490000Y-144470000D03*
%TO.P,U1,3,PA5_3*%
%TO.N,/PERIPH_EN_N*%
X129490000Y-144870000D03*
%TO.P,U1,4,PA6_4*%
%TO.N,/MIC*%
X129490000Y-145270000D03*
%TO.P,U1,5,PA7_5*%
%TO.N,unconnected-(U1-PA7-Pad5)*%
X129490000Y-145670000D03*
%TO.P,U1,6,VUSB_6*%
%TO.N,Net-(U1-VUSB)*%
X129490000Y-146070000D03*
%TO.P,U1,7,DM_7*%
%TO.N,/D-*%
X129490000Y-146470000D03*
D19*
%TO.P,U1,8,DP_8*%
%TO.N,/D+*%
X130290000Y-147270000D03*
%TO.P,U1,9,PC3_9*%
%TO.N,unconnected-(U1-PC3-Pad9)*%
X130690000Y-147270000D03*
%TO.P,U1,10,PD0_10*%
%TO.N,unconnected-(U1-PD0-Pad10)*%
X131090000Y-147270000D03*
%TO.P,U1,11,PD1_11*%
%TO.N,unconnected-(U1-PD1-Pad11)*%
X131490000Y-147270000D03*
%TO.P,U1,12,PD2_12*%
%TO.N,/CHG*%
X131890000Y-147270000D03*
%TO.P,U1,13,PD3_13*%
%TO.N,unconnected-(U1-PD3-Pad13)*%
X132290000Y-147270000D03*
%TO.P,U1,14,PD4_14*%
%TO.N,Net-(J1-Pin_1)*%
X132690000Y-147270000D03*
D18*
%TO.P,U1,15,PD5_15*%
%TO.N,unconnected-(U1-PD5-Pad15)*%
X133490000Y-146470000D03*
%TO.P,U1,16,PD6_16*%
%TO.N,unconnected-(U1-PD6-Pad16)*%
X133490000Y-146070000D03*
%TO.P,U1,17,PD7_17*%
%TO.N,unconnected-(U1-PD7-Pad17)*%
X133490000Y-145670000D03*
%TO.P,U1,18,VDD_18*%
%TO.N,VSYS*%
X133490000Y-145270000D03*
%TO.P,U1,19,GND_19*%
%TO.N,GND*%
X133490000Y-144870000D03*
%TO.P,U1,20,PF0/XTAL32K1_20*%
%TO.N,unconnected-(U1-PF0{slash}XTAL32K1-Pad20)*%
X133490000Y-144470000D03*
%TO.P,U1,21,PF1/XTAL32K2_21*%
%TO.N,unconnected-(U1-PF1{slash}XTAL32K2-Pad21)*%
X133490000Y-144070000D03*
D19*
%TO.P,U1,22,PF6/RESET_22*%
%TO.N,unconnected-(U1-PF6{slash}RESET-Pad22)*%
X132690000Y-143270000D03*
%TO.P,U1,23,PF7/UPDI_23*%
%TO.N,Net-(J5-Pin_1)*%
X132290000Y-143270000D03*
%TO.P,U1,24,VDD_24*%
%TO.N,VSYS*%
X131890000Y-143270000D03*
%TO.P,U1,25,GND_25*%
%TO.N,GND*%
X131490000Y-143270000D03*
%TO.P,U1,26,PA0/XTALHF1_26*%
%TO.N,unconnected-(U1-PA0{slash}XTALHF1-Pad26)*%
X131090000Y-143270000D03*
%TO.P,U1,27,PA1/XTALHF2_27*%
%TO.N,unconnected-(U1-PA1{slash}XTALHF2-Pad27)*%
X130690000Y-143270000D03*
%TO.P,U1,28,PA2_28*%
%TO.N,/AUDIN*%
X130290000Y-143270000D03*
D20*
%TO.P,U1,29,GND_EP_29*%
%TO.N,GND*%
X130490000Y-144270000D03*
X130490000Y-145270000D03*
X130490000Y-146270000D03*
D21*
X131480000Y-145757477D03*
D20*
X131490000Y-144270000D03*
X131490000Y-145270000D03*
X131490000Y-146270000D03*
X132490000Y-144270000D03*
X132490000Y-145270000D03*
X132490000Y-146270000D03*
%TD*%
D15*
%TO.P,C3,1*%
%TO.N,GND*%
X130990000Y-142127500D03*
%TO.P,C3,2*%
%TO.N,VSYS*%
X131950000Y-142127500D03*
%TD*%
D17*
%TO.P,C5,1*%
%TO.N,VSYS*%
X134640000Y-145587500D03*
%TO.P,C5,2*%
%TO.N,GND*%
X134640000Y-144627500D03*
%TD*%
D11*
%TO.P,R10,1*%
%TO.N,/MIC*%
X126580000Y-146360000D03*
%TO.P,R10,2*%
%TO.N,Net-(U4--)*%
X125560000Y-146360000D03*
%TD*%
D22*
%TO.P,C10,1*%
%TO.N,GND*%
X124330000Y-136100000D03*
%TO.P,C10,2*%
%TO.N,VCC*%
X122430000Y-136100000D03*
%TD*%
D23*
%TO.P,Q2,1,G_1*%
%TO.N,/PERIPH_EN_N*%
X121180000Y-132790000D03*
%TO.P,Q2,2,S_2*%
%TO.N,VSYS*%
X119280000Y-132790000D03*
%TO.P,Q2,3,D_3*%
%TO.N,VCC*%
X120230000Y-134665000D03*
%TD*%
D10*
%TO.P,R7,1*%
%TO.N,VSYS*%
X121050000Y-131330000D03*
%TO.P,R7,2*%
%TO.N,/PERIPH_EN_N*%
X122070000Y-131330000D03*
%TD*%
D22*
%TO.P,C4,1*%
%TO.N,VSYS*%
X119800000Y-130720000D03*
%TO.P,C4,2*%
%TO.N,GND*%
X117900000Y-130720000D03*
%TD*%
D24*
%TO.P,C7,1*%
%TO.N,Net-(C7-Pad1)*%
X122575000Y-145790000D03*
%TO.P,C7,2*%
%TO.N,Net-(C7-Pad2)*%
X121025000Y-145790000D03*
%TD*%
D25*
%TO.P,J4,1,Pin_1_1*%
%TO.N,/CHG*%
X117420000Y-132680000D03*
%TO.P,J4,2,Pin_2_2*%
%TO.N,VSYS*%
X117420000Y-135180000D03*
%TO.P,J4,3,Pin_3_3*%
%TO.N,/SP+*%
X117420000Y-137680000D03*
%TO.P,J4,4,Pin_4_4*%
%TO.N,/SP-*%
X117420000Y-140180000D03*
%TO.P,J4,5,Pin_5_5*%
%TO.N,GND*%
X117420000Y-142680000D03*
%TO.P,J4,6,Pin_6_6*%
%TO.N,/D-*%
X117420000Y-145180000D03*
%TO.P,J4,7,Pin_7_7*%
%TO.N,/D+*%
X117420000Y-147680000D03*
%TD*%
D26*
%TO.P,J1,1,Pin_1_1*%
%TO.N,Net-(J1-Pin_1)*%
X129925000Y-136380000D03*
%TO.P,J1,2,Pin_2_2*%
%TO.N,GND*%
X123125000Y-133810000D03*
%TD*%
D27*
%TO.P,R9,1*%
%TO.N,Net-(C11-Pad1)*%
X123470000Y-140300000D03*
%TO.P,R9,2*%
%TO.N,/AUDIN*%
X123470000Y-141320000D03*
%TD*%
D28*
%TO.P,U3,1,OUT-_1*%
%TO.N,/SP-*%
X119265000Y-140545000D03*
%TO.P,U3,2,GND_2*%
%TO.N,GND*%
X120215000Y-140545000D03*
%TO.P,U3,3,IN_3*%
%TO.N,Net-(U3-IN)*%
X121165000Y-140545000D03*
%TO.P,U3,4,~{SD}_4*%
%TO.N,/SD_N*%
X121165000Y-138270000D03*
%TO.P,U3,5,VDD_5*%
%TO.N,VCC*%
X120215000Y-138270000D03*
%TO.P,U3,6,OUT+_6*%
%TO.N,/SP+*%
X119265000Y-138270000D03*
%TD*%
D10*
%TO.P,R11,1*%
%TO.N,VCC*%
X121890000Y-143640000D03*
%TO.P,R11,2*%
%TO.N,Net-(U4-+)*%
X122910000Y-143640000D03*
%TD*%
D24*
%TO.P,C11,1*%
%TO.N,Net-(C11-Pad1)*%
X120805000Y-142420000D03*
%TO.P,C11,2*%
%TO.N,Net-(U3-IN)*%
X119255000Y-142420000D03*
%TD*%
D29*
%TO.P,U4,1,+_1*%
%TO.N,Net-(U4-+)*%
X125362500Y-144070000D03*
%TO.P,U4,2,V-_2*%
%TO.N,GND*%
X125362500Y-144720000D03*
%TO.P,U4,3,-_3*%
%TO.N,Net-(U4--)*%
X125362500Y-145370000D03*
%TO.P,U4,4*%
%TO.N,/MIC*%
X127037500Y-145370000D03*
%TO.P,U4,5,V+_5*%
%TO.N,VCC*%
X127037500Y-144070000D03*
%TD*%
D11*
%TO.P,R12,1*%
%TO.N,Net-(U4-+)*%
X122970000Y-142375000D03*
%TO.P,R12,2*%
%TO.N,GND*%
X121950000Y-142375000D03*
%TD*%
D30*
%TO.N,GND*%
X122120000Y-132290000D03*
%TO.N,/SD_N*%
X123370000Y-137060000D03*
%TO.N,VCC*%
X126097306Y-143482933D03*
%TO.N,/PERIPH_EN_N*%
X126869936Y-136408466D03*
X128130685Y-142012667D03*
%TO.N,GND*%
X120310000Y-133390000D03*
X135190000Y-147910000D03*
D31*
X134150000Y-143350000D03*
%TO.N,VCC*%
X120220000Y-137302960D03*
D30*
%TO.N,GND*%
X121600000Y-139410000D03*
D31*
X132240000Y-140030000D03*
D30*
%TO.N,/CHG*%
X135038522Y-147004196D03*
D31*
%TO.N,GND*%
X117400000Y-143800000D03*
X125750000Y-136020000D03*
D30*
%TO.N,Net-(J1-Pin_1)*%
X133873997Y-147232500D03*
D31*
%TO.N,GND*%
X119140000Y-135240000D03*
X132390000Y-137720000D03*
D30*
X128510000Y-140020000D03*
D31*
X123660000Y-137920000D03*
%TO.N,VCC*%
X119610000Y-143780000D03*
%TO.N,GND*%
X118500000Y-143940000D03*
D30*
X118140000Y-138950000D03*
D31*
X125700000Y-134080000D03*
X122550001Y-141259949D03*
D30*
X126580000Y-147180000D03*
X116770000Y-130620000D03*
%TO.N,/CHG*%
X117350000Y-133930000D03*
%TO.N,GND*%
X131140000Y-141170000D03*
X121027070Y-143568294D03*
D32*
X126290000Y-141930000D03*
D30*
X118130000Y-141420000D03*
D31*
X134530000Y-139760000D03*
D30*
%TO.N,/LED*%
X128522775Y-142709998D03*
%TO.N,/SD_N*%
X129690000Y-143350000D03*
%TD*%
%TO.N,/D-*%
D33*
X129485296Y-147025296D02*
X128671092Y-147839500D01*
X117610000Y-145180000D02*
X117420000Y-145180000D01*
%TO.N,Net-(U1-VUSB)*%
D34*
X128610000Y-146070000D02*
X128420000Y-146260000D01*
%TO.N,Net-(J5-Pin_1)*%
X132290000Y-142778640D02*
X133348640Y-141720000D01*
%TO.N,/D+*%
D33*
X118719500Y-146620500D02*
X119541684Y-146620500D01*
%TO.N,VSYS*%
D35*
X119280000Y-133320000D02*
X119280000Y-132790000D01*
%TO.N,/AUDIN*%
D34*
X130290000Y-143307500D02*
X130290000Y-141780000D01*
%TO.N,Net-(C7-Pad1)*%
X122910000Y-144590000D02*
X123412500Y-144590000D01*
%TO.N,Net-(C11-Pad1)*%
X121765000Y-141055000D02*
X121765000Y-141460000D01*
X122450000Y-140370000D02*
X121765000Y-141055000D01*
%TO.N,/LED*%
X128522775Y-142709998D02*
X128522775Y-142817225D01*
%TO.N,/D-*%
D33*
X129490000Y-146497000D02*
X129485296Y-146497000D01*
%TO.N,GND*%
D36*
X126220000Y-141930000D02*
X125930000Y-142220000D01*
%TO.N,/CHG*%
D34*
X134077718Y-147965000D02*
X135038522Y-147004196D01*
%TO.N,/SP-*%
D37*
X119265000Y-140545000D02*
X117785000Y-140545000D01*
%TO.N,/AUDIN*%
D34*
X123490000Y-141340000D02*
X123470000Y-141320000D01*
%TO.N,/PERIPH_EN_N*%
X126869936Y-136408466D02*
X126868466Y-136408466D01*
%TO.N,/D-*%
D33*
X121299501Y-147839500D02*
X119699500Y-146239500D01*
%TO.N,Net-(U4-+)*%
D34*
X122910000Y-142435000D02*
X122970000Y-142375000D01*
%TO.N,VCC*%
D36*
X126832500Y-143865000D02*
X127037500Y-144070000D01*
%TO.N,Net-(U1-VUSB)*%
D34*
X129490000Y-146070000D02*
X128610000Y-146070000D01*
%TO.N,/PERIPH_EN_N*%
X126870000Y-134000000D02*
X124200000Y-131330000D01*
%TO.N,VCC*%
D38*
X120420000Y-144590000D02*
X119610000Y-143780000D01*
%TO.N,/CHG*%
D34*
X117350000Y-133930000D02*
X117350000Y-132750000D01*
%TO.N,/AUDIN*%
X130290000Y-141780000D02*
X129850000Y-141340000D01*
%TO.N,VCC*%
D36*
X126277316Y-143674235D02*
X126477377Y-143874296D01*
%TO.N,Net-(U4--)*%
D34*
X125362500Y-145370000D02*
X125567500Y-145575000D01*
%TO.N,Net-(U3-IN)*%
X119955000Y-141980000D02*
X119695000Y-141980000D01*
%TO.N,/MIC*%
X126580000Y-146360000D02*
X126580000Y-145827500D01*
%TO.N,GND*%
X124942500Y-144720000D02*
X125362500Y-144720000D01*
%TO.N,/LED*%
X128415552Y-142709998D02*
X128415551Y-142709999D01*
%TO.N,Net-(C11-Pad1)*%
X123400000Y-140370000D02*
X123470000Y-140300000D01*
%TO.N,VCC*%
D35*
X122080000Y-136450000D02*
X122430000Y-136100000D01*
%TO.N,GND*%
D36*
X126630000Y-142220000D02*
X126832500Y-142220000D01*
%TO.N,VSYS*%
D35*
X128260000Y-130410000D02*
X120750000Y-130410000D01*
%TO.N,/CHG*%
D34*
X117350000Y-132750000D02*
X117420000Y-132680000D01*
%TO.N,VSYS*%
D35*
X117420000Y-135180000D02*
X119280000Y-133320000D01*
%TO.N,Net-(U4-+)*%
D34*
X124930000Y-143637500D02*
X125362500Y-144070000D01*
%TO.N,/D-*%
D33*
X128671092Y-147839500D02*
X121299501Y-147839500D01*
%TO.N,Net-(C11-Pad1)*%
D34*
X122450000Y-140370000D02*
X123400000Y-140370000D01*
%TO.N,GND*%
D36*
X124072500Y-143971550D02*
X124072500Y-143850000D01*
%TO.N,/SD_N*%
D34*
X129490000Y-144070000D02*
X129490000Y-143550000D01*
%TO.N,VCC*%
D35*
X120975000Y-136450000D02*
X122080000Y-136450000D01*
%TO.N,GND*%
D36*
X126290000Y-141930000D02*
X126340000Y-141930000D01*
%TO.N,/D-*%
D33*
X117820971Y-145390971D02*
X117610000Y-145180000D01*
%TO.N,Net-(U3-IN)*%
D34*
X121165000Y-140545000D02*
X121165000Y-141207499D01*
%TO.N,Net-(U4--)*%
X125560000Y-145582500D02*
X125560000Y-146360000D01*
%TO.N,VSYS*%
D39*
X133975786Y-140620000D02*
X135450000Y-142094214D01*
%TO.N,Net-(C7-Pad2)*%
D34*
X123702500Y-146390000D02*
X123527500Y-146565000D01*
%TO.N,VCC*%
D36*
X126879346Y-143180000D02*
X126832500Y-143180000D01*
%TO.N,VSYS*%
D35*
X119280000Y-131240000D02*
X119800000Y-130720000D01*
%TO.N,Net-(J5-Pin_1)*%
D34*
X133348640Y-141720000D02*
X133540000Y-141720000D01*
%TO.N,VCC*%
D36*
X126832500Y-143180000D02*
X126832500Y-143865000D01*
%TO.N,/D+*%
D33*
X117420000Y-147680000D02*
X117660000Y-147680000D01*
%TO.N,GND*%
D34*
X126879839Y-142220000D02*
X126832500Y-142220000D01*
%TO.N,/SD_N*%
X121880000Y-137390000D02*
X121170000Y-138100000D01*
%TO.N,/CHG*%
X131890000Y-147761360D02*
X132093640Y-147965000D01*
%TO.N,VSYS*%
D39*
X135450000Y-142094214D02*
X135450000Y-145087499D01*
%TO.N,Net-(C7-Pad1)*%
D34*
X123115000Y-145250000D02*
X124072500Y-145250000D01*
%TO.N,/D-*%
D33*
X118669500Y-146058467D02*
G75*
G03*
X118669451Y-145877484I-90500J90467D01*
G01*
%TO.N,GND*%
D34*
X126904349Y-142195490D02*
X126879839Y-142220000D01*
%TO.N,VCC*%
D36*
X126701228Y-144070000D02*
X127037500Y-144070000D01*
%TO.N,/MIC*%
D34*
X127037500Y-145370000D02*
X127137500Y-145270000D01*
%TO.N,/D-*%
D33*
X118426267Y-145634201D02*
G75*
G03*
X118245235Y-145634201I-90516J-90516D01*
G01*
%TO.N,/PERIPH_EN_N*%
D34*
X124200000Y-131330000D02*
X122070000Y-131330000D01*
%TO.N,Net-(U4-+)*%
X124930000Y-143292500D02*
X124930000Y-143637500D01*
%TO.N,Net-(U4--)*%
X125560000Y-146360000D02*
X124873591Y-146360000D01*
%TO.N,VCC*%
D36*
X126277316Y-143662943D02*
X126277316Y-143674235D01*
%TO.N,VSYS*%
D39*
X134949999Y-145587500D02*
X134640000Y-145587500D01*
%TO.N,VCC*%
D36*
X126097306Y-143482933D02*
X126277316Y-143662943D01*
%TO.N,/PERIPH_EN_N*%
D34*
X126870000Y-136406932D02*
X126870000Y-134000000D01*
X127922775Y-142958527D02*
X128345815Y-143381567D01*
%TO.N,Net-(U3-IN)*%
X120290000Y-141645000D02*
X119955000Y-141980000D01*
%TO.N,Net-(U4--)*%
X124722500Y-146511091D02*
X124722500Y-146390000D01*
%TO.N,/SP+*%
D37*
X118570000Y-138270000D02*
X117980000Y-137680000D01*
%TO.N,GND*%
D36*
X125907500Y-142220000D02*
X125657500Y-142470000D01*
D34*
X131490000Y-142627500D02*
X131490000Y-143307500D01*
%TO.N,VSYS*%
D40*
X131950000Y-142127500D02*
X131950000Y-141825075D01*
%TO.N,Net-(C11-Pad1)*%
D34*
X120805000Y-142280000D02*
X120805000Y-142420000D01*
%TO.N,/PERIPH_EN_N*%
X127922775Y-142461469D02*
X127922775Y-142958527D01*
%TO.N,VSYS*%
X134640000Y-145587500D02*
X134322500Y-145270000D01*
X134322500Y-145270000D02*
X133452500Y-145270000D01*
%TO.N,Net-(U4-+)*%
X124107500Y-142470000D02*
X124930000Y-143292500D01*
%TO.N,/AUDIN*%
X129850000Y-141340000D02*
X123490000Y-141340000D01*
%TO.N,VCC*%
D36*
X126477377Y-143874296D02*
X126505524Y-143874296D01*
%TO.N,VSYS*%
D35*
X120750000Y-130410000D02*
X120440000Y-130720000D01*
%TO.N,/D-*%
D33*
X118669500Y-146239500D02*
G75*
G02*
X118669516Y-146058484I90500J90500D01*
G01*
%TO.N,/PERIPH_EN_N*%
D34*
X128345815Y-143381567D02*
X128345815Y-144382861D01*
%TO.N,GND*%
D36*
X126290000Y-141930000D02*
X126220000Y-141930000D01*
%TO.N,VCC*%
X126505524Y-143874296D02*
X126701228Y-144070000D01*
%TO.N,Net-(C7-Pad1)*%
D34*
X123412500Y-144590000D02*
X124072500Y-145250000D01*
%TO.N,/SD_N*%
X129490000Y-143550000D02*
X129690000Y-143350000D01*
%TO.N,/PERIPH_EN_N*%
X121180000Y-132220000D02*
X122070000Y-131330000D01*
%TO.N,VCC*%
D35*
X120220000Y-137302960D02*
X120975000Y-136547960D01*
D38*
X121890000Y-144590000D02*
X121890000Y-143640000D01*
%TO.N,GND*%
D34*
X132890000Y-144870000D02*
X134397500Y-144870000D01*
%TO.N,/PERIPH_EN_N*%
X126868466Y-136408466D02*
X126870000Y-136406932D01*
X128832954Y-144870000D02*
X129490000Y-144870000D01*
%TO.N,VSYS*%
D40*
X131950000Y-141825075D02*
X133105075Y-140670000D01*
%TO.N,/D-*%
D33*
X118669500Y-145877434D02*
X118426267Y-145634201D01*
X119699500Y-146239500D02*
X118790931Y-146239500D01*
%TO.N,Net-(U3-IN)*%
D34*
X121165000Y-141207499D02*
X120727499Y-141645000D01*
%TO.N,/D+*%
D33*
X121141685Y-148220500D02*
X128828908Y-148220500D01*
X117660000Y-147680000D02*
X118719500Y-146620500D01*
%TO.N,VSYS*%
D35*
X120440000Y-130720000D02*
X121050000Y-131330000D01*
%TO.N,Net-(J5-Pin_1)*%
D34*
X132290000Y-143307500D02*
X132290000Y-142778640D01*
%TO.N,Net-(U4--)*%
X125477500Y-146390000D02*
X125567500Y-146300000D01*
%TO.N,/CHG*%
X131890000Y-147270000D02*
X131890000Y-147761360D01*
%TO.N,VSYS*%
D35*
X133480000Y-140620000D02*
X133480000Y-135630000D01*
%TO.N,/D+*%
D33*
X129779408Y-147270000D02*
X130263000Y-147270000D01*
%TO.N,/LED*%
D34*
X128745815Y-144217175D02*
X128745815Y-142933038D01*
%TO.N,Net-(C7-Pad1)*%
X123782500Y-145540000D02*
X124072500Y-145250000D01*
%TO.N,VCC*%
D35*
X120970000Y-135405000D02*
X120975000Y-135405000D01*
%TO.N,GND*%
D36*
X125930000Y-142220000D02*
X125907500Y-142220000D01*
%TO.N,/PERIPH_EN_N*%
D34*
X128130685Y-142253559D02*
X127922775Y-142461469D01*
%TO.N,GND*%
X127480000Y-146070000D02*
X127470000Y-146080000D01*
%TO.N,VCC*%
D35*
X120230000Y-134665000D02*
X120970000Y-135405000D01*
%TO.N,/D-*%
D33*
X118245235Y-145634201D02*
G75*
G02*
X118064202Y-145634201I-90516J90517D01*
G01*
%TO.N,Net-(C11-Pad1)*%
D34*
X121765000Y-141460000D02*
X120805000Y-142420000D01*
%TO.N,Net-(U4-+)*%
X124012500Y-142375000D02*
X124107500Y-142470000D01*
%TO.N,VSYS*%
D39*
X133480000Y-140620000D02*
X133975786Y-140620000D01*
%TO.N,/MIC*%
D34*
X127137500Y-145270000D02*
X129527500Y-145270000D01*
%TO.N,/LED*%
X128998640Y-144470000D02*
X128745815Y-144217175D01*
%TO.N,/D+*%
D33*
X119541684Y-146620500D02*
X121141685Y-148220500D01*
%TO.N,Net-(U4--)*%
D34*
X125567500Y-145575000D02*
X125560000Y-145582500D01*
%TO.N,/PERIPH_EN_N*%
X121180000Y-132790000D02*
X121180000Y-132220000D01*
%TO.N,VSYS*%
D35*
X133480000Y-135630000D02*
X128260000Y-130410000D01*
%TO.N,/PERIPH_EN_N*%
D34*
X128130685Y-142012667D02*
X128130685Y-142253559D01*
%TO.N,VCC*%
D35*
X120975000Y-136547960D02*
X120975000Y-136450000D01*
%TO.N,GND*%
D36*
X124820950Y-144720000D02*
X124072500Y-143971550D01*
%TO.N,/SP+*%
D37*
X119265000Y-138270000D02*
X118570000Y-138270000D01*
%TO.N,Net-(U4-+)*%
D34*
X122910000Y-143640000D02*
X122910000Y-142435000D01*
%TO.N,/PERIPH_EN_N*%
X128345815Y-144382861D02*
X128832954Y-144870000D01*
%TO.N,GND*%
X126970819Y-142195490D02*
X126904349Y-142195490D01*
%TO.N,VSYS*%
D35*
X119280000Y-132790000D02*
X119280000Y-131240000D01*
%TO.N,Net-(U4-+)*%
D34*
X122970000Y-142375000D02*
X124012500Y-142375000D01*
%TO.N,GND*%
X134397500Y-144870000D02*
X134640000Y-144627500D01*
X130990000Y-142127500D02*
X131490000Y-142627500D01*
%TO.N,VSYS*%
X131950000Y-142127500D02*
X131890000Y-142187500D01*
%TO.N,GND*%
X125907500Y-142220000D02*
X126832500Y-142220000D01*
%TO.N,/LED*%
X129490000Y-144470000D02*
X128998640Y-144470000D01*
%TO.N,/CHG*%
X132093640Y-147965000D02*
X134077718Y-147965000D01*
%TO.N,/D-*%
D33*
X118064202Y-145634201D02*
X117820971Y-145390971D01*
%TO.N,Net-(U4--)*%
D34*
X124873591Y-146360000D02*
X124722500Y-146511091D01*
%TO.N,VSYS*%
D39*
X135450000Y-145087499D02*
X134949999Y-145587500D01*
%TO.N,Net-(C7-Pad1)*%
D34*
X122575000Y-145790000D02*
X123115000Y-145250000D01*
%TO.N,/MIC*%
X126580000Y-145827500D02*
X127037500Y-145370000D01*
%TO.N,/D-*%
D33*
X129485296Y-146497000D02*
X129485296Y-147025296D01*
%TO.N,Net-(U3-IN)*%
D34*
X120727499Y-141645000D02*
X120290000Y-141645000D01*
%TO.N,GND*%
D36*
X126340000Y-141930000D02*
X126630000Y-142220000D01*
D34*
X132490000Y-145270000D02*
X132890000Y-144870000D01*
%TO.N,VCC*%
D35*
X120975000Y-135405000D02*
X120975000Y-136450000D01*
X120220000Y-138100000D02*
X120220000Y-137302960D01*
%TO.N,VSYS*%
X119800000Y-130720000D02*
X120440000Y-130720000D01*
%TO.N,Net-(U3-IN)*%
D34*
X119695000Y-141980000D02*
X119255000Y-142420000D01*
%TO.N,Net-(C7-Pad2)*%
X123527500Y-146565000D02*
X121800000Y-146565000D01*
%TO.N,/SP+*%
D37*
X117980000Y-137680000D02*
X117420000Y-137680000D01*
%TO.N,/LED*%
D34*
X128522775Y-142709998D02*
X128415552Y-142709998D01*
%TO.N,/SD_N*%
X123370000Y-137060000D02*
X123040000Y-137390000D01*
%TO.N,/D+*%
D33*
X128828908Y-148220500D02*
X129779408Y-147270000D01*
%TO.N,/D-*%
X118790931Y-146239500D02*
X118669500Y-146239500D01*
%TO.N,Net-(J1-Pin_1)*%
D34*
X133873997Y-147232500D02*
X132690000Y-147232500D01*
%TO.N,GND*%
D36*
X125362500Y-144720000D02*
X124820950Y-144720000D01*
%TO.N,VSYS*%
D34*
X131890000Y-142187500D02*
X131890000Y-143307500D01*
%TO.N,Net-(C7-Pad2)*%
X121800000Y-146565000D02*
X121025000Y-145790000D01*
%TO.N,/SP-*%
D37*
X117785000Y-140545000D02*
X117420000Y-140180000D01*
%TO.N,VCC*%
D38*
X121890000Y-144590000D02*
X120420000Y-144590000D01*
%TO.N,Net-(C7-Pad1)*%
D34*
X123857500Y-145465000D02*
X124072500Y-145250000D01*
%TO.N,/LED*%
X128745815Y-142933038D02*
X128522775Y-142709998D01*
%TO.N,GND*%
X131490000Y-145270000D02*
X132490000Y-145270000D01*
%TO.N,/SD_N*%
X123040000Y-137390000D02*
X121880000Y-137390000D01*
%TD*%
%TA.AperFunction,Conductor*%
%TO.N,GND*%
G36*
X135820445Y-145521610D02*
G01*
X135863710Y-145564875D01*
X135874500Y-145609820D01*
X135874500Y-147925140D01*
X135874023Y-147934844D01*
X135861054Y-148066515D01*
X135857268Y-148085549D01*
X135820278Y-148207490D01*
X135812851Y-148225420D01*
X135752784Y-148337799D01*
X135742002Y-148353936D01*
X135661162Y-148452439D01*
X135647439Y-148466162D01*
X135548936Y-148547002D01*
X135532799Y-148557784D01*
X135420420Y-148617851D01*
X135402490Y-148625278D01*
X135280549Y-148662268D01*
X135261515Y-148666054D01*
X135141223Y-148677902D01*
X135129842Y-148679023D01*
X135120140Y-148679500D01*
X129058369Y-148679500D01*
X129000178Y-148660593D01*
X128964214Y-148611093D01*
X128964214Y-148549907D01*
X129000178Y-148500407D01*
X129008869Y-148494764D01*
X129015192Y-148491112D01*
X129029998Y-148482565D01*
X129839456Y-147673106D01*
X129893971Y-147645331D01*
X129954403Y-147654902D01*
X129997668Y-147698167D01*
X130000923Y-147705229D01*
X130004033Y-147712740D01*
X130059397Y-147795599D01*
X130059399Y-147795601D01*
X130142260Y-147850966D01*
X130197808Y-147862015D01*
X130215315Y-147865498D01*
X130215320Y-147865498D01*
X130215326Y-147865500D01*
X130215327Y-147865500D01*
X130364673Y-147865500D01*
X130364674Y-147865500D01*
X130437740Y-147850966D01*
X130437746Y-147850961D01*
X130446752Y-147847233D01*
X130447586Y-147849248D01*
X130493880Y-147836189D01*
X130532610Y-147848773D01*
X130533248Y-147847233D01*
X130542255Y-147850962D01*
X130542260Y-147850966D01*
X130597808Y-147862015D01*
X130615315Y-147865498D01*
X130615320Y-147865498D01*
X130615326Y-147865500D01*
X130615327Y-147865500D01*
X130764673Y-147865500D01*
X130764674Y-147865500D01*
X130837740Y-147850966D01*
X130837746Y-147850961D01*
X130846752Y-147847233D01*
X130847586Y-147849248D01*
X130893880Y-147836189D01*
X130932610Y-147848773D01*
X130933248Y-147847233D01*
X130942255Y-147850962D01*
X130942260Y-147850966D01*
X130997808Y-147862015D01*
X131015315Y-147865498D01*
X131015320Y-147865498D01*
X131015326Y-147865500D01*
X131015327Y-147865500D01*
X131164673Y-147865500D01*
X131164674Y-147865500D01*
X131237740Y-147850966D01*
X131237746Y-147850961D01*
X131246752Y-147847233D01*
X131247586Y-147849248D01*
X131293880Y-147836189D01*
X131332610Y-147848773D01*
X131333248Y-147847233D01*
X131342255Y-147850962D01*
X131342260Y-147850966D01*
X131397808Y-147862015D01*
X131415315Y-147865498D01*
X131415320Y-147865498D01*
X131415326Y-147865500D01*
X131415327Y-147865500D01*
X131545980Y-147865500D01*
X131604171Y-147884407D01*
X131631737Y-147915035D01*
X131631900Y-147915318D01*
X131649540Y-147945871D01*
X131853179Y-148149511D01*
X131909129Y-148205460D01*
X131977647Y-148245019D01*
X131977651Y-148245021D01*
X132054075Y-148265499D01*
X132054077Y-148265500D01*
X132054078Y-148265500D01*
X134117281Y-148265500D01*
X134117281Y-148265499D01*
X134193707Y-148245021D01*
X134262229Y-148205460D01*
X134318178Y-148149511D01*
X134933996Y-147533691D01*
X134988513Y-147505915D01*
X135004000Y-147504696D01*
X135104412Y-147504696D01*
X135104414Y-147504696D01*
X135231708Y-147470588D01*
X135231710Y-147470586D01*
X135231712Y-147470586D01*
X135345831Y-147404699D01*
X135345831Y-147404698D01*
X135345836Y-147404696D01*
X135439022Y-147311510D01*
X135461219Y-147273064D01*
X135504912Y-147197386D01*
X135504912Y-147197384D01*
X135504914Y-147197382D01*
X135539022Y-147070088D01*
X135539022Y-146938304D01*
X135504914Y-146811010D01*
X135504912Y-146811007D01*
X135504912Y-146811005D01*
X135439025Y-146696886D01*
X135439023Y-146696884D01*
X135439022Y-146696882D01*
X135345836Y-146603696D01*
X135345833Y-146603694D01*
X135345831Y-146603692D01*
X135231711Y-146537805D01*
X135231713Y-146537805D01*
X135163347Y-146519487D01*
X135104414Y-146503696D01*
X134972630Y-146503696D01*
X134913697Y-146519487D01*
X134845331Y-146537805D01*
X134731212Y-146603692D01*
X134638018Y-146696886D01*
X134572131Y-146811005D01*
X134562901Y-146845453D01*
X134540931Y-146927450D01*
X134538022Y-146938305D01*
X134538022Y-147024911D01*
X134519115Y-147083102D01*
X134469615Y-147119066D01*
X134408429Y-147119066D01*
X134358929Y-147083102D01*
X134343396Y-147050538D01*
X134340389Y-147039314D01*
X134340386Y-147039308D01*
X134274500Y-146925190D01*
X134274498Y-146925188D01*
X134274497Y-146925186D01*
X134181311Y-146832000D01*
X134181308Y-146831998D01*
X134181306Y-146831996D01*
X134089914Y-146779231D01*
X134048973Y-146733762D01*
X134042577Y-146672912D01*
X134057096Y-146638496D01*
X134070966Y-146617740D01*
X134085500Y-146544674D01*
X134085500Y-146395326D01*
X134070966Y-146322260D01*
X134070962Y-146322255D01*
X134067233Y-146313248D01*
X134069248Y-146312413D01*
X134056189Y-146266120D01*
X134068773Y-146227389D01*
X134067233Y-146226752D01*
X134070961Y-146217746D01*
X134070966Y-146217740D01*
X134085500Y-146144674D01*
X134085500Y-146063547D01*
X134104407Y-146005356D01*
X134153907Y-145969392D01*
X134215093Y-145969392D01*
X134254501Y-145993541D01*
X134271684Y-146010724D01*
X134380513Y-146061472D01*
X134430099Y-146068000D01*
X134486428Y-146067999D01*
X134512052Y-146071372D01*
X134519953Y-146073489D01*
X134574108Y-146088000D01*
X134574109Y-146088000D01*
X135015889Y-146088000D01*
X135015891Y-146088000D01*
X135143185Y-146053892D01*
X135143187Y-146053890D01*
X135143189Y-146053890D01*
X135257308Y-145988003D01*
X135257308Y-145988002D01*
X135257313Y-145988000D01*
X135705496Y-145539815D01*
X135760013Y-145512039D01*
X135820445Y-145521610D01*
G37*
%TD.AperFunction*%
%TA.AperFunction,Conductor*%
G36*
X128200010Y-145589407D02*
G01*
X128235974Y-145638907D01*
X128235974Y-145700093D01*
X128200010Y-145749593D01*
X128183658Y-145759224D01*
X128081686Y-145806774D01*
X127996774Y-145891686D01*
X127946029Y-146000510D01*
X127946028Y-146000511D01*
X127943157Y-146022318D01*
X127940032Y-146046062D01*
X127939500Y-146050100D01*
X127939500Y-146469896D01*
X127939501Y-146469907D01*
X127946027Y-146519486D01*
X127946027Y-146519488D01*
X127996774Y-146628313D01*
X127996775Y-146628314D01*
X127996776Y-146628316D01*
X128081684Y-146713224D01*
X128190513Y-146763972D01*
X128240099Y-146770500D01*
X128599900Y-146770499D01*
X128649487Y-146763972D01*
X128649488Y-146763972D01*
X128728589Y-146727086D01*
X128758316Y-146713224D01*
X128801611Y-146669928D01*
X128856125Y-146642152D01*
X128916557Y-146651723D01*
X128953929Y-146684932D01*
X128964397Y-146700599D01*
X128964399Y-146700601D01*
X129047260Y-146755966D01*
X129069298Y-146760349D01*
X129122679Y-146790244D01*
X129148296Y-146845809D01*
X129136360Y-146905818D01*
X129119986Y-146927450D01*
X128564433Y-147483004D01*
X128509916Y-147510781D01*
X128494429Y-147512000D01*
X121476164Y-147512000D01*
X121417973Y-147493093D01*
X121406160Y-147483004D01*
X120962464Y-147039308D01*
X120509439Y-146586284D01*
X120481663Y-146531768D01*
X120491234Y-146471336D01*
X120534499Y-146428071D01*
X120594931Y-146418500D01*
X120624388Y-146428071D01*
X120666874Y-146449719D01*
X120742541Y-146461703D01*
X120766510Y-146465500D01*
X120766512Y-146465500D01*
X121234521Y-146465500D01*
X121292712Y-146484407D01*
X121304524Y-146494496D01*
X121615488Y-146805459D01*
X121615493Y-146805463D01*
X121684008Y-146845020D01*
X121684006Y-146845020D01*
X121684010Y-146845021D01*
X121684012Y-146845022D01*
X121760438Y-146865500D01*
X123221433Y-146865500D01*
X123279624Y-146884407D01*
X123291430Y-146894490D01*
X123372096Y-146975156D01*
X123372097Y-146975156D01*
X123372098Y-146975157D01*
X123479324Y-147025158D01*
X123479325Y-147025158D01*
X123479327Y-147025159D01*
X123528184Y-147031591D01*
X123528185Y-147031591D01*
X123876814Y-147031591D01*
X123876816Y-147031591D01*
X123925673Y-147025159D01*
X124032904Y-146975156D01*
X124116565Y-146891495D01*
X124122775Y-146878176D01*
X124164503Y-146833428D01*
X124224564Y-146821753D01*
X124280017Y-146847610D01*
X124302225Y-146878177D01*
X124307832Y-146890203D01*
X124308435Y-146891495D01*
X124392096Y-146975156D01*
X124392097Y-146975156D01*
X124392098Y-146975157D01*
X124499324Y-147025158D01*
X124499325Y-147025158D01*
X124499327Y-147025159D01*
X124548184Y-147031591D01*
X124548185Y-147031591D01*
X124896814Y-147031591D01*
X124896816Y-147031591D01*
X124945673Y-147025159D01*
X125052904Y-146975156D01*
X125136565Y-146891495D01*
X125137167Y-146890201D01*
X125138382Y-146888899D01*
X125141533Y-146884400D01*
X125142165Y-146884842D01*
X125178894Y-146845453D01*
X125238955Y-146833777D01*
X125268732Y-146842315D01*
X125336824Y-146874067D01*
X125336825Y-146874067D01*
X125336827Y-146874068D01*
X125385684Y-146880500D01*
X125385685Y-146880500D01*
X125734314Y-146880500D01*
X125734316Y-146880500D01*
X125783173Y-146874068D01*
X125890404Y-146824065D01*
X125974065Y-146740404D01*
X125980275Y-146727085D01*
X126022003Y-146682337D01*
X126082064Y-146670662D01*
X126137517Y-146696519D01*
X126159724Y-146727084D01*
X126165935Y-146740404D01*
X126249596Y-146824065D01*
X126249597Y-146824065D01*
X126249598Y-146824066D01*
X126356824Y-146874067D01*
X126356825Y-146874067D01*
X126356827Y-146874068D01*
X126405684Y-146880500D01*
X126405685Y-146880500D01*
X126754314Y-146880500D01*
X126754316Y-146880500D01*
X126803173Y-146874068D01*
X126910404Y-146824065D01*
X126994065Y-146740404D01*
X127044068Y-146633173D01*
X127050500Y-146584316D01*
X127050500Y-146135684D01*
X127044068Y-146086827D01*
X127042615Y-146083712D01*
X126994066Y-145979598D01*
X126994065Y-145979597D01*
X126994065Y-145979596D01*
X126993470Y-145979001D01*
X126992995Y-145978068D01*
X126989097Y-145972501D01*
X126989879Y-145971953D01*
X126986352Y-145965030D01*
X126975266Y-145953944D01*
X126972813Y-145938458D01*
X126965695Y-145924487D01*
X126968147Y-145908999D01*
X126965695Y-145893512D01*
X126972813Y-145879542D01*
X126975266Y-145864055D01*
X126993468Y-145839001D01*
X127057975Y-145774494D01*
X127112492Y-145746718D01*
X127127978Y-145745499D01*
X127505501Y-145745499D01*
X127505504Y-145745499D01*
X127529580Y-145742707D01*
X127628079Y-145699215D01*
X127704215Y-145623079D01*
X127704216Y-145623074D01*
X127709399Y-145615511D01*
X127712191Y-145617423D01*
X127742176Y-145583916D01*
X127791939Y-145570500D01*
X128141819Y-145570500D01*
X128200010Y-145589407D01*
G37*
%TD.AperFunction*%
%TA.AperFunction,Conductor*%
G36*
X124092712Y-131649407D02*
G01*
X124104525Y-131659496D01*
X126540504Y-134095475D01*
X126568281Y-134149992D01*
X126569500Y-134165479D01*
X126569500Y-135960081D01*
X126550593Y-136018272D01*
X126540509Y-136030078D01*
X126503719Y-136066869D01*
X126469433Y-136101155D01*
X126469432Y-136101156D01*
X126403545Y-136215275D01*
X126400939Y-136225001D01*
X126369436Y-136342574D01*
X126369436Y-136474358D01*
X126374741Y-136494157D01*
X126391610Y-136557114D01*
X126388407Y-136618215D01*
X126349902Y-136665765D01*
X126290801Y-136681600D01*
X126283065Y-136680890D01*
X126281121Y-136680634D01*
X126272506Y-136679500D01*
X125977494Y-136679500D01*
X125977493Y-136679500D01*
X125685013Y-136718006D01*
X125685011Y-136718006D01*
X125685007Y-136718007D01*
X125533584Y-136758580D01*
X125400046Y-136794361D01*
X125127496Y-136907254D01*
X125127494Y-136907255D01*
X125124210Y-136909152D01*
X125064360Y-136921869D01*
X125008467Y-136896978D01*
X124977878Y-136843988D01*
X124981272Y-136790714D01*
X125027149Y-136659603D01*
X125029999Y-136629211D01*
X125030000Y-136629210D01*
X125030000Y-136225001D01*
X125029999Y-136225000D01*
X124455001Y-136225000D01*
X124455000Y-136225001D01*
X124455000Y-137024998D01*
X124455001Y-137024999D01*
X124619150Y-137024999D01*
X124677341Y-137043906D01*
X124713305Y-137093406D01*
X124713305Y-137154592D01*
X124679417Y-137202541D01*
X124637964Y-137234348D01*
X124429348Y-137442964D01*
X124249764Y-137677002D01*
X124102253Y-137932500D01*
X123989361Y-138205046D01*
X123967695Y-138285908D01*
X123913007Y-138490007D01*
X123913006Y-138490011D01*
X123913006Y-138490013D01*
X123874500Y-138782493D01*
X123874500Y-138782494D01*
X123874500Y-139077506D01*
X123913007Y-139369993D01*
X123967694Y-139574088D01*
X123989361Y-139654953D01*
X124060484Y-139826659D01*
X124065285Y-139887655D01*
X124033315Y-139939824D01*
X123976787Y-139963239D01*
X123917292Y-139948955D01*
X123899020Y-139934551D01*
X123850404Y-139885935D01*
X123850402Y-139885934D01*
X123850401Y-139885933D01*
X123743175Y-139835932D01*
X123710601Y-139831644D01*
X123694316Y-139829500D01*
X123245684Y-139829500D01*
X123229398Y-139831644D01*
X123196825Y-139835932D01*
X123196824Y-139835932D01*
X123089598Y-139885933D01*
X123005930Y-139969601D01*
X123005734Y-139969882D01*
X123005393Y-139970138D01*
X122999811Y-139975721D01*
X122999026Y-139974936D01*
X122986563Y-139984326D01*
X122969586Y-140001304D01*
X122962552Y-140002417D01*
X122956867Y-140006702D01*
X122932864Y-140007119D01*
X122909154Y-140010875D01*
X122902810Y-140007643D01*
X122895691Y-140007767D01*
X122854639Y-139983099D01*
X122831187Y-139959647D01*
X122803412Y-139905133D01*
X122812983Y-139844701D01*
X122831189Y-139819642D01*
X122902809Y-139748021D01*
X122953478Y-139639361D01*
X122953480Y-139639354D01*
X122960000Y-139589838D01*
X122960000Y-139535001D01*
X122959999Y-139535000D01*
X121940001Y-139535000D01*
X121940000Y-139535001D01*
X121940000Y-139589838D01*
X121946519Y-139639354D01*
X121946521Y-139639361D01*
X121997190Y-139748021D01*
X122068811Y-139819642D01*
X122096588Y-139874159D01*
X122087017Y-139934591D01*
X122068813Y-139959646D01*
X122029220Y-139999240D01*
X121996774Y-140031686D01*
X121946029Y-140140510D01*
X121946028Y-140140511D01*
X121939500Y-140190100D01*
X121939500Y-140414521D01*
X121937031Y-140422118D01*
X121938281Y-140430008D01*
X121927756Y-140450663D01*
X121920593Y-140472712D01*
X121910509Y-140484518D01*
X121834502Y-140560525D01*
X121779987Y-140588302D01*
X121719555Y-140578731D01*
X121676290Y-140535466D01*
X121665500Y-140490521D01*
X121665500Y-139999243D01*
X121665500Y-139999240D01*
X121655573Y-139931107D01*
X121653813Y-139927507D01*
X121609045Y-139835932D01*
X121604198Y-139826017D01*
X121521483Y-139743302D01*
X121493801Y-139729769D01*
X121416395Y-139691927D01*
X121389139Y-139687956D01*
X121348260Y-139682000D01*
X120981740Y-139682000D01*
X120947673Y-139686963D01*
X120913604Y-139691927D01*
X120808518Y-139743301D01*
X120725801Y-139826018D01*
X120674427Y-139931104D01*
X120670268Y-139959650D01*
X120664500Y-139999240D01*
X120664500Y-141090760D01*
X120670290Y-141130499D01*
X120674427Y-141158895D01*
X120680883Y-141172100D01*
X120685056Y-141201609D01*
X120689723Y-141231062D01*
X120689331Y-141231830D01*
X120689452Y-141232682D01*
X120661947Y-141285579D01*
X120632027Y-141315501D01*
X120577511Y-141343281D01*
X120562021Y-141344500D01*
X120329562Y-141344500D01*
X120250438Y-141344500D01*
X120203661Y-141357033D01*
X120174007Y-141364979D01*
X120105493Y-141404536D01*
X120105488Y-141404540D01*
X119859524Y-141650504D01*
X119805008Y-141678281D01*
X119789521Y-141679500D01*
X119655435Y-141679500D01*
X119579012Y-141699978D01*
X119557901Y-141712167D01*
X119557900Y-141712166D01*
X119524871Y-141731236D01*
X119475371Y-141744500D01*
X118996510Y-141744500D01*
X118896874Y-141760281D01*
X118896867Y-141760283D01*
X118776782Y-141821470D01*
X118681470Y-141916782D01*
X118620283Y-142036867D01*
X118620281Y-142036874D01*
X118606695Y-142122655D01*
X118604500Y-142136512D01*
X118604500Y-142703488D01*
X118618198Y-142789977D01*
X118620281Y-142803125D01*
X118620283Y-142803132D01*
X118669807Y-142900327D01*
X118681472Y-142923220D01*
X118776780Y-143018528D01*
X118776782Y-143018529D01*
X118896867Y-143079716D01*
X118896869Y-143079716D01*
X118896874Y-143079719D01*
X118972541Y-143091703D01*
X118996510Y-143095500D01*
X119225116Y-143095500D01*
X119283307Y-143114407D01*
X119319271Y-143163907D01*
X119319271Y-143225093D01*
X119283307Y-143274593D01*
X119274621Y-143280232D01*
X119258153Y-143289741D01*
X119241285Y-143299479D01*
X119241284Y-143299480D01*
X119129480Y-143411284D01*
X119050423Y-143548216D01*
X119009500Y-143700943D01*
X119009500Y-143859057D01*
X119050423Y-144011784D01*
X119129480Y-144148716D01*
X119241284Y-144260520D01*
X119378216Y-144339577D01*
X119530943Y-144380500D01*
X119603099Y-144380500D01*
X119661290Y-144399407D01*
X119673103Y-144409496D01*
X120174087Y-144910480D01*
X120174089Y-144910481D01*
X120174090Y-144910482D01*
X120174091Y-144910483D01*
X120265408Y-144963205D01*
X120265406Y-144963205D01*
X120265410Y-144963206D01*
X120265412Y-144963207D01*
X120367273Y-144990500D01*
X120472727Y-144990500D01*
X120528846Y-144990500D01*
X120587037Y-145009407D01*
X120623001Y-145058907D01*
X120623001Y-145120093D01*
X120587037Y-145169593D01*
X120573798Y-145177705D01*
X120546780Y-145191472D01*
X120451470Y-145286782D01*
X120390283Y-145406867D01*
X120390281Y-145406874D01*
X120374500Y-145506510D01*
X120374500Y-146073489D01*
X120390281Y-146173125D01*
X120390281Y-146173127D01*
X120411928Y-146215611D01*
X120421499Y-146276044D01*
X120393721Y-146330560D01*
X120339205Y-146358337D01*
X120278772Y-146348765D01*
X120253718Y-146330563D01*
X119900590Y-145977435D01*
X119825910Y-145934319D01*
X119825909Y-145934318D01*
X119825906Y-145934317D01*
X119742618Y-145912000D01*
X119742616Y-145912000D01*
X119111535Y-145912000D01*
X119053344Y-145893093D01*
X119017380Y-145843593D01*
X119015915Y-145838648D01*
X119003451Y-145792131D01*
X118943483Y-145688261D01*
X118901078Y-145645857D01*
X118864400Y-145609179D01*
X118642709Y-145387488D01*
X118614932Y-145332971D01*
X118615616Y-145298167D01*
X118620499Y-145273621D01*
X118620500Y-145273614D01*
X118620500Y-145086385D01*
X118620499Y-145086381D01*
X118615034Y-145058907D01*
X118583973Y-144902749D01*
X118512322Y-144729769D01*
X118512320Y-144729767D01*
X118512318Y-144729761D01*
X118443988Y-144627500D01*
X118408302Y-144574092D01*
X118275908Y-144441698D01*
X118212328Y-144399215D01*
X118120238Y-144337681D01*
X118120229Y-144337677D01*
X117947249Y-144266026D01*
X117763618Y-144229500D01*
X117763616Y-144229500D01*
X117076384Y-144229500D01*
X117076381Y-144229500D01*
X116892750Y-144266026D01*
X116719770Y-144337677D01*
X116719761Y-144337681D01*
X116564092Y-144441698D01*
X116564088Y-144441701D01*
X116544504Y-144461286D01*
X116489987Y-144489063D01*
X116429555Y-144479492D01*
X116386290Y-144436227D01*
X116375500Y-144391282D01*
X116375500Y-140968717D01*
X116394407Y-140910526D01*
X116443907Y-140874562D01*
X116505093Y-140874562D01*
X116544505Y-140898715D01*
X116564083Y-140918294D01*
X116564087Y-140918297D01*
X116564092Y-140918302D01*
X116615637Y-140952743D01*
X116719761Y-141022318D01*
X116719767Y-141022320D01*
X116719769Y-141022322D01*
X116892749Y-141093973D01*
X117076384Y-141130500D01*
X117076385Y-141130500D01*
X117763615Y-141130500D01*
X117763616Y-141130500D01*
X117947251Y-141093973D01*
X118120231Y-141022322D01*
X118132580Y-141014071D01*
X118135403Y-141012185D01*
X118190405Y-140995500D01*
X118665511Y-140995500D01*
X118723702Y-141014407D01*
X118759666Y-141063907D01*
X118764252Y-141087337D01*
X118764500Y-141090756D01*
X118764500Y-141090760D01*
X118770290Y-141130499D01*
X118774427Y-141158895D01*
X118795309Y-141201609D01*
X118825802Y-141263983D01*
X118908517Y-141346698D01*
X118945910Y-141364978D01*
X119013604Y-141398072D01*
X119013605Y-141398072D01*
X119013607Y-141398073D01*
X119081740Y-141408000D01*
X119081743Y-141408000D01*
X119448257Y-141408000D01*
X119448260Y-141408000D01*
X119516393Y-141398073D01*
X119621483Y-141346698D01*
X119704198Y-141263983D01*
X119755573Y-141158893D01*
X119765500Y-141090760D01*
X119765500Y-139999240D01*
X119755573Y-139931107D01*
X119753813Y-139927507D01*
X119709045Y-139835932D01*
X119704198Y-139826017D01*
X119621483Y-139743302D01*
X119593801Y-139729769D01*
X119516395Y-139691927D01*
X119489139Y-139687956D01*
X119448260Y-139682000D01*
X119081740Y-139682000D01*
X119047673Y-139686963D01*
X119013604Y-139691927D01*
X118908518Y-139743301D01*
X118825801Y-139826018D01*
X118771881Y-139936314D01*
X118729337Y-139980288D01*
X118669071Y-139990857D01*
X118614103Y-139963984D01*
X118585842Y-139912146D01*
X118583973Y-139902750D01*
X118577721Y-139887655D01*
X118512322Y-139729769D01*
X118512320Y-139729767D01*
X118512318Y-139729761D01*
X118451909Y-139639354D01*
X118408302Y-139574092D01*
X118275908Y-139441698D01*
X118231559Y-139412065D01*
X118120238Y-139337681D01*
X118120229Y-139337677D01*
X117947249Y-139266026D01*
X117766941Y-139230161D01*
X121940000Y-139230161D01*
X121940000Y-139284999D01*
X121940001Y-139285000D01*
X122324999Y-139285000D01*
X122325000Y-139284999D01*
X122325000Y-138930001D01*
X122575000Y-138930001D01*
X122575000Y-139284999D01*
X122575001Y-139285000D01*
X122959999Y-139285000D01*
X122960000Y-139284999D01*
X122960000Y-139230161D01*
X122953480Y-139180645D01*
X122953478Y-139180638D01*
X122902809Y-139071978D01*
X122818021Y-138987190D01*
X122709361Y-138936521D01*
X122709354Y-138936519D01*
X122659839Y-138930000D01*
X122575001Y-138930000D01*
X122575000Y-138930001D01*
X122325000Y-138930001D01*
X122324999Y-138930000D01*
X122240161Y-138930000D01*
X122190645Y-138936519D01*
X122190638Y-138936521D01*
X122081978Y-138987190D01*
X121997190Y-139071978D01*
X121946521Y-139180638D01*
X121946519Y-139180645D01*
X121940000Y-139230161D01*
X117766941Y-139230161D01*
X117763618Y-139229500D01*
X117763616Y-139229500D01*
X117076384Y-139229500D01*
X117076381Y-139229500D01*
X116892750Y-139266026D01*
X116719770Y-139337677D01*
X116719761Y-139337681D01*
X116564092Y-139441698D01*
X116564088Y-139441701D01*
X116544504Y-139461286D01*
X116489987Y-139489063D01*
X116429555Y-139479492D01*
X116386290Y-139436227D01*
X116375500Y-139391282D01*
X116375500Y-138468717D01*
X116394407Y-138410526D01*
X116443907Y-138374562D01*
X116505093Y-138374562D01*
X116544505Y-138398715D01*
X116564083Y-138418294D01*
X116564087Y-138418297D01*
X116564092Y-138418302D01*
X116630463Y-138462649D01*
X116719761Y-138522318D01*
X116719767Y-138522320D01*
X116719769Y-138522322D01*
X116892749Y-138593973D01*
X117076384Y-138630500D01*
X117076385Y-138630500D01*
X117763615Y-138630500D01*
X117763616Y-138630500D01*
X117947251Y-138593973D01*
X118105070Y-138528601D01*
X118166066Y-138523801D01*
X118212958Y-138550062D01*
X118293385Y-138630488D01*
X118293390Y-138630492D01*
X118396107Y-138689796D01*
X118396109Y-138689797D01*
X118396113Y-138689799D01*
X118420322Y-138696284D01*
X118420325Y-138696287D01*
X118420326Y-138696286D01*
X118510688Y-138720499D01*
X118510690Y-138720500D01*
X118510691Y-138720500D01*
X118665511Y-138720500D01*
X118723702Y-138739407D01*
X118759666Y-138788907D01*
X118764252Y-138812337D01*
X118764500Y-138815757D01*
X118774427Y-138883895D01*
X118800154Y-138936519D01*
X118825802Y-138988983D01*
X118908517Y-139071698D01*
X118920398Y-139077506D01*
X119013604Y-139123072D01*
X119013605Y-139123072D01*
X119013607Y-139123073D01*
X119081740Y-139133000D01*
X119081743Y-139133000D01*
X119448257Y-139133000D01*
X119448260Y-139133000D01*
X119516393Y-139123073D01*
X119621483Y-139071698D01*
X119669998Y-139023182D01*
X119724513Y-138995407D01*
X119784945Y-139004978D01*
X119810000Y-139023181D01*
X119858517Y-139071698D01*
X119870398Y-139077506D01*
X119963604Y-139123072D01*
X119963605Y-139123072D01*
X119963607Y-139123073D01*
X120031740Y-139133000D01*
X120031743Y-139133000D01*
X120398257Y-139133000D01*
X120398260Y-139133000D01*
X120466393Y-139123073D01*
X120571483Y-139071698D01*
X120619998Y-139023182D01*
X120674513Y-138995407D01*
X120734945Y-139004978D01*
X120760000Y-139023181D01*
X120808517Y-139071698D01*
X120820398Y-139077506D01*
X120913604Y-139123072D01*
X120913605Y-139123072D01*
X120913607Y-139123073D01*
X120981740Y-139133000D01*
X120981743Y-139133000D01*
X121348258Y-139133000D01*
X121348260Y-139133000D01*
X121416393Y-139123073D01*
X121521483Y-139071698D01*
X121604198Y-138988983D01*
X121655573Y-138883893D01*
X121665500Y-138815760D01*
X121665500Y-138070479D01*
X121684407Y-138012288D01*
X121694496Y-138000475D01*
X121975475Y-137719496D01*
X122029992Y-137691719D01*
X122045479Y-137690500D01*
X123079563Y-137690500D01*
X123079563Y-137690499D01*
X123155989Y-137670021D01*
X123224511Y-137630460D01*
X123265476Y-137589494D01*
X123319991Y-137561719D01*
X123335478Y-137560500D01*
X123435890Y-137560500D01*
X123435892Y-137560500D01*
X123563186Y-137526392D01*
X123563188Y-137526390D01*
X123563190Y-137526390D01*
X123677309Y-137460503D01*
X123677309Y-137460502D01*
X123677314Y-137460500D01*
X123770500Y-137367314D01*
X123787082Y-137338593D01*
X123836390Y-137253190D01*
X123836390Y-137253188D01*
X123836392Y-137253186D01*
X123870500Y-137125892D01*
X123870500Y-137117826D01*
X123889407Y-137059635D01*
X123938907Y-137023671D01*
X123990634Y-137021108D01*
X123995403Y-137022150D01*
X124025789Y-137024999D01*
X124205000Y-137024999D01*
X124205000Y-136225001D01*
X124204999Y-136225000D01*
X123630002Y-136225000D01*
X123630001Y-136225001D01*
X123630001Y-136482492D01*
X123611094Y-136540683D01*
X123561594Y-136576647D01*
X123505379Y-136578118D01*
X123435892Y-136559500D01*
X123304108Y-136559500D01*
X123304105Y-136559500D01*
X123255121Y-136572625D01*
X123194020Y-136569422D01*
X123146471Y-136530916D01*
X123130500Y-136476998D01*
X123130500Y-135570727D01*
X123130499Y-135570725D01*
X123127646Y-135540305D01*
X123127646Y-135540301D01*
X123082793Y-135412118D01*
X123082792Y-135412116D01*
X123079325Y-135405555D01*
X123082376Y-135403942D01*
X123067636Y-135359811D01*
X123086066Y-135301467D01*
X123135270Y-135265099D01*
X123166633Y-135260000D01*
X123239120Y-135260000D01*
X123464538Y-135224297D01*
X123633945Y-135169254D01*
X123695131Y-135169254D01*
X123744631Y-135205218D01*
X123763538Y-135263409D01*
X123744631Y-135321600D01*
X123744193Y-135322198D01*
X123677654Y-135412352D01*
X123632850Y-135540398D01*
X123630000Y-135570788D01*
X123630000Y-135974999D01*
X123630001Y-135975000D01*
X124204999Y-135975000D01*
X124205000Y-135974999D01*
X124205000Y-135175001D01*
X124455000Y-135175001D01*
X124455000Y-135974999D01*
X124455001Y-135975000D01*
X125029998Y-135975000D01*
X125029999Y-135974999D01*
X125029999Y-135570796D01*
X125027149Y-135540399D01*
X125027149Y-135540397D01*
X124982345Y-135412352D01*
X124901792Y-135303209D01*
X124901790Y-135303207D01*
X124792647Y-135222654D01*
X124664601Y-135177850D01*
X124634211Y-135175000D01*
X124455001Y-135175000D01*
X124455000Y-135175001D01*
X124205000Y-135175001D01*
X124204999Y-135175000D01*
X124025795Y-135175000D01*
X124023484Y-135175109D01*
X124023443Y-135174243D01*
X123966816Y-135161511D01*
X123926411Y-135115565D01*
X123920729Y-135054644D01*
X123951941Y-135002018D01*
X123959128Y-134996268D01*
X124060697Y-134922473D01*
X123559750Y-134421526D01*
X123603097Y-134392563D01*
X123707563Y-134288097D01*
X123736526Y-134244750D01*
X124237473Y-134745697D01*
X124365152Y-134569963D01*
X124468767Y-134366607D01*
X124539297Y-134149538D01*
X124575000Y-133924120D01*
X124575000Y-133695879D01*
X124539297Y-133470461D01*
X124468767Y-133253392D01*
X124365151Y-133050034D01*
X124365149Y-133050030D01*
X124237474Y-132874301D01*
X123736526Y-133375249D01*
X123707563Y-133331903D01*
X123603097Y-133227437D01*
X123559748Y-133198472D01*
X124060697Y-132697524D01*
X123884969Y-132569850D01*
X123884965Y-132569848D01*
X123681607Y-132466232D01*
X123464538Y-132395702D01*
X123239120Y-132360000D01*
X123010880Y-132360000D01*
X122785461Y-132395702D01*
X122568392Y-132466232D01*
X122365034Y-132569848D01*
X122365030Y-132569850D01*
X122189301Y-132697524D01*
X122690250Y-133198473D01*
X122646903Y-133227437D01*
X122542437Y-133331903D01*
X122513473Y-133375250D01*
X122012524Y-132874301D01*
X121884850Y-133050030D01*
X121884848Y-133050034D01*
X121867710Y-133083671D01*
X121824445Y-133126936D01*
X121764013Y-133136507D01*
X121709496Y-133108729D01*
X121681719Y-133054213D01*
X121680500Y-133038726D01*
X121680500Y-132185477D01*
X121699407Y-132127286D01*
X121709497Y-132115473D01*
X121945475Y-131879496D01*
X121999991Y-131851719D01*
X122015478Y-131850500D01*
X122244314Y-131850500D01*
X122244316Y-131850500D01*
X122293173Y-131844068D01*
X122400404Y-131794065D01*
X122484065Y-131710404D01*
X122494671Y-131687660D01*
X122536399Y-131642912D01*
X122584395Y-131630500D01*
X124034521Y-131630500D01*
X124092712Y-131649407D01*
G37*
%TD.AperFunction*%
%TA.AperFunction,Conductor*%
G36*
X127606215Y-141643768D02*
G01*
X127616737Y-141642663D01*
X127634660Y-141653011D01*
X127654345Y-141659407D01*
X127660564Y-141667966D01*
X127669725Y-141673256D01*
X127678142Y-141692161D01*
X127690309Y-141708907D01*
X127690309Y-141719486D01*
X127694612Y-141729151D01*
X127690309Y-141749395D01*
X127690309Y-141770093D01*
X127681891Y-141788999D01*
X127664294Y-141819477D01*
X127662088Y-141827709D01*
X127630185Y-141946775D01*
X127630185Y-142078559D01*
X127653760Y-142166542D01*
X127664294Y-142205857D01*
X127665253Y-142207517D01*
X127665538Y-142208858D01*
X127666777Y-142211850D01*
X127666222Y-142212079D01*
X127677971Y-142267366D01*
X127665252Y-142306510D01*
X127642753Y-142345480D01*
X127622275Y-142421904D01*
X127622275Y-142998091D01*
X127642376Y-143073106D01*
X127642754Y-143074516D01*
X127645756Y-143079716D01*
X127662665Y-143109004D01*
X127672439Y-143125932D01*
X127682315Y-143143038D01*
X128016320Y-143477043D01*
X128044096Y-143531558D01*
X128045315Y-143547045D01*
X128045315Y-144422425D01*
X128065792Y-144498846D01*
X128065793Y-144498848D01*
X128065794Y-144498850D01*
X128095578Y-144550438D01*
X128095579Y-144550439D01*
X128095579Y-144550440D01*
X128105351Y-144567367D01*
X128105355Y-144567372D01*
X128338479Y-144800497D01*
X128366256Y-144855013D01*
X128356685Y-144915445D01*
X128313420Y-144958710D01*
X128268475Y-144969500D01*
X127097938Y-144969500D01*
X127078767Y-144974637D01*
X127017226Y-144991127D01*
X126991603Y-144994500D01*
X126569499Y-144994500D01*
X126569496Y-144994501D01*
X126545418Y-144997293D01*
X126446922Y-145040784D01*
X126446921Y-145040785D01*
X126370785Y-145116921D01*
X126333399Y-145201593D01*
X126327292Y-145215423D01*
X126324500Y-145239488D01*
X126324500Y-145500500D01*
X126324500Y-145500502D01*
X126324501Y-145500504D01*
X126325198Y-145506510D01*
X126327293Y-145524579D01*
X126327293Y-145524582D01*
X126341928Y-145557724D01*
X126348137Y-145618594D01*
X126337101Y-145647214D01*
X126299978Y-145711512D01*
X126279500Y-145787935D01*
X126279500Y-145825024D01*
X126278049Y-145829487D01*
X126279086Y-145834063D01*
X126270867Y-145851593D01*
X126260593Y-145883215D01*
X126254945Y-145890285D01*
X126250265Y-145895622D01*
X126249596Y-145895935D01*
X126165935Y-145979596D01*
X126153755Y-146005715D01*
X126144445Y-146016336D01*
X126129697Y-146025113D01*
X126117995Y-146037663D01*
X126104064Y-146040370D01*
X126091868Y-146047630D01*
X126074778Y-146046062D01*
X126057934Y-146049337D01*
X126045071Y-146043339D01*
X126030938Y-146042043D01*
X126018032Y-146030729D01*
X126002482Y-146023478D01*
X125989713Y-146005904D01*
X125984929Y-146001710D01*
X125984142Y-145998236D01*
X125980276Y-145992915D01*
X125974066Y-145979598D01*
X125974065Y-145979597D01*
X125974065Y-145979596D01*
X125890404Y-145895935D01*
X125890402Y-145895934D01*
X125889496Y-145895028D01*
X125885869Y-145887910D01*
X125879407Y-145883215D01*
X125872243Y-145861166D01*
X125861719Y-145840511D01*
X125860500Y-145825024D01*
X125860500Y-145804600D01*
X125879407Y-145746409D01*
X125919510Y-145714037D01*
X125953079Y-145699215D01*
X126029215Y-145623079D01*
X126072707Y-145524580D01*
X126075500Y-145500505D01*
X126075499Y-145239496D01*
X126072707Y-145215420D01*
X126029215Y-145116921D01*
X126026939Y-145114645D01*
X126024859Y-145110562D01*
X126024030Y-145109352D01*
X126024187Y-145109244D01*
X125999165Y-145060126D01*
X126008740Y-144999695D01*
X126026948Y-144974637D01*
X126028794Y-144972790D01*
X126072211Y-144874460D01*
X126074999Y-144850428D01*
X126075000Y-144850425D01*
X126075000Y-144845001D01*
X126074999Y-144845000D01*
X125461500Y-144845000D01*
X125446588Y-144840155D01*
X125430907Y-144840155D01*
X125418221Y-144830938D01*
X125403309Y-144826093D01*
X125394092Y-144813407D01*
X125381407Y-144804191D01*
X125376561Y-144789278D01*
X125367345Y-144776593D01*
X125362500Y-144746000D01*
X125362500Y-144694000D01*
X125381407Y-144635809D01*
X125430907Y-144599845D01*
X125461500Y-144595000D01*
X126074999Y-144595000D01*
X126075000Y-144594999D01*
X126075000Y-144589574D01*
X126074999Y-144589571D01*
X126072211Y-144565539D01*
X126028794Y-144467209D01*
X126026943Y-144465358D01*
X126025247Y-144462030D01*
X126023610Y-144459640D01*
X126023921Y-144459426D01*
X126020494Y-144452702D01*
X126010151Y-144442972D01*
X126006951Y-144426121D01*
X125999166Y-144410841D01*
X126001387Y-144396815D01*
X125998738Y-144382861D01*
X126005915Y-144368226D01*
X126008737Y-144350409D01*
X126024838Y-144327521D01*
X126025865Y-144326428D01*
X126029215Y-144323079D01*
X126072707Y-144224580D01*
X126075014Y-144204692D01*
X126075830Y-144197664D01*
X126076797Y-144197776D01*
X126097681Y-144144203D01*
X126149168Y-144111145D01*
X126210252Y-144114664D01*
X126244296Y-144136897D01*
X126262165Y-144154766D01*
X126281575Y-144165972D01*
X126299430Y-144185802D01*
X126318871Y-144204090D01*
X126319665Y-144208275D01*
X126322515Y-144211440D01*
X126326794Y-144223451D01*
X126365001Y-144309979D01*
X126370785Y-144323079D01*
X126446921Y-144399215D01*
X126545420Y-144442707D01*
X126569495Y-144445500D01*
X127505504Y-144445499D01*
X127529580Y-144442707D01*
X127628079Y-144399215D01*
X127704215Y-144323079D01*
X127747707Y-144224580D01*
X127750500Y-144200505D01*
X127750499Y-143939496D01*
X127747707Y-143915420D01*
X127704215Y-143816921D01*
X127628079Y-143740785D01*
X127529580Y-143697293D01*
X127529577Y-143697292D01*
X127529576Y-143697292D01*
X127505511Y-143694500D01*
X127505505Y-143694500D01*
X127348547Y-143694500D01*
X127290356Y-143675593D01*
X127254392Y-143626093D01*
X127254392Y-143564907D01*
X127278541Y-143525498D01*
X127285724Y-143518316D01*
X127336472Y-143409487D01*
X127343000Y-143359901D01*
X127342999Y-143000100D01*
X127336472Y-142950513D01*
X127336472Y-142950511D01*
X127285725Y-142841686D01*
X127285724Y-142841685D01*
X127285724Y-142841684D01*
X127213687Y-142769647D01*
X127185912Y-142715133D01*
X127195483Y-142654701D01*
X127213689Y-142629642D01*
X127285309Y-142558021D01*
X127335978Y-142449361D01*
X127335980Y-142449354D01*
X127342500Y-142399838D01*
X127342500Y-142345001D01*
X127342499Y-142345000D01*
X126931500Y-142345000D01*
X126916588Y-142340155D01*
X126900907Y-142340155D01*
X126888221Y-142330938D01*
X126873309Y-142326093D01*
X126864092Y-142313407D01*
X126851407Y-142304191D01*
X126846561Y-142289278D01*
X126837345Y-142276593D01*
X126832500Y-142246000D01*
X126832500Y-142194000D01*
X126851407Y-142135809D01*
X126900907Y-142099845D01*
X126931500Y-142095000D01*
X127342499Y-142095000D01*
X127342500Y-142094999D01*
X127342500Y-142040161D01*
X127335980Y-141990645D01*
X127335978Y-141990638D01*
X127285309Y-141881978D01*
X127212835Y-141809504D01*
X127185058Y-141754987D01*
X127194629Y-141694555D01*
X127237894Y-141651290D01*
X127282839Y-141640500D01*
X127596154Y-141640500D01*
X127606215Y-141643768D01*
G37*
%TD.AperFunction*%
%TA.AperFunction,Conductor*%
G36*
X133120086Y-144770476D02*
G01*
X133120322Y-144770499D01*
X133120326Y-144770500D01*
X133120330Y-144770500D01*
X133391000Y-144770500D01*
X133449191Y-144789407D01*
X133485155Y-144838907D01*
X133490000Y-144869500D01*
X133490000Y-144870500D01*
X133471093Y-144928691D01*
X133421593Y-144964655D01*
X133391000Y-144969500D01*
X133120326Y-144969500D01*
X133120322Y-144969500D01*
X133120086Y-144969524D01*
X133119977Y-144969500D01*
X133115463Y-144969500D01*
X133115463Y-144969195D01*
X133110385Y-144970000D01*
X132966776Y-144970000D01*
X132648391Y-145288384D01*
X132640000Y-145292659D01*
X132640000Y-145240163D01*
X132617164Y-145185032D01*
X132574968Y-145142836D01*
X132519837Y-145120000D01*
X132465517Y-145120000D01*
X132471615Y-145111607D01*
X132784226Y-144798996D01*
X132838743Y-144771219D01*
X132854230Y-144770000D01*
X133110385Y-144770000D01*
X133120086Y-144770476D01*
G37*
%TD.AperFunction*%
%TA.AperFunction,Conductor*%
G36*
X132340000Y-144299837D02*
G01*
X132362836Y-144354968D01*
X132405032Y-144397164D01*
X132460163Y-144420000D01*
X132516777Y-144420000D01*
X131695773Y-145241004D01*
X131641256Y-145268781D01*
X131640000Y-145268879D01*
X131640000Y-145240163D01*
X131617164Y-145185032D01*
X131574968Y-145142836D01*
X131519837Y-145120000D01*
X131470581Y-145120000D01*
X131482227Y-145100996D01*
X132340000Y-144243223D01*
X132340000Y-144299837D01*
G37*
%TD.AperFunction*%
%TA.AperFunction,Conductor*%
G36*
X134382432Y-141739718D02*
G01*
X134404063Y-141756091D01*
X134920504Y-142272532D01*
X134948281Y-142327049D01*
X134949500Y-142342536D01*
X134949500Y-144048500D01*
X134930593Y-144106691D01*
X134881093Y-144142655D01*
X134850500Y-144147500D01*
X134765001Y-144147500D01*
X134765000Y-144147501D01*
X134765000Y-144528500D01*
X134760155Y-144543411D01*
X134760155Y-144559093D01*
X134750938Y-144571778D01*
X134746093Y-144586691D01*
X134733407Y-144595907D01*
X134724191Y-144608593D01*
X134709278Y-144613438D01*
X134696593Y-144622655D01*
X134666000Y-144627500D01*
X134614000Y-144627500D01*
X134555809Y-144608593D01*
X134519845Y-144559093D01*
X134515000Y-144528500D01*
X134515000Y-144147501D01*
X134514999Y-144147500D01*
X134430161Y-144147500D01*
X134380645Y-144154019D01*
X134380638Y-144154021D01*
X134271978Y-144204690D01*
X134271975Y-144204692D01*
X134254215Y-144222452D01*
X134199698Y-144250228D01*
X134139266Y-144240656D01*
X134096002Y-144197390D01*
X134086976Y-144149538D01*
X134085500Y-144149538D01*
X134085500Y-143995327D01*
X134085498Y-143995315D01*
X134079626Y-143965796D01*
X134070966Y-143922260D01*
X134052415Y-143894496D01*
X134015602Y-143839400D01*
X134015599Y-143839397D01*
X133932742Y-143784035D01*
X133932740Y-143784034D01*
X133932737Y-143784033D01*
X133932736Y-143784033D01*
X133859684Y-143769501D01*
X133859674Y-143769500D01*
X133120326Y-143769500D01*
X133120325Y-143769500D01*
X133120315Y-143769501D01*
X133103578Y-143772830D01*
X133042817Y-143765637D01*
X132997889Y-143724103D01*
X132985954Y-143664093D01*
X132987170Y-143656415D01*
X132990499Y-143639679D01*
X132990500Y-143639672D01*
X132990500Y-142900327D01*
X132990498Y-142900315D01*
X132981111Y-142853126D01*
X132975966Y-142827260D01*
X132960193Y-142803654D01*
X132920602Y-142744400D01*
X132920598Y-142744396D01*
X132918160Y-142742767D01*
X132915147Y-142738945D01*
X132913706Y-142737504D01*
X132913876Y-142737333D01*
X132880282Y-142694716D01*
X132877882Y-142633578D01*
X132903158Y-142590451D01*
X133122275Y-142371334D01*
X133176790Y-142343559D01*
X133230159Y-142349875D01*
X133335672Y-142393580D01*
X133471007Y-142420500D01*
X133471008Y-142420500D01*
X133608992Y-142420500D01*
X133608993Y-142420500D01*
X133744328Y-142393580D01*
X133871811Y-142340775D01*
X133986542Y-142264114D01*
X134084114Y-142166542D01*
X134160775Y-142051811D01*
X134213580Y-141924328D01*
X134236962Y-141806779D01*
X134266858Y-141753397D01*
X134322423Y-141727781D01*
X134382432Y-141739718D01*
G37*
%TD.AperFunction*%
%TA.AperFunction,Conductor*%
G36*
X132812126Y-143865804D02*
G01*
X132842177Y-143869360D01*
X132842411Y-143869576D01*
X132842729Y-143869616D01*
X132864844Y-143890312D01*
X132887108Y-143910891D01*
X132887170Y-143911205D01*
X132887403Y-143911423D01*
X132893130Y-143941165D01*
X132899046Y-143970901D01*
X132898960Y-143971439D01*
X132898973Y-143971504D01*
X132898528Y-143975075D01*
X132894500Y-143995326D01*
X132894500Y-144007412D01*
X132893741Y-144013506D01*
X132883242Y-144035917D01*
X132875593Y-144059460D01*
X132870470Y-144063181D01*
X132867785Y-144068914D01*
X132865504Y-144071273D01*
X132640000Y-144296777D01*
X132640000Y-144240163D01*
X132617164Y-144185032D01*
X132574968Y-144142836D01*
X132519837Y-144120000D01*
X132463223Y-144120000D01*
X132688727Y-143894496D01*
X132743244Y-143866719D01*
X132758731Y-143865500D01*
X132764673Y-143865500D01*
X132764674Y-143865500D01*
X132781415Y-143862170D01*
X132781732Y-143862207D01*
X132782012Y-143862053D01*
X132812126Y-143865804D01*
G37*
%TD.AperFunction*%
%TA.AperFunction,Conductor*%
G36*
X123033951Y-140679898D02*
G01*
X123063005Y-140689255D01*
X123069424Y-140693893D01*
X123089596Y-140714065D01*
X123111436Y-140724249D01*
X123119056Y-140729755D01*
X123155149Y-140779161D01*
X123155309Y-140840346D01*
X123119475Y-140889940D01*
X123102915Y-140899724D01*
X123089598Y-140905933D01*
X123005933Y-140989598D01*
X122955932Y-141096824D01*
X122955932Y-141096825D01*
X122949500Y-141145685D01*
X122949500Y-141494314D01*
X122955932Y-141543174D01*
X122955932Y-141543175D01*
X123005933Y-141650401D01*
X123005934Y-141650402D01*
X123005935Y-141650404D01*
X123041029Y-141685498D01*
X123068805Y-141740013D01*
X123059234Y-141800445D01*
X123015969Y-141843710D01*
X122971024Y-141854500D01*
X122795684Y-141854500D01*
X122779398Y-141856644D01*
X122746825Y-141860932D01*
X122746824Y-141860932D01*
X122639598Y-141910933D01*
X122555934Y-141994597D01*
X122549446Y-142008510D01*
X122507715Y-142053256D01*
X122447654Y-142064929D01*
X122392202Y-142039068D01*
X122369997Y-142008504D01*
X122363648Y-141994888D01*
X122280109Y-141911349D01*
X122173047Y-141861425D01*
X122173040Y-141861423D01*
X122124254Y-141855000D01*
X122075001Y-141855000D01*
X122075000Y-141855001D01*
X122075000Y-142894998D01*
X122075001Y-142894999D01*
X122124251Y-142894999D01*
X122124260Y-142894998D01*
X122173041Y-142888577D01*
X122280109Y-142838650D01*
X122363649Y-142755110D01*
X122369997Y-142741497D01*
X122411723Y-142696747D01*
X122471784Y-142685069D01*
X122527238Y-142710925D01*
X122538470Y-142723333D01*
X122544939Y-142731823D01*
X122555935Y-142755404D01*
X122585211Y-142784680D01*
X122589247Y-142789977D01*
X122597265Y-142812869D01*
X122608281Y-142834489D01*
X122609278Y-142847165D01*
X122609474Y-142847723D01*
X122609354Y-142848122D01*
X122609500Y-142849976D01*
X122609500Y-143105024D01*
X122590593Y-143163215D01*
X122580504Y-143175028D01*
X122579597Y-143175934D01*
X122579596Y-143175935D01*
X122535108Y-143220423D01*
X122495933Y-143259598D01*
X122489724Y-143272915D01*
X122447995Y-143317663D01*
X122387934Y-143329337D01*
X122332482Y-143303478D01*
X122310276Y-143272915D01*
X122304066Y-143259598D01*
X122304065Y-143259597D01*
X122304065Y-143259596D01*
X122220404Y-143175935D01*
X122220402Y-143175934D01*
X122220401Y-143175933D01*
X122113175Y-143125932D01*
X122071995Y-143120511D01*
X122064316Y-143119500D01*
X121715684Y-143119500D01*
X121708005Y-143120511D01*
X121666825Y-143125932D01*
X121666824Y-143125932D01*
X121559598Y-143175933D01*
X121475933Y-143259598D01*
X121425932Y-143366824D01*
X121425932Y-143366825D01*
X121425932Y-143366827D01*
X121419500Y-143415684D01*
X121419500Y-143864316D01*
X121420198Y-143869616D01*
X121425932Y-143913174D01*
X121425932Y-143913175D01*
X121479595Y-144028254D01*
X121476479Y-144029706D01*
X121489500Y-144070991D01*
X121489500Y-144090500D01*
X121470593Y-144148691D01*
X121421093Y-144184655D01*
X121390500Y-144189500D01*
X120626901Y-144189500D01*
X120568710Y-144170593D01*
X120556897Y-144160504D01*
X120239496Y-143843103D01*
X120211719Y-143788586D01*
X120210500Y-143773099D01*
X120210500Y-143700944D01*
X120209522Y-143697293D01*
X120169577Y-143548216D01*
X120090520Y-143411284D01*
X119978716Y-143299480D01*
X119841784Y-143220423D01*
X119759940Y-143198493D01*
X119708628Y-143165170D01*
X119686701Y-143108048D01*
X119702537Y-143048948D01*
X119727378Y-143022772D01*
X119733216Y-143018530D01*
X119733215Y-143018530D01*
X119733220Y-143018528D01*
X119828528Y-142923220D01*
X119889719Y-142803126D01*
X119905500Y-142703488D01*
X119905500Y-142379045D01*
X119906707Y-142375327D01*
X119905786Y-142371530D01*
X119916057Y-142346552D01*
X119924407Y-142320854D01*
X119927569Y-142318556D01*
X119929056Y-142314942D01*
X119942980Y-142307359D01*
X119973907Y-142284890D01*
X119981143Y-142282840D01*
X119990781Y-142280500D01*
X119994562Y-142280500D01*
X120031029Y-142270728D01*
X120032143Y-142270458D01*
X120061549Y-142272696D01*
X120090976Y-142274238D01*
X120091927Y-142275008D01*
X120093152Y-142275102D01*
X120115636Y-142294206D01*
X120138527Y-142312742D01*
X120138888Y-142313963D01*
X120139779Y-142314720D01*
X120142804Y-142327180D01*
X120154500Y-142366663D01*
X120154500Y-142703488D01*
X120168198Y-142789977D01*
X120170281Y-142803125D01*
X120170283Y-142803132D01*
X120219807Y-142900327D01*
X120231472Y-142923220D01*
X120326780Y-143018528D01*
X120326782Y-143018529D01*
X120446867Y-143079716D01*
X120446869Y-143079716D01*
X120446874Y-143079719D01*
X120522541Y-143091703D01*
X120546510Y-143095500D01*
X120546512Y-143095500D01*
X121063490Y-143095500D01*
X121084885Y-143092111D01*
X121163126Y-143079719D01*
X121283220Y-143018528D01*
X121378528Y-142923220D01*
X121426682Y-142828711D01*
X121469944Y-142785449D01*
X121530376Y-142775877D01*
X121584893Y-142803654D01*
X121584894Y-142803654D01*
X121619890Y-142838650D01*
X121726952Y-142888574D01*
X121726959Y-142888576D01*
X121775745Y-142894999D01*
X121825000Y-142894998D01*
X121825000Y-141865977D01*
X121843907Y-141807786D01*
X121853991Y-141795979D01*
X122005460Y-141644511D01*
X122021343Y-141617000D01*
X122045021Y-141575989D01*
X122065500Y-141499562D01*
X122065500Y-141220477D01*
X122084407Y-141162286D01*
X122094484Y-141150486D01*
X122365476Y-140879493D01*
X122419991Y-140851718D01*
X122435478Y-140850499D01*
X122659897Y-140850499D01*
X122659900Y-140850499D01*
X122709487Y-140843972D01*
X122709488Y-140843972D01*
X122792558Y-140805235D01*
X122818316Y-140793224D01*
X122903224Y-140708316D01*
X122903224Y-140708314D01*
X122909348Y-140702191D01*
X122911394Y-140704237D01*
X122949006Y-140675894D01*
X122981239Y-140670500D01*
X123005024Y-140670500D01*
X123033951Y-140679898D01*
G37*
%TD.AperFunction*%
%TA.AperFunction,Conductor*%
G36*
X123428445Y-142807762D02*
G01*
X123471710Y-142851026D01*
X123471711Y-142851027D01*
X123508496Y-142923220D01*
X123533972Y-142973220D01*
X123629280Y-143068528D01*
X123629282Y-143068529D01*
X123635582Y-143073106D01*
X123633726Y-143075660D01*
X123667068Y-143109004D01*
X123676638Y-143169436D01*
X123657696Y-143213824D01*
X123638446Y-143239169D01*
X123966969Y-143567693D01*
X123956704Y-143570444D01*
X123888295Y-143609940D01*
X123832440Y-143665795D01*
X123792944Y-143734204D01*
X123790193Y-143744469D01*
X123454113Y-143408390D01*
X123446952Y-143406819D01*
X123425561Y-143406365D01*
X123417712Y-143400404D01*
X123408086Y-143398292D01*
X123392748Y-143381443D01*
X123376836Y-143369358D01*
X123374402Y-143361291D01*
X123368423Y-143354723D01*
X123324065Y-143259596D01*
X123240404Y-143175935D01*
X123240402Y-143175934D01*
X123239496Y-143175028D01*
X123235869Y-143167910D01*
X123229407Y-143163215D01*
X123222243Y-143141166D01*
X123211719Y-143120511D01*
X123210500Y-143105024D01*
X123210500Y-142944057D01*
X123229407Y-142885866D01*
X123267659Y-142854334D01*
X123300404Y-142839065D01*
X123313499Y-142825969D01*
X123368012Y-142798192D01*
X123428445Y-142807762D01*
G37*
%TD.AperFunction*%
%TA.AperFunction,Conductor*%
G36*
X125279516Y-141659407D02*
G01*
X125315480Y-141708907D01*
X125315480Y-141770093D01*
X125279516Y-141819593D01*
X125266270Y-141827709D01*
X125179579Y-141871880D01*
X125084381Y-141967078D01*
X125023262Y-142087030D01*
X125007500Y-142186546D01*
X125007500Y-142344999D01*
X125007501Y-142345000D01*
X125558500Y-142345000D01*
X125573412Y-142349845D01*
X125589093Y-142349845D01*
X125601778Y-142359061D01*
X125616691Y-142363907D01*
X125625907Y-142376592D01*
X125638593Y-142385809D01*
X125643438Y-142400721D01*
X125652655Y-142413407D01*
X125657500Y-142444000D01*
X125657500Y-142496000D01*
X125638593Y-142554191D01*
X125589093Y-142590155D01*
X125558500Y-142595000D01*
X125007502Y-142595000D01*
X125007501Y-142595001D01*
X125007501Y-142706022D01*
X125000337Y-142728069D01*
X124996711Y-142750967D01*
X124991062Y-142756615D01*
X124988594Y-142764213D01*
X124969837Y-142777840D01*
X124953446Y-142794232D01*
X124945556Y-142795481D01*
X124939094Y-142800177D01*
X124915909Y-142800177D01*
X124893014Y-142803803D01*
X124885897Y-142800177D01*
X124877908Y-142800177D01*
X124838497Y-142776026D01*
X124786996Y-142724525D01*
X124759219Y-142670008D01*
X124758000Y-142654521D01*
X124758000Y-142186510D01*
X124751135Y-142143169D01*
X124742219Y-142086874D01*
X124742216Y-142086869D01*
X124742216Y-142086867D01*
X124681029Y-141966782D01*
X124681028Y-141966780D01*
X124585720Y-141871472D01*
X124581062Y-141869098D01*
X124499831Y-141827709D01*
X124456567Y-141784444D01*
X124446996Y-141724012D01*
X124474774Y-141669496D01*
X124529291Y-141641719D01*
X124544777Y-141640500D01*
X125221325Y-141640500D01*
X125279516Y-141659407D01*
G37*
%TD.AperFunction*%
%TA.AperFunction,Conductor*%
G36*
X128028448Y-131029407D02*
G01*
X128040261Y-131039496D01*
X132850504Y-135849739D01*
X132878281Y-135904256D01*
X132879500Y-135919743D01*
X132879500Y-140107415D01*
X132860593Y-140165606D01*
X132830000Y-140193151D01*
X132767062Y-140229488D01*
X131509490Y-141487060D01*
X131460513Y-141571892D01*
X131441145Y-141605438D01*
X131437016Y-141612590D01*
X131436605Y-141614120D01*
X131433366Y-141620224D01*
X131414603Y-141638367D01*
X131397646Y-141658219D01*
X131392893Y-141659359D01*
X131389381Y-141662756D01*
X131363534Y-141666405D01*
X131338150Y-141672498D01*
X131331950Y-141670865D01*
X131328797Y-141671311D01*
X131324029Y-141668780D01*
X131304085Y-141663529D01*
X131219355Y-141624019D01*
X131169839Y-141617500D01*
X131115001Y-141617500D01*
X131115000Y-141617501D01*
X131115000Y-142028500D01*
X131110155Y-142043411D01*
X131110155Y-142059093D01*
X131100938Y-142071778D01*
X131096093Y-142086691D01*
X131083407Y-142095907D01*
X131074191Y-142108593D01*
X131059278Y-142113438D01*
X131046593Y-142122655D01*
X131016000Y-142127500D01*
X130964000Y-142127500D01*
X130905809Y-142108593D01*
X130869845Y-142059093D01*
X130865000Y-142028500D01*
X130865000Y-141617501D01*
X130864999Y-141617500D01*
X130810161Y-141617500D01*
X130760645Y-141624019D01*
X130760644Y-141624019D01*
X130674480Y-141664198D01*
X130613750Y-141671654D01*
X130560237Y-141641990D01*
X130546906Y-141623975D01*
X130530460Y-141595489D01*
X130530459Y-141595487D01*
X130474512Y-141539540D01*
X130034511Y-141099540D01*
X130034509Y-141099538D01*
X130025892Y-141094564D01*
X130025893Y-141094564D01*
X130025889Y-141094562D01*
X129965989Y-141059979D01*
X129965987Y-141059978D01*
X129965985Y-141059977D01*
X129889564Y-141039500D01*
X129889562Y-141039500D01*
X127341713Y-141039500D01*
X127283522Y-141020593D01*
X127247558Y-140971093D01*
X127247558Y-140909907D01*
X127283522Y-140860407D01*
X127292205Y-140854767D01*
X127377994Y-140805238D01*
X127612042Y-140625646D01*
X127820646Y-140417042D01*
X128000238Y-140182994D01*
X128147743Y-139927507D01*
X128260639Y-139654952D01*
X128336993Y-139369993D01*
X128375500Y-139077506D01*
X128375500Y-138782494D01*
X128336993Y-138490007D01*
X128260639Y-138205048D01*
X128147743Y-137932493D01*
X128000238Y-137677006D01*
X127964522Y-137630460D01*
X127820651Y-137442964D01*
X127820649Y-137442962D01*
X127820646Y-137442958D01*
X127612042Y-137234354D01*
X127612037Y-137234350D01*
X127612035Y-137234348D01*
X127377997Y-137054764D01*
X127377994Y-137054762D01*
X127206630Y-136955825D01*
X127165691Y-136910357D01*
X127159295Y-136849507D01*
X127186127Y-136800088D01*
X127270436Y-136715780D01*
X127302870Y-136659603D01*
X127336326Y-136601656D01*
X127336326Y-136601654D01*
X127336328Y-136601652D01*
X127370436Y-136474358D01*
X127370436Y-136342574D01*
X127349875Y-136265839D01*
X128474500Y-136265839D01*
X128474500Y-136494160D01*
X128510214Y-136719655D01*
X128580769Y-136936799D01*
X128684420Y-137140227D01*
X128684424Y-137140233D01*
X128818616Y-137324931D01*
X128818618Y-137324933D01*
X128818621Y-137324937D01*
X128980063Y-137486379D01*
X128980066Y-137486381D01*
X128980068Y-137486383D01*
X129121990Y-137589496D01*
X129164772Y-137620579D01*
X129368201Y-137724231D01*
X129585340Y-137794784D01*
X129585341Y-137794784D01*
X129585344Y-137794785D01*
X129810840Y-137830500D01*
X129810843Y-137830500D01*
X130039160Y-137830500D01*
X130264655Y-137794785D01*
X130264656Y-137794784D01*
X130264660Y-137794784D01*
X130481799Y-137724231D01*
X130685228Y-137620579D01*
X130869937Y-137486379D01*
X131031379Y-137324937D01*
X131165579Y-137140228D01*
X131269231Y-136936799D01*
X131339784Y-136719660D01*
X131340399Y-136715780D01*
X131375500Y-136494160D01*
X131375500Y-136265839D01*
X131339785Y-136040344D01*
X131339784Y-136040340D01*
X131269231Y-135823201D01*
X131165579Y-135619772D01*
X131165575Y-135619766D01*
X131031383Y-135435068D01*
X131031381Y-135435066D01*
X131031379Y-135435063D01*
X130869937Y-135273621D01*
X130869933Y-135273618D01*
X130869931Y-135273616D01*
X130685233Y-135139424D01*
X130685227Y-135139420D01*
X130481799Y-135035769D01*
X130264655Y-134965214D01*
X130039160Y-134929500D01*
X130039157Y-134929500D01*
X129810843Y-134929500D01*
X129810840Y-134929500D01*
X129585344Y-134965214D01*
X129368200Y-135035769D01*
X129164772Y-135139420D01*
X129164766Y-135139424D01*
X128980068Y-135273616D01*
X128818616Y-135435068D01*
X128684424Y-135619766D01*
X128684420Y-135619772D01*
X128580769Y-135823200D01*
X128510214Y-136040344D01*
X128474500Y-136265839D01*
X127349875Y-136265839D01*
X127336328Y-136215280D01*
X127336326Y-136215277D01*
X127336326Y-136215275D01*
X127270439Y-136101156D01*
X127270437Y-136101154D01*
X127270436Y-136101152D01*
X127199494Y-136030210D01*
X127171719Y-135975696D01*
X127170500Y-135960209D01*
X127170500Y-133960437D01*
X127170499Y-133960435D01*
X127150021Y-133884011D01*
X127150019Y-133884007D01*
X127110460Y-133815489D01*
X127054511Y-133759539D01*
X127054511Y-133759540D01*
X124474472Y-131179501D01*
X124446697Y-131124987D01*
X124456268Y-131064555D01*
X124499533Y-131021290D01*
X124544478Y-131010500D01*
X127970257Y-131010500D01*
X128028448Y-131029407D01*
G37*
%TD.AperFunction*%
%TA.AperFunction,Conductor*%
G36*
X126440352Y-141659407D02*
G01*
X126476316Y-141708907D01*
X126476316Y-141770093D01*
X126452165Y-141809504D01*
X126384125Y-141877543D01*
X126362785Y-141917942D01*
X126342512Y-141937624D01*
X126323242Y-141958289D01*
X126320725Y-141958778D01*
X126318887Y-141960563D01*
X126290923Y-141964569D01*
X126263180Y-141969962D01*
X126260856Y-141968878D01*
X126258320Y-141969242D01*
X126233338Y-141956045D01*
X126207728Y-141944102D01*
X126205244Y-141941704D01*
X126135420Y-141871880D01*
X126048730Y-141827709D01*
X126005465Y-141784445D01*
X125995894Y-141724013D01*
X126023672Y-141669496D01*
X126078188Y-141641719D01*
X126093675Y-141640500D01*
X126382161Y-141640500D01*
X126440352Y-141659407D01*
G37*
%TD.AperFunction*%
%TA.AperFunction,Conductor*%
G36*
X135129843Y-129180977D02*
G01*
X135261514Y-129193945D01*
X135280549Y-129197731D01*
X135402494Y-129234722D01*
X135420418Y-129242147D01*
X135532804Y-129302218D01*
X135548931Y-129312994D01*
X135618239Y-129369873D01*
X135647439Y-129393837D01*
X135661162Y-129407560D01*
X135742002Y-129506063D01*
X135752784Y-129522200D01*
X135812851Y-129634579D01*
X135820278Y-129652509D01*
X135857268Y-129774450D01*
X135861054Y-129793484D01*
X135874023Y-129925155D01*
X135874500Y-129934859D01*
X135874500Y-141571892D01*
X135855593Y-141630083D01*
X135806093Y-141666047D01*
X135744907Y-141666047D01*
X135705496Y-141641896D01*
X135016343Y-140952743D01*
X134283100Y-140219500D01*
X134283097Y-140219498D01*
X134283096Y-140219497D01*
X134283095Y-140219496D01*
X134168975Y-140153609D01*
X134168974Y-140153608D01*
X134153874Y-140149562D01*
X134102560Y-140116236D01*
X134080635Y-140059114D01*
X134080500Y-140053936D01*
X134080500Y-135717045D01*
X134080501Y-135717032D01*
X134080501Y-135550945D01*
X134080501Y-135550943D01*
X134039577Y-135398215D01*
X134017404Y-135359811D01*
X133967639Y-135273614D01*
X133960520Y-135261284D01*
X128740521Y-130041286D01*
X128740520Y-130041284D01*
X128628716Y-129929480D01*
X128541904Y-129879360D01*
X128541903Y-129879359D01*
X128491788Y-129850425D01*
X128491785Y-129850423D01*
X128339057Y-129809499D01*
X128180943Y-129809499D01*
X128174880Y-129809499D01*
X128174864Y-129809500D01*
X120829057Y-129809500D01*
X120670942Y-129809500D01*
X120588523Y-129831584D01*
X120518210Y-129850424D01*
X120468095Y-129879359D01*
X120468093Y-129879361D01*
X120437332Y-129897120D01*
X120377484Y-129909839D01*
X120329046Y-129891037D01*
X120262883Y-129842207D01*
X120134703Y-129797355D01*
X120134694Y-129797353D01*
X120104274Y-129794500D01*
X120104266Y-129794500D01*
X119495734Y-129794500D01*
X119495725Y-129794500D01*
X119465305Y-129797353D01*
X119465296Y-129797355D01*
X119337116Y-129842207D01*
X119227855Y-129922845D01*
X119227845Y-129922855D01*
X119147207Y-130032116D01*
X119102355Y-130160296D01*
X119102353Y-130160305D01*
X119099500Y-130190725D01*
X119099500Y-130530257D01*
X119080593Y-130588448D01*
X119070504Y-130600259D01*
X118911286Y-130759478D01*
X118911284Y-130759480D01*
X118911275Y-130759487D01*
X118799480Y-130871283D01*
X118784736Y-130896821D01*
X118739266Y-130937762D01*
X118678415Y-130944156D01*
X118625428Y-130913563D01*
X118600542Y-130857667D01*
X118600000Y-130847320D01*
X118600000Y-130845001D01*
X118599999Y-130845000D01*
X117200002Y-130845000D01*
X117200001Y-130845001D01*
X117200001Y-131249203D01*
X117202850Y-131279600D01*
X117202850Y-131279602D01*
X117247654Y-131407647D01*
X117328207Y-131516790D01*
X117328209Y-131516792D01*
X117374348Y-131550845D01*
X117409940Y-131600613D01*
X117409482Y-131661797D01*
X117373148Y-131711026D01*
X117315559Y-131729500D01*
X117076381Y-131729500D01*
X116892750Y-131766026D01*
X116719770Y-131837677D01*
X116719761Y-131837681D01*
X116564092Y-131941698D01*
X116564088Y-131941701D01*
X116544504Y-131961286D01*
X116489987Y-131989063D01*
X116429555Y-131979492D01*
X116386290Y-131936227D01*
X116375500Y-131891282D01*
X116375500Y-130190788D01*
X117200000Y-130190788D01*
X117200000Y-130594999D01*
X117200001Y-130595000D01*
X117774999Y-130595000D01*
X117775000Y-130594999D01*
X117775000Y-129795001D01*
X118025000Y-129795001D01*
X118025000Y-130594999D01*
X118025001Y-130595000D01*
X118599998Y-130595000D01*
X118599999Y-130594999D01*
X118599999Y-130190796D01*
X118597149Y-130160399D01*
X118597149Y-130160397D01*
X118552345Y-130032352D01*
X118471792Y-129923209D01*
X118471790Y-129923207D01*
X118362647Y-129842654D01*
X118234601Y-129797850D01*
X118204211Y-129795000D01*
X118025001Y-129795000D01*
X118025000Y-129795001D01*
X117775000Y-129795001D01*
X117774999Y-129795000D01*
X117595796Y-129795000D01*
X117565399Y-129797850D01*
X117565397Y-129797850D01*
X117437352Y-129842654D01*
X117328209Y-129923207D01*
X117328207Y-129923209D01*
X117247654Y-130032352D01*
X117202850Y-130160398D01*
X117200000Y-130190788D01*
X116375500Y-130190788D01*
X116375500Y-129934859D01*
X116375977Y-129925156D01*
X116380487Y-129879360D01*
X116388945Y-129793481D01*
X116392731Y-129774450D01*
X116429723Y-129652502D01*
X116437145Y-129634585D01*
X116497221Y-129522190D01*
X116507990Y-129506072D01*
X116588840Y-129407556D01*
X116602556Y-129393840D01*
X116701072Y-129312990D01*
X116717190Y-129302221D01*
X116829585Y-129242145D01*
X116847502Y-129234723D01*
X116969452Y-129197730D01*
X116988483Y-129193945D01*
X117120157Y-129180977D01*
X117129860Y-129180500D01*
X117169170Y-129180500D01*
X135080830Y-129180500D01*
X135120140Y-129180500D01*
X135129843Y-129180977D01*
G37*
%TD.AperFunction*%
%TA.AperFunction,Conductor*%
G36*
X119690891Y-133855085D02*
G01*
X119734156Y-133898350D01*
X119743727Y-133958782D01*
X119740537Y-133972512D01*
X119739428Y-133976101D01*
X119739428Y-133976104D01*
X119739427Y-133976107D01*
X119731755Y-134028767D01*
X119729500Y-134044243D01*
X119729500Y-134304364D01*
X119716236Y-134353864D01*
X119670425Y-134433209D01*
X119670423Y-134433213D01*
X119670423Y-134433215D01*
X119629499Y-134585943D01*
X119629499Y-134744057D01*
X119670423Y-134896785D01*
X119716236Y-134976135D01*
X119729500Y-135025634D01*
X119729500Y-135285760D01*
X119734722Y-135321600D01*
X119739427Y-135353895D01*
X119778766Y-135434363D01*
X119790802Y-135458983D01*
X119873517Y-135541698D01*
X119927285Y-135567983D01*
X119978604Y-135593072D01*
X119978605Y-135593072D01*
X119978607Y-135593073D01*
X120046740Y-135603000D01*
X120275500Y-135603000D01*
X120333691Y-135621907D01*
X120369655Y-135671407D01*
X120374500Y-135702000D01*
X120374500Y-135975946D01*
X120363710Y-136020890D01*
X120340282Y-136066869D01*
X120340281Y-136066874D01*
X120324500Y-136166510D01*
X120324500Y-136308217D01*
X120305593Y-136366408D01*
X120295503Y-136378221D01*
X119851285Y-136822437D01*
X119851286Y-136822438D01*
X119851284Y-136822440D01*
X119851283Y-136822439D01*
X119739480Y-136934243D01*
X119719526Y-136968805D01*
X119704918Y-136994108D01*
X119691302Y-137017690D01*
X119660424Y-137071171D01*
X119660423Y-137071175D01*
X119619499Y-137223903D01*
X119619499Y-137223905D01*
X119619499Y-137317480D01*
X119600592Y-137375671D01*
X119551092Y-137411635D01*
X119506227Y-137415445D01*
X119448260Y-137407000D01*
X119081740Y-137407000D01*
X119049928Y-137411635D01*
X119013604Y-137416927D01*
X118908518Y-137468301D01*
X118825799Y-137551020D01*
X118803692Y-137596242D01*
X118761149Y-137640216D01*
X118700883Y-137650785D01*
X118645915Y-137623912D01*
X118617654Y-137572075D01*
X118586793Y-137416927D01*
X118583973Y-137402749D01*
X118512322Y-137229769D01*
X118512320Y-137229767D01*
X118512318Y-137229761D01*
X118443679Y-137127038D01*
X118408302Y-137074092D01*
X118275908Y-136941698D01*
X118229003Y-136910357D01*
X118120238Y-136837681D01*
X118120229Y-136837677D01*
X117947249Y-136766026D01*
X117763618Y-136729500D01*
X117763616Y-136729500D01*
X117076384Y-136729500D01*
X117076381Y-136729500D01*
X116892750Y-136766026D01*
X116719770Y-136837677D01*
X116719761Y-136837681D01*
X116564092Y-136941698D01*
X116564088Y-136941701D01*
X116544504Y-136961286D01*
X116489987Y-136989063D01*
X116429555Y-136979492D01*
X116386290Y-136936227D01*
X116375500Y-136891282D01*
X116375500Y-135968717D01*
X116394407Y-135910526D01*
X116443907Y-135874562D01*
X116505093Y-135874562D01*
X116544505Y-135898715D01*
X116564083Y-135918294D01*
X116564087Y-135918297D01*
X116564092Y-135918302D01*
X116626619Y-135960081D01*
X116719761Y-136022318D01*
X116719767Y-136022320D01*
X116719769Y-136022322D01*
X116892749Y-136093973D01*
X117076384Y-136130500D01*
X117076385Y-136130500D01*
X117763615Y-136130500D01*
X117763616Y-136130500D01*
X117947251Y-136093973D01*
X118120231Y-136022322D01*
X118120234Y-136022319D01*
X118120238Y-136022318D01*
X118165187Y-135992282D01*
X118275908Y-135918302D01*
X118408302Y-135785908D01*
X118493276Y-135658735D01*
X118512318Y-135630238D01*
X118512319Y-135630234D01*
X118512322Y-135630231D01*
X118583973Y-135457251D01*
X118620500Y-135273616D01*
X118620500Y-135086384D01*
X118588076Y-134923378D01*
X118595268Y-134862620D01*
X118615167Y-134834066D01*
X119575944Y-133873289D01*
X119630459Y-133845514D01*
X119690891Y-133855085D01*
G37*
%TD.AperFunction*%
%TA.AperFunction,Conductor*%
G36*
X120429048Y-131560176D02*
G01*
X120441462Y-131570698D01*
X120581166Y-131710401D01*
X120681284Y-131810519D01*
X120725909Y-131836283D01*
X120726952Y-131836920D01*
X120746121Y-131859279D01*
X120765824Y-131881162D01*
X120765955Y-131882414D01*
X120766776Y-131883371D01*
X120769143Y-131912746D01*
X120772219Y-131942012D01*
X120771594Y-131943162D01*
X120771691Y-131944359D01*
X120764926Y-131955444D01*
X120745390Y-131991428D01*
X120740804Y-131996013D01*
X120740801Y-131996018D01*
X120689427Y-132101104D01*
X120689427Y-132101107D01*
X120679500Y-132169240D01*
X120679500Y-133410760D01*
X120680598Y-133418294D01*
X120689427Y-133478895D01*
X120740800Y-133583979D01*
X120740800Y-133583980D01*
X120740801Y-133583981D01*
X120740802Y-133583983D01*
X120823517Y-133666698D01*
X120857647Y-133683383D01*
X120928604Y-133718072D01*
X120928605Y-133718072D01*
X120928607Y-133718073D01*
X120996740Y-133728000D01*
X120996743Y-133728000D01*
X121363257Y-133728000D01*
X121363260Y-133728000D01*
X121431393Y-133718073D01*
X121532521Y-133668634D01*
X121593101Y-133660064D01*
X121647151Y-133688739D01*
X121674024Y-133743708D01*
X121675000Y-133757576D01*
X121675000Y-133924120D01*
X121710702Y-134149538D01*
X121781232Y-134366607D01*
X121884848Y-134569965D01*
X121884850Y-134569969D01*
X122012524Y-134745697D01*
X122513472Y-134244748D01*
X122542437Y-134288097D01*
X122646903Y-134392563D01*
X122690249Y-134421526D01*
X122189301Y-134922474D01*
X122289685Y-134995407D01*
X122325649Y-135044907D01*
X122325649Y-135106093D01*
X122289685Y-135155593D01*
X122231494Y-135174500D01*
X122125725Y-135174500D01*
X122095305Y-135177353D01*
X122095296Y-135177355D01*
X121967116Y-135222207D01*
X121857855Y-135302845D01*
X121857845Y-135302855D01*
X121777207Y-135412116D01*
X121767944Y-135438589D01*
X121730878Y-135487270D01*
X121672278Y-135504866D01*
X121614526Y-135484657D01*
X121579682Y-135434363D01*
X121575500Y-135405891D01*
X121575500Y-135325944D01*
X121575500Y-135325943D01*
X121534577Y-135173216D01*
X121455520Y-135036284D01*
X121414643Y-134995407D01*
X121343716Y-134924479D01*
X121343170Y-134924164D01*
X121322668Y-134908433D01*
X120759496Y-134345261D01*
X120731719Y-134290744D01*
X120730500Y-134275257D01*
X120730500Y-134044243D01*
X120730500Y-134044240D01*
X120720573Y-133976107D01*
X120720570Y-133976101D01*
X120675481Y-133883869D01*
X120669198Y-133871017D01*
X120586483Y-133788302D01*
X120586481Y-133788301D01*
X120481395Y-133736927D01*
X120454139Y-133732956D01*
X120413260Y-133727000D01*
X120046740Y-133727000D01*
X119978607Y-133736927D01*
X119978606Y-133736927D01*
X119978602Y-133736928D01*
X119927367Y-133761975D01*
X119925533Y-133762234D01*
X119924156Y-133763475D01*
X119895402Y-133766497D01*
X119866785Y-133770546D01*
X119865147Y-133769677D01*
X119863305Y-133769871D01*
X119838277Y-133755421D01*
X119812736Y-133741870D01*
X119811921Y-133740204D01*
X119810317Y-133739278D01*
X119798557Y-133712865D01*
X119785864Y-133686901D01*
X119786184Y-133685076D01*
X119785430Y-133683383D01*
X119791438Y-133655118D01*
X119796434Y-133626636D01*
X119798130Y-133623572D01*
X119820987Y-133583983D01*
X119839577Y-133551785D01*
X119880500Y-133399058D01*
X119880500Y-133240943D01*
X119880500Y-132710943D01*
X119880500Y-131744500D01*
X119899407Y-131686309D01*
X119948907Y-131650345D01*
X119979500Y-131645500D01*
X120104273Y-131645500D01*
X120104273Y-131645499D01*
X120134699Y-131642646D01*
X120262882Y-131597793D01*
X120312672Y-131561046D01*
X120370718Y-131541705D01*
X120429048Y-131560176D01*
G37*
%TD.AperFunction*%
%TD*%
M02*
