%TF.GenerationSoftware,KiCad,Pcbnew,10.0.3*%
%TF.CreationDate,2026-08-31T03:10:55+08:00*%
%TF.ProjectId,soundkey,736f756e-646b-4657-992e-6b696361645f,rev?*%
%TF.SameCoordinates,Original*%
%TF.FileFunction,Copper,L2,Bot*%
%TF.FilePolarity,Positive*%
%FSLAX46Y46*%
G04 Gerber Fmt 4.6, Leading zero omitted, Abs format (unit mm)*
G04 Created by KiCad (PCBNEW 10.0.3) date 2026-08-31 03:10:55*
%MOMM*%
%LPD*%
G01*
G04 APERTURE LIST*
G04 Aperture macros list*
%AMRoundRect*
0 Rectangle with rounded corners*
0 $1 Rounding radius*
0 $2 $3 $4 $5 $6 $7 $8 $9 X,Y pos of 4 corners*
0 Add a 4 corners polygon primitive as box body*
4,1,4,$2,$3,$4,$5,$6,$7,$8,$9,$2,$3,0*
0 Add four circle primitives for the rounded corners*
1,1,$1+$1,$2,$3*
1,1,$1+$1,$4,$5*
1,1,$1+$1,$6,$7*
1,1,$1+$1,$8,$9*
0 Add four rect primitives between the rounded corners*
20,1,$1+$1,$2,$3,$4,$5,0*
20,1,$1+$1,$4,$5,$6,$7,0*
20,1,$1+$1,$6,$7,$8,$9,0*
20,1,$1+$1,$8,$9,$2,$3,0*%
G04 Aperture macros list end*
%TA.AperFunction,ComponentPad*%
%ADD10O,1.000000X2.100000*%
%TD*%
%TA.AperFunction,ComponentPad*%
%ADD11O,1.000000X1.800000*%
%TD*%
%TA.AperFunction,ComponentPad*%
%ADD12C,1.200000*%
%TD*%
%TA.AperFunction,ComponentPad*%
%ADD13C,1.400000*%
%TD*%
%TA.AperFunction,ComponentPad*%
%ADD14RoundRect,0.249999X-0.850001X-0.850001X0.850001X-0.850001X0.850001X0.850001X-0.850001X0.850001X0*%
%TD*%
%TA.AperFunction,ComponentPad*%
%ADD15C,2.200000*%
%TD*%
%TA.AperFunction,HeatsinkPad*%
%ADD16C,0.500000*%
%TD*%
%TA.AperFunction,HeatsinkPad*%
%ADD17R,2.500000X2.500000*%
%TD*%
%TA.AperFunction,SMDPad,CuDef*%
%ADD18RoundRect,0.140000X0.140000X0.170000X-0.140000X0.170000X-0.140000X-0.170000X0.140000X-0.170000X0*%
%TD*%
%TA.AperFunction,SMDPad,CuDef*%
%ADD19R,0.700000X0.700000*%
%TD*%
%TA.AperFunction,ComponentPad*%
%ADD20C,2.500000*%
%TD*%
%TA.AperFunction,ComponentPad*%
%ADD21C,1.108000*%
%TD*%
%TA.AperFunction,ViaPad*%
%ADD22C,0.800000*%
%TD*%
%TA.AperFunction,ViaPad*%
%ADD23C,0.600000*%
%TD*%
%TA.AperFunction,ViaPad*%
%ADD24C,0.500000*%
%TD*%
%TA.AperFunction,Conductor*%
%ADD25C,0.300000*%
%TD*%
%TA.AperFunction,Conductor*%
%ADD26C,0.800000*%
%TD*%
%TA.AperFunction,Conductor*%
%ADD27C,0.200000*%
%TD*%
%TA.AperFunction,Conductor*%
%ADD28C,0.270000*%
%TD*%
G04 APERTURE END LIST*
D10*
%TO.P,J3,SH,SHIELD_SH*%
%TO.N,GND_sub*%
X115074500Y-161515500D03*
D11*
X115074500Y-165695500D03*
D10*
X123714500Y-161515500D03*
D11*
X123714500Y-165695500D03*
%TD*%
D12*
%TO.P,C8,1*%
%TO.N,/VBUS*%
X125564500Y-156070500D03*
%TO.P,C8,2*%
%TO.N,GND_sub*%
X125564500Y-154570500D03*
%TD*%
D13*
%TO.P,R3,1*%
%TO.N,GND_sub*%
X117244500Y-154250500D03*
%TO.P,R3,2*%
%TO.N,/VBUS*%
X122324500Y-154250500D03*
%TD*%
D14*
%TO.P,D1,1,K_1*%
%TO.N,/VSYS_sub*%
X116439500Y-151035500D03*
D15*
%TO.P,D1,2,A_2*%
%TO.N,/VBUS*%
X124059500Y-151035500D03*
%TD*%
D13*
%TO.P,R2,1*%
%TO.N,GND_sub*%
X112389500Y-158525500D03*
%TO.P,R2,2*%
%TO.N,Net-(J3-CC1)*%
X117469500Y-158525500D03*
%TD*%
D16*
%TO.P,U1,29,GND_EP_29*%
%TO.N,GND*%
X152004500Y-162499776D03*
X152004500Y-163499776D03*
X152004500Y-164499776D03*
X153004500Y-162499776D03*
X153004500Y-163499776D03*
D17*
X153004500Y-163499776D03*
D16*
X153004500Y-164499776D03*
X154004500Y-162499776D03*
X154004500Y-163499776D03*
X154004500Y-164499776D03*
%TD*%
D13*
%TO.P,R1,1*%
%TO.N,GND_sub*%
X122344500Y-156370500D03*
%TO.P,R1,2*%
%TO.N,Net-(U2-PROG)*%
X117264500Y-156370500D03*
%TD*%
%TO.P,R4,1*%
%TO.N,Net-(J3-CC2)*%
X121399500Y-158675500D03*
%TO.P,R4,2*%
%TO.N,GND_sub*%
X126479500Y-158675500D03*
%TD*%
D18*
%TO.P,C14,1*%
%TO.N,GND*%
X149914500Y-164849776D03*
%TO.P,C14,2*%
%TO.N,VCC*%
X148954500Y-164849776D03*
%TD*%
D19*
%TO.P,D2,1,DOUT_1*%
%TO.N,unconnected-(D2-DOUT-Pad1)*%
X149104500Y-161789776D03*
%TO.P,D2,2,VSS_2*%
%TO.N,GND*%
X150204500Y-161789776D03*
%TO.P,D2,3,DIN_3*%
%TO.N,/LED*%
X150204500Y-163619776D03*
%TO.P,D2,4,VDD_4*%
%TO.N,VCC*%
X149104500Y-163619776D03*
%TD*%
D20*
%TO.P,J1,1,Pin_1_1*%
%TO.N,Net-(J1-Pin_1)*%
X151439500Y-154609776D03*
%TO.P,J1,2,Pin_2_2*%
%TO.N,GND*%
X144639500Y-152039776D03*
%TD*%
D21*
%TO.P,MK1,M*%
%TO.N,GND*%
X145587000Y-162079776D03*
%TO.P,MK1,P*%
%TO.N,Net-(C7-Pad1)*%
X145587000Y-163479776D03*
%TD*%
D22*
%TO.N,GND*%
X156044500Y-157989776D03*
D23*
X139644500Y-159649776D03*
D24*
X147804500Y-160159776D03*
D23*
X142541570Y-161798070D03*
X152654500Y-159399776D03*
X138284500Y-148849776D03*
X148094500Y-165409776D03*
D22*
X144064501Y-159489725D03*
X147214500Y-152309776D03*
D23*
X139654500Y-157179776D03*
D22*
X140014500Y-162169776D03*
X145174500Y-156149776D03*
D23*
X150024500Y-158249776D03*
D22*
X153904500Y-155949776D03*
X140654500Y-153469776D03*
X147264500Y-154249776D03*
X138914500Y-162029776D03*
X153754500Y-158259776D03*
D23*
X143114500Y-157639776D03*
D22*
X155664500Y-161579776D03*
D23*
X156704500Y-166139776D03*
X141824500Y-151619776D03*
X143634500Y-150519776D03*
D22*
%TO.N,VCC*%
X141124500Y-162009776D03*
X141734500Y-155532736D03*
D23*
X147611806Y-161712709D03*
%TO.N,GND_sub*%
X124434500Y-154630500D03*
X121544500Y-151670500D03*
X121289500Y-164895500D03*
X119674500Y-153730500D03*
X117569500Y-164895500D03*
X115609500Y-148815500D03*
X127249500Y-149815500D03*
X118819500Y-159435500D03*
X118039500Y-151840500D03*
X122679500Y-158475500D03*
X114192000Y-155711363D03*
X125779500Y-148155500D03*
X115879500Y-149395500D03*
D22*
%TO.N,/VBUS*%
X114115500Y-154059366D03*
X115354500Y-158030500D03*
D23*
%TO.N,/SD_N*%
X151204500Y-161579776D03*
X144884500Y-155289776D03*
D22*
%TO.N,/BAT+*%
X125809500Y-151695500D03*
X111817000Y-152955500D03*
D23*
%TO.N,/CHG*%
X138864500Y-152159776D03*
X156553022Y-165233972D03*
%TO.N,/PERIPH_EN_N*%
X149645185Y-160242443D03*
X148384436Y-154638242D03*
%TO.N,/LED*%
X150037275Y-160939774D03*
%TO.N,Net-(J1-Pin_1)*%
X155388497Y-165462276D03*
%TD*%
%TO.N,VCC*%
D25*
X147611806Y-161712709D02*
X147488123Y-161712709D01*
D26*
X146954500Y-160511858D02*
X147164500Y-160721858D01*
D25*
X148954500Y-163769776D02*
X149104500Y-163619776D01*
D26*
X141734500Y-155709776D02*
X143284500Y-155709776D01*
X141734500Y-155532736D02*
X141734500Y-161399776D01*
X143284500Y-155709776D02*
X144944500Y-157369776D01*
D25*
X147134500Y-161479776D02*
X147134500Y-163177776D01*
D26*
X144944500Y-157369776D02*
X144944500Y-158219776D01*
D25*
X147488123Y-161712709D02*
X147225190Y-161449776D01*
X147164500Y-161449776D02*
X147134500Y-161479776D01*
D26*
X144944500Y-158219776D02*
X146954500Y-160229776D01*
D25*
X147576500Y-163619776D02*
X149104500Y-163619776D01*
X147225190Y-161449776D02*
X147164500Y-161449776D01*
X148954500Y-164849776D02*
X148954500Y-163769776D01*
X147134500Y-163177776D02*
X147576500Y-163619776D01*
D26*
X141734500Y-161399776D02*
X141124500Y-162009776D01*
X146954500Y-160229776D02*
X146954500Y-160511858D01*
X147164500Y-160721858D02*
X147164500Y-161449776D01*
%TO.N,/VBUS*%
X115334500Y-157150500D02*
X115334500Y-154720500D01*
X114673366Y-154059366D02*
X114115500Y-154059366D01*
X115354500Y-158030500D02*
X115354500Y-157170500D01*
X115334500Y-154720500D02*
X114673366Y-154059366D01*
X115354500Y-157170500D02*
X115334500Y-157150500D01*
%TO.N,/SD_N*%
D27*
X145977218Y-153459776D02*
X148054500Y-153459776D01*
X145447217Y-153989776D02*
X145977218Y-153459776D01*
X144884500Y-155289776D02*
X144884500Y-154279776D01*
X148054500Y-153459776D02*
X151044500Y-156449776D01*
X151044500Y-156449776D02*
X151044500Y-161419776D01*
X145174500Y-153989776D02*
X145447217Y-153989776D01*
X144884500Y-154279776D02*
X145174500Y-153989776D01*
X151044500Y-161419776D02*
X151204500Y-161579776D01*
%TO.N,/BAT+*%
D28*
X119824500Y-152740500D02*
X121374500Y-152740500D01*
D26*
X122129500Y-152725500D02*
X123345336Y-152725500D01*
X125809500Y-151695500D02*
X124764500Y-152740500D01*
X122119500Y-152735500D02*
X122129500Y-152725500D01*
X123345336Y-152725500D02*
X123355336Y-152735500D01*
X124764500Y-152740500D02*
X121394500Y-152740500D01*
X112032000Y-152740500D02*
X111817000Y-152955500D01*
X119834500Y-152740500D02*
X112032000Y-152740500D01*
%TO.N,/CHG*%
D27*
X156964500Y-164822494D02*
X156964500Y-157399776D01*
X143944500Y-153589776D02*
X142704500Y-152349776D01*
X139054500Y-152349776D02*
X138864500Y-152159776D01*
X142704500Y-152349776D02*
X139054500Y-152349776D01*
X156964500Y-157399776D02*
X152624500Y-153059776D01*
X156553022Y-165233972D02*
X156964500Y-164822494D01*
X152624500Y-153059776D02*
X145811532Y-153059776D01*
X145281532Y-153589776D02*
X143944500Y-153589776D01*
X145811532Y-153059776D02*
X145281532Y-153589776D01*
%TO.N,/PERIPH_EN_N*%
X149834500Y-160155324D02*
X149834500Y-158969776D01*
X149747381Y-160242443D02*
X149834500Y-160155324D01*
X150254500Y-158849776D02*
X150273029Y-158849776D01*
X150624500Y-158498305D02*
X150624500Y-158479776D01*
X148667280Y-154638242D02*
X148384436Y-154638242D01*
X149834500Y-158969776D02*
X149884500Y-158919776D01*
X150273029Y-158849776D02*
X150624500Y-158498305D01*
X149884500Y-158919776D02*
X150184500Y-158919776D01*
X150624500Y-158001247D02*
X150424500Y-157801247D01*
X150184500Y-158919776D02*
X150254500Y-158849776D01*
X149645185Y-160242443D02*
X149747381Y-160242443D01*
X150624500Y-158479776D02*
X150624500Y-158001247D01*
X150424500Y-156395462D02*
X148667280Y-154638242D01*
X150424500Y-157801247D02*
X150424500Y-156395462D01*
%TO.N,/LED*%
X150037275Y-160939774D02*
X149930051Y-160939774D01*
X148834500Y-162699776D02*
X149444500Y-162699776D01*
X150204500Y-163459776D02*
X150204500Y-163619776D01*
X150037275Y-160939774D02*
X149930052Y-160939774D01*
X149930051Y-160939774D02*
X149890049Y-160979776D01*
X149930052Y-160939774D02*
X149930051Y-160939775D01*
X148414500Y-162279776D02*
X148834500Y-162699776D01*
X148774500Y-160979776D02*
X148414500Y-161339776D01*
X149890049Y-160979776D02*
X148774500Y-160979776D01*
X149444500Y-162699776D02*
X150204500Y-163459776D01*
X148414500Y-161339776D02*
X148414500Y-162279776D01*
%TO.N,Net-(J1-Pin_1)*%
X156554500Y-159729776D02*
X155204500Y-158379776D01*
X155767305Y-164412581D02*
X156554500Y-163625386D01*
X155767305Y-165083467D02*
X155767305Y-164412581D01*
X156554500Y-163625386D02*
X156554500Y-159729776D01*
X155204500Y-158374776D02*
X151439500Y-154609776D01*
X155388497Y-165462276D02*
X155767305Y-165083467D01*
X155204500Y-158379776D02*
X155204500Y-158374776D01*
%TD*%
%TA.AperFunction,Conductor*%
%TO.N,GND*%
G36*
X156644343Y-147410753D02*
G01*
X156776014Y-147423721D01*
X156795049Y-147427507D01*
X156916994Y-147464498D01*
X156934918Y-147471923D01*
X157047304Y-147531994D01*
X157063431Y-147542770D01*
X157132739Y-147599649D01*
X157161939Y-147623613D01*
X157175662Y-147637336D01*
X157256502Y-147735839D01*
X157267284Y-147751976D01*
X157327351Y-147864355D01*
X157334778Y-147882285D01*
X157371768Y-148004226D01*
X157375554Y-148023260D01*
X157388523Y-148154931D01*
X157389000Y-148164635D01*
X157389000Y-157164559D01*
X157370093Y-157222750D01*
X157320593Y-157258714D01*
X157259407Y-157258714D01*
X157209907Y-157222750D01*
X157205521Y-157215996D01*
X157204962Y-157215266D01*
X157149011Y-157159315D01*
X157149011Y-157159316D01*
X152809011Y-152819316D01*
X152809008Y-152819314D01*
X152740492Y-152779756D01*
X152740488Y-152779754D01*
X152664064Y-152759276D01*
X152664062Y-152759276D01*
X146061824Y-152759276D01*
X146003633Y-152740369D01*
X145967669Y-152690869D01*
X145967669Y-152629683D01*
X145973614Y-152615333D01*
X145983264Y-152596391D01*
X145983266Y-152596387D01*
X146053797Y-152379314D01*
X146089500Y-152153896D01*
X146089500Y-151925655D01*
X146053797Y-151700237D01*
X145983267Y-151483168D01*
X145879651Y-151279810D01*
X145879649Y-151279806D01*
X145751974Y-151104077D01*
X145251025Y-151605025D01*
X145222063Y-151561679D01*
X145117597Y-151457213D01*
X145074248Y-151428248D01*
X145575197Y-150927300D01*
X145399469Y-150799626D01*
X145399465Y-150799624D01*
X145196107Y-150696008D01*
X144979038Y-150625478D01*
X144753620Y-150589776D01*
X144525380Y-150589776D01*
X144299961Y-150625478D01*
X144082892Y-150696008D01*
X143879534Y-150799624D01*
X143879530Y-150799626D01*
X143703801Y-150927300D01*
X144204750Y-151428249D01*
X144161403Y-151457213D01*
X144056937Y-151561679D01*
X144027973Y-151605026D01*
X143527024Y-151104077D01*
X143399350Y-151279806D01*
X143399348Y-151279810D01*
X143295732Y-151483168D01*
X143225202Y-151700237D01*
X143189500Y-151925655D01*
X143189500Y-152153901D01*
X143189996Y-152157033D01*
X143180420Y-152217464D01*
X143137152Y-152260725D01*
X143076719Y-152270292D01*
X143022212Y-152242517D01*
X142889011Y-152109316D01*
X142885084Y-152107049D01*
X142885084Y-152107047D01*
X142885079Y-152107046D01*
X142831940Y-152076366D01*
X142820488Y-152069754D01*
X142744064Y-152049276D01*
X142744062Y-152049276D01*
X139429013Y-152049276D01*
X139370822Y-152030369D01*
X139334858Y-151980869D01*
X139333387Y-151975902D01*
X139330892Y-151966590D01*
X139265000Y-151852462D01*
X139171814Y-151759276D01*
X139171811Y-151759274D01*
X139171809Y-151759272D01*
X139057689Y-151693385D01*
X139057691Y-151693385D01*
X139008299Y-151680151D01*
X138930392Y-151659276D01*
X138798608Y-151659276D01*
X138720700Y-151680151D01*
X138671309Y-151693385D01*
X138557190Y-151759272D01*
X138463996Y-151852466D01*
X138398109Y-151966585D01*
X138398108Y-151966590D01*
X138364000Y-152093884D01*
X138364000Y-152225668D01*
X138375957Y-152270292D01*
X138398109Y-152352966D01*
X138463996Y-152467085D01*
X138463998Y-152467087D01*
X138464000Y-152467090D01*
X138557186Y-152560276D01*
X138557188Y-152560277D01*
X138557190Y-152560279D01*
X138671310Y-152626166D01*
X138671308Y-152626166D01*
X138671312Y-152626167D01*
X138671314Y-152626168D01*
X138798608Y-152660276D01*
X138798610Y-152660276D01*
X138930389Y-152660276D01*
X138930392Y-152660276D01*
X138965705Y-152650814D01*
X139008323Y-152650814D01*
X139008506Y-152649429D01*
X139014937Y-152650275D01*
X139014938Y-152650276D01*
X142539021Y-152650276D01*
X142597212Y-152669183D01*
X142609025Y-152679272D01*
X143704040Y-153774287D01*
X143704039Y-153774287D01*
X143759989Y-153830236D01*
X143828507Y-153869795D01*
X143828511Y-153869797D01*
X143904935Y-153890275D01*
X143904937Y-153890276D01*
X143904938Y-153890276D01*
X144610021Y-153890276D01*
X144668212Y-153909183D01*
X144704176Y-153958683D01*
X144704176Y-154019869D01*
X144680025Y-154059279D01*
X144644039Y-154095265D01*
X144604480Y-154163783D01*
X144604478Y-154163787D01*
X144584000Y-154240211D01*
X144584000Y-154841455D01*
X144565093Y-154899646D01*
X144555009Y-154911452D01*
X144518680Y-154947782D01*
X144483997Y-154982465D01*
X144483996Y-154982466D01*
X144418109Y-155096585D01*
X144407271Y-155137033D01*
X144384000Y-155223884D01*
X144384000Y-155355668D01*
X144396436Y-155402079D01*
X144418109Y-155482966D01*
X144483996Y-155597085D01*
X144483998Y-155597087D01*
X144484000Y-155597090D01*
X144577186Y-155690276D01*
X144577188Y-155690277D01*
X144577190Y-155690279D01*
X144691310Y-155756166D01*
X144691308Y-155756166D01*
X144691312Y-155756167D01*
X144691314Y-155756168D01*
X144818608Y-155790276D01*
X144818610Y-155790276D01*
X144950390Y-155790276D01*
X144950392Y-155790276D01*
X145077686Y-155756168D01*
X145077688Y-155756166D01*
X145077690Y-155756166D01*
X145191809Y-155690279D01*
X145191809Y-155690278D01*
X145191814Y-155690276D01*
X145285000Y-155597090D01*
X145350892Y-155482962D01*
X145385000Y-155355668D01*
X145385000Y-155223884D01*
X145350892Y-155096590D01*
X145350890Y-155096587D01*
X145350890Y-155096585D01*
X145285003Y-154982466D01*
X145285001Y-154982464D01*
X145285000Y-154982462D01*
X145213994Y-154911456D01*
X145186219Y-154856942D01*
X145185000Y-154841455D01*
X145185000Y-154445255D01*
X145187468Y-154437657D01*
X145186219Y-154429768D01*
X145196743Y-154409112D01*
X145203907Y-154387064D01*
X145213996Y-154375251D01*
X145269975Y-154319272D01*
X145324492Y-154291495D01*
X145339979Y-154290276D01*
X145486780Y-154290276D01*
X145486780Y-154290275D01*
X145563206Y-154269797D01*
X145631728Y-154230236D01*
X145687677Y-154174287D01*
X145687676Y-154174287D01*
X146072693Y-153789272D01*
X146127209Y-153761495D01*
X146142696Y-153760276D01*
X147889021Y-153760276D01*
X147947212Y-153779183D01*
X147959025Y-153789272D01*
X148195339Y-154025586D01*
X148223116Y-154080103D01*
X148213545Y-154140535D01*
X148174835Y-154181326D01*
X148077126Y-154237738D01*
X147983932Y-154330932D01*
X147918045Y-154445051D01*
X147904497Y-154495615D01*
X147883936Y-154572350D01*
X147883936Y-154704134D01*
X147896842Y-154752301D01*
X147906110Y-154786890D01*
X147902907Y-154847991D01*
X147864402Y-154895541D01*
X147805301Y-154911376D01*
X147797565Y-154910666D01*
X147795621Y-154910410D01*
X147787006Y-154909276D01*
X147491994Y-154909276D01*
X147491993Y-154909276D01*
X147199513Y-154947782D01*
X147199511Y-154947782D01*
X147199507Y-154947783D01*
X147048084Y-154988356D01*
X146914546Y-155024137D01*
X146642000Y-155137029D01*
X146386502Y-155284540D01*
X146152464Y-155464124D01*
X145943848Y-155672740D01*
X145764264Y-155906778D01*
X145616753Y-156162276D01*
X145503861Y-156434822D01*
X145427506Y-156719788D01*
X145420698Y-156771500D01*
X145394357Y-156826725D01*
X145340586Y-156855919D01*
X145279924Y-156847933D01*
X145252541Y-156828581D01*
X143765021Y-155341062D01*
X143765020Y-155341060D01*
X143653216Y-155229256D01*
X143653213Y-155229254D01*
X143554474Y-155172247D01*
X143554471Y-155172246D01*
X143516288Y-155150200D01*
X143516285Y-155150199D01*
X143363557Y-155109275D01*
X143205443Y-155109275D01*
X143199380Y-155109275D01*
X143199364Y-155109276D01*
X142201284Y-155109276D01*
X142143093Y-155090369D01*
X142131282Y-155080281D01*
X142103218Y-155052218D01*
X142103216Y-155052216D01*
X141966284Y-154973159D01*
X141813557Y-154932236D01*
X141655443Y-154932236D01*
X141502716Y-154973159D01*
X141365784Y-155052216D01*
X141253980Y-155164020D01*
X141174923Y-155300952D01*
X141160263Y-155355666D01*
X141134000Y-155453680D01*
X141134000Y-161110033D01*
X141115093Y-161168224D01*
X141105003Y-161180037D01*
X140755785Y-161529253D01*
X140755786Y-161529254D01*
X140755784Y-161529256D01*
X140755783Y-161529255D01*
X140643979Y-161641060D01*
X140598244Y-161720276D01*
X140564925Y-161777985D01*
X140564923Y-161777989D01*
X140564923Y-161777991D01*
X140523999Y-161930719D01*
X140523999Y-162088833D01*
X140564923Y-162241561D01*
X140564924Y-162241563D01*
X140589614Y-162284326D01*
X140589615Y-162284329D01*
X140632918Y-162359332D01*
X140643980Y-162378492D01*
X140755784Y-162490296D01*
X140755786Y-162490297D01*
X140755789Y-162490300D01*
X140755788Y-162490300D01*
X140842591Y-162540413D01*
X140842593Y-162540415D01*
X140842594Y-162540415D01*
X140871532Y-162557122D01*
X140892715Y-162569353D01*
X141045443Y-162610277D01*
X141045444Y-162610277D01*
X141203556Y-162610277D01*
X141203557Y-162610277D01*
X141356285Y-162569353D01*
X141406404Y-162540415D01*
X141493216Y-162490296D01*
X141605020Y-162378492D01*
X141605021Y-162378489D01*
X142103213Y-161880297D01*
X142103216Y-161880296D01*
X142215020Y-161768492D01*
X142277668Y-161659982D01*
X142294077Y-161631561D01*
X142335000Y-161478834D01*
X142335000Y-161320719D01*
X142335000Y-156409276D01*
X142353907Y-156351085D01*
X142403407Y-156315121D01*
X142434000Y-156310276D01*
X142994757Y-156310276D01*
X143052948Y-156329183D01*
X143064761Y-156339272D01*
X144315004Y-157589515D01*
X144342781Y-157644032D01*
X144344000Y-157659519D01*
X144344000Y-158134639D01*
X144343999Y-158134657D01*
X144343999Y-158140719D01*
X144343999Y-158298833D01*
X144374529Y-158412770D01*
X144384923Y-158451560D01*
X144384925Y-158451564D01*
X144413860Y-158501681D01*
X144413861Y-158501681D01*
X144463980Y-158588492D01*
X144575784Y-158700296D01*
X144575786Y-158700297D01*
X146325003Y-160449514D01*
X146352780Y-160504031D01*
X146353999Y-160519518D01*
X146353999Y-160590915D01*
X146393764Y-160739316D01*
X146394924Y-160743645D01*
X146418908Y-160785185D01*
X146418909Y-160785188D01*
X146470116Y-160873882D01*
X146473980Y-160880574D01*
X146535005Y-160941599D01*
X146562781Y-160996114D01*
X146564000Y-161011601D01*
X146564000Y-161528833D01*
X146604923Y-161681560D01*
X146683980Y-161818492D01*
X146755005Y-161889517D01*
X146782781Y-161944032D01*
X146784000Y-161959519D01*
X146784000Y-163223920D01*
X146807886Y-163313064D01*
X146854030Y-163392988D01*
X146854031Y-163392989D01*
X146854032Y-163392990D01*
X147296030Y-163834987D01*
X147296031Y-163834989D01*
X147361287Y-163900244D01*
X147361289Y-163900246D01*
X147385179Y-163914039D01*
X147441212Y-163946390D01*
X147530356Y-163970276D01*
X148468925Y-163970276D01*
X148527116Y-163989183D01*
X148555850Y-164021894D01*
X148563075Y-164035149D01*
X148565633Y-164048007D01*
X148589794Y-164084166D01*
X148591925Y-164088075D01*
X148595620Y-164107834D01*
X148604000Y-164135457D01*
X148604000Y-164367728D01*
X148585093Y-164425919D01*
X148575004Y-164437731D01*
X148531276Y-164481459D01*
X148531274Y-164481462D01*
X148480529Y-164590286D01*
X148480528Y-164590287D01*
X148474000Y-164639876D01*
X148474000Y-165059672D01*
X148474001Y-165059683D01*
X148480527Y-165109262D01*
X148480527Y-165109264D01*
X148531274Y-165218089D01*
X148531275Y-165218090D01*
X148531276Y-165218092D01*
X148616184Y-165303000D01*
X148725013Y-165353748D01*
X148774599Y-165360276D01*
X149134400Y-165360275D01*
X149183987Y-165353748D01*
X149183988Y-165353748D01*
X149242637Y-165326398D01*
X149292816Y-165303000D01*
X149364852Y-165230963D01*
X149419367Y-165203188D01*
X149479799Y-165212759D01*
X149504858Y-165230965D01*
X149576478Y-165302585D01*
X149685138Y-165353254D01*
X149685145Y-165353256D01*
X149734661Y-165359776D01*
X149789499Y-165359776D01*
X149789500Y-165359775D01*
X150039500Y-165359775D01*
X150039501Y-165359776D01*
X150094338Y-165359776D01*
X150143854Y-165353256D01*
X150143861Y-165353254D01*
X150252521Y-165302585D01*
X150337309Y-165217797D01*
X150387978Y-165109137D01*
X150387980Y-165109130D01*
X150394500Y-165059614D01*
X150394500Y-164974777D01*
X150394499Y-164974776D01*
X150039500Y-164974776D01*
X150039500Y-165359775D01*
X149789500Y-165359775D01*
X149789500Y-164948776D01*
X149794345Y-164933864D01*
X149794345Y-164918183D01*
X149803561Y-164905497D01*
X149807329Y-164893903D01*
X151787148Y-164893903D01*
X151830803Y-164919107D01*
X151945257Y-164949776D01*
X152063743Y-164949776D01*
X152178192Y-164919108D01*
X152178199Y-164919106D01*
X152221849Y-164893903D01*
X152787148Y-164893903D01*
X152830803Y-164919107D01*
X152945257Y-164949776D01*
X153063743Y-164949776D01*
X153178192Y-164919108D01*
X153178199Y-164919106D01*
X153221849Y-164893903D01*
X153787148Y-164893903D01*
X153830803Y-164919107D01*
X153945257Y-164949776D01*
X154063743Y-164949776D01*
X154178192Y-164919108D01*
X154178199Y-164919106D01*
X154221849Y-164893903D01*
X154221850Y-164893902D01*
X154004500Y-164676552D01*
X153787149Y-164893903D01*
X153787148Y-164893903D01*
X153221849Y-164893903D01*
X153221850Y-164893902D01*
X153004500Y-164676552D01*
X152787149Y-164893903D01*
X152787148Y-164893903D01*
X152221849Y-164893903D01*
X152221850Y-164893902D01*
X152004500Y-164676552D01*
X151787149Y-164893903D01*
X151787148Y-164893903D01*
X149807329Y-164893903D01*
X149808407Y-164890585D01*
X149821092Y-164881368D01*
X149830309Y-164868683D01*
X149845221Y-164863837D01*
X149857907Y-164854621D01*
X149888500Y-164849776D01*
X149914500Y-164849776D01*
X149914500Y-164823776D01*
X149933407Y-164765585D01*
X149982907Y-164729621D01*
X150013500Y-164724776D01*
X150394499Y-164724776D01*
X150394500Y-164724775D01*
X150394500Y-164639937D01*
X150387980Y-164590421D01*
X150387978Y-164590414D01*
X150337309Y-164481754D01*
X150296087Y-164440532D01*
X151554500Y-164440532D01*
X151554500Y-164559019D01*
X151585168Y-164673474D01*
X151610370Y-164717125D01*
X151610371Y-164717126D01*
X151827722Y-164499776D01*
X151797885Y-164469939D01*
X151854500Y-164469939D01*
X151854500Y-164529613D01*
X151877336Y-164584744D01*
X151919532Y-164626940D01*
X151974663Y-164649776D01*
X152034337Y-164649776D01*
X152089468Y-164626940D01*
X152131664Y-164584744D01*
X152154500Y-164529613D01*
X152154500Y-164499776D01*
X152181276Y-164499776D01*
X152398626Y-164717125D01*
X152418763Y-164682249D01*
X152464233Y-164641308D01*
X152525084Y-164634914D01*
X152578071Y-164665507D01*
X152590235Y-164682250D01*
X152610370Y-164717125D01*
X152610371Y-164717126D01*
X152827722Y-164499776D01*
X152797885Y-164469939D01*
X152854500Y-164469939D01*
X152854500Y-164529613D01*
X152877336Y-164584744D01*
X152919532Y-164626940D01*
X152974663Y-164649776D01*
X153034337Y-164649776D01*
X153089468Y-164626940D01*
X153131664Y-164584744D01*
X153154500Y-164529613D01*
X153154500Y-164499776D01*
X153181276Y-164499776D01*
X153398626Y-164717125D01*
X153418763Y-164682249D01*
X153464233Y-164641308D01*
X153525084Y-164634914D01*
X153578071Y-164665507D01*
X153590235Y-164682250D01*
X153610370Y-164717125D01*
X153610371Y-164717126D01*
X153827722Y-164499776D01*
X153797885Y-164469939D01*
X153854500Y-164469939D01*
X153854500Y-164529613D01*
X153877336Y-164584744D01*
X153919532Y-164626940D01*
X153974663Y-164649776D01*
X154034337Y-164649776D01*
X154089468Y-164626940D01*
X154131664Y-164584744D01*
X154154500Y-164529613D01*
X154154500Y-164499776D01*
X154181276Y-164499776D01*
X154398626Y-164717126D01*
X154398627Y-164717125D01*
X154423830Y-164673475D01*
X154423832Y-164673468D01*
X154454500Y-164559019D01*
X154454500Y-164440532D01*
X154423831Y-164326079D01*
X154398627Y-164282425D01*
X154181276Y-164499776D01*
X154154500Y-164499776D01*
X154154500Y-164469939D01*
X154131664Y-164414808D01*
X154089468Y-164372612D01*
X154034337Y-164349776D01*
X153974663Y-164349776D01*
X153919532Y-164372612D01*
X153877336Y-164414808D01*
X153854500Y-164469939D01*
X153797885Y-164469939D01*
X153610372Y-164282426D01*
X153590237Y-164317301D01*
X153544767Y-164358242D01*
X153483917Y-164364638D01*
X153430929Y-164334045D01*
X153418764Y-164317302D01*
X153398627Y-164282425D01*
X153181276Y-164499776D01*
X153154500Y-164499776D01*
X153154500Y-164469939D01*
X153131664Y-164414808D01*
X153089468Y-164372612D01*
X153034337Y-164349776D01*
X152974663Y-164349776D01*
X152919532Y-164372612D01*
X152877336Y-164414808D01*
X152854500Y-164469939D01*
X152797885Y-164469939D01*
X152610372Y-164282426D01*
X152590237Y-164317301D01*
X152544767Y-164358242D01*
X152483917Y-164364638D01*
X152430929Y-164334045D01*
X152418764Y-164317302D01*
X152398627Y-164282425D01*
X152181276Y-164499776D01*
X152154500Y-164499776D01*
X152154500Y-164469939D01*
X152131664Y-164414808D01*
X152089468Y-164372612D01*
X152034337Y-164349776D01*
X151974663Y-164349776D01*
X151919532Y-164372612D01*
X151877336Y-164414808D01*
X151854500Y-164469939D01*
X151797885Y-164469939D01*
X151610372Y-164282426D01*
X151585167Y-164326082D01*
X151554500Y-164440532D01*
X150296087Y-164440532D01*
X150252521Y-164396966D01*
X150171103Y-164359000D01*
X150126355Y-164317272D01*
X150114680Y-164257211D01*
X150140538Y-164201758D01*
X150194052Y-164172095D01*
X150212942Y-164170276D01*
X150574247Y-164170276D01*
X150574248Y-164170276D01*
X150632731Y-164158643D01*
X150699052Y-164114328D01*
X150743367Y-164048007D01*
X150755000Y-163989524D01*
X150755000Y-163893903D01*
X151787148Y-163893903D01*
X151822026Y-163914040D01*
X151862967Y-163959510D01*
X151869361Y-164020361D01*
X151856061Y-164052906D01*
X151808767Y-164127265D01*
X152004500Y-164322998D01*
X152200232Y-164127266D01*
X152152938Y-164052904D01*
X152151061Y-164045627D01*
X152146033Y-164040042D01*
X152143562Y-164016539D01*
X152137663Y-163993656D01*
X152140422Y-163986665D01*
X152139637Y-163979191D01*
X152151454Y-163958723D01*
X152160131Y-163936745D01*
X152166471Y-163932712D01*
X152170230Y-163926203D01*
X152186973Y-163914039D01*
X152221848Y-163893903D01*
X152787148Y-163893903D01*
X152822026Y-163914040D01*
X152862967Y-163959510D01*
X152869361Y-164020361D01*
X152856061Y-164052906D01*
X152808767Y-164127265D01*
X153004500Y-164322998D01*
X153200232Y-164127266D01*
X153152938Y-164052904D01*
X153151061Y-164045627D01*
X153146033Y-164040042D01*
X153143562Y-164016539D01*
X153137663Y-163993656D01*
X153140422Y-163986665D01*
X153139637Y-163979191D01*
X153151454Y-163958723D01*
X153160131Y-163936745D01*
X153166471Y-163932712D01*
X153170230Y-163926203D01*
X153186973Y-163914039D01*
X153221848Y-163893903D01*
X153787148Y-163893903D01*
X153822026Y-163914040D01*
X153862967Y-163959510D01*
X153869361Y-164020361D01*
X153856061Y-164052906D01*
X153808767Y-164127265D01*
X154004500Y-164322998D01*
X154221850Y-164105647D01*
X154221849Y-164105646D01*
X154186974Y-164085511D01*
X154146033Y-164040042D01*
X154139637Y-163979191D01*
X154170230Y-163926203D01*
X154186973Y-163914039D01*
X154221850Y-163893902D01*
X154004500Y-163676552D01*
X153787149Y-163893903D01*
X153787148Y-163893903D01*
X153221848Y-163893903D01*
X153221850Y-163893902D01*
X153004500Y-163676552D01*
X152787149Y-163893903D01*
X152787148Y-163893903D01*
X152221848Y-163893903D01*
X152221850Y-163893902D01*
X152004500Y-163676552D01*
X151787149Y-163893903D01*
X151787148Y-163893903D01*
X150755000Y-163893903D01*
X150755000Y-163440532D01*
X151554500Y-163440532D01*
X151554500Y-163559019D01*
X151585168Y-163673474D01*
X151610370Y-163717125D01*
X151610371Y-163717126D01*
X151827722Y-163499776D01*
X151797885Y-163469939D01*
X151854500Y-163469939D01*
X151854500Y-163529613D01*
X151877336Y-163584744D01*
X151919532Y-163626940D01*
X151974663Y-163649776D01*
X152034337Y-163649776D01*
X152089468Y-163626940D01*
X152131664Y-163584744D01*
X152154500Y-163529613D01*
X152154500Y-163499776D01*
X152181276Y-163499776D01*
X152398626Y-163717125D01*
X152418763Y-163682249D01*
X152464233Y-163641308D01*
X152525084Y-163634914D01*
X152578071Y-163665507D01*
X152590235Y-163682250D01*
X152610370Y-163717125D01*
X152610371Y-163717126D01*
X152827722Y-163499776D01*
X152797885Y-163469939D01*
X152854500Y-163469939D01*
X152854500Y-163529613D01*
X152877336Y-163584744D01*
X152919532Y-163626940D01*
X152974663Y-163649776D01*
X153034337Y-163649776D01*
X153089468Y-163626940D01*
X153131664Y-163584744D01*
X153154500Y-163529613D01*
X153154500Y-163499776D01*
X153181276Y-163499776D01*
X153398626Y-163717125D01*
X153418763Y-163682249D01*
X153464233Y-163641308D01*
X153525084Y-163634914D01*
X153578071Y-163665507D01*
X153590235Y-163682250D01*
X153610370Y-163717125D01*
X153610371Y-163717126D01*
X153827722Y-163499776D01*
X153797885Y-163469939D01*
X153854500Y-163469939D01*
X153854500Y-163529613D01*
X153877336Y-163584744D01*
X153919532Y-163626940D01*
X153974663Y-163649776D01*
X154034337Y-163649776D01*
X154089468Y-163626940D01*
X154131664Y-163584744D01*
X154154500Y-163529613D01*
X154154500Y-163499776D01*
X154181276Y-163499776D01*
X154398626Y-163717126D01*
X154398627Y-163717125D01*
X154423830Y-163673475D01*
X154423832Y-163673468D01*
X154454500Y-163559019D01*
X154454500Y-163440532D01*
X154423831Y-163326079D01*
X154398627Y-163282425D01*
X154181276Y-163499776D01*
X154154500Y-163499776D01*
X154154500Y-163469939D01*
X154131664Y-163414808D01*
X154089468Y-163372612D01*
X154034337Y-163349776D01*
X153974663Y-163349776D01*
X153919532Y-163372612D01*
X153877336Y-163414808D01*
X153854500Y-163469939D01*
X153797885Y-163469939D01*
X153610372Y-163282426D01*
X153590237Y-163317301D01*
X153544767Y-163358242D01*
X153483917Y-163364638D01*
X153430929Y-163334045D01*
X153418764Y-163317302D01*
X153398627Y-163282425D01*
X153181276Y-163499776D01*
X153154500Y-163499776D01*
X153154500Y-163469939D01*
X153131664Y-163414808D01*
X153089468Y-163372612D01*
X153034337Y-163349776D01*
X152974663Y-163349776D01*
X152919532Y-163372612D01*
X152877336Y-163414808D01*
X152854500Y-163469939D01*
X152797885Y-163469939D01*
X152610372Y-163282426D01*
X152590237Y-163317301D01*
X152544767Y-163358242D01*
X152483917Y-163364638D01*
X152430929Y-163334045D01*
X152418764Y-163317302D01*
X152398627Y-163282425D01*
X152181276Y-163499776D01*
X152154500Y-163499776D01*
X152154500Y-163469939D01*
X152131664Y-163414808D01*
X152089468Y-163372612D01*
X152034337Y-163349776D01*
X151974663Y-163349776D01*
X151919532Y-163372612D01*
X151877336Y-163414808D01*
X151854500Y-163469939D01*
X151797885Y-163469939D01*
X151610372Y-163282426D01*
X151585167Y-163326082D01*
X151554500Y-163440532D01*
X150755000Y-163440532D01*
X150755000Y-163250028D01*
X150743367Y-163191545D01*
X150699052Y-163125224D01*
X150694805Y-163122386D01*
X150632733Y-163080910D01*
X150632731Y-163080909D01*
X150632728Y-163080908D01*
X150632727Y-163080908D01*
X150574258Y-163069277D01*
X150574248Y-163069276D01*
X150574247Y-163069276D01*
X150279979Y-163069276D01*
X150221788Y-163050369D01*
X150209975Y-163040280D01*
X150063598Y-162893903D01*
X151787148Y-162893903D01*
X151822026Y-162914040D01*
X151862967Y-162959510D01*
X151869361Y-163020361D01*
X151856061Y-163052906D01*
X151808767Y-163127265D01*
X152004500Y-163322998D01*
X152200232Y-163127266D01*
X152152938Y-163052904D01*
X152151061Y-163045627D01*
X152146033Y-163040042D01*
X152143562Y-163016539D01*
X152137663Y-162993656D01*
X152140422Y-162986665D01*
X152139637Y-162979191D01*
X152151454Y-162958723D01*
X152160131Y-162936745D01*
X152166471Y-162932712D01*
X152170230Y-162926203D01*
X152186973Y-162914039D01*
X152221848Y-162893903D01*
X152787148Y-162893903D01*
X152822026Y-162914040D01*
X152862967Y-162959510D01*
X152869361Y-163020361D01*
X152856061Y-163052906D01*
X152808767Y-163127265D01*
X153004500Y-163322998D01*
X153200232Y-163127266D01*
X153152938Y-163052904D01*
X153151061Y-163045627D01*
X153146033Y-163040042D01*
X153143562Y-163016539D01*
X153137663Y-162993656D01*
X153140422Y-162986665D01*
X153139637Y-162979191D01*
X153151454Y-162958723D01*
X153160131Y-162936745D01*
X153166471Y-162932712D01*
X153170230Y-162926203D01*
X153186973Y-162914039D01*
X153221848Y-162893903D01*
X153787148Y-162893903D01*
X153822026Y-162914040D01*
X153862967Y-162959510D01*
X153869361Y-163020361D01*
X153856061Y-163052906D01*
X153808767Y-163127265D01*
X154004500Y-163322998D01*
X154221850Y-163105647D01*
X154221849Y-163105646D01*
X154186974Y-163085511D01*
X154146033Y-163040042D01*
X154139637Y-162979191D01*
X154170230Y-162926203D01*
X154186973Y-162914039D01*
X154221850Y-162893902D01*
X154004500Y-162676552D01*
X153787149Y-162893903D01*
X153787148Y-162893903D01*
X153221848Y-162893903D01*
X153221850Y-162893902D01*
X153004500Y-162676552D01*
X152787149Y-162893903D01*
X152787148Y-162893903D01*
X152221848Y-162893903D01*
X152221850Y-162893902D01*
X152004500Y-162676552D01*
X151787149Y-162893903D01*
X151787148Y-162893903D01*
X150063598Y-162893903D01*
X149976040Y-162806345D01*
X149629011Y-162459316D01*
X149602568Y-162444049D01*
X149598426Y-162440532D01*
X151554500Y-162440532D01*
X151554500Y-162559019D01*
X151585168Y-162673474D01*
X151610370Y-162717125D01*
X151610371Y-162717126D01*
X151827722Y-162499776D01*
X151797885Y-162469939D01*
X151854500Y-162469939D01*
X151854500Y-162529613D01*
X151877336Y-162584744D01*
X151919532Y-162626940D01*
X151974663Y-162649776D01*
X152034337Y-162649776D01*
X152089468Y-162626940D01*
X152131664Y-162584744D01*
X152154500Y-162529613D01*
X152154500Y-162499776D01*
X152181276Y-162499776D01*
X152398626Y-162717125D01*
X152418763Y-162682249D01*
X152464233Y-162641308D01*
X152525084Y-162634914D01*
X152578071Y-162665507D01*
X152590235Y-162682250D01*
X152610370Y-162717125D01*
X152610371Y-162717126D01*
X152827722Y-162499776D01*
X152797885Y-162469939D01*
X152854500Y-162469939D01*
X152854500Y-162529613D01*
X152877336Y-162584744D01*
X152919532Y-162626940D01*
X152974663Y-162649776D01*
X153034337Y-162649776D01*
X153089468Y-162626940D01*
X153131664Y-162584744D01*
X153154500Y-162529613D01*
X153154500Y-162499776D01*
X153181276Y-162499776D01*
X153398626Y-162717125D01*
X153418763Y-162682249D01*
X153464233Y-162641308D01*
X153525084Y-162634914D01*
X153578071Y-162665507D01*
X153590235Y-162682250D01*
X153610370Y-162717125D01*
X153610371Y-162717126D01*
X153827722Y-162499776D01*
X153797885Y-162469939D01*
X153854500Y-162469939D01*
X153854500Y-162529613D01*
X153877336Y-162584744D01*
X153919532Y-162626940D01*
X153974663Y-162649776D01*
X154034337Y-162649776D01*
X154089468Y-162626940D01*
X154131664Y-162584744D01*
X154154500Y-162529613D01*
X154154500Y-162499776D01*
X154181276Y-162499776D01*
X154398626Y-162717126D01*
X154398627Y-162717125D01*
X154423830Y-162673475D01*
X154423832Y-162673468D01*
X154454500Y-162559019D01*
X154454500Y-162440532D01*
X154423831Y-162326079D01*
X154398627Y-162282425D01*
X154181276Y-162499776D01*
X154154500Y-162499776D01*
X154154500Y-162469939D01*
X154131664Y-162414808D01*
X154089468Y-162372612D01*
X154034337Y-162349776D01*
X153974663Y-162349776D01*
X153919532Y-162372612D01*
X153877336Y-162414808D01*
X153854500Y-162469939D01*
X153797885Y-162469939D01*
X153610372Y-162282426D01*
X153590237Y-162317301D01*
X153544767Y-162358242D01*
X153483917Y-162364638D01*
X153430929Y-162334045D01*
X153418764Y-162317302D01*
X153398627Y-162282425D01*
X153181276Y-162499776D01*
X153154500Y-162499776D01*
X153154500Y-162469939D01*
X153131664Y-162414808D01*
X153089468Y-162372612D01*
X153034337Y-162349776D01*
X152974663Y-162349776D01*
X152919532Y-162372612D01*
X152877336Y-162414808D01*
X152854500Y-162469939D01*
X152797885Y-162469939D01*
X152610372Y-162282426D01*
X152590237Y-162317301D01*
X152544767Y-162358242D01*
X152483917Y-162364638D01*
X152430929Y-162334045D01*
X152418764Y-162317302D01*
X152398627Y-162282425D01*
X152181276Y-162499776D01*
X152154500Y-162499776D01*
X152154500Y-162469939D01*
X152131664Y-162414808D01*
X152089468Y-162372612D01*
X152034337Y-162349776D01*
X151974663Y-162349776D01*
X151919532Y-162372612D01*
X151877336Y-162414808D01*
X151854500Y-162469939D01*
X151797885Y-162469939D01*
X151610372Y-162282426D01*
X151585167Y-162326082D01*
X151554500Y-162440532D01*
X149598426Y-162440532D01*
X149595746Y-162438257D01*
X149584152Y-162419462D01*
X149569380Y-162403055D01*
X149568424Y-162393964D01*
X149563624Y-162386182D01*
X149565292Y-162364159D01*
X149562985Y-162342205D01*
X149567555Y-162334289D01*
X149568246Y-162325171D01*
X149582539Y-162308336D01*
X149592323Y-162291388D01*
X149592157Y-162291222D01*
X149592780Y-162290598D01*
X149593578Y-162289217D01*
X149596204Y-162287174D01*
X149599045Y-162284332D01*
X149599052Y-162284328D01*
X149643367Y-162218007D01*
X149655000Y-162159524D01*
X149655000Y-162105648D01*
X151787150Y-162105648D01*
X152004500Y-162322998D01*
X152221849Y-162105648D01*
X152787150Y-162105648D01*
X153004500Y-162322998D01*
X153221849Y-162105648D01*
X153787150Y-162105648D01*
X154004500Y-162322998D01*
X154221850Y-162105647D01*
X154221849Y-162105646D01*
X154178197Y-162080444D01*
X154178198Y-162080444D01*
X154063743Y-162049776D01*
X153945257Y-162049776D01*
X153830806Y-162080443D01*
X153787150Y-162105648D01*
X153221849Y-162105648D01*
X153221850Y-162105647D01*
X153178197Y-162080444D01*
X153178198Y-162080444D01*
X153063743Y-162049776D01*
X152945257Y-162049776D01*
X152830806Y-162080443D01*
X152787150Y-162105648D01*
X152221849Y-162105648D01*
X152221850Y-162105647D01*
X152178197Y-162080444D01*
X152178198Y-162080444D01*
X152063743Y-162049776D01*
X151945257Y-162049776D01*
X151830806Y-162080443D01*
X151787150Y-162105648D01*
X149655000Y-162105648D01*
X149655000Y-161468468D01*
X149673907Y-161410277D01*
X149723407Y-161374313D01*
X149784593Y-161374313D01*
X149803497Y-161382730D01*
X149844089Y-161406166D01*
X149971383Y-161440274D01*
X149971385Y-161440274D01*
X150103165Y-161440274D01*
X150103167Y-161440274D01*
X150230461Y-161406166D01*
X150230463Y-161406164D01*
X150230465Y-161406164D01*
X150344584Y-161340277D01*
X150344584Y-161340276D01*
X150344589Y-161340274D01*
X150437775Y-161247088D01*
X150451228Y-161223787D01*
X150503665Y-161132964D01*
X150503665Y-161132962D01*
X150503667Y-161132960D01*
X150537775Y-161005666D01*
X150537775Y-160873882D01*
X150503667Y-160746588D01*
X150503665Y-160746585D01*
X150503665Y-160746583D01*
X150437778Y-160632464D01*
X150437776Y-160632462D01*
X150437775Y-160632460D01*
X150344589Y-160539274D01*
X150344586Y-160539272D01*
X150344584Y-160539270D01*
X150230464Y-160473383D01*
X150230460Y-160473381D01*
X150205727Y-160466754D01*
X150154413Y-160433430D01*
X150132487Y-160376308D01*
X150135724Y-160345508D01*
X150145685Y-160308335D01*
X150145685Y-160176551D01*
X150138764Y-160150719D01*
X150138373Y-160149261D01*
X150135000Y-160123639D01*
X150135000Y-159318821D01*
X150153907Y-159260630D01*
X150203407Y-159224666D01*
X150221087Y-159220667D01*
X150224053Y-159220276D01*
X150224062Y-159220276D01*
X150300489Y-159199797D01*
X150369011Y-159160236D01*
X150404484Y-159124761D01*
X150424984Y-159109030D01*
X150457540Y-159090236D01*
X150513489Y-159034287D01*
X150574996Y-158972780D01*
X150629513Y-158945003D01*
X150689945Y-158954574D01*
X150733210Y-158997839D01*
X150744000Y-159042784D01*
X150744000Y-161352674D01*
X150738566Y-161379995D01*
X150739788Y-161380323D01*
X150738109Y-161386587D01*
X150738108Y-161386590D01*
X150704000Y-161513884D01*
X150704000Y-161645668D01*
X150724621Y-161722626D01*
X150738109Y-161772966D01*
X150803996Y-161887085D01*
X150803998Y-161887087D01*
X150804000Y-161887090D01*
X150897186Y-161980276D01*
X150897188Y-161980277D01*
X150897190Y-161980279D01*
X151011310Y-162046166D01*
X151011308Y-162046166D01*
X151011312Y-162046167D01*
X151011314Y-162046168D01*
X151138608Y-162080276D01*
X151138610Y-162080276D01*
X151270390Y-162080276D01*
X151270392Y-162080276D01*
X151397686Y-162046168D01*
X151397688Y-162046166D01*
X151397690Y-162046166D01*
X151511809Y-161980279D01*
X151511809Y-161980278D01*
X151511814Y-161980276D01*
X151605000Y-161887090D01*
X151620733Y-161859840D01*
X151670890Y-161772966D01*
X151670890Y-161772964D01*
X151670892Y-161772962D01*
X151705000Y-161645668D01*
X151705000Y-161513884D01*
X151670892Y-161386590D01*
X151670890Y-161386587D01*
X151670890Y-161386585D01*
X151605003Y-161272466D01*
X151605001Y-161272464D01*
X151605000Y-161272462D01*
X151511814Y-161179276D01*
X151511811Y-161179274D01*
X151394499Y-161111543D01*
X151353559Y-161066073D01*
X151345000Y-161025807D01*
X151345000Y-156410215D01*
X151345000Y-156410214D01*
X151324522Y-156333788D01*
X151324520Y-156333785D01*
X151324520Y-156333783D01*
X151284963Y-156265269D01*
X151284961Y-156265267D01*
X151284960Y-156265265D01*
X151248760Y-156229065D01*
X151220985Y-156174551D01*
X151230556Y-156114119D01*
X151273821Y-156070854D01*
X151321453Y-156061384D01*
X151321453Y-156060276D01*
X151553660Y-156060276D01*
X151779155Y-156024561D01*
X151779156Y-156024560D01*
X151779160Y-156024560D01*
X151996299Y-155954007D01*
X151996303Y-155954005D01*
X151996306Y-155954004D01*
X152172326Y-155864317D01*
X152232758Y-155854745D01*
X152287274Y-155882522D01*
X152287275Y-155882522D01*
X154947995Y-158543242D01*
X154963728Y-158563746D01*
X154964040Y-158564287D01*
X156225005Y-159825252D01*
X156252781Y-159879767D01*
X156254000Y-159895254D01*
X156254000Y-163459907D01*
X156235093Y-163518098D01*
X156225004Y-163529911D01*
X155582794Y-164172121D01*
X155582793Y-164172120D01*
X155526844Y-164228070D01*
X155487285Y-164296588D01*
X155487283Y-164296592D01*
X155466805Y-164373016D01*
X155466805Y-164862776D01*
X155447898Y-164920967D01*
X155398398Y-164956931D01*
X155367805Y-164961776D01*
X155322605Y-164961776D01*
X155254838Y-164979934D01*
X155195306Y-164995885D01*
X155081187Y-165061772D01*
X154987993Y-165154966D01*
X154922106Y-165269085D01*
X154903036Y-165340254D01*
X154887997Y-165396384D01*
X154887997Y-165528168D01*
X154891511Y-165541281D01*
X154922106Y-165655466D01*
X154987993Y-165769585D01*
X154987995Y-165769587D01*
X154987997Y-165769590D01*
X155081183Y-165862776D01*
X155081185Y-165862777D01*
X155081187Y-165862779D01*
X155195307Y-165928666D01*
X155195305Y-165928666D01*
X155195309Y-165928667D01*
X155195311Y-165928668D01*
X155322605Y-165962776D01*
X155322607Y-165962776D01*
X155454387Y-165962776D01*
X155454389Y-165962776D01*
X155581683Y-165928668D01*
X155581685Y-165928666D01*
X155581687Y-165928666D01*
X155695806Y-165862779D01*
X155695806Y-165862778D01*
X155695811Y-165862776D01*
X155788997Y-165769590D01*
X155789000Y-165769585D01*
X155854887Y-165655466D01*
X155854887Y-165655464D01*
X155854889Y-165655462D01*
X155888997Y-165528168D01*
X155888997Y-165441560D01*
X155907904Y-165383369D01*
X155957404Y-165347405D01*
X156018590Y-165347405D01*
X156068090Y-165383369D01*
X156083624Y-165415938D01*
X156086631Y-165427161D01*
X156152518Y-165541281D01*
X156152520Y-165541283D01*
X156152522Y-165541286D01*
X156245708Y-165634472D01*
X156245710Y-165634473D01*
X156245712Y-165634475D01*
X156359832Y-165700362D01*
X156359830Y-165700362D01*
X156359834Y-165700363D01*
X156359836Y-165700364D01*
X156487130Y-165734472D01*
X156487132Y-165734472D01*
X156618912Y-165734472D01*
X156618914Y-165734472D01*
X156746208Y-165700364D01*
X156746210Y-165700362D01*
X156746212Y-165700362D01*
X156860331Y-165634475D01*
X156860331Y-165634474D01*
X156860336Y-165634472D01*
X156953522Y-165541286D01*
X157019414Y-165427158D01*
X157053522Y-165299864D01*
X157053522Y-165199449D01*
X157055755Y-165192575D01*
X157054516Y-165185455D01*
X157064663Y-165165159D01*
X157072429Y-165141258D01*
X157081459Y-165130521D01*
X157081968Y-165129995D01*
X157204960Y-165007005D01*
X157210397Y-164997587D01*
X157218937Y-164988783D01*
X157235666Y-164979934D01*
X157249727Y-164967273D01*
X157262058Y-164965975D01*
X157273023Y-164960177D01*
X157291758Y-164962852D01*
X157310576Y-164960873D01*
X157321316Y-164967072D01*
X157333594Y-164968826D01*
X157347177Y-164982001D01*
X157363567Y-164991462D01*
X157368612Y-165002791D01*
X157377514Y-165011426D01*
X157380758Y-165030068D01*
X157388457Y-165047356D01*
X157389000Y-165057711D01*
X157389000Y-166154916D01*
X157388523Y-166164620D01*
X157375554Y-166296291D01*
X157371768Y-166315325D01*
X157334778Y-166437266D01*
X157327351Y-166455196D01*
X157267284Y-166567575D01*
X157256502Y-166583712D01*
X157175662Y-166682215D01*
X157161939Y-166695938D01*
X157063436Y-166776778D01*
X157047299Y-166787560D01*
X156934920Y-166847627D01*
X156916990Y-166855054D01*
X156795049Y-166892044D01*
X156776015Y-166895830D01*
X156655723Y-166907678D01*
X156644342Y-166908799D01*
X156634640Y-166909276D01*
X138644360Y-166909276D01*
X138634657Y-166908799D01*
X138621895Y-166907542D01*
X138502984Y-166895830D01*
X138483950Y-166892044D01*
X138362009Y-166855054D01*
X138344079Y-166847627D01*
X138231700Y-166787560D01*
X138215565Y-166776779D01*
X138166311Y-166736358D01*
X138117060Y-166695938D01*
X138103337Y-166682215D01*
X138079373Y-166653015D01*
X138022494Y-166583707D01*
X138011718Y-166567580D01*
X137951647Y-166455194D01*
X137944221Y-166437266D01*
X137907231Y-166315325D01*
X137903445Y-166296290D01*
X137890477Y-166164619D01*
X137890000Y-166154916D01*
X137890000Y-163405461D01*
X144832500Y-163405461D01*
X144832500Y-163554090D01*
X144861494Y-163699854D01*
X144918370Y-163837165D01*
X145000938Y-163960738D01*
X145000941Y-163960742D01*
X145106034Y-164065835D01*
X145229610Y-164148405D01*
X145366920Y-164205281D01*
X145512688Y-164234276D01*
X145512689Y-164234276D01*
X145661311Y-164234276D01*
X145661312Y-164234276D01*
X145807080Y-164205281D01*
X145944390Y-164148405D01*
X146067966Y-164065835D01*
X146173059Y-163960742D01*
X146255629Y-163837166D01*
X146312505Y-163699856D01*
X146341500Y-163554088D01*
X146341500Y-163405464D01*
X146312505Y-163259696D01*
X146255629Y-163122386D01*
X146173059Y-162998810D01*
X146067966Y-162893717D01*
X146067960Y-162893713D01*
X146020183Y-162861790D01*
X145982303Y-162813740D01*
X145979901Y-162752602D01*
X146013893Y-162701728D01*
X146020183Y-162697158D01*
X146024631Y-162694185D01*
X145692528Y-162362082D01*
X145702796Y-162359332D01*
X145771205Y-162319836D01*
X145827060Y-162263981D01*
X145866556Y-162195572D01*
X145869306Y-162185304D01*
X146201410Y-162517408D01*
X146255187Y-162436926D01*
X146312023Y-162299711D01*
X146312023Y-162299709D01*
X146340999Y-162154040D01*
X146341000Y-162154036D01*
X146341000Y-162005515D01*
X146340999Y-162005511D01*
X146312023Y-161859842D01*
X146312023Y-161859840D01*
X146255187Y-161722626D01*
X146201410Y-161642142D01*
X145869306Y-161974245D01*
X145866556Y-161963980D01*
X145827060Y-161895571D01*
X145771205Y-161839716D01*
X145702796Y-161800220D01*
X145692527Y-161797468D01*
X146024632Y-161465364D01*
X145944160Y-161411593D01*
X145944148Y-161411587D01*
X145806934Y-161354752D01*
X145661264Y-161325776D01*
X145512735Y-161325776D01*
X145367066Y-161354752D01*
X145367064Y-161354752D01*
X145229849Y-161411588D01*
X145149366Y-161465364D01*
X145481471Y-161797469D01*
X145471204Y-161800220D01*
X145402795Y-161839716D01*
X145346940Y-161895571D01*
X145307444Y-161963980D01*
X145304693Y-161974247D01*
X144972588Y-161642142D01*
X144918812Y-161722625D01*
X144861976Y-161859840D01*
X144861976Y-161859842D01*
X144833000Y-162005511D01*
X144833000Y-162154040D01*
X144861976Y-162299709D01*
X144861976Y-162299711D01*
X144918811Y-162436924D01*
X144918817Y-162436936D01*
X144972588Y-162517408D01*
X145304692Y-162185303D01*
X145307444Y-162195572D01*
X145346940Y-162263981D01*
X145402795Y-162319836D01*
X145471204Y-162359332D01*
X145481469Y-162362082D01*
X145149366Y-162694186D01*
X145153814Y-162697158D01*
X145191694Y-162745207D01*
X145194097Y-162806345D01*
X145160105Y-162857219D01*
X145153816Y-162861789D01*
X145106038Y-162893713D01*
X145000938Y-162998813D01*
X144918370Y-163122386D01*
X144861494Y-163259697D01*
X144832500Y-163405461D01*
X137890000Y-163405461D01*
X137890000Y-148164635D01*
X137890477Y-148154932D01*
X137903445Y-148023261D01*
X137903445Y-148023260D01*
X137907231Y-148004226D01*
X137944223Y-147882278D01*
X137951645Y-147864361D01*
X138011721Y-147751966D01*
X138022490Y-147735848D01*
X138103340Y-147637332D01*
X138117056Y-147623616D01*
X138215572Y-147542766D01*
X138231690Y-147531997D01*
X138344085Y-147471921D01*
X138362002Y-147464499D01*
X138483952Y-147427506D01*
X138502983Y-147423721D01*
X138634657Y-147410753D01*
X138644360Y-147410276D01*
X138683670Y-147410276D01*
X156595330Y-147410276D01*
X156634640Y-147410276D01*
X156644343Y-147410753D01*
G37*
%TD.AperFunction*%
%TA.AperFunction,Conductor*%
G36*
X149926854Y-156324841D02*
G01*
X149939826Y-156335759D01*
X150095004Y-156490937D01*
X150122781Y-156545454D01*
X150124000Y-156560941D01*
X150124000Y-157840809D01*
X150135769Y-157884729D01*
X150144479Y-157917236D01*
X150144481Y-157917240D01*
X150151475Y-157929354D01*
X150151476Y-157929354D01*
X150184040Y-157985758D01*
X150295005Y-158096723D01*
X150298630Y-158103838D01*
X150305093Y-158108534D01*
X150312256Y-158130582D01*
X150322781Y-158151238D01*
X150324000Y-158166725D01*
X150324000Y-158332826D01*
X150305093Y-158391017D01*
X150295003Y-158402830D01*
X150123044Y-158574788D01*
X150102548Y-158590517D01*
X150093465Y-158595762D01*
X150093460Y-158595765D01*
X150075713Y-158606010D01*
X150026212Y-158619276D01*
X149924062Y-158619276D01*
X149844938Y-158619276D01*
X149798161Y-158631809D01*
X149768507Y-158639755D01*
X149699993Y-158679312D01*
X149699987Y-158679316D01*
X149649988Y-158729316D01*
X149594039Y-158785265D01*
X149554480Y-158853783D01*
X149554478Y-158853787D01*
X149534000Y-158930211D01*
X149534000Y-159678113D01*
X149515093Y-159736304D01*
X149465593Y-159772268D01*
X149460627Y-159773739D01*
X149451995Y-159776052D01*
X149337875Y-159841939D01*
X149244681Y-159935133D01*
X149178794Y-160049252D01*
X149178793Y-160049257D01*
X149144685Y-160176551D01*
X149144685Y-160308335D01*
X149154644Y-160345503D01*
X149178794Y-160435633D01*
X149233726Y-160530776D01*
X149246448Y-160590624D01*
X149221562Y-160646520D01*
X149168574Y-160677113D01*
X149147990Y-160679276D01*
X148734935Y-160679276D01*
X148658511Y-160699754D01*
X148658507Y-160699756D01*
X148589989Y-160739315D01*
X148174039Y-161155265D01*
X148134480Y-161223783D01*
X148134479Y-161223786D01*
X148114661Y-161297742D01*
X148081336Y-161349056D01*
X148024214Y-161370981D01*
X147965114Y-161355144D01*
X147963142Y-161353829D01*
X147955540Y-161348629D01*
X147919120Y-161312209D01*
X147811242Y-161249925D01*
X147808107Y-161247781D01*
X147791626Y-161226402D01*
X147773559Y-161206335D01*
X147772569Y-161201679D01*
X147770752Y-161199322D01*
X147770549Y-161192174D01*
X147765000Y-161166069D01*
X147765000Y-160808902D01*
X147765001Y-160808889D01*
X147765001Y-160642803D01*
X147765001Y-160642801D01*
X147724077Y-160490073D01*
X147687635Y-160426954D01*
X147645020Y-160353142D01*
X147579436Y-160287558D01*
X147575501Y-160282437D01*
X147567321Y-160259390D01*
X147556219Y-160237600D01*
X147555258Y-160225403D01*
X147555036Y-160224775D01*
X147555172Y-160224311D01*
X147555000Y-160222114D01*
X147555000Y-160150721D01*
X147554999Y-160150715D01*
X147548499Y-160126455D01*
X147514077Y-159997991D01*
X147465750Y-159914287D01*
X147435020Y-159861060D01*
X147323216Y-159749256D01*
X147323213Y-159749254D01*
X147113476Y-159539517D01*
X147085699Y-159485000D01*
X147095270Y-159424568D01*
X147138535Y-159381303D01*
X147196402Y-159371360D01*
X147199505Y-159371768D01*
X147199507Y-159371769D01*
X147491994Y-159410276D01*
X147491995Y-159410276D01*
X147787005Y-159410276D01*
X147787006Y-159410276D01*
X148079493Y-159371769D01*
X148364452Y-159295415D01*
X148637007Y-159182519D01*
X148892494Y-159035014D01*
X149126542Y-158855422D01*
X149335146Y-158646818D01*
X149514738Y-158412770D01*
X149662243Y-158157283D01*
X149775139Y-157884728D01*
X149851493Y-157599769D01*
X149890000Y-157307282D01*
X149890000Y-157012270D01*
X149851493Y-156719783D01*
X149775139Y-156434824D01*
X149775138Y-156434821D01*
X149774300Y-156431694D01*
X149776023Y-156431232D01*
X149775237Y-156376529D01*
X149810484Y-156326516D01*
X149868397Y-156306773D01*
X149926854Y-156324841D01*
G37*
%TD.AperFunction*%
%TA.AperFunction,Conductor*%
G36*
X152747994Y-153608241D02*
G01*
X156635004Y-157495251D01*
X156662781Y-157549768D01*
X156664000Y-157565255D01*
X156664000Y-159175297D01*
X156645093Y-159233488D01*
X156595593Y-159269452D01*
X156534407Y-159269452D01*
X156494996Y-159245301D01*
X155461004Y-158211309D01*
X155445272Y-158190806D01*
X155444959Y-158190263D01*
X155389011Y-158134315D01*
X155389011Y-158134316D01*
X152712246Y-155457551D01*
X152684469Y-155403034D01*
X152694039Y-155342604D01*
X152694041Y-155342602D01*
X152783728Y-155166582D01*
X152783729Y-155166579D01*
X152783729Y-155166578D01*
X152783731Y-155166575D01*
X152854284Y-154949436D01*
X152854546Y-154947782D01*
X152890000Y-154723936D01*
X152890000Y-154495615D01*
X152854285Y-154270120D01*
X152854180Y-154269797D01*
X152783731Y-154052977D01*
X152680079Y-153849548D01*
X152628955Y-153779183D01*
X152597898Y-153736436D01*
X152578990Y-153678245D01*
X152597897Y-153620055D01*
X152647397Y-153584091D01*
X152708582Y-153584090D01*
X152747994Y-153608241D01*
G37*
%TD.AperFunction*%
%TD*%
%TA.AperFunction,Conductor*%
%TO.N,GND_sub*%
G36*
X126899343Y-147146477D02*
G01*
X127031014Y-147159445D01*
X127050049Y-147163231D01*
X127171994Y-147200222D01*
X127189918Y-147207647D01*
X127302304Y-147267718D01*
X127318431Y-147278494D01*
X127387739Y-147335373D01*
X127416939Y-147359337D01*
X127430662Y-147373060D01*
X127511502Y-147471563D01*
X127522284Y-147487700D01*
X127582351Y-147600079D01*
X127589778Y-147618009D01*
X127626768Y-147739950D01*
X127630554Y-147758984D01*
X127643523Y-147890655D01*
X127644000Y-147900359D01*
X127644000Y-165890640D01*
X127643523Y-165900343D01*
X127643523Y-165900344D01*
X127630554Y-166032015D01*
X127626768Y-166051049D01*
X127589778Y-166172990D01*
X127582351Y-166190920D01*
X127522284Y-166303299D01*
X127511502Y-166319436D01*
X127430662Y-166417939D01*
X127416939Y-166431662D01*
X127318436Y-166512502D01*
X127302299Y-166523284D01*
X127189920Y-166583351D01*
X127171990Y-166590778D01*
X127050049Y-166627768D01*
X127031015Y-166631554D01*
X126910723Y-166643402D01*
X126899342Y-166644523D01*
X126889640Y-166645000D01*
X111899360Y-166645000D01*
X111889657Y-166644523D01*
X111876895Y-166643266D01*
X111757984Y-166631554D01*
X111738950Y-166627768D01*
X111617009Y-166590778D01*
X111599079Y-166583351D01*
X111486700Y-166523284D01*
X111470565Y-166512503D01*
X111421311Y-166472082D01*
X111372060Y-166431662D01*
X111358337Y-166417939D01*
X111334373Y-166388739D01*
X111277494Y-166319431D01*
X111266718Y-166303304D01*
X111206647Y-166190918D01*
X111199221Y-166172990D01*
X111162231Y-166051049D01*
X111158445Y-166032014D01*
X111145477Y-165900343D01*
X111145000Y-165890640D01*
X111145000Y-161939734D01*
X115929000Y-161939734D01*
X115929000Y-162091266D01*
X115963586Y-162220347D01*
X115968220Y-162237639D01*
X116043981Y-162368860D01*
X116043983Y-162368862D01*
X116043985Y-162368865D01*
X116151135Y-162476015D01*
X116151137Y-162476016D01*
X116151139Y-162476018D01*
X116282361Y-162551779D01*
X116282359Y-162551779D01*
X116282363Y-162551780D01*
X116282365Y-162551781D01*
X116428734Y-162591000D01*
X116428736Y-162591000D01*
X116580264Y-162591000D01*
X116580266Y-162591000D01*
X116726635Y-162551781D01*
X116726637Y-162551779D01*
X116726639Y-162551779D01*
X116857860Y-162476018D01*
X116857860Y-162476017D01*
X116857865Y-162476015D01*
X116965015Y-162368865D01*
X117040781Y-162237635D01*
X117080000Y-162091266D01*
X117080000Y-161939734D01*
X121709000Y-161939734D01*
X121709000Y-162091266D01*
X121743586Y-162220347D01*
X121748220Y-162237639D01*
X121823981Y-162368860D01*
X121823983Y-162368862D01*
X121823985Y-162368865D01*
X121931135Y-162476015D01*
X121931137Y-162476016D01*
X121931139Y-162476018D01*
X122062361Y-162551779D01*
X122062359Y-162551779D01*
X122062363Y-162551780D01*
X122062365Y-162551781D01*
X122208734Y-162591000D01*
X122208736Y-162591000D01*
X122360264Y-162591000D01*
X122360266Y-162591000D01*
X122506635Y-162551781D01*
X122506637Y-162551779D01*
X122506639Y-162551779D01*
X122637860Y-162476018D01*
X122637860Y-162476017D01*
X122637865Y-162476015D01*
X122745015Y-162368865D01*
X122820781Y-162237635D01*
X122860000Y-162091266D01*
X122860000Y-161939734D01*
X122820781Y-161793365D01*
X122820779Y-161793362D01*
X122820779Y-161793360D01*
X122745018Y-161662139D01*
X122745016Y-161662137D01*
X122745015Y-161662135D01*
X122637865Y-161554985D01*
X122637862Y-161554983D01*
X122637860Y-161554981D01*
X122506638Y-161479220D01*
X122506640Y-161479220D01*
X122449847Y-161464003D01*
X122360266Y-161440000D01*
X122208734Y-161440000D01*
X122119152Y-161464003D01*
X122062360Y-161479220D01*
X121931139Y-161554981D01*
X121823981Y-161662139D01*
X121748220Y-161793360D01*
X121748219Y-161793365D01*
X121709000Y-161939734D01*
X117080000Y-161939734D01*
X117040781Y-161793365D01*
X117040779Y-161793362D01*
X117040779Y-161793360D01*
X116965018Y-161662139D01*
X116965016Y-161662137D01*
X116965015Y-161662135D01*
X116857865Y-161554985D01*
X116857862Y-161554983D01*
X116857860Y-161554981D01*
X116726638Y-161479220D01*
X116726640Y-161479220D01*
X116669847Y-161464003D01*
X116580266Y-161440000D01*
X116428734Y-161440000D01*
X116339152Y-161464003D01*
X116282360Y-161479220D01*
X116151139Y-161554981D01*
X116043981Y-161662139D01*
X115968220Y-161793360D01*
X115968219Y-161793365D01*
X115929000Y-161939734D01*
X111145000Y-161939734D01*
X111145000Y-158436855D01*
X111489500Y-158436855D01*
X111489500Y-158614144D01*
X111524086Y-158788019D01*
X111524086Y-158788021D01*
X111591928Y-158951807D01*
X111669827Y-159068393D01*
X112068576Y-158669643D01*
X112109430Y-158740405D01*
X112174595Y-158805570D01*
X112245353Y-158846422D01*
X111846605Y-159245171D01*
X111963192Y-159323071D01*
X112126979Y-159390913D01*
X112300855Y-159425499D01*
X112300859Y-159425500D01*
X112478141Y-159425500D01*
X112478144Y-159425499D01*
X112652019Y-159390913D01*
X112652021Y-159390913D01*
X112815805Y-159323072D01*
X112815817Y-159323066D01*
X112932393Y-159245171D01*
X112533645Y-158846423D01*
X112604405Y-158805570D01*
X112669570Y-158740405D01*
X112710423Y-158669645D01*
X113109171Y-159068393D01*
X113187066Y-158951817D01*
X113187072Y-158951805D01*
X113254913Y-158788021D01*
X113254913Y-158788019D01*
X113289499Y-158614144D01*
X113289500Y-158614141D01*
X113289500Y-158436858D01*
X113289499Y-158436855D01*
X113254913Y-158262980D01*
X113254913Y-158262978D01*
X113187071Y-158099192D01*
X113109171Y-157982605D01*
X112710422Y-158381353D01*
X112669570Y-158310595D01*
X112604405Y-158245430D01*
X112533643Y-158204576D01*
X112932393Y-157805827D01*
X112815807Y-157727928D01*
X112652020Y-157660086D01*
X112478144Y-157625500D01*
X112300855Y-157625500D01*
X112126980Y-157660086D01*
X112126978Y-157660086D01*
X111963192Y-157727928D01*
X111846606Y-157805828D01*
X112245354Y-158204576D01*
X112174595Y-158245430D01*
X112109430Y-158310595D01*
X112068576Y-158381354D01*
X111669828Y-157982606D01*
X111591928Y-158099192D01*
X111524086Y-158262978D01*
X111524086Y-158262980D01*
X111489500Y-158436855D01*
X111145000Y-158436855D01*
X111145000Y-153362035D01*
X111163907Y-153303844D01*
X111213407Y-153267880D01*
X111274593Y-153267880D01*
X111324093Y-153303844D01*
X111329733Y-153312530D01*
X111336480Y-153324216D01*
X111448284Y-153436020D01*
X111448286Y-153436021D01*
X111448289Y-153436024D01*
X111448288Y-153436024D01*
X111535091Y-153486137D01*
X111535093Y-153486139D01*
X111535094Y-153486139D01*
X111564032Y-153502846D01*
X111585215Y-153515077D01*
X111737943Y-153556001D01*
X111737944Y-153556001D01*
X111896056Y-153556001D01*
X111896057Y-153556001D01*
X112048785Y-153515077D01*
X112098904Y-153486139D01*
X112185716Y-153436020D01*
X112218730Y-153403005D01*
X112251741Y-153369996D01*
X112306258Y-153342219D01*
X112321744Y-153341000D01*
X113789274Y-153341000D01*
X113847465Y-153359907D01*
X113883429Y-153409407D01*
X113883429Y-153470593D01*
X113847465Y-153520093D01*
X113838787Y-153525728D01*
X113746784Y-153578846D01*
X113634980Y-153690650D01*
X113555923Y-153827582D01*
X113515000Y-153980309D01*
X113515000Y-154138423D01*
X113555923Y-154291150D01*
X113634980Y-154428082D01*
X113746784Y-154539886D01*
X113883716Y-154618943D01*
X114036443Y-154659866D01*
X114383623Y-154659866D01*
X114441814Y-154678773D01*
X114453627Y-154688862D01*
X114705004Y-154940239D01*
X114732781Y-154994756D01*
X114734000Y-155010243D01*
X114734000Y-157065363D01*
X114733999Y-157065381D01*
X114733999Y-157229556D01*
X114750627Y-157291612D01*
X114754000Y-157317235D01*
X114754000Y-158109557D01*
X114794923Y-158262284D01*
X114873980Y-158399216D01*
X114985784Y-158511020D01*
X115122716Y-158590077D01*
X115275443Y-158631000D01*
X115275445Y-158631000D01*
X115433555Y-158631000D01*
X115433557Y-158631000D01*
X115586284Y-158590077D01*
X115723216Y-158511020D01*
X115797430Y-158436806D01*
X116569000Y-158436806D01*
X116569000Y-158614193D01*
X116590361Y-158721578D01*
X116598837Y-158764193D01*
X116603606Y-158788165D01*
X116603606Y-158788167D01*
X116671485Y-158952044D01*
X116671485Y-158952045D01*
X116720567Y-159025500D01*
X116770036Y-159099535D01*
X116895465Y-159224964D01*
X117042953Y-159323513D01*
X117206834Y-159391394D01*
X117380809Y-159426000D01*
X117380810Y-159426000D01*
X117558190Y-159426000D01*
X117558191Y-159426000D01*
X117732166Y-159391394D01*
X117896047Y-159323513D01*
X118043535Y-159224964D01*
X118168964Y-159099535D01*
X118267513Y-158952047D01*
X118335394Y-158788166D01*
X118370000Y-158614191D01*
X118370000Y-158586806D01*
X120499000Y-158586806D01*
X120499000Y-158764193D01*
X120533606Y-158938165D01*
X120533606Y-158938167D01*
X120601485Y-159102044D01*
X120601485Y-159102045D01*
X120679227Y-159218393D01*
X120700036Y-159249535D01*
X120825465Y-159374964D01*
X120972953Y-159473513D01*
X121136834Y-159541394D01*
X121310809Y-159576000D01*
X121310810Y-159576000D01*
X121488190Y-159576000D01*
X121488191Y-159576000D01*
X121662166Y-159541394D01*
X121826047Y-159473513D01*
X121973535Y-159374964D01*
X122098964Y-159249535D01*
X122197513Y-159102047D01*
X122265394Y-158938166D01*
X122300000Y-158764191D01*
X122300000Y-158586855D01*
X125579500Y-158586855D01*
X125579500Y-158764144D01*
X125614086Y-158938019D01*
X125614086Y-158938021D01*
X125681928Y-159101807D01*
X125759827Y-159218393D01*
X126158576Y-158819643D01*
X126199430Y-158890405D01*
X126264595Y-158955570D01*
X126335353Y-158996422D01*
X125936605Y-159395171D01*
X126053192Y-159473071D01*
X126216979Y-159540913D01*
X126390855Y-159575499D01*
X126390859Y-159575500D01*
X126568141Y-159575500D01*
X126568144Y-159575499D01*
X126742019Y-159540913D01*
X126742021Y-159540913D01*
X126905805Y-159473072D01*
X126905817Y-159473066D01*
X127022393Y-159395171D01*
X126623645Y-158996423D01*
X126694405Y-158955570D01*
X126759570Y-158890405D01*
X126800423Y-158819645D01*
X127199171Y-159218393D01*
X127277066Y-159101817D01*
X127277072Y-159101805D01*
X127344913Y-158938021D01*
X127344913Y-158938019D01*
X127379499Y-158764144D01*
X127379500Y-158764141D01*
X127379500Y-158586858D01*
X127379499Y-158586855D01*
X127344913Y-158412980D01*
X127344913Y-158412978D01*
X127277071Y-158249192D01*
X127199171Y-158132605D01*
X126800422Y-158531353D01*
X126759570Y-158460595D01*
X126694405Y-158395430D01*
X126623643Y-158354576D01*
X127022393Y-157955827D01*
X126905807Y-157877928D01*
X126742020Y-157810086D01*
X126568144Y-157775500D01*
X126390855Y-157775500D01*
X126216980Y-157810086D01*
X126216978Y-157810086D01*
X126053192Y-157877928D01*
X125936606Y-157955828D01*
X126335354Y-158354576D01*
X126264595Y-158395430D01*
X126199430Y-158460595D01*
X126158576Y-158531354D01*
X125759828Y-158132606D01*
X125681928Y-158249192D01*
X125614086Y-158412978D01*
X125614086Y-158412980D01*
X125579500Y-158586855D01*
X122300000Y-158586855D01*
X122300000Y-158586809D01*
X122265394Y-158412834D01*
X122203035Y-158262284D01*
X122197514Y-158248955D01*
X122197514Y-158248954D01*
X122098964Y-158101465D01*
X121973534Y-157976035D01*
X121826044Y-157877485D01*
X121662166Y-157809606D01*
X121488193Y-157775000D01*
X121488191Y-157775000D01*
X121310809Y-157775000D01*
X121310806Y-157775000D01*
X121136834Y-157809606D01*
X121136832Y-157809606D01*
X120972955Y-157877485D01*
X120972954Y-157877485D01*
X120825465Y-157976035D01*
X120700035Y-158101465D01*
X120601485Y-158248954D01*
X120601485Y-158248955D01*
X120533606Y-158412832D01*
X120533606Y-158412834D01*
X120499000Y-158586806D01*
X118370000Y-158586806D01*
X118370000Y-158436809D01*
X118335394Y-158262834D01*
X118271905Y-158109557D01*
X118267514Y-158098955D01*
X118267514Y-158098954D01*
X118168964Y-157951465D01*
X118043534Y-157826035D01*
X117896044Y-157727485D01*
X117732166Y-157659606D01*
X117558193Y-157625000D01*
X117558191Y-157625000D01*
X117380809Y-157625000D01*
X117380806Y-157625000D01*
X117206834Y-157659606D01*
X117206832Y-157659606D01*
X117042955Y-157727485D01*
X117042954Y-157727485D01*
X116895465Y-157826035D01*
X116770035Y-157951465D01*
X116671485Y-158098954D01*
X116671485Y-158098955D01*
X116603606Y-158262832D01*
X116603606Y-158262834D01*
X116569000Y-158436806D01*
X115797430Y-158436806D01*
X115835020Y-158399216D01*
X115914077Y-158262284D01*
X115955000Y-158109557D01*
X115955000Y-157091443D01*
X115938373Y-157029388D01*
X115935000Y-157003766D01*
X115935000Y-156281806D01*
X116364000Y-156281806D01*
X116364000Y-156459193D01*
X116398606Y-156633165D01*
X116398606Y-156633167D01*
X116466485Y-156797044D01*
X116466485Y-156797045D01*
X116515900Y-156870999D01*
X116565036Y-156944535D01*
X116690465Y-157069964D01*
X116837953Y-157168513D01*
X117001834Y-157236394D01*
X117175809Y-157271000D01*
X117175810Y-157271000D01*
X117353190Y-157271000D01*
X117353191Y-157271000D01*
X117527166Y-157236394D01*
X117691047Y-157168513D01*
X117838535Y-157069964D01*
X117963964Y-156944535D01*
X118062513Y-156797047D01*
X118130394Y-156633166D01*
X118165000Y-156459191D01*
X118165000Y-156281855D01*
X121444500Y-156281855D01*
X121444500Y-156459144D01*
X121479086Y-156633019D01*
X121479086Y-156633021D01*
X121546928Y-156796807D01*
X121624827Y-156913393D01*
X122023576Y-156514643D01*
X122064430Y-156585405D01*
X122129595Y-156650570D01*
X122200353Y-156691422D01*
X121801605Y-157090171D01*
X121918192Y-157168071D01*
X122081979Y-157235913D01*
X122255855Y-157270499D01*
X122255859Y-157270500D01*
X122433141Y-157270500D01*
X122433144Y-157270499D01*
X122607019Y-157235913D01*
X122607021Y-157235913D01*
X122770805Y-157168072D01*
X122770817Y-157168066D01*
X122887393Y-157090171D01*
X122488645Y-156691423D01*
X122559405Y-156650570D01*
X122624570Y-156585405D01*
X122665423Y-156514645D01*
X123064171Y-156913393D01*
X123142066Y-156796817D01*
X123142072Y-156796805D01*
X123209913Y-156633021D01*
X123209913Y-156633019D01*
X123244499Y-156459144D01*
X123244500Y-156459141D01*
X123244500Y-156281858D01*
X123244499Y-156281855D01*
X123209913Y-156107980D01*
X123209913Y-156107978D01*
X123175410Y-156024679D01*
X123161731Y-155991655D01*
X124764000Y-155991655D01*
X124764000Y-156149344D01*
X124794763Y-156303996D01*
X124794763Y-156303998D01*
X124855103Y-156449674D01*
X124855109Y-156449685D01*
X124892468Y-156505595D01*
X124942711Y-156580789D01*
X125054211Y-156692289D01*
X125096432Y-156720500D01*
X125185314Y-156779890D01*
X125185325Y-156779896D01*
X125226148Y-156796805D01*
X125331003Y-156840237D01*
X125485658Y-156871000D01*
X125485659Y-156871000D01*
X125643341Y-156871000D01*
X125643342Y-156871000D01*
X125797997Y-156840237D01*
X125943679Y-156779894D01*
X126074789Y-156692289D01*
X126186289Y-156580789D01*
X126273894Y-156449679D01*
X126334237Y-156303997D01*
X126365000Y-156149342D01*
X126365000Y-155991658D01*
X126334237Y-155837003D01*
X126273894Y-155691321D01*
X126273893Y-155691319D01*
X126273890Y-155691314D01*
X126238517Y-155638376D01*
X126186289Y-155560211D01*
X126074789Y-155448711D01*
X126005647Y-155402512D01*
X125967770Y-155354465D01*
X125965368Y-155293327D01*
X125999360Y-155242453D01*
X126005649Y-155237884D01*
X126035296Y-155218074D01*
X125670028Y-154852806D01*
X125680296Y-154850056D01*
X125748705Y-154810560D01*
X125804560Y-154754705D01*
X125844056Y-154686296D01*
X125846806Y-154676028D01*
X126212074Y-155041296D01*
X126273451Y-154949441D01*
X126333757Y-154803849D01*
X126364499Y-154649295D01*
X126364500Y-154649292D01*
X126364500Y-154491707D01*
X126364499Y-154491704D01*
X126333757Y-154337150D01*
X126273451Y-154191558D01*
X126212074Y-154099702D01*
X125846806Y-154464969D01*
X125844056Y-154454704D01*
X125804560Y-154386295D01*
X125748705Y-154330440D01*
X125680296Y-154290944D01*
X125670027Y-154288192D01*
X126035296Y-153922924D01*
X125943441Y-153861548D01*
X125797849Y-153801242D01*
X125643295Y-153770500D01*
X125485704Y-153770500D01*
X125331150Y-153801242D01*
X125185558Y-153861548D01*
X125093702Y-153922924D01*
X125458971Y-154288193D01*
X125448704Y-154290944D01*
X125380295Y-154330440D01*
X125324440Y-154386295D01*
X125284944Y-154454704D01*
X125282193Y-154464971D01*
X124916924Y-154099702D01*
X124855548Y-154191558D01*
X124795242Y-154337150D01*
X124764500Y-154491704D01*
X124764500Y-154649295D01*
X124795242Y-154803849D01*
X124855548Y-154949441D01*
X124916924Y-155041296D01*
X125282192Y-154676027D01*
X125284944Y-154686296D01*
X125324440Y-154754705D01*
X125380295Y-154810560D01*
X125448704Y-154850056D01*
X125458969Y-154852806D01*
X125093702Y-155218074D01*
X125123349Y-155237884D01*
X125161228Y-155285934D01*
X125163630Y-155347073D01*
X125129637Y-155397946D01*
X125123349Y-155402514D01*
X125054211Y-155448710D01*
X124942714Y-155560207D01*
X124942711Y-155560211D01*
X124855109Y-155691314D01*
X124855103Y-155691325D01*
X124794763Y-155837001D01*
X124794763Y-155837003D01*
X124764000Y-155991655D01*
X123161731Y-155991655D01*
X123142070Y-155944190D01*
X123064171Y-155827605D01*
X122665422Y-156226353D01*
X122624570Y-156155595D01*
X122559405Y-156090430D01*
X122488643Y-156049576D01*
X122887393Y-155650827D01*
X122770807Y-155572928D01*
X122607020Y-155505086D01*
X122433144Y-155470500D01*
X122255855Y-155470500D01*
X122081980Y-155505086D01*
X122081978Y-155505086D01*
X121918192Y-155572928D01*
X121801606Y-155650828D01*
X122200354Y-156049576D01*
X122129595Y-156090430D01*
X122064430Y-156155595D01*
X122023576Y-156226354D01*
X121624828Y-155827606D01*
X121546928Y-155944192D01*
X121479086Y-156107978D01*
X121479086Y-156107980D01*
X121444500Y-156281855D01*
X118165000Y-156281855D01*
X118165000Y-156281809D01*
X118130394Y-156107834D01*
X118062514Y-155943955D01*
X118062514Y-155943954D01*
X117963964Y-155796465D01*
X117838534Y-155671035D01*
X117691044Y-155572485D01*
X117527166Y-155504606D01*
X117353193Y-155470000D01*
X117353191Y-155470000D01*
X117175809Y-155470000D01*
X117175806Y-155470000D01*
X117001834Y-155504606D01*
X117001832Y-155504606D01*
X116837955Y-155572485D01*
X116837954Y-155572485D01*
X116690465Y-155671035D01*
X116565035Y-155796465D01*
X116466485Y-155943954D01*
X116466485Y-155943955D01*
X116398606Y-156107832D01*
X116398606Y-156107834D01*
X116364000Y-156281806D01*
X115935000Y-156281806D01*
X115935000Y-154807545D01*
X115935001Y-154807532D01*
X115935001Y-154641442D01*
X115935000Y-154641440D01*
X115926574Y-154609996D01*
X115900589Y-154513019D01*
X115894078Y-154488719D01*
X115894078Y-154488718D01*
X115881844Y-154467528D01*
X115815020Y-154351784D01*
X115153887Y-153690652D01*
X115153886Y-153690650D01*
X115042082Y-153578846D01*
X115042079Y-153578844D01*
X114950094Y-153525736D01*
X114909153Y-153480267D01*
X114902757Y-153419416D01*
X114933350Y-153366428D01*
X114989246Y-153341542D01*
X114999594Y-153341000D01*
X116659344Y-153341000D01*
X116717535Y-153359907D01*
X116753499Y-153409407D01*
X116753499Y-153470593D01*
X116717535Y-153520093D01*
X116714345Y-153522316D01*
X116701605Y-153530827D01*
X117100354Y-153929576D01*
X117029595Y-153970430D01*
X116964430Y-154035595D01*
X116923576Y-154106354D01*
X116524828Y-153707606D01*
X116446928Y-153824192D01*
X116379086Y-153987978D01*
X116379086Y-153987980D01*
X116344500Y-154161855D01*
X116344500Y-154339144D01*
X116379086Y-154513019D01*
X116379086Y-154513021D01*
X116446928Y-154676807D01*
X116524827Y-154793393D01*
X116923576Y-154394643D01*
X116964430Y-154465405D01*
X117029595Y-154530570D01*
X117100353Y-154571422D01*
X116701605Y-154970171D01*
X116818192Y-155048071D01*
X116981979Y-155115913D01*
X117155855Y-155150499D01*
X117155859Y-155150500D01*
X117333141Y-155150500D01*
X117333144Y-155150499D01*
X117507019Y-155115913D01*
X117507021Y-155115913D01*
X117670805Y-155048072D01*
X117670817Y-155048066D01*
X117787393Y-154970171D01*
X117388645Y-154571423D01*
X117459405Y-154530570D01*
X117524570Y-154465405D01*
X117565423Y-154394645D01*
X117964171Y-154793393D01*
X118042066Y-154676817D01*
X118042072Y-154676805D01*
X118109913Y-154513021D01*
X118109913Y-154513019D01*
X118144499Y-154339144D01*
X118144500Y-154339141D01*
X118144500Y-154161858D01*
X118144499Y-154161855D01*
X118109913Y-153987980D01*
X118109913Y-153987978D01*
X118042071Y-153824192D01*
X117964171Y-153707605D01*
X117565422Y-154106353D01*
X117524570Y-154035595D01*
X117459405Y-153970430D01*
X117388643Y-153929576D01*
X117787393Y-153530827D01*
X117774655Y-153522316D01*
X117736775Y-153474266D01*
X117734373Y-153413128D01*
X117768366Y-153362254D01*
X117825769Y-153341076D01*
X117829656Y-153341000D01*
X119913555Y-153341000D01*
X119913557Y-153341000D01*
X120066284Y-153300077D01*
X120203216Y-153221020D01*
X120315020Y-153109216D01*
X120315021Y-153109213D01*
X120319239Y-153104996D01*
X120373756Y-153077219D01*
X120389243Y-153076000D01*
X120839757Y-153076000D01*
X120897948Y-153094907D01*
X120909761Y-153104996D01*
X120913978Y-153109213D01*
X120913980Y-153109216D01*
X121025784Y-153221020D01*
X121162716Y-153300077D01*
X121315443Y-153341000D01*
X121738447Y-153341000D01*
X121796638Y-153359907D01*
X121832602Y-153409407D01*
X121832602Y-153470593D01*
X121796638Y-153520093D01*
X121793466Y-153522303D01*
X121780710Y-153530827D01*
X121750464Y-153551036D01*
X121625035Y-153676465D01*
X121526485Y-153823954D01*
X121526485Y-153823955D01*
X121458606Y-153987832D01*
X121458606Y-153987834D01*
X121424000Y-154161806D01*
X121424000Y-154339193D01*
X121458606Y-154513165D01*
X121458606Y-154513167D01*
X121526485Y-154677044D01*
X121526485Y-154677045D01*
X121615698Y-154810560D01*
X121625036Y-154824535D01*
X121750465Y-154949964D01*
X121897953Y-155048513D01*
X122061834Y-155116394D01*
X122235809Y-155151000D01*
X122235810Y-155151000D01*
X122413190Y-155151000D01*
X122413191Y-155151000D01*
X122587166Y-155116394D01*
X122751047Y-155048513D01*
X122898535Y-154949964D01*
X123023964Y-154824535D01*
X123122513Y-154677047D01*
X123190394Y-154513166D01*
X123225000Y-154339191D01*
X123225000Y-154161809D01*
X123190394Y-153987834D01*
X123122514Y-153823955D01*
X123122514Y-153823954D01*
X123023964Y-153676465D01*
X122898535Y-153551036D01*
X122868290Y-153530827D01*
X122855551Y-153522314D01*
X122817672Y-153474266D01*
X122815270Y-153413128D01*
X122849263Y-153362254D01*
X122906666Y-153341076D01*
X122910553Y-153341000D01*
X124679364Y-153341000D01*
X124679380Y-153341001D01*
X124685443Y-153341001D01*
X124843556Y-153341001D01*
X124843557Y-153341001D01*
X124996285Y-153300077D01*
X125046404Y-153271139D01*
X125133216Y-153221020D01*
X125245020Y-153109216D01*
X125245021Y-153109213D01*
X126178213Y-152176021D01*
X126178216Y-152176020D01*
X126290020Y-152064216D01*
X126361871Y-151939766D01*
X126369077Y-151927285D01*
X126410000Y-151774557D01*
X126410000Y-151616443D01*
X126369077Y-151463715D01*
X126353315Y-151436416D01*
X126340139Y-151413594D01*
X126340139Y-151413593D01*
X126340137Y-151413591D01*
X126290024Y-151326789D01*
X126290021Y-151326786D01*
X126290020Y-151326784D01*
X126178216Y-151214980D01*
X126091404Y-151164860D01*
X126041285Y-151135923D01*
X125888557Y-151095000D01*
X125730443Y-151095000D01*
X125636969Y-151120045D01*
X125577710Y-151135924D01*
X125527595Y-151164859D01*
X125527593Y-151164860D01*
X125508498Y-151175884D01*
X125448650Y-151188604D01*
X125392755Y-151163717D01*
X125362163Y-151110728D01*
X125360000Y-151090147D01*
X125360000Y-150933144D01*
X125327978Y-150730970D01*
X125327977Y-150730966D01*
X125264720Y-150536281D01*
X125171787Y-150353890D01*
X125171785Y-150353886D01*
X125051470Y-150188286D01*
X125051468Y-150188284D01*
X125051466Y-150188281D01*
X124906719Y-150043534D01*
X124906715Y-150043531D01*
X124906713Y-150043529D01*
X124741113Y-149923214D01*
X124741109Y-149923212D01*
X124558719Y-149830280D01*
X124364029Y-149767021D01*
X124161855Y-149735000D01*
X124161852Y-149735000D01*
X123957148Y-149735000D01*
X123957145Y-149735000D01*
X123754970Y-149767021D01*
X123560280Y-149830280D01*
X123377890Y-149923212D01*
X123377886Y-149923214D01*
X123212286Y-150043529D01*
X123067529Y-150188286D01*
X122947214Y-150353886D01*
X122947212Y-150353890D01*
X122854280Y-150536280D01*
X122791021Y-150730970D01*
X122759000Y-150933144D01*
X122759000Y-151137855D01*
X122791021Y-151340029D01*
X122854280Y-151534719D01*
X122947212Y-151717109D01*
X122947214Y-151717113D01*
X123067529Y-151882713D01*
X123067531Y-151882715D01*
X123067534Y-151882719D01*
X123140813Y-151955998D01*
X123168589Y-152010513D01*
X123159018Y-152070945D01*
X123115753Y-152114210D01*
X123070808Y-152125000D01*
X122208557Y-152125000D01*
X122050443Y-152125000D01*
X122016027Y-152134221D01*
X122007050Y-152136627D01*
X121981428Y-152140000D01*
X121315443Y-152140000D01*
X121162716Y-152180923D01*
X121025784Y-152259980D01*
X120913980Y-152371784D01*
X120913978Y-152371786D01*
X120909761Y-152376004D01*
X120855244Y-152403781D01*
X120839757Y-152405000D01*
X120389243Y-152405000D01*
X120331052Y-152386093D01*
X120319239Y-152376004D01*
X120315021Y-152371786D01*
X120315020Y-152371784D01*
X120203216Y-152259980D01*
X120066284Y-152180923D01*
X119913557Y-152140000D01*
X119913555Y-152140000D01*
X117817258Y-152140000D01*
X117759067Y-152121093D01*
X117723103Y-152071593D01*
X117723103Y-152010407D01*
X117723813Y-152008303D01*
X117737146Y-151970200D01*
X117740000Y-151939767D01*
X117739999Y-150131234D01*
X117737146Y-150100800D01*
X117692293Y-149972617D01*
X117692291Y-149972615D01*
X117692291Y-149972613D01*
X117611654Y-149863354D01*
X117611645Y-149863345D01*
X117502384Y-149782707D01*
X117374204Y-149737855D01*
X117374195Y-149737853D01*
X117343774Y-149735000D01*
X115535232Y-149735000D01*
X115504803Y-149737853D01*
X115376613Y-149782708D01*
X115267354Y-149863345D01*
X115267345Y-149863354D01*
X115186707Y-149972615D01*
X115141855Y-150100795D01*
X115141853Y-150100804D01*
X115139000Y-150131224D01*
X115139000Y-150131225D01*
X115139001Y-151939760D01*
X115139000Y-151939765D01*
X115141853Y-151970196D01*
X115155187Y-152008303D01*
X115156559Y-152069473D01*
X115121715Y-152119767D01*
X115063962Y-152139975D01*
X115061742Y-152140000D01*
X112117136Y-152140000D01*
X112117120Y-152139999D01*
X112111057Y-152139999D01*
X111952943Y-152139999D01*
X111800215Y-152180923D01*
X111800213Y-152180923D01*
X111800209Y-152180925D01*
X111753923Y-152207649D01*
X111663284Y-152259979D01*
X111551479Y-152371783D01*
X111551480Y-152371784D01*
X111551478Y-152371786D01*
X111448286Y-152474978D01*
X111448284Y-152474980D01*
X111448283Y-152474979D01*
X111336482Y-152586781D01*
X111336480Y-152586783D01*
X111336480Y-152586784D01*
X111329734Y-152598467D01*
X111284265Y-152639406D01*
X111223415Y-152645800D01*
X111170427Y-152615207D01*
X111145542Y-152559311D01*
X111145000Y-152548964D01*
X111145000Y-147900359D01*
X111145477Y-147890656D01*
X111158445Y-147758985D01*
X111158445Y-147758984D01*
X111162231Y-147739950D01*
X111199223Y-147618002D01*
X111206645Y-147600085D01*
X111266721Y-147487690D01*
X111277490Y-147471572D01*
X111358340Y-147373056D01*
X111372056Y-147359340D01*
X111470572Y-147278490D01*
X111486690Y-147267721D01*
X111599085Y-147207645D01*
X111617002Y-147200223D01*
X111738952Y-147163230D01*
X111757983Y-147159445D01*
X111889657Y-147146477D01*
X111899360Y-147146000D01*
X111938670Y-147146000D01*
X126850330Y-147146000D01*
X126889640Y-147146000D01*
X126899343Y-147146477D01*
G37*
%TD.AperFunction*%
%TD*%
M02*
