M48
; DRILL file KiCad 10.0.3 date 2026-08-31T03:10:59
; FORMAT={-:-/ absolute / metric / decimal}
; #@! TF.CreationDate,2026-08-31T03:10:59+08:00
; #@! TF.GenerationSoftware,Kicad,Pcbnew,10.0.3
; #@! TF.FileFunction,Plated,1,2,PTH
FMAT,2
METRIC
; #@! TA.AperFunction,Plated,PTH,ViaDrill
T1C0.300
; #@! TA.AperFunction,Plated,PTH,ComponentDrill
T2C0.300
; #@! TA.AperFunction,Plated,PTH,ViaDrill
T3C0.400
; #@! TA.AperFunction,Plated,PTH,ComponentDrill
T4C0.600
; #@! TA.AperFunction,Plated,PTH,ComponentDrill
T5C0.700
; #@! TA.AperFunction,Plated,PTH,ComponentDrill
T6C1.100
; #@! TA.AperFunction,Plated,PTH,ComponentDrill
T7C1.500
%
G90
G05
T1
X114.192Y-155.711
X115.609Y-148.815
X115.879Y-149.395
X117.569Y-164.895
X118.039Y-151.84
X118.819Y-159.435
X119.674Y-153.731
X121.289Y-164.895
X121.544Y-151.671
X122.679Y-158.475
X124.434Y-154.63
X125.779Y-148.155
X127.249Y-149.815
X138.284Y-148.85
X138.864Y-152.16
X139.644Y-159.65
X139.654Y-157.18
X141.825Y-151.62
X142.542Y-161.798
X143.114Y-157.64
X143.635Y-150.52
X144.885Y-155.29
X147.612Y-161.713
X147.804Y-160.16
X148.094Y-165.41
X148.384Y-154.638
X149.645Y-160.242
X150.024Y-158.25
X150.037Y-160.94
X151.204Y-161.58
X152.654Y-159.4
X155.388Y-165.462
X156.553Y-165.234
X156.704Y-166.14
T2
X152.005Y-162.5
X152.005Y-163.5
X152.005Y-164.5
X153.005Y-162.5
X153.005Y-163.5
X153.005Y-164.5
X154.004Y-162.5
X154.004Y-163.5
X154.004Y-164.5
T3
X111.817Y-152.956
X114.115Y-154.059
X115.355Y-158.03
X125.809Y-151.695
X138.915Y-162.03
X140.014Y-162.17
X140.654Y-153.47
X141.124Y-162.01
X141.734Y-155.533
X144.065Y-159.49
X145.174Y-156.15
X147.214Y-152.31
X147.264Y-154.25
X153.754Y-158.26
X153.904Y-155.95
X155.665Y-161.58
X156.044Y-157.99
T4
X125.564Y-154.57
X125.564Y-156.07
X145.587Y-162.08
X145.587Y-163.48
T5
X112.389Y-158.525
X117.244Y-154.25
X117.264Y-156.37
X117.469Y-158.525
X121.399Y-158.675
X122.325Y-154.25
X122.344Y-156.37
X126.479Y-158.675
T6
X116.439Y-151.035
X124.059Y-151.035
T7
X144.639Y-152.04
X151.439Y-154.61
T4
G00X115.075Y-160.965
M15
G01X115.075Y-162.065
M16
G05
G00X115.075Y-165.296
M15
G01X115.075Y-166.095
M16
G05
G00X123.715Y-160.965
M15
G01X123.715Y-162.065
M16
G05
G00X123.715Y-165.296
M15
G01X123.715Y-166.095
M16
G05
M30
