%TF.GenerationSoftware,KiCad,Pcbnew,10.0.3*%
%TF.CreationDate,2026-08-31T03:10:55+08:00*%
%TF.ProjectId,soundkey,736f756e-646b-4657-992e-6b696361645f,rev?*%
%TF.SameCoordinates,Original*%
%TF.FileFunction,Paste,Top*%
%TF.FilePolarity,Positive*%
%FSLAX46Y46*%
G04 Gerber Fmt 4.6, Leading zero omitted, Abs format (unit mm)*
G04 Created by KiCad (PCBNEW 10.0.3) date 2026-08-31 03:10:55*
%MOMM*%
%LPD*%
G01*
G04 APERTURE LIST*
G04 Aperture macros list*
%AMRoundRect*
0 Rectangle with rounded corners*
0 $1 Rounding radius*
0 $2 $3 $4 $5 $6 $7 $8 $9 X,Y pos of 4 corners*
0 Add a 4 corners polygon primitive as box body*
4,1,4,$2,$3,$4,$5,$6,$7,$8,$9,$2,$3,0*
0 Add four circle primitives for the rounded corners*
1,1,$1+$1,$2,$3*
1,1,$1+$1,$4,$5*
1,1,$1+$1,$6,$7*
1,1,$1+$1,$8,$9*
0 Add four rect primitives between the rounded corners*
20,1,$1+$1,$2,$3,$4,$5,0*
20,1,$1+$1,$4,$5,$6,$7,0*
20,1,$1+$1,$6,$7,$8,$9,0*
20,1,$1+$1,$8,$9,$2,$3,0*%
G04 Aperture macros list end*
%ADD10RoundRect,0.135000X0.135000X0.185000X-0.135000X0.185000X-0.135000X-0.185000X0.135000X-0.185000X0*%
%ADD11RoundRect,0.087500X-0.425000X-0.087500X0.425000X-0.087500X0.425000X0.087500X-0.425000X0.087500X0*%
%ADD12RoundRect,0.150000X-0.150000X-0.425000X0.150000X-0.425000X0.150000X0.425000X-0.150000X0.425000X0*%
%ADD13RoundRect,0.075000X-0.075000X-0.500000X0.075000X-0.500000X0.075000X0.500000X-0.075000X0.500000X0*%
%ADD14O,1.000000X2.100000*%
%ADD15O,1.000000X1.800000*%
%ADD16RoundRect,0.225000X0.225000X0.250000X-0.225000X0.250000X-0.225000X-0.250000X0.225000X-0.250000X0*%
%ADD17RoundRect,0.135000X-0.135000X-0.185000X0.135000X-0.185000X0.135000X0.185000X-0.135000X0.185000X0*%
%ADD18RoundRect,0.150000X0.150000X-0.512500X0.150000X0.512500X-0.150000X0.512500X-0.150000X-0.512500X0*%
%ADD19RoundRect,0.135000X-0.185000X0.135000X-0.185000X-0.135000X0.185000X-0.135000X0.185000X0.135000X0*%
%ADD20RoundRect,0.250000X0.250000X0.475000X-0.250000X0.475000X-0.250000X-0.475000X0.250000X-0.475000X0*%
%ADD21RoundRect,0.150000X-0.150000X0.587500X-0.150000X-0.587500X0.150000X-0.587500X0.150000X0.587500X0*%
%ADD22RoundRect,0.140000X0.170000X-0.140000X0.170000X0.140000X-0.170000X0.140000X-0.170000X-0.140000X0*%
%ADD23RoundRect,0.140000X-0.140000X-0.170000X0.140000X-0.170000X0.140000X0.170000X-0.140000X0.170000X0*%
%ADD24RoundRect,0.250000X-0.295000X-0.295000X0.295000X-0.295000X0.295000X0.295000X-0.295000X0.295000X0*%
%ADD25RoundRect,0.050000X-0.345000X-0.050000X0.345000X-0.050000X0.345000X0.050000X-0.345000X0.050000X0*%
%ADD26RoundRect,0.050000X-0.050000X-0.345000X0.050000X-0.345000X0.050000X0.345000X-0.050000X0.345000X0*%
%ADD27RoundRect,0.150000X0.587500X0.150000X-0.587500X0.150000X-0.587500X-0.150000X0.587500X-0.150000X0*%
%ADD28RoundRect,0.225000X-0.225000X-0.250000X0.225000X-0.250000X0.225000X0.250000X-0.225000X0.250000X0*%
%ADD29RoundRect,0.140000X-0.170000X0.140000X-0.170000X-0.140000X0.170000X-0.140000X0.170000X0.140000X0*%
%ADD30RoundRect,0.150000X-0.512500X-0.150000X0.512500X-0.150000X0.512500X0.150000X-0.512500X0.150000X0*%
G04 APERTURE END LIST*
D10*
%TO.C,R12*%
X144484500Y-160604776D03*
X143464500Y-160604776D03*
%TD*%
D11*
%TO.C,U4*%
X146877000Y-162299776D03*
X146877000Y-162949776D03*
X146877000Y-163599776D03*
X148552000Y-163599776D03*
X148552000Y-162299776D03*
%TD*%
D12*
%TO.C,J3*%
X116194500Y-160940500D03*
X116994500Y-160940500D03*
D13*
X118144500Y-160940500D03*
X119144500Y-160940500D03*
X119644500Y-160940500D03*
X120644500Y-160940500D03*
D12*
X121794500Y-160940500D03*
X122594500Y-160940500D03*
X122594500Y-160940500D03*
X121794500Y-160940500D03*
D13*
X121144500Y-160940500D03*
X120144500Y-160940500D03*
X118644500Y-160940500D03*
X117644500Y-160940500D03*
D12*
X116994500Y-160940500D03*
X116194500Y-160940500D03*
D14*
X115074500Y-161515500D03*
D15*
X115074500Y-165695500D03*
D14*
X123714500Y-161515500D03*
D15*
X123714500Y-165695500D03*
%TD*%
D16*
%TO.C,C11*%
X142319500Y-160649776D03*
X140769500Y-160649776D03*
%TD*%
D17*
%TO.C,R11*%
X143404500Y-161869776D03*
X144424500Y-161869776D03*
%TD*%
D18*
%TO.C,U3*%
X140779500Y-158774776D03*
X141729500Y-158774776D03*
X142679500Y-158774776D03*
X142679500Y-156499776D03*
X141729500Y-156499776D03*
X140779500Y-156499776D03*
%TD*%
D19*
%TO.C,R9*%
X144984500Y-158529776D03*
X144984500Y-159549776D03*
%TD*%
D16*
%TO.C,C7*%
X144089500Y-164019776D03*
X142539500Y-164019776D03*
%TD*%
D20*
%TO.C,C4*%
X141314500Y-148949776D03*
X139414500Y-148949776D03*
%TD*%
D17*
%TO.C,R7*%
X142564500Y-149559776D03*
X143584500Y-149559776D03*
%TD*%
D21*
%TO.C,Q2*%
X142694500Y-151019776D03*
X140794500Y-151019776D03*
X141744500Y-152894776D03*
%TD*%
D20*
%TO.C,C10*%
X145844500Y-154329776D03*
X143944500Y-154329776D03*
%TD*%
D10*
%TO.C,R10*%
X148094500Y-164589776D03*
X147074500Y-164589776D03*
%TD*%
D22*
%TO.C,C5*%
X156154500Y-163817276D03*
X156154500Y-162857276D03*
%TD*%
D23*
%TO.C,C3*%
X152504500Y-160357276D03*
X153464500Y-160357276D03*
%TD*%
D24*
%TO.C,U1*%
X152329500Y-162824776D03*
X152329500Y-164174776D03*
X153679500Y-162824776D03*
X153679500Y-164174776D03*
D25*
X151004500Y-162299776D03*
X151004500Y-162699776D03*
X151004500Y-163099776D03*
X151004500Y-163499776D03*
X151004500Y-163899776D03*
X151004500Y-164299776D03*
X151004500Y-164699776D03*
D26*
X151804500Y-165499776D03*
X152204500Y-165499776D03*
X152604500Y-165499776D03*
X153004500Y-165499776D03*
X153404500Y-165499776D03*
X153804500Y-165499776D03*
X154204500Y-165499776D03*
D25*
X155004500Y-164699776D03*
X155004500Y-164299776D03*
X155004500Y-163899776D03*
X155004500Y-163499776D03*
X155004500Y-163099776D03*
X155004500Y-162699776D03*
X155004500Y-162299776D03*
D26*
X154204500Y-161499776D03*
X153804500Y-161499776D03*
X153404500Y-161499776D03*
X153004500Y-161499776D03*
X152604500Y-161499776D03*
X152204500Y-161499776D03*
X151804500Y-161499776D03*
%TD*%
D27*
%TO.C,Q1*%
X114059500Y-153075500D03*
X114059500Y-151175500D03*
X112184500Y-152125500D03*
%TD*%
D28*
%TO.C,C13*%
X145622000Y-160699776D03*
X147172000Y-160699776D03*
%TD*%
D22*
%TO.C,C12*%
X143964500Y-158599776D03*
X143964500Y-157639776D03*
%TD*%
D28*
%TO.C,C9*%
X140939500Y-154679776D03*
X142489500Y-154679776D03*
%TD*%
D23*
%TO.C,C15*%
X148974500Y-164489776D03*
X149934500Y-164489776D03*
%TD*%
D29*
%TO.C,C2*%
X148347000Y-160449776D03*
X148347000Y-161409776D03*
%TD*%
D30*
%TO.C,U2*%
X113079500Y-154750500D03*
X113079500Y-155700500D03*
X113079500Y-156650500D03*
X115354500Y-156650500D03*
X115354500Y-155700500D03*
X115354500Y-154750500D03*
%TD*%
D10*
%TO.C,R6*%
X146237000Y-164740867D03*
X145217000Y-164740867D03*
%TD*%
D17*
%TO.C,R5*%
X143404500Y-162819776D03*
X144424500Y-162819776D03*
%TD*%
M02*
